M48
METRIC
T1C0.300
T2C0.800
%
G90
G05
T1
X31.369Y-55.626
X60.198Y-64.17
X60.198Y-65.948
X61.849Y-64.77
X62.611Y-58.928
X62.611Y-65.913
X64.008Y-63.881
X65.24Y-65.316
X65.278Y-58.166
X66.548Y-63.246
T2
X29.0Y-39.17
X29.0Y-41.71
X29.0Y-44.25
X29.0Y-46.79
X29.0Y-49.33
X29.0Y-51.87
X29.0Y-54.41
X29.0Y-56.95
X29.0Y-59.49
X29.0Y-62.03
X29.0Y-64.57
X29.0Y-67.11
X29.0Y-69.65
X29.0Y-72.19
X44.24Y-39.17
X44.24Y-41.71
X44.24Y-44.25
X44.24Y-46.79
X44.24Y-49.33
X44.24Y-51.87
X44.24Y-54.41
X44.24Y-56.95
X44.24Y-59.49
X44.24Y-62.03
X44.24Y-64.57
X44.24Y-67.11
X44.24Y-69.65
X44.24Y-72.19
X50.0Y-42.38
X50.0Y-50.0
X50.0Y-61.38
X50.0Y-69.0
X52.54Y-42.38
X52.54Y-50.0
X52.54Y-61.38
X52.54Y-69.0
X55.08Y-42.38
X55.08Y-50.0
X55.08Y-61.38
X55.08Y-69.0
X57.62Y-42.38
X57.62Y-50.0
X57.62Y-61.38
X57.62Y-69.0
X60.16Y-42.38
X60.16Y-50.0
X60.16Y-61.38
X60.16Y-69.0
X62.7Y-42.38
X62.7Y-50.0
X62.7Y-61.38
X62.7Y-69.0
X65.24Y-42.38
X65.24Y-50.0
X65.24Y-61.38
X65.24Y-69.0
X67.78Y-42.38
X67.78Y-50.0
X67.78Y-61.38
X67.78Y-69.0
M30
