%TF.GenerationSoftware,KiCad,Pcbnew,9.0.4*%
%TF.CreationDate,2025-12-25T18:25:57-05:00*%
%TF.ProjectId,DonkeyKongCPUPromReplacement,446f6e6b-6579-44b6-9f6e-674350555072,rev?*%
%TF.SameCoordinates,Original*%
%TF.FileFunction,Legend,Top*%
%TF.FilePolarity,Positive*%
%FSLAX46Y46*%
G04 Gerber Fmt 4.6, Leading zero omitted, Abs format (unit mm)*
G04 Created by KiCad (PCBNEW 9.0.4) date 2025-12-25 18:25:57*
%MOMM*%
%LPD*%
G01*
G04 APERTURE LIST*
%ADD10C,0.300000*%
%ADD11C,0.120000*%
G04 APERTURE END LIST*
D10*
X49749429Y-53797912D02*
X50606572Y-53797912D01*
X50178000Y-55297912D02*
X50178000Y-53797912D01*
X51963714Y-55297912D02*
X51463714Y-54583626D01*
X51106571Y-55297912D02*
X51106571Y-53797912D01*
X51106571Y-53797912D02*
X51678000Y-53797912D01*
X51678000Y-53797912D02*
X51820857Y-53869341D01*
X51820857Y-53869341D02*
X51892286Y-53940769D01*
X51892286Y-53940769D02*
X51963714Y-54083626D01*
X51963714Y-54083626D02*
X51963714Y-54297912D01*
X51963714Y-54297912D02*
X51892286Y-54440769D01*
X51892286Y-54440769D02*
X51820857Y-54512198D01*
X51820857Y-54512198D02*
X51678000Y-54583626D01*
X51678000Y-54583626D02*
X51106571Y-54583626D01*
X52535143Y-55226484D02*
X52749429Y-55297912D01*
X52749429Y-55297912D02*
X53106571Y-55297912D01*
X53106571Y-55297912D02*
X53249429Y-55226484D01*
X53249429Y-55226484D02*
X53320857Y-55155055D01*
X53320857Y-55155055D02*
X53392286Y-55012198D01*
X53392286Y-55012198D02*
X53392286Y-54869341D01*
X53392286Y-54869341D02*
X53320857Y-54726484D01*
X53320857Y-54726484D02*
X53249429Y-54655055D01*
X53249429Y-54655055D02*
X53106571Y-54583626D01*
X53106571Y-54583626D02*
X52820857Y-54512198D01*
X52820857Y-54512198D02*
X52678000Y-54440769D01*
X52678000Y-54440769D02*
X52606571Y-54369341D01*
X52606571Y-54369341D02*
X52535143Y-54226484D01*
X52535143Y-54226484D02*
X52535143Y-54083626D01*
X52535143Y-54083626D02*
X52606571Y-53940769D01*
X52606571Y-53940769D02*
X52678000Y-53869341D01*
X52678000Y-53869341D02*
X52820857Y-53797912D01*
X52820857Y-53797912D02*
X53178000Y-53797912D01*
X53178000Y-53797912D02*
X53392286Y-53869341D01*
X53963714Y-53940769D02*
X54035142Y-53869341D01*
X54035142Y-53869341D02*
X54178000Y-53797912D01*
X54178000Y-53797912D02*
X54535142Y-53797912D01*
X54535142Y-53797912D02*
X54678000Y-53869341D01*
X54678000Y-53869341D02*
X54749428Y-53940769D01*
X54749428Y-53940769D02*
X54820857Y-54083626D01*
X54820857Y-54083626D02*
X54820857Y-54226484D01*
X54820857Y-54226484D02*
X54749428Y-54440769D01*
X54749428Y-54440769D02*
X53892285Y-55297912D01*
X53892285Y-55297912D02*
X54820857Y-55297912D01*
X56535142Y-53726484D02*
X55249428Y-55655055D01*
X56820857Y-53797912D02*
X57678000Y-53797912D01*
X57249428Y-55297912D02*
X57249428Y-53797912D01*
X58177999Y-55297912D02*
X58177999Y-53797912D01*
X59035142Y-55297912D02*
X58392285Y-54440769D01*
X59035142Y-53797912D02*
X58177999Y-54655055D01*
X60463714Y-53869341D02*
X60320857Y-53797912D01*
X60320857Y-53797912D02*
X60106571Y-53797912D01*
X60106571Y-53797912D02*
X59892285Y-53869341D01*
X59892285Y-53869341D02*
X59749428Y-54012198D01*
X59749428Y-54012198D02*
X59677999Y-54155055D01*
X59677999Y-54155055D02*
X59606571Y-54440769D01*
X59606571Y-54440769D02*
X59606571Y-54655055D01*
X59606571Y-54655055D02*
X59677999Y-54940769D01*
X59677999Y-54940769D02*
X59749428Y-55083626D01*
X59749428Y-55083626D02*
X59892285Y-55226484D01*
X59892285Y-55226484D02*
X60106571Y-55297912D01*
X60106571Y-55297912D02*
X60249428Y-55297912D01*
X60249428Y-55297912D02*
X60463714Y-55226484D01*
X60463714Y-55226484D02*
X60535142Y-55155055D01*
X60535142Y-55155055D02*
X60535142Y-54655055D01*
X60535142Y-54655055D02*
X60249428Y-54655055D01*
X62320856Y-55297912D02*
X62320856Y-53797912D01*
X62320856Y-53797912D02*
X62892285Y-53797912D01*
X62892285Y-53797912D02*
X63035142Y-53869341D01*
X63035142Y-53869341D02*
X63106571Y-53940769D01*
X63106571Y-53940769D02*
X63177999Y-54083626D01*
X63177999Y-54083626D02*
X63177999Y-54297912D01*
X63177999Y-54297912D02*
X63106571Y-54440769D01*
X63106571Y-54440769D02*
X63035142Y-54512198D01*
X63035142Y-54512198D02*
X62892285Y-54583626D01*
X62892285Y-54583626D02*
X62320856Y-54583626D01*
X64677999Y-55297912D02*
X64177999Y-54583626D01*
X63820856Y-55297912D02*
X63820856Y-53797912D01*
X63820856Y-53797912D02*
X64392285Y-53797912D01*
X64392285Y-53797912D02*
X64535142Y-53869341D01*
X64535142Y-53869341D02*
X64606571Y-53940769D01*
X64606571Y-53940769D02*
X64677999Y-54083626D01*
X64677999Y-54083626D02*
X64677999Y-54297912D01*
X64677999Y-54297912D02*
X64606571Y-54440769D01*
X64606571Y-54440769D02*
X64535142Y-54512198D01*
X64535142Y-54512198D02*
X64392285Y-54583626D01*
X64392285Y-54583626D02*
X63820856Y-54583626D01*
X65606571Y-53797912D02*
X65892285Y-53797912D01*
X65892285Y-53797912D02*
X66035142Y-53869341D01*
X66035142Y-53869341D02*
X66177999Y-54012198D01*
X66177999Y-54012198D02*
X66249428Y-54297912D01*
X66249428Y-54297912D02*
X66249428Y-54797912D01*
X66249428Y-54797912D02*
X66177999Y-55083626D01*
X66177999Y-55083626D02*
X66035142Y-55226484D01*
X66035142Y-55226484D02*
X65892285Y-55297912D01*
X65892285Y-55297912D02*
X65606571Y-55297912D01*
X65606571Y-55297912D02*
X65463714Y-55226484D01*
X65463714Y-55226484D02*
X65320856Y-55083626D01*
X65320856Y-55083626D02*
X65249428Y-54797912D01*
X65249428Y-54797912D02*
X65249428Y-54297912D01*
X65249428Y-54297912D02*
X65320856Y-54012198D01*
X65320856Y-54012198D02*
X65463714Y-53869341D01*
X65463714Y-53869341D02*
X65606571Y-53797912D01*
X66892285Y-55297912D02*
X66892285Y-53797912D01*
X66892285Y-53797912D02*
X67392285Y-54869341D01*
X67392285Y-54869341D02*
X67892285Y-53797912D01*
X67892285Y-53797912D02*
X67892285Y-55297912D01*
X52892284Y-56927114D02*
X53392284Y-56927114D01*
X53606570Y-57712828D02*
X52892284Y-57712828D01*
X52892284Y-57712828D02*
X52892284Y-56212828D01*
X52892284Y-56212828D02*
X53606570Y-56212828D01*
X54963713Y-57712828D02*
X54249427Y-57712828D01*
X54249427Y-57712828D02*
X54249427Y-56212828D01*
X55463713Y-57712828D02*
X55463713Y-56212828D01*
X56177999Y-57712828D02*
X56177999Y-56212828D01*
X56177999Y-56212828D02*
X56677999Y-57284257D01*
X56677999Y-57284257D02*
X57177999Y-56212828D01*
X57177999Y-56212828D02*
X57177999Y-57712828D01*
X57892285Y-57712828D02*
X57892285Y-56212828D01*
X58606571Y-57712828D02*
X58606571Y-56212828D01*
X58606571Y-56212828D02*
X59463714Y-57712828D01*
X59463714Y-57712828D02*
X59463714Y-56212828D01*
X60106572Y-57284257D02*
X60820858Y-57284257D01*
X59963715Y-57712828D02*
X60463715Y-56212828D01*
X60463715Y-56212828D02*
X60963715Y-57712828D01*
X61249429Y-56212828D02*
X62106572Y-56212828D01*
X61678000Y-57712828D02*
X61678000Y-56212828D01*
X62892286Y-56212828D02*
X63178000Y-56212828D01*
X63178000Y-56212828D02*
X63320857Y-56284257D01*
X63320857Y-56284257D02*
X63463714Y-56427114D01*
X63463714Y-56427114D02*
X63535143Y-56712828D01*
X63535143Y-56712828D02*
X63535143Y-57212828D01*
X63535143Y-57212828D02*
X63463714Y-57498542D01*
X63463714Y-57498542D02*
X63320857Y-57641400D01*
X63320857Y-57641400D02*
X63178000Y-57712828D01*
X63178000Y-57712828D02*
X62892286Y-57712828D01*
X62892286Y-57712828D02*
X62749429Y-57641400D01*
X62749429Y-57641400D02*
X62606571Y-57498542D01*
X62606571Y-57498542D02*
X62535143Y-57212828D01*
X62535143Y-57212828D02*
X62535143Y-56712828D01*
X62535143Y-56712828D02*
X62606571Y-56427114D01*
X62606571Y-56427114D02*
X62749429Y-56284257D01*
X62749429Y-56284257D02*
X62892286Y-56212828D01*
X65035143Y-57712828D02*
X64535143Y-56998542D01*
X64178000Y-57712828D02*
X64178000Y-56212828D01*
X64178000Y-56212828D02*
X64749429Y-56212828D01*
X64749429Y-56212828D02*
X64892286Y-56284257D01*
X64892286Y-56284257D02*
X64963715Y-56355685D01*
X64963715Y-56355685D02*
X65035143Y-56498542D01*
X65035143Y-56498542D02*
X65035143Y-56712828D01*
X65035143Y-56712828D02*
X64963715Y-56855685D01*
X64963715Y-56855685D02*
X64892286Y-56927114D01*
X64892286Y-56927114D02*
X64749429Y-56998542D01*
X64749429Y-56998542D02*
X64178000Y-56998542D01*
X34537841Y-65518855D02*
X34537841Y-64804570D01*
X34966412Y-65661712D02*
X33466412Y-65161712D01*
X33466412Y-65161712D02*
X34966412Y-64661712D01*
X33466412Y-64375998D02*
X33466412Y-63518856D01*
X34966412Y-63947427D02*
X33466412Y-63947427D01*
X33609269Y-63090284D02*
X33537841Y-63018856D01*
X33537841Y-63018856D02*
X33466412Y-62875999D01*
X33466412Y-62875999D02*
X33466412Y-62518856D01*
X33466412Y-62518856D02*
X33537841Y-62375999D01*
X33537841Y-62375999D02*
X33609269Y-62304570D01*
X33609269Y-62304570D02*
X33752126Y-62233141D01*
X33752126Y-62233141D02*
X33894984Y-62233141D01*
X33894984Y-62233141D02*
X34109269Y-62304570D01*
X34109269Y-62304570D02*
X34966412Y-63161713D01*
X34966412Y-63161713D02*
X34966412Y-62233141D01*
X33466412Y-61733142D02*
X33466412Y-60733142D01*
X33466412Y-60733142D02*
X34966412Y-61375999D01*
X34823555Y-59304571D02*
X34894984Y-59375999D01*
X34894984Y-59375999D02*
X34966412Y-59590285D01*
X34966412Y-59590285D02*
X34966412Y-59733142D01*
X34966412Y-59733142D02*
X34894984Y-59947428D01*
X34894984Y-59947428D02*
X34752126Y-60090285D01*
X34752126Y-60090285D02*
X34609269Y-60161714D01*
X34609269Y-60161714D02*
X34323555Y-60233142D01*
X34323555Y-60233142D02*
X34109269Y-60233142D01*
X34109269Y-60233142D02*
X33823555Y-60161714D01*
X33823555Y-60161714D02*
X33680698Y-60090285D01*
X33680698Y-60090285D02*
X33537841Y-59947428D01*
X33537841Y-59947428D02*
X33466412Y-59733142D01*
X33466412Y-59733142D02*
X33466412Y-59590285D01*
X33466412Y-59590285D02*
X33537841Y-59375999D01*
X33537841Y-59375999D02*
X33609269Y-59304571D01*
X33609269Y-58733142D02*
X33537841Y-58661714D01*
X33537841Y-58661714D02*
X33466412Y-58518857D01*
X33466412Y-58518857D02*
X33466412Y-58161714D01*
X33466412Y-58161714D02*
X33537841Y-58018857D01*
X33537841Y-58018857D02*
X33609269Y-57947428D01*
X33609269Y-57947428D02*
X33752126Y-57875999D01*
X33752126Y-57875999D02*
X33894984Y-57875999D01*
X33894984Y-57875999D02*
X34109269Y-57947428D01*
X34109269Y-57947428D02*
X34966412Y-58804571D01*
X34966412Y-58804571D02*
X34966412Y-57875999D01*
X33466412Y-56518857D02*
X33466412Y-57233143D01*
X33466412Y-57233143D02*
X34180698Y-57304571D01*
X34180698Y-57304571D02*
X34109269Y-57233143D01*
X34109269Y-57233143D02*
X34037841Y-57090286D01*
X34037841Y-57090286D02*
X34037841Y-56733143D01*
X34037841Y-56733143D02*
X34109269Y-56590286D01*
X34109269Y-56590286D02*
X34180698Y-56518857D01*
X34180698Y-56518857D02*
X34323555Y-56447428D01*
X34323555Y-56447428D02*
X34680698Y-56447428D01*
X34680698Y-56447428D02*
X34823555Y-56518857D01*
X34823555Y-56518857D02*
X34894984Y-56590286D01*
X34894984Y-56590286D02*
X34966412Y-56733143D01*
X34966412Y-56733143D02*
X34966412Y-57090286D01*
X34966412Y-57090286D02*
X34894984Y-57233143D01*
X34894984Y-57233143D02*
X34823555Y-57304571D01*
X33466412Y-55161715D02*
X33466412Y-55447429D01*
X33466412Y-55447429D02*
X33537841Y-55590286D01*
X33537841Y-55590286D02*
X33609269Y-55661715D01*
X33609269Y-55661715D02*
X33823555Y-55804572D01*
X33823555Y-55804572D02*
X34109269Y-55876000D01*
X34109269Y-55876000D02*
X34680698Y-55876000D01*
X34680698Y-55876000D02*
X34823555Y-55804572D01*
X34823555Y-55804572D02*
X34894984Y-55733143D01*
X34894984Y-55733143D02*
X34966412Y-55590286D01*
X34966412Y-55590286D02*
X34966412Y-55304572D01*
X34966412Y-55304572D02*
X34894984Y-55161715D01*
X34894984Y-55161715D02*
X34823555Y-55090286D01*
X34823555Y-55090286D02*
X34680698Y-55018857D01*
X34680698Y-55018857D02*
X34323555Y-55018857D01*
X34323555Y-55018857D02*
X34180698Y-55090286D01*
X34180698Y-55090286D02*
X34109269Y-55161715D01*
X34109269Y-55161715D02*
X34037841Y-55304572D01*
X34037841Y-55304572D02*
X34037841Y-55590286D01*
X34037841Y-55590286D02*
X34109269Y-55733143D01*
X34109269Y-55733143D02*
X34180698Y-55804572D01*
X34180698Y-55804572D02*
X34323555Y-55876000D01*
X34966412Y-53518858D02*
X34252126Y-54018858D01*
X34966412Y-54376001D02*
X33466412Y-54376001D01*
X33466412Y-54376001D02*
X33466412Y-53804572D01*
X33466412Y-53804572D02*
X33537841Y-53661715D01*
X33537841Y-53661715D02*
X33609269Y-53590286D01*
X33609269Y-53590286D02*
X33752126Y-53518858D01*
X33752126Y-53518858D02*
X33966412Y-53518858D01*
X33966412Y-53518858D02*
X34109269Y-53590286D01*
X34109269Y-53590286D02*
X34180698Y-53661715D01*
X34180698Y-53661715D02*
X34252126Y-53804572D01*
X34252126Y-53804572D02*
X34252126Y-54376001D01*
X34394984Y-52876001D02*
X34394984Y-51733144D01*
X33966412Y-50376001D02*
X34966412Y-50376001D01*
X33394984Y-50733143D02*
X34466412Y-51090286D01*
X34466412Y-51090286D02*
X34466412Y-50161715D01*
X33466412Y-48876001D02*
X33466412Y-49590287D01*
X33466412Y-49590287D02*
X34180698Y-49661715D01*
X34180698Y-49661715D02*
X34109269Y-49590287D01*
X34109269Y-49590287D02*
X34037841Y-49447430D01*
X34037841Y-49447430D02*
X34037841Y-49090287D01*
X34037841Y-49090287D02*
X34109269Y-48947430D01*
X34109269Y-48947430D02*
X34180698Y-48876001D01*
X34180698Y-48876001D02*
X34323555Y-48804572D01*
X34323555Y-48804572D02*
X34680698Y-48804572D01*
X34680698Y-48804572D02*
X34823555Y-48876001D01*
X34823555Y-48876001D02*
X34894984Y-48947430D01*
X34894984Y-48947430D02*
X34966412Y-49090287D01*
X34966412Y-49090287D02*
X34966412Y-49447430D01*
X34966412Y-49447430D02*
X34894984Y-49590287D01*
X34894984Y-49590287D02*
X34823555Y-49661715D01*
X34966412Y-48161716D02*
X33466412Y-48161716D01*
X33466412Y-48161716D02*
X33466412Y-47590287D01*
X33466412Y-47590287D02*
X33537841Y-47447430D01*
X33537841Y-47447430D02*
X33609269Y-47376001D01*
X33609269Y-47376001D02*
X33752126Y-47304573D01*
X33752126Y-47304573D02*
X33966412Y-47304573D01*
X33966412Y-47304573D02*
X34109269Y-47376001D01*
X34109269Y-47376001D02*
X34180698Y-47447430D01*
X34180698Y-47447430D02*
X34252126Y-47590287D01*
X34252126Y-47590287D02*
X34252126Y-48161716D01*
X33466412Y-46661716D02*
X34680698Y-46661716D01*
X34680698Y-46661716D02*
X34823555Y-46590287D01*
X34823555Y-46590287D02*
X34894984Y-46518859D01*
X34894984Y-46518859D02*
X34966412Y-46376001D01*
X34966412Y-46376001D02*
X34966412Y-46090287D01*
X34966412Y-46090287D02*
X34894984Y-45947430D01*
X34894984Y-45947430D02*
X34823555Y-45876001D01*
X34823555Y-45876001D02*
X34680698Y-45804573D01*
X34680698Y-45804573D02*
X33466412Y-45804573D01*
X37381328Y-64161714D02*
X37381328Y-64876000D01*
X37381328Y-64876000D02*
X35881328Y-64876000D01*
X35881328Y-63375999D02*
X35881328Y-63090285D01*
X35881328Y-63090285D02*
X35952757Y-62947428D01*
X35952757Y-62947428D02*
X36095614Y-62804571D01*
X36095614Y-62804571D02*
X36381328Y-62733142D01*
X36381328Y-62733142D02*
X36881328Y-62733142D01*
X36881328Y-62733142D02*
X37167042Y-62804571D01*
X37167042Y-62804571D02*
X37309900Y-62947428D01*
X37309900Y-62947428D02*
X37381328Y-63090285D01*
X37381328Y-63090285D02*
X37381328Y-63375999D01*
X37381328Y-63375999D02*
X37309900Y-63518857D01*
X37309900Y-63518857D02*
X37167042Y-63661714D01*
X37167042Y-63661714D02*
X36881328Y-63733142D01*
X36881328Y-63733142D02*
X36381328Y-63733142D01*
X36381328Y-63733142D02*
X36095614Y-63661714D01*
X36095614Y-63661714D02*
X35952757Y-63518857D01*
X35952757Y-63518857D02*
X35881328Y-63375999D01*
X35881328Y-62233142D02*
X37381328Y-61875999D01*
X37381328Y-61875999D02*
X36309900Y-61590285D01*
X36309900Y-61590285D02*
X37381328Y-61304570D01*
X37381328Y-61304570D02*
X35881328Y-60947428D01*
X36595614Y-58733142D02*
X36667042Y-58518856D01*
X36667042Y-58518856D02*
X36738471Y-58447427D01*
X36738471Y-58447427D02*
X36881328Y-58375999D01*
X36881328Y-58375999D02*
X37095614Y-58375999D01*
X37095614Y-58375999D02*
X37238471Y-58447427D01*
X37238471Y-58447427D02*
X37309900Y-58518856D01*
X37309900Y-58518856D02*
X37381328Y-58661713D01*
X37381328Y-58661713D02*
X37381328Y-59233142D01*
X37381328Y-59233142D02*
X35881328Y-59233142D01*
X35881328Y-59233142D02*
X35881328Y-58733142D01*
X35881328Y-58733142D02*
X35952757Y-58590285D01*
X35952757Y-58590285D02*
X36024185Y-58518856D01*
X36024185Y-58518856D02*
X36167042Y-58447427D01*
X36167042Y-58447427D02*
X36309900Y-58447427D01*
X36309900Y-58447427D02*
X36452757Y-58518856D01*
X36452757Y-58518856D02*
X36524185Y-58590285D01*
X36524185Y-58590285D02*
X36595614Y-58733142D01*
X36595614Y-58733142D02*
X36595614Y-59233142D01*
X37381328Y-57733142D02*
X35881328Y-57733142D01*
X35881328Y-57233141D02*
X35881328Y-56375999D01*
X37381328Y-56804570D02*
X35881328Y-56804570D01*
X37309900Y-55947427D02*
X37381328Y-55733142D01*
X37381328Y-55733142D02*
X37381328Y-55375999D01*
X37381328Y-55375999D02*
X37309900Y-55233142D01*
X37309900Y-55233142D02*
X37238471Y-55161713D01*
X37238471Y-55161713D02*
X37095614Y-55090284D01*
X37095614Y-55090284D02*
X36952757Y-55090284D01*
X36952757Y-55090284D02*
X36809900Y-55161713D01*
X36809900Y-55161713D02*
X36738471Y-55233142D01*
X36738471Y-55233142D02*
X36667042Y-55375999D01*
X36667042Y-55375999D02*
X36595614Y-55661713D01*
X36595614Y-55661713D02*
X36524185Y-55804570D01*
X36524185Y-55804570D02*
X36452757Y-55875999D01*
X36452757Y-55875999D02*
X36309900Y-55947427D01*
X36309900Y-55947427D02*
X36167042Y-55947427D01*
X36167042Y-55947427D02*
X36024185Y-55875999D01*
X36024185Y-55875999D02*
X35952757Y-55804570D01*
X35952757Y-55804570D02*
X35881328Y-55661713D01*
X35881328Y-55661713D02*
X35881328Y-55304570D01*
X35881328Y-55304570D02*
X35952757Y-55090284D01*
X37238471Y-54447428D02*
X37309900Y-54375999D01*
X37309900Y-54375999D02*
X37381328Y-54447428D01*
X37381328Y-54447428D02*
X37309900Y-54518856D01*
X37309900Y-54518856D02*
X37238471Y-54447428D01*
X37238471Y-54447428D02*
X37381328Y-54447428D01*
X36452757Y-54447428D02*
X36524185Y-54375999D01*
X36524185Y-54375999D02*
X36595614Y-54447428D01*
X36595614Y-54447428D02*
X36524185Y-54518856D01*
X36524185Y-54518856D02*
X36452757Y-54447428D01*
X36452757Y-54447428D02*
X36595614Y-54447428D01*
X36024185Y-52661713D02*
X35952757Y-52590285D01*
X35952757Y-52590285D02*
X35881328Y-52447428D01*
X35881328Y-52447428D02*
X35881328Y-52090285D01*
X35881328Y-52090285D02*
X35952757Y-51947428D01*
X35952757Y-51947428D02*
X36024185Y-51875999D01*
X36024185Y-51875999D02*
X36167042Y-51804570D01*
X36167042Y-51804570D02*
X36309900Y-51804570D01*
X36309900Y-51804570D02*
X36524185Y-51875999D01*
X36524185Y-51875999D02*
X37381328Y-52733142D01*
X37381328Y-52733142D02*
X37381328Y-51804570D01*
X35881328Y-50733142D02*
X36952757Y-50733142D01*
X36952757Y-50733142D02*
X37167042Y-50804571D01*
X37167042Y-50804571D02*
X37309900Y-50947428D01*
X37309900Y-50947428D02*
X37381328Y-51161714D01*
X37381328Y-51161714D02*
X37381328Y-51304571D01*
X35809900Y-48947428D02*
X37738471Y-50233142D01*
X35881328Y-48590285D02*
X35881328Y-47661713D01*
X35881328Y-47661713D02*
X36452757Y-48161713D01*
X36452757Y-48161713D02*
X36452757Y-47947428D01*
X36452757Y-47947428D02*
X36524185Y-47804571D01*
X36524185Y-47804571D02*
X36595614Y-47733142D01*
X36595614Y-47733142D02*
X36738471Y-47661713D01*
X36738471Y-47661713D02*
X37095614Y-47661713D01*
X37095614Y-47661713D02*
X37238471Y-47733142D01*
X37238471Y-47733142D02*
X37309900Y-47804571D01*
X37309900Y-47804571D02*
X37381328Y-47947428D01*
X37381328Y-47947428D02*
X37381328Y-48375999D01*
X37381328Y-48375999D02*
X37309900Y-48518856D01*
X37309900Y-48518856D02*
X37238471Y-48590285D01*
X36595614Y-47018857D02*
X36595614Y-46518857D01*
X37381328Y-46304571D02*
X37381328Y-47018857D01*
X37381328Y-47018857D02*
X35881328Y-47018857D01*
X35881328Y-47018857D02*
X35881328Y-46304571D01*
X39796244Y-65447428D02*
X38296244Y-65447428D01*
X39010530Y-65447428D02*
X39010530Y-64590285D01*
X39796244Y-64590285D02*
X38296244Y-64590285D01*
X39796244Y-63875999D02*
X38296244Y-63875999D01*
X38367673Y-62375998D02*
X38296244Y-62518856D01*
X38296244Y-62518856D02*
X38296244Y-62733141D01*
X38296244Y-62733141D02*
X38367673Y-62947427D01*
X38367673Y-62947427D02*
X38510530Y-63090284D01*
X38510530Y-63090284D02*
X38653387Y-63161713D01*
X38653387Y-63161713D02*
X38939101Y-63233141D01*
X38939101Y-63233141D02*
X39153387Y-63233141D01*
X39153387Y-63233141D02*
X39439101Y-63161713D01*
X39439101Y-63161713D02*
X39581958Y-63090284D01*
X39581958Y-63090284D02*
X39724816Y-62947427D01*
X39724816Y-62947427D02*
X39796244Y-62733141D01*
X39796244Y-62733141D02*
X39796244Y-62590284D01*
X39796244Y-62590284D02*
X39724816Y-62375998D01*
X39724816Y-62375998D02*
X39653387Y-62304570D01*
X39653387Y-62304570D02*
X39153387Y-62304570D01*
X39153387Y-62304570D02*
X39153387Y-62590284D01*
X39796244Y-61661713D02*
X38296244Y-61661713D01*
X39010530Y-61661713D02*
X39010530Y-60804570D01*
X39796244Y-60804570D02*
X38296244Y-60804570D01*
X39010530Y-58447427D02*
X39081958Y-58233141D01*
X39081958Y-58233141D02*
X39153387Y-58161712D01*
X39153387Y-58161712D02*
X39296244Y-58090284D01*
X39296244Y-58090284D02*
X39510530Y-58090284D01*
X39510530Y-58090284D02*
X39653387Y-58161712D01*
X39653387Y-58161712D02*
X39724816Y-58233141D01*
X39724816Y-58233141D02*
X39796244Y-58375998D01*
X39796244Y-58375998D02*
X39796244Y-58947427D01*
X39796244Y-58947427D02*
X38296244Y-58947427D01*
X38296244Y-58947427D02*
X38296244Y-58447427D01*
X38296244Y-58447427D02*
X38367673Y-58304570D01*
X38367673Y-58304570D02*
X38439101Y-58233141D01*
X38439101Y-58233141D02*
X38581958Y-58161712D01*
X38581958Y-58161712D02*
X38724816Y-58161712D01*
X38724816Y-58161712D02*
X38867673Y-58233141D01*
X38867673Y-58233141D02*
X38939101Y-58304570D01*
X38939101Y-58304570D02*
X39010530Y-58447427D01*
X39010530Y-58447427D02*
X39010530Y-58947427D01*
X39796244Y-57447427D02*
X38296244Y-57447427D01*
X38296244Y-56947426D02*
X38296244Y-56090284D01*
X39796244Y-56518855D02*
X38296244Y-56518855D01*
X39724816Y-55661712D02*
X39796244Y-55447427D01*
X39796244Y-55447427D02*
X39796244Y-55090284D01*
X39796244Y-55090284D02*
X39724816Y-54947427D01*
X39724816Y-54947427D02*
X39653387Y-54875998D01*
X39653387Y-54875998D02*
X39510530Y-54804569D01*
X39510530Y-54804569D02*
X39367673Y-54804569D01*
X39367673Y-54804569D02*
X39224816Y-54875998D01*
X39224816Y-54875998D02*
X39153387Y-54947427D01*
X39153387Y-54947427D02*
X39081958Y-55090284D01*
X39081958Y-55090284D02*
X39010530Y-55375998D01*
X39010530Y-55375998D02*
X38939101Y-55518855D01*
X38939101Y-55518855D02*
X38867673Y-55590284D01*
X38867673Y-55590284D02*
X38724816Y-55661712D01*
X38724816Y-55661712D02*
X38581958Y-55661712D01*
X38581958Y-55661712D02*
X38439101Y-55590284D01*
X38439101Y-55590284D02*
X38367673Y-55518855D01*
X38367673Y-55518855D02*
X38296244Y-55375998D01*
X38296244Y-55375998D02*
X38296244Y-55018855D01*
X38296244Y-55018855D02*
X38367673Y-54804569D01*
X39653387Y-54161713D02*
X39724816Y-54090284D01*
X39724816Y-54090284D02*
X39796244Y-54161713D01*
X39796244Y-54161713D02*
X39724816Y-54233141D01*
X39724816Y-54233141D02*
X39653387Y-54161713D01*
X39653387Y-54161713D02*
X39796244Y-54161713D01*
X38867673Y-54161713D02*
X38939101Y-54090284D01*
X38939101Y-54090284D02*
X39010530Y-54161713D01*
X39010530Y-54161713D02*
X38939101Y-54233141D01*
X38939101Y-54233141D02*
X38867673Y-54161713D01*
X38867673Y-54161713D02*
X39010530Y-54161713D01*
X38439101Y-52375998D02*
X38367673Y-52304570D01*
X38367673Y-52304570D02*
X38296244Y-52161713D01*
X38296244Y-52161713D02*
X38296244Y-51804570D01*
X38296244Y-51804570D02*
X38367673Y-51661713D01*
X38367673Y-51661713D02*
X38439101Y-51590284D01*
X38439101Y-51590284D02*
X38581958Y-51518855D01*
X38581958Y-51518855D02*
X38724816Y-51518855D01*
X38724816Y-51518855D02*
X38939101Y-51590284D01*
X38939101Y-51590284D02*
X39796244Y-52447427D01*
X39796244Y-52447427D02*
X39796244Y-51518855D01*
X39796244Y-50875999D02*
X38296244Y-50875999D01*
X39796244Y-50018856D02*
X38939101Y-50661713D01*
X38296244Y-50018856D02*
X39153387Y-50875999D01*
X38224816Y-48304570D02*
X40153387Y-49590284D01*
X38296244Y-47947427D02*
X38296244Y-47018855D01*
X38296244Y-47018855D02*
X38867673Y-47518855D01*
X38867673Y-47518855D02*
X38867673Y-47304570D01*
X38867673Y-47304570D02*
X38939101Y-47161713D01*
X38939101Y-47161713D02*
X39010530Y-47090284D01*
X39010530Y-47090284D02*
X39153387Y-47018855D01*
X39153387Y-47018855D02*
X39510530Y-47018855D01*
X39510530Y-47018855D02*
X39653387Y-47090284D01*
X39653387Y-47090284D02*
X39724816Y-47161713D01*
X39724816Y-47161713D02*
X39796244Y-47304570D01*
X39796244Y-47304570D02*
X39796244Y-47733141D01*
X39796244Y-47733141D02*
X39724816Y-47875998D01*
X39724816Y-47875998D02*
X39653387Y-47947427D01*
X39010530Y-45875999D02*
X39010530Y-46375999D01*
X39796244Y-46375999D02*
X38296244Y-46375999D01*
X38296244Y-46375999D02*
X38296244Y-45661713D01*
X55568572Y-45549185D02*
X55640000Y-45477757D01*
X55640000Y-45477757D02*
X55782858Y-45406328D01*
X55782858Y-45406328D02*
X56140000Y-45406328D01*
X56140000Y-45406328D02*
X56282858Y-45477757D01*
X56282858Y-45477757D02*
X56354286Y-45549185D01*
X56354286Y-45549185D02*
X56425715Y-45692042D01*
X56425715Y-45692042D02*
X56425715Y-45834900D01*
X56425715Y-45834900D02*
X56354286Y-46049185D01*
X56354286Y-46049185D02*
X55497143Y-46906328D01*
X55497143Y-46906328D02*
X56425715Y-46906328D01*
X57068571Y-46906328D02*
X57068571Y-45406328D01*
X57925714Y-46906328D02*
X57282857Y-46049185D01*
X57925714Y-45406328D02*
X57068571Y-46263471D01*
X59640000Y-45334900D02*
X58354286Y-47263471D01*
X59997143Y-45406328D02*
X60925715Y-45406328D01*
X60925715Y-45406328D02*
X60425715Y-45977757D01*
X60425715Y-45977757D02*
X60640000Y-45977757D01*
X60640000Y-45977757D02*
X60782858Y-46049185D01*
X60782858Y-46049185D02*
X60854286Y-46120614D01*
X60854286Y-46120614D02*
X60925715Y-46263471D01*
X60925715Y-46263471D02*
X60925715Y-46620614D01*
X60925715Y-46620614D02*
X60854286Y-46763471D01*
X60854286Y-46763471D02*
X60782858Y-46834900D01*
X60782858Y-46834900D02*
X60640000Y-46906328D01*
X60640000Y-46906328D02*
X60211429Y-46906328D01*
X60211429Y-46906328D02*
X60068572Y-46834900D01*
X60068572Y-46834900D02*
X59997143Y-46763471D01*
X62068571Y-46120614D02*
X61568571Y-46120614D01*
X61568571Y-46906328D02*
X61568571Y-45406328D01*
X61568571Y-45406328D02*
X62282857Y-45406328D01*
X55711429Y-64472185D02*
X55782857Y-64400757D01*
X55782857Y-64400757D02*
X55925715Y-64329328D01*
X55925715Y-64329328D02*
X56282857Y-64329328D01*
X56282857Y-64329328D02*
X56425715Y-64400757D01*
X56425715Y-64400757D02*
X56497143Y-64472185D01*
X56497143Y-64472185D02*
X56568572Y-64615042D01*
X56568572Y-64615042D02*
X56568572Y-64757900D01*
X56568572Y-64757900D02*
X56497143Y-64972185D01*
X56497143Y-64972185D02*
X55640000Y-65829328D01*
X55640000Y-65829328D02*
X56568572Y-65829328D01*
X57640000Y-64329328D02*
X57640000Y-65400757D01*
X57640000Y-65400757D02*
X57568571Y-65615042D01*
X57568571Y-65615042D02*
X57425714Y-65757900D01*
X57425714Y-65757900D02*
X57211428Y-65829328D01*
X57211428Y-65829328D02*
X57068571Y-65829328D01*
X59425714Y-64257900D02*
X58140000Y-66186471D01*
X59782857Y-64329328D02*
X60711429Y-64329328D01*
X60711429Y-64329328D02*
X60211429Y-64900757D01*
X60211429Y-64900757D02*
X60425714Y-64900757D01*
X60425714Y-64900757D02*
X60568572Y-64972185D01*
X60568572Y-64972185D02*
X60640000Y-65043614D01*
X60640000Y-65043614D02*
X60711429Y-65186471D01*
X60711429Y-65186471D02*
X60711429Y-65543614D01*
X60711429Y-65543614D02*
X60640000Y-65686471D01*
X60640000Y-65686471D02*
X60568572Y-65757900D01*
X60568572Y-65757900D02*
X60425714Y-65829328D01*
X60425714Y-65829328D02*
X59997143Y-65829328D01*
X59997143Y-65829328D02*
X59854286Y-65757900D01*
X59854286Y-65757900D02*
X59782857Y-65686471D01*
X61354285Y-65043614D02*
X61854285Y-65043614D01*
X62068571Y-65829328D02*
X61354285Y-65829328D01*
X61354285Y-65829328D02*
X61354285Y-64329328D01*
X61354285Y-64329328D02*
X62068571Y-64329328D01*
D11*
%TO.C,J1*%
X48670000Y-62540000D02*
X48670000Y-64190000D01*
X48670000Y-66190000D02*
X48670000Y-67840000D01*
X48670000Y-67840000D02*
X69110000Y-67840000D01*
X69110000Y-62540000D02*
X48670000Y-62540000D01*
X69110000Y-67840000D02*
X69110000Y-62540000D01*
X48670000Y-64190000D02*
G75*
G02*
X48670000Y-66190000I0J-1000000D01*
G01*
%TO.C,U1*%
X27670000Y-37780000D02*
X27670000Y-73580000D01*
X27670000Y-73580000D02*
X45570000Y-73580000D01*
X30160000Y-37840000D02*
X30160000Y-73520000D01*
X30160000Y-73520000D02*
X43080000Y-73520000D01*
X35620000Y-37840000D02*
X30160000Y-37840000D01*
X43080000Y-37840000D02*
X37620000Y-37840000D01*
X43080000Y-73520000D02*
X43080000Y-37840000D01*
X45570000Y-37780000D02*
X27670000Y-37780000D01*
X45570000Y-73580000D02*
X45570000Y-37780000D01*
X37620000Y-37840000D02*
G75*
G02*
X35620000Y-37840000I-1000000J0D01*
G01*
%TO.C,J2*%
X48670000Y-43540000D02*
X48670000Y-45190000D01*
X48670000Y-47190000D02*
X48670000Y-48840000D01*
X48670000Y-48840000D02*
X69110000Y-48840000D01*
X69110000Y-43540000D02*
X48670000Y-43540000D01*
X69110000Y-48840000D02*
X69110000Y-43540000D01*
X48670000Y-45190000D02*
G75*
G02*
X48670000Y-47190000I0J-1000000D01*
G01*
%TD*%
M02*
