%TF.GenerationSoftware,KiCad,Pcbnew,9.0.4*%
%TF.CreationDate,2025-12-25T18:25:57-05:00*%
%TF.ProjectId,DonkeyKongCPUPromReplacement,446f6e6b-6579-44b6-9f6e-674350555072,rev?*%
%TF.SameCoordinates,Original*%
%TF.FileFunction,Copper,L2,Bot*%
%TF.FilePolarity,Positive*%
%FSLAX46Y46*%
G04 Gerber Fmt 4.6, Leading zero omitted, Abs format (unit mm)*
G04 Created by KiCad (PCBNEW 9.0.4) date 2025-12-25 18:25:57*
%MOMM*%
%LPD*%
G01*
G04 APERTURE LIST*
%TA.AperFunction,ComponentPad*%
%ADD10R,1.600000X1.600000*%
%TD*%
%TA.AperFunction,ComponentPad*%
%ADD11O,1.600000X1.600000*%
%TD*%
%TA.AperFunction,ViaPad*%
%ADD12C,0.600000*%
%TD*%
%TA.AperFunction,Conductor*%
%ADD13C,1.000000*%
%TD*%
%TA.AperFunction,Conductor*%
%ADD14C,0.200000*%
%TD*%
G04 APERTURE END LIST*
D10*
%TO.P,J1,1,Pin_1*%
%TO.N,unconnected-(J1-Pin_1-Pad1)*%
X50000000Y-69000000D03*
D11*
%TO.P,J1,2,Pin_2*%
%TO.N,unconnected-(J1-Pin_2-Pad2)*%
X52540000Y-69000000D03*
%TO.P,J1,3,Pin_3*%
%TO.N,unconnected-(J1-Pin_3-Pad3)*%
X55080000Y-69000000D03*
%TO.P,J1,4,Pin_4*%
%TO.N,unconnected-(J1-Pin_4-Pad4)*%
X57620000Y-69000000D03*
%TO.P,J1,5,Pin_5*%
%TO.N,unconnected-(J1-Pin_5-Pad5)*%
X60160000Y-69000000D03*
%TO.P,J1,6,Pin_6*%
%TO.N,unconnected-(J1-Pin_6-Pad6)*%
X62700000Y-69000000D03*
%TO.P,J1,7,Pin_7*%
%TO.N,unconnected-(J1-Pin_7-Pad7)*%
X65240000Y-69000000D03*
%TO.P,J1,8,Pin_8*%
%TO.N,GND*%
X67780000Y-69000000D03*
%TO.P,J1,9,Pin_9*%
%TO.N,2E_D3*%
X67780000Y-61380000D03*
%TO.P,J1,10,Pin_10*%
%TO.N,2E_D2*%
X65240000Y-61380000D03*
%TO.P,J1,11,Pin_11*%
%TO.N,2E_D1*%
X62700000Y-61380000D03*
%TO.P,J1,12,Pin_12*%
%TO.N,2E_D0*%
X60160000Y-61380000D03*
%TO.P,J1,13,Pin_13*%
%TO.N,CS*%
X57620000Y-61380000D03*
%TO.P,J1,14,Pin_14*%
X55080000Y-61380000D03*
%TO.P,J1,15,Pin_15*%
%TO.N,unconnected-(J1-Pin_15-Pad15)*%
X52540000Y-61380000D03*
%TO.P,J1,16,Pin_16*%
%TO.N,unconnected-(J1-Pin_16-Pad16)*%
X50000000Y-61380000D03*
%TD*%
D10*
%TO.P,U1,1,VPP*%
%TO.N,+5V*%
X29000000Y-39170000D03*
D11*
%TO.P,U1,2,A12*%
%TO.N,GND*%
X29000000Y-41710000D03*
%TO.P,U1,3,A7*%
%TO.N,A7*%
X29000000Y-44250000D03*
%TO.P,U1,4,A6*%
%TO.N,A6*%
X29000000Y-46790000D03*
%TO.P,U1,5,A5*%
%TO.N,A5*%
X29000000Y-49330000D03*
%TO.P,U1,6,A4*%
%TO.N,A4*%
X29000000Y-51870000D03*
%TO.P,U1,7,A3*%
%TO.N,A3*%
X29000000Y-54410000D03*
%TO.P,U1,8,A2*%
%TO.N,A2*%
X29000000Y-56950000D03*
%TO.P,U1,9,A1*%
%TO.N,A1*%
X29000000Y-59490000D03*
%TO.P,U1,10,A0*%
%TO.N,A0*%
X29000000Y-62030000D03*
%TO.P,U1,11,D0*%
%TO.N,2E_D0*%
X29000000Y-64570000D03*
%TO.P,U1,12,D1*%
%TO.N,2E_D1*%
X29000000Y-67110000D03*
%TO.P,U1,13,D2*%
%TO.N,2E_D2*%
X29000000Y-69650000D03*
%TO.P,U1,14,GND*%
%TO.N,GND*%
X29000000Y-72190000D03*
%TO.P,U1,15,D3*%
%TO.N,2E_D3*%
X44240000Y-72190000D03*
%TO.P,U1,16,D4*%
%TO.N,2F_D0*%
X44240000Y-69650000D03*
%TO.P,U1,17,D5*%
%TO.N,2F_D1*%
X44240000Y-67110000D03*
%TO.P,U1,18,D6*%
%TO.N,2F_D2*%
X44240000Y-64570000D03*
%TO.P,U1,19,D7*%
%TO.N,2F_D3*%
X44240000Y-62030000D03*
%TO.P,U1,20,~{CE}*%
%TO.N,CS*%
X44240000Y-59490000D03*
%TO.P,U1,21,A10*%
%TO.N,GND*%
X44240000Y-56950000D03*
%TO.P,U1,22,~{OE}*%
%TO.N,CS*%
X44240000Y-54410000D03*
%TO.P,U1,23,A11*%
%TO.N,GND*%
X44240000Y-51870000D03*
%TO.P,U1,24,A9*%
X44240000Y-49330000D03*
%TO.P,U1,25,A8*%
X44240000Y-46790000D03*
%TO.P,U1,26,A13*%
X44240000Y-44250000D03*
%TO.P,U1,27,A14*%
X44240000Y-41710000D03*
%TO.P,U1,28,VCC*%
%TO.N,+5V*%
X44240000Y-39170000D03*
%TD*%
D10*
%TO.P,J2,1,Pin_1*%
%TO.N,A6*%
X50000000Y-50000000D03*
D11*
%TO.P,J2,2,Pin_2*%
%TO.N,A5*%
X52540000Y-50000000D03*
%TO.P,J2,3,Pin_3*%
%TO.N,A4*%
X55080000Y-50000000D03*
%TO.P,J2,4,Pin_4*%
%TO.N,A3*%
X57620000Y-50000000D03*
%TO.P,J2,5,Pin_5*%
%TO.N,A0*%
X60160000Y-50000000D03*
%TO.P,J2,6,Pin_6*%
%TO.N,A1*%
X62700000Y-50000000D03*
%TO.P,J2,7,Pin_7*%
%TO.N,A2*%
X65240000Y-50000000D03*
%TO.P,J2,8,Pin_8*%
%TO.N,unconnected-(J2-Pin_8-Pad8)*%
X67780000Y-50000000D03*
%TO.P,J2,9,Pin_9*%
%TO.N,2F_D3*%
X67780000Y-42380000D03*
%TO.P,J2,10,Pin_10*%
%TO.N,2F_D2*%
X65240000Y-42380000D03*
%TO.P,J2,11,Pin_11*%
%TO.N,2F_D1*%
X62700000Y-42380000D03*
%TO.P,J2,12,Pin_12*%
%TO.N,2F_D0*%
X60160000Y-42380000D03*
%TO.P,J2,13,Pin_13*%
%TO.N,unconnected-(J2-Pin_13-Pad13)*%
X57620000Y-42380000D03*
%TO.P,J2,14,Pin_14*%
%TO.N,unconnected-(J2-Pin_14-Pad14)*%
X55080000Y-42380000D03*
%TO.P,J2,15,Pin_15*%
%TO.N,A7*%
X52540000Y-42380000D03*
%TO.P,J2,16,Pin_16*%
%TO.N,+5V*%
X50000000Y-42380000D03*
%TD*%
D12*
%TO.N,2E_D0*%
X60198000Y-64170000D03*
%TO.N,2E_D1*%
X62611000Y-65913000D03*
%TO.N,2E_D2*%
X65240000Y-65316000D03*
%TO.N,2F_D2*%
X64008000Y-63881000D03*
%TO.N,A1*%
X62611000Y-58928000D03*
%TO.N,A0*%
X31369000Y-55626000D03*
%TO.N,2F_D0*%
X60198000Y-65948000D03*
%TO.N,2F_D1*%
X61849000Y-64770000D03*
%TO.N,2F_D3*%
X66548000Y-63246000D03*
%TO.N,A2*%
X65278000Y-58166000D03*
%TD*%
D13*
%TO.N,GND*%
X29000000Y-72190000D02*
X38681000Y-72190000D01*
X38681000Y-72190000D02*
X41656000Y-69215000D01*
X41656000Y-61341000D02*
X41656000Y-52705000D01*
X44240000Y-51870000D02*
X44240000Y-41710000D01*
X41656000Y-52705000D02*
X42491000Y-51870000D01*
X41656000Y-58166000D02*
X42872000Y-56950000D01*
X42491000Y-51870000D02*
X44240000Y-51870000D01*
X41656000Y-69215000D02*
X41656000Y-61341000D01*
X41656000Y-61341000D02*
X41656000Y-58166000D01*
X42872000Y-56950000D02*
X44240000Y-56950000D01*
D14*
%TO.N,CS*%
X46609000Y-55245000D02*
X45774000Y-54410000D01*
X53190000Y-59490000D02*
X44240000Y-59490000D01*
X45793000Y-59490000D02*
X46609000Y-58674000D01*
X45774000Y-54410000D02*
X44240000Y-54410000D01*
X46609000Y-58674000D02*
X46609000Y-55245000D01*
X44240000Y-59490000D02*
X45793000Y-59490000D01*
X55080000Y-61380000D02*
X53190000Y-59490000D01*
%TO.N,2E_D0*%
X60160000Y-64132000D02*
X60198000Y-64170000D01*
X60160000Y-61380000D02*
X60160000Y-64132000D01*
%TO.N,2E_D1*%
X62700000Y-61380000D02*
X62700000Y-65824000D01*
X62700000Y-65824000D02*
X62611000Y-65913000D01*
%TO.N,2E_D2*%
X65240000Y-61380000D02*
X65240000Y-65316000D01*
%TO.N,2F_D2*%
X65240000Y-45885000D02*
X65240000Y-42380000D01*
X64008000Y-47117000D02*
X65240000Y-45885000D01*
X64008000Y-63881000D02*
X64008000Y-47117000D01*
%TO.N,A1*%
X62700000Y-58839000D02*
X62611000Y-58928000D01*
X62700000Y-50000000D02*
X62700000Y-58839000D01*
%TO.N,A0*%
X30172000Y-62030000D02*
X29000000Y-62030000D01*
X31369000Y-60833000D02*
X30172000Y-62030000D01*
X31369000Y-55626000D02*
X31369000Y-60833000D01*
%TO.N,2F_D0*%
X60198000Y-65948000D02*
X58928000Y-64678000D01*
X60160000Y-45936000D02*
X60160000Y-42380000D01*
X58928000Y-47168000D02*
X60160000Y-45936000D01*
X58928000Y-64678000D02*
X58928000Y-47168000D01*
%TO.N,2F_D1*%
X62700000Y-45885000D02*
X62700000Y-45720000D01*
X61468000Y-64389000D02*
X61468000Y-47117000D01*
X61849000Y-64770000D02*
X61468000Y-64389000D01*
X62700000Y-45720000D02*
X62700000Y-42380000D01*
X62700000Y-45809000D02*
X62700000Y-45720000D01*
X61468000Y-47117000D02*
X62700000Y-45885000D01*
%TO.N,2F_D3*%
X67780000Y-45885000D02*
X67780000Y-42380000D01*
X66548000Y-63246000D02*
X66548000Y-47117000D01*
X66548000Y-47117000D02*
X67780000Y-45885000D01*
%TO.N,A2*%
X65278000Y-58166000D02*
X65240000Y-58128000D01*
X65240000Y-58128000D02*
X65240000Y-50000000D01*
%TD*%
M02*
