G04 #@! TF.GenerationSoftware,KiCad,Pcbnew,(5.1.4)-1*
G04 #@! TF.CreationDate,2021-03-20T22:52:07-04:00*
G04 #@! TF.ProjectId,27C256_to_82s137,32374332-3536-45f7-946f-5f3832733133,rev?*
G04 #@! TF.SameCoordinates,Original*
G04 #@! TF.FileFunction,Legend,Top*
G04 #@! TF.FilePolarity,Positive*
%FSLAX46Y46*%
G04 Gerber Fmt 4.6, Leading zero omitted, Abs format (unit mm)*
G04 Created by KiCad (PCBNEW (5.1.4)-1) date 2021-03-20 22:52:07*
%MOMM*%
%LPD*%
G04 APERTURE LIST*
%ADD10C,0.225000*%
%ADD11C,0.120000*%
G04 APERTURE END LIST*
D10*
X160858571Y-77915000D02*
X161287142Y-77915000D01*
X160772857Y-78172142D02*
X161072857Y-77272142D01*
X161372857Y-78172142D01*
X161544285Y-77272142D02*
X162058571Y-77272142D01*
X161801428Y-78172142D02*
X161801428Y-77272142D01*
X162315714Y-77357857D02*
X162358571Y-77315000D01*
X162444285Y-77272142D01*
X162658571Y-77272142D01*
X162744285Y-77315000D01*
X162787142Y-77357857D01*
X162830000Y-77443571D01*
X162830000Y-77529285D01*
X162787142Y-77657857D01*
X162272857Y-78172142D01*
X162830000Y-78172142D01*
X163130000Y-77272142D02*
X163730000Y-77272142D01*
X163344285Y-78172142D01*
X164587142Y-78086428D02*
X164544285Y-78129285D01*
X164415714Y-78172142D01*
X164330000Y-78172142D01*
X164201428Y-78129285D01*
X164115714Y-78043571D01*
X164072857Y-77957857D01*
X164030000Y-77786428D01*
X164030000Y-77657857D01*
X164072857Y-77486428D01*
X164115714Y-77400714D01*
X164201428Y-77315000D01*
X164330000Y-77272142D01*
X164415714Y-77272142D01*
X164544285Y-77315000D01*
X164587142Y-77357857D01*
X164930000Y-77357857D02*
X164972857Y-77315000D01*
X165058571Y-77272142D01*
X165272857Y-77272142D01*
X165358571Y-77315000D01*
X165401428Y-77357857D01*
X165444285Y-77443571D01*
X165444285Y-77529285D01*
X165401428Y-77657857D01*
X164887142Y-78172142D01*
X165444285Y-78172142D01*
X166258571Y-77272142D02*
X165830000Y-77272142D01*
X165787142Y-77700714D01*
X165830000Y-77657857D01*
X165915714Y-77615000D01*
X166130000Y-77615000D01*
X166215714Y-77657857D01*
X166258571Y-77700714D01*
X166301428Y-77786428D01*
X166301428Y-78000714D01*
X166258571Y-78086428D01*
X166215714Y-78129285D01*
X166130000Y-78172142D01*
X165915714Y-78172142D01*
X165830000Y-78129285D01*
X165787142Y-78086428D01*
X167072857Y-77272142D02*
X166901428Y-77272142D01*
X166815714Y-77315000D01*
X166772857Y-77357857D01*
X166687142Y-77486428D01*
X166644285Y-77657857D01*
X166644285Y-78000714D01*
X166687142Y-78086428D01*
X166730000Y-78129285D01*
X166815714Y-78172142D01*
X166987142Y-78172142D01*
X167072857Y-78129285D01*
X167115714Y-78086428D01*
X167158571Y-78000714D01*
X167158571Y-77786428D01*
X167115714Y-77700714D01*
X167072857Y-77657857D01*
X166987142Y-77615000D01*
X166815714Y-77615000D01*
X166730000Y-77657857D01*
X166687142Y-77700714D01*
X166644285Y-77786428D01*
X168058571Y-78172142D02*
X167758571Y-77743571D01*
X167544285Y-78172142D02*
X167544285Y-77272142D01*
X167887142Y-77272142D01*
X167972857Y-77315000D01*
X168015714Y-77357857D01*
X168058571Y-77443571D01*
X168058571Y-77572142D01*
X168015714Y-77657857D01*
X167972857Y-77700714D01*
X167887142Y-77743571D01*
X167544285Y-77743571D01*
X168230000Y-78257857D02*
X168915714Y-78257857D01*
X169515714Y-77572142D02*
X169515714Y-78172142D01*
X169301428Y-77229285D02*
X169087142Y-77872142D01*
X169644285Y-77872142D01*
X170415714Y-77272142D02*
X169987142Y-77272142D01*
X169944285Y-77700714D01*
X169987142Y-77657857D01*
X170072857Y-77615000D01*
X170287142Y-77615000D01*
X170372857Y-77657857D01*
X170415714Y-77700714D01*
X170458571Y-77786428D01*
X170458571Y-78000714D01*
X170415714Y-78086428D01*
X170372857Y-78129285D01*
X170287142Y-78172142D01*
X170072857Y-78172142D01*
X169987142Y-78129285D01*
X169944285Y-78086428D01*
X170844285Y-78172142D02*
X170844285Y-77272142D01*
X171187142Y-77272142D01*
X171272857Y-77315000D01*
X171315714Y-77357857D01*
X171358571Y-77443571D01*
X171358571Y-77572142D01*
X171315714Y-77657857D01*
X171272857Y-77700714D01*
X171187142Y-77743571D01*
X170844285Y-77743571D01*
X171744285Y-77272142D02*
X171744285Y-78000714D01*
X171787142Y-78086428D01*
X171830000Y-78129285D01*
X171915714Y-78172142D01*
X172087142Y-78172142D01*
X172172857Y-78129285D01*
X172215714Y-78086428D01*
X172258571Y-78000714D01*
X172258571Y-77272142D01*
X166001428Y-79147142D02*
X166344285Y-79147142D01*
X166130000Y-78847142D02*
X166130000Y-79618571D01*
X166172857Y-79704285D01*
X166258571Y-79747142D01*
X166344285Y-79747142D01*
X166772857Y-79747142D02*
X166687142Y-79704285D01*
X166644285Y-79661428D01*
X166601428Y-79575714D01*
X166601428Y-79318571D01*
X166644285Y-79232857D01*
X166687142Y-79190000D01*
X166772857Y-79147142D01*
X166901428Y-79147142D01*
X166987142Y-79190000D01*
X167030000Y-79232857D01*
X167072857Y-79318571D01*
X167072857Y-79575714D01*
X167030000Y-79661428D01*
X166987142Y-79704285D01*
X166901428Y-79747142D01*
X166772857Y-79747142D01*
X164351428Y-80807857D02*
X164265714Y-80765000D01*
X164222857Y-80722142D01*
X164180000Y-80636428D01*
X164180000Y-80593571D01*
X164222857Y-80507857D01*
X164265714Y-80465000D01*
X164351428Y-80422142D01*
X164522857Y-80422142D01*
X164608571Y-80465000D01*
X164651428Y-80507857D01*
X164694285Y-80593571D01*
X164694285Y-80636428D01*
X164651428Y-80722142D01*
X164608571Y-80765000D01*
X164522857Y-80807857D01*
X164351428Y-80807857D01*
X164265714Y-80850714D01*
X164222857Y-80893571D01*
X164180000Y-80979285D01*
X164180000Y-81150714D01*
X164222857Y-81236428D01*
X164265714Y-81279285D01*
X164351428Y-81322142D01*
X164522857Y-81322142D01*
X164608571Y-81279285D01*
X164651428Y-81236428D01*
X164694285Y-81150714D01*
X164694285Y-80979285D01*
X164651428Y-80893571D01*
X164608571Y-80850714D01*
X164522857Y-80807857D01*
X165037142Y-80507857D02*
X165080000Y-80465000D01*
X165165714Y-80422142D01*
X165380000Y-80422142D01*
X165465714Y-80465000D01*
X165508571Y-80507857D01*
X165551428Y-80593571D01*
X165551428Y-80679285D01*
X165508571Y-80807857D01*
X164994285Y-81322142D01*
X165551428Y-81322142D01*
X165894285Y-81279285D02*
X166022857Y-81322142D01*
X166237142Y-81322142D01*
X166322857Y-81279285D01*
X166365714Y-81236428D01*
X166408571Y-81150714D01*
X166408571Y-81065000D01*
X166365714Y-80979285D01*
X166322857Y-80936428D01*
X166237142Y-80893571D01*
X166065714Y-80850714D01*
X165980000Y-80807857D01*
X165937142Y-80765000D01*
X165894285Y-80679285D01*
X165894285Y-80593571D01*
X165937142Y-80507857D01*
X165980000Y-80465000D01*
X166065714Y-80422142D01*
X166280000Y-80422142D01*
X166408571Y-80465000D01*
X167265714Y-81322142D02*
X166751428Y-81322142D01*
X167008571Y-81322142D02*
X167008571Y-80422142D01*
X166922857Y-80550714D01*
X166837142Y-80636428D01*
X166751428Y-80679285D01*
X167565714Y-80422142D02*
X168122857Y-80422142D01*
X167822857Y-80765000D01*
X167951428Y-80765000D01*
X168037142Y-80807857D01*
X168080000Y-80850714D01*
X168122857Y-80936428D01*
X168122857Y-81150714D01*
X168080000Y-81236428D01*
X168037142Y-81279285D01*
X167951428Y-81322142D01*
X167694285Y-81322142D01*
X167608571Y-81279285D01*
X167565714Y-81236428D01*
X168422857Y-80422142D02*
X169022857Y-80422142D01*
X168637142Y-81322142D01*
D11*
X169140000Y-82230000D02*
X167490000Y-82230000D01*
X169140000Y-105210000D02*
X169140000Y-82230000D01*
X163840000Y-105210000D02*
X169140000Y-105210000D01*
X163840000Y-82230000D02*
X163840000Y-105210000D01*
X165490000Y-82230000D02*
X163840000Y-82230000D01*
X167490000Y-82230000D02*
G75*
G02X165490000Y-82230000I-1000000J0D01*
G01*
X172815001Y-75905001D02*
X167355001Y-75905001D01*
X172815001Y-111585001D02*
X172815001Y-75905001D01*
X159895001Y-111585001D02*
X172815001Y-111585001D01*
X159895001Y-75905001D02*
X159895001Y-111585001D01*
X165355001Y-75905001D02*
X159895001Y-75905001D01*
X167355001Y-75905001D02*
G75*
G02X165355001Y-75905001I-1000000J0D01*
G01*
M02*
