M48
METRIC,TZ
T1C0.800
%
G90
G05
T1
X162680Y-83560
X162680Y-86100
X162680Y-88640
X162680Y-91180
X162680Y-93720
X162680Y-96260
X162680Y-98800
X162680Y-101340
X162680Y-103880
X170300Y-83560
X170300Y-86100
X170300Y-88640
X170300Y-91180
X170300Y-93720
X170300Y-96260
X170300Y-98800
X170300Y-101340
X170300Y-103880
X158735Y-77235
X158735Y-79775
X158735Y-82315
X158735Y-84855
X158735Y-87395
X158735Y-89935
X158735Y-92475
X158735Y-95015
X158735Y-97555
X158735Y-100095
X158735Y-102635
X158735Y-105175
X158735Y-107715
X158735Y-110255
X173975Y-77235
X173975Y-79775
X173975Y-82315
X173975Y-84855
X173975Y-87395
X173975Y-89935
X173975Y-92475
X173975Y-95015
X173975Y-97555
X173975Y-100095
X173975Y-102635
X173975Y-105175
X173975Y-107715
X173975Y-110255
T0
M30
