G04 #@! TF.GenerationSoftware,KiCad,Pcbnew,(5.1.4)-1*
G04 #@! TF.CreationDate,2021-03-20T22:52:07-04:00*
G04 #@! TF.ProjectId,27C256_to_82s137,32374332-3536-45f7-946f-5f3832733133,rev?*
G04 #@! TF.SameCoordinates,Original*
G04 #@! TF.FileFunction,Soldermask,Top*
G04 #@! TF.FilePolarity,Negative*
%FSLAX46Y46*%
G04 Gerber Fmt 4.6, Leading zero omitted, Abs format (unit mm)*
G04 Created by KiCad (PCBNEW (5.1.4)-1) date 2021-03-20 22:52:07*
%MOMM*%
%LPD*%
G04 APERTURE LIST*
%ADD10C,0.100000*%
G04 APERTURE END LIST*
D10*
G36*
X174141824Y-109416314D02*
G01*
X174302243Y-109464977D01*
X174434907Y-109535887D01*
X174450079Y-109543997D01*
X174579660Y-109650342D01*
X174686005Y-109779923D01*
X174686006Y-109779925D01*
X174765025Y-109927759D01*
X174813688Y-110088178D01*
X174830118Y-110255001D01*
X174813688Y-110421824D01*
X174765025Y-110582243D01*
X174694115Y-110714907D01*
X174686005Y-110730079D01*
X174579660Y-110859660D01*
X174450079Y-110966005D01*
X174450077Y-110966006D01*
X174302243Y-111045025D01*
X174141824Y-111093688D01*
X174016805Y-111106001D01*
X173933197Y-111106001D01*
X173808178Y-111093688D01*
X173647759Y-111045025D01*
X173499925Y-110966006D01*
X173499923Y-110966005D01*
X173370342Y-110859660D01*
X173263997Y-110730079D01*
X173255887Y-110714907D01*
X173184977Y-110582243D01*
X173136314Y-110421824D01*
X173119884Y-110255001D01*
X173136314Y-110088178D01*
X173184977Y-109927759D01*
X173263996Y-109779925D01*
X173263997Y-109779923D01*
X173370342Y-109650342D01*
X173499923Y-109543997D01*
X173515095Y-109535887D01*
X173647759Y-109464977D01*
X173808178Y-109416314D01*
X173933197Y-109404001D01*
X174016805Y-109404001D01*
X174141824Y-109416314D01*
X174141824Y-109416314D01*
G37*
G36*
X158901824Y-109416314D02*
G01*
X159062243Y-109464977D01*
X159194907Y-109535887D01*
X159210079Y-109543997D01*
X159339660Y-109650342D01*
X159446005Y-109779923D01*
X159446006Y-109779925D01*
X159525025Y-109927759D01*
X159573688Y-110088178D01*
X159590118Y-110255001D01*
X159573688Y-110421824D01*
X159525025Y-110582243D01*
X159454115Y-110714907D01*
X159446005Y-110730079D01*
X159339660Y-110859660D01*
X159210079Y-110966005D01*
X159210077Y-110966006D01*
X159062243Y-111045025D01*
X158901824Y-111093688D01*
X158776805Y-111106001D01*
X158693197Y-111106001D01*
X158568178Y-111093688D01*
X158407759Y-111045025D01*
X158259925Y-110966006D01*
X158259923Y-110966005D01*
X158130342Y-110859660D01*
X158023997Y-110730079D01*
X158015887Y-110714907D01*
X157944977Y-110582243D01*
X157896314Y-110421824D01*
X157879884Y-110255001D01*
X157896314Y-110088178D01*
X157944977Y-109927759D01*
X158023996Y-109779925D01*
X158023997Y-109779923D01*
X158130342Y-109650342D01*
X158259923Y-109543997D01*
X158275095Y-109535887D01*
X158407759Y-109464977D01*
X158568178Y-109416314D01*
X158693197Y-109404001D01*
X158776805Y-109404001D01*
X158901824Y-109416314D01*
X158901824Y-109416314D01*
G37*
G36*
X174141824Y-106876314D02*
G01*
X174302243Y-106924977D01*
X174434907Y-106995887D01*
X174450079Y-107003997D01*
X174579660Y-107110342D01*
X174686005Y-107239923D01*
X174686006Y-107239925D01*
X174765025Y-107387759D01*
X174813688Y-107548178D01*
X174830118Y-107715001D01*
X174813688Y-107881824D01*
X174765025Y-108042243D01*
X174694115Y-108174907D01*
X174686005Y-108190079D01*
X174579660Y-108319660D01*
X174450079Y-108426005D01*
X174450077Y-108426006D01*
X174302243Y-108505025D01*
X174141824Y-108553688D01*
X174016805Y-108566001D01*
X173933197Y-108566001D01*
X173808178Y-108553688D01*
X173647759Y-108505025D01*
X173499925Y-108426006D01*
X173499923Y-108426005D01*
X173370342Y-108319660D01*
X173263997Y-108190079D01*
X173255887Y-108174907D01*
X173184977Y-108042243D01*
X173136314Y-107881824D01*
X173119884Y-107715001D01*
X173136314Y-107548178D01*
X173184977Y-107387759D01*
X173263996Y-107239925D01*
X173263997Y-107239923D01*
X173370342Y-107110342D01*
X173499923Y-107003997D01*
X173515095Y-106995887D01*
X173647759Y-106924977D01*
X173808178Y-106876314D01*
X173933197Y-106864001D01*
X174016805Y-106864001D01*
X174141824Y-106876314D01*
X174141824Y-106876314D01*
G37*
G36*
X158901824Y-106876314D02*
G01*
X159062243Y-106924977D01*
X159194907Y-106995887D01*
X159210079Y-107003997D01*
X159339660Y-107110342D01*
X159446005Y-107239923D01*
X159446006Y-107239925D01*
X159525025Y-107387759D01*
X159573688Y-107548178D01*
X159590118Y-107715001D01*
X159573688Y-107881824D01*
X159525025Y-108042243D01*
X159454115Y-108174907D01*
X159446005Y-108190079D01*
X159339660Y-108319660D01*
X159210079Y-108426005D01*
X159210077Y-108426006D01*
X159062243Y-108505025D01*
X158901824Y-108553688D01*
X158776805Y-108566001D01*
X158693197Y-108566001D01*
X158568178Y-108553688D01*
X158407759Y-108505025D01*
X158259925Y-108426006D01*
X158259923Y-108426005D01*
X158130342Y-108319660D01*
X158023997Y-108190079D01*
X158015887Y-108174907D01*
X157944977Y-108042243D01*
X157896314Y-107881824D01*
X157879884Y-107715001D01*
X157896314Y-107548178D01*
X157944977Y-107387759D01*
X158023996Y-107239925D01*
X158023997Y-107239923D01*
X158130342Y-107110342D01*
X158259923Y-107003997D01*
X158275095Y-106995887D01*
X158407759Y-106924977D01*
X158568178Y-106876314D01*
X158693197Y-106864001D01*
X158776805Y-106864001D01*
X158901824Y-106876314D01*
X158901824Y-106876314D01*
G37*
G36*
X158901824Y-104336314D02*
G01*
X159062243Y-104384977D01*
X159194907Y-104455887D01*
X159210079Y-104463997D01*
X159339660Y-104570342D01*
X159446005Y-104699923D01*
X159446006Y-104699925D01*
X159525025Y-104847759D01*
X159573688Y-105008178D01*
X159590118Y-105175001D01*
X159573688Y-105341824D01*
X159525025Y-105502243D01*
X159454115Y-105634907D01*
X159446005Y-105650079D01*
X159339660Y-105779660D01*
X159210079Y-105886005D01*
X159210077Y-105886006D01*
X159062243Y-105965025D01*
X158901824Y-106013688D01*
X158776805Y-106026001D01*
X158693197Y-106026001D01*
X158568178Y-106013688D01*
X158407759Y-105965025D01*
X158259925Y-105886006D01*
X158259923Y-105886005D01*
X158130342Y-105779660D01*
X158023997Y-105650079D01*
X158015887Y-105634907D01*
X157944977Y-105502243D01*
X157896314Y-105341824D01*
X157879884Y-105175001D01*
X157896314Y-105008178D01*
X157944977Y-104847759D01*
X158023996Y-104699925D01*
X158023997Y-104699923D01*
X158130342Y-104570342D01*
X158259923Y-104463997D01*
X158275095Y-104455887D01*
X158407759Y-104384977D01*
X158568178Y-104336314D01*
X158693197Y-104324001D01*
X158776805Y-104324001D01*
X158901824Y-104336314D01*
X158901824Y-104336314D01*
G37*
G36*
X174141824Y-104336314D02*
G01*
X174302243Y-104384977D01*
X174434907Y-104455887D01*
X174450079Y-104463997D01*
X174579660Y-104570342D01*
X174686005Y-104699923D01*
X174686006Y-104699925D01*
X174765025Y-104847759D01*
X174813688Y-105008178D01*
X174830118Y-105175001D01*
X174813688Y-105341824D01*
X174765025Y-105502243D01*
X174694115Y-105634907D01*
X174686005Y-105650079D01*
X174579660Y-105779660D01*
X174450079Y-105886005D01*
X174450077Y-105886006D01*
X174302243Y-105965025D01*
X174141824Y-106013688D01*
X174016805Y-106026001D01*
X173933197Y-106026001D01*
X173808178Y-106013688D01*
X173647759Y-105965025D01*
X173499925Y-105886006D01*
X173499923Y-105886005D01*
X173370342Y-105779660D01*
X173263997Y-105650079D01*
X173255887Y-105634907D01*
X173184977Y-105502243D01*
X173136314Y-105341824D01*
X173119884Y-105175001D01*
X173136314Y-105008178D01*
X173184977Y-104847759D01*
X173263996Y-104699925D01*
X173263997Y-104699923D01*
X173370342Y-104570342D01*
X173499923Y-104463997D01*
X173515095Y-104455887D01*
X173647759Y-104384977D01*
X173808178Y-104336314D01*
X173933197Y-104324001D01*
X174016805Y-104324001D01*
X174141824Y-104336314D01*
X174141824Y-104336314D01*
G37*
G36*
X170466823Y-103041313D02*
G01*
X170627242Y-103089976D01*
X170759906Y-103160886D01*
X170775078Y-103168996D01*
X170904659Y-103275341D01*
X171011004Y-103404922D01*
X171011005Y-103404924D01*
X171090024Y-103552758D01*
X171138687Y-103713177D01*
X171155117Y-103880000D01*
X171138687Y-104046823D01*
X171090024Y-104207242D01*
X171021033Y-104336315D01*
X171011004Y-104355078D01*
X170904659Y-104484659D01*
X170775078Y-104591004D01*
X170775076Y-104591005D01*
X170627242Y-104670024D01*
X170466823Y-104718687D01*
X170341804Y-104731000D01*
X170258196Y-104731000D01*
X170133177Y-104718687D01*
X169972758Y-104670024D01*
X169824924Y-104591005D01*
X169824922Y-104591004D01*
X169695341Y-104484659D01*
X169588996Y-104355078D01*
X169578967Y-104336315D01*
X169509976Y-104207242D01*
X169461313Y-104046823D01*
X169444883Y-103880000D01*
X169461313Y-103713177D01*
X169509976Y-103552758D01*
X169588995Y-103404924D01*
X169588996Y-103404922D01*
X169695341Y-103275341D01*
X169824922Y-103168996D01*
X169840094Y-103160886D01*
X169972758Y-103089976D01*
X170133177Y-103041313D01*
X170258196Y-103029000D01*
X170341804Y-103029000D01*
X170466823Y-103041313D01*
X170466823Y-103041313D01*
G37*
G36*
X162846823Y-103041313D02*
G01*
X163007242Y-103089976D01*
X163139906Y-103160886D01*
X163155078Y-103168996D01*
X163284659Y-103275341D01*
X163391004Y-103404922D01*
X163391005Y-103404924D01*
X163470024Y-103552758D01*
X163518687Y-103713177D01*
X163535117Y-103880000D01*
X163518687Y-104046823D01*
X163470024Y-104207242D01*
X163401033Y-104336315D01*
X163391004Y-104355078D01*
X163284659Y-104484659D01*
X163155078Y-104591004D01*
X163155076Y-104591005D01*
X163007242Y-104670024D01*
X162846823Y-104718687D01*
X162721804Y-104731000D01*
X162638196Y-104731000D01*
X162513177Y-104718687D01*
X162352758Y-104670024D01*
X162204924Y-104591005D01*
X162204922Y-104591004D01*
X162075341Y-104484659D01*
X161968996Y-104355078D01*
X161958967Y-104336315D01*
X161889976Y-104207242D01*
X161841313Y-104046823D01*
X161824883Y-103880000D01*
X161841313Y-103713177D01*
X161889976Y-103552758D01*
X161968995Y-103404924D01*
X161968996Y-103404922D01*
X162075341Y-103275341D01*
X162204922Y-103168996D01*
X162220094Y-103160886D01*
X162352758Y-103089976D01*
X162513177Y-103041313D01*
X162638196Y-103029000D01*
X162721804Y-103029000D01*
X162846823Y-103041313D01*
X162846823Y-103041313D01*
G37*
G36*
X158901824Y-101796314D02*
G01*
X159062243Y-101844977D01*
X159194907Y-101915887D01*
X159210079Y-101923997D01*
X159339660Y-102030342D01*
X159446005Y-102159923D01*
X159446006Y-102159925D01*
X159525025Y-102307759D01*
X159573688Y-102468178D01*
X159590118Y-102635001D01*
X159573688Y-102801824D01*
X159525025Y-102962243D01*
X159456751Y-103089975D01*
X159446005Y-103110079D01*
X159339660Y-103239660D01*
X159210079Y-103346005D01*
X159210077Y-103346006D01*
X159062243Y-103425025D01*
X158901824Y-103473688D01*
X158776805Y-103486001D01*
X158693197Y-103486001D01*
X158568178Y-103473688D01*
X158407759Y-103425025D01*
X158259925Y-103346006D01*
X158259923Y-103346005D01*
X158130342Y-103239660D01*
X158023997Y-103110079D01*
X158013251Y-103089975D01*
X157944977Y-102962243D01*
X157896314Y-102801824D01*
X157879884Y-102635001D01*
X157896314Y-102468178D01*
X157944977Y-102307759D01*
X158023996Y-102159925D01*
X158023997Y-102159923D01*
X158130342Y-102030342D01*
X158259923Y-101923997D01*
X158275095Y-101915887D01*
X158407759Y-101844977D01*
X158568178Y-101796314D01*
X158693197Y-101784001D01*
X158776805Y-101784001D01*
X158901824Y-101796314D01*
X158901824Y-101796314D01*
G37*
G36*
X174141824Y-101796314D02*
G01*
X174302243Y-101844977D01*
X174434907Y-101915887D01*
X174450079Y-101923997D01*
X174579660Y-102030342D01*
X174686005Y-102159923D01*
X174686006Y-102159925D01*
X174765025Y-102307759D01*
X174813688Y-102468178D01*
X174830118Y-102635001D01*
X174813688Y-102801824D01*
X174765025Y-102962243D01*
X174696751Y-103089975D01*
X174686005Y-103110079D01*
X174579660Y-103239660D01*
X174450079Y-103346005D01*
X174450077Y-103346006D01*
X174302243Y-103425025D01*
X174141824Y-103473688D01*
X174016805Y-103486001D01*
X173933197Y-103486001D01*
X173808178Y-103473688D01*
X173647759Y-103425025D01*
X173499925Y-103346006D01*
X173499923Y-103346005D01*
X173370342Y-103239660D01*
X173263997Y-103110079D01*
X173253251Y-103089975D01*
X173184977Y-102962243D01*
X173136314Y-102801824D01*
X173119884Y-102635001D01*
X173136314Y-102468178D01*
X173184977Y-102307759D01*
X173263996Y-102159925D01*
X173263997Y-102159923D01*
X173370342Y-102030342D01*
X173499923Y-101923997D01*
X173515095Y-101915887D01*
X173647759Y-101844977D01*
X173808178Y-101796314D01*
X173933197Y-101784001D01*
X174016805Y-101784001D01*
X174141824Y-101796314D01*
X174141824Y-101796314D01*
G37*
G36*
X162846823Y-100501313D02*
G01*
X163007242Y-100549976D01*
X163139906Y-100620886D01*
X163155078Y-100628996D01*
X163284659Y-100735341D01*
X163391004Y-100864922D01*
X163391005Y-100864924D01*
X163470024Y-101012758D01*
X163518687Y-101173177D01*
X163535117Y-101340000D01*
X163518687Y-101506823D01*
X163470024Y-101667242D01*
X163401033Y-101796315D01*
X163391004Y-101815078D01*
X163284659Y-101944659D01*
X163155078Y-102051004D01*
X163155076Y-102051005D01*
X163007242Y-102130024D01*
X162846823Y-102178687D01*
X162721804Y-102191000D01*
X162638196Y-102191000D01*
X162513177Y-102178687D01*
X162352758Y-102130024D01*
X162204924Y-102051005D01*
X162204922Y-102051004D01*
X162075341Y-101944659D01*
X161968996Y-101815078D01*
X161958967Y-101796315D01*
X161889976Y-101667242D01*
X161841313Y-101506823D01*
X161824883Y-101340000D01*
X161841313Y-101173177D01*
X161889976Y-101012758D01*
X161968995Y-100864924D01*
X161968996Y-100864922D01*
X162075341Y-100735341D01*
X162204922Y-100628996D01*
X162220094Y-100620886D01*
X162352758Y-100549976D01*
X162513177Y-100501313D01*
X162638196Y-100489000D01*
X162721804Y-100489000D01*
X162846823Y-100501313D01*
X162846823Y-100501313D01*
G37*
G36*
X170466823Y-100501313D02*
G01*
X170627242Y-100549976D01*
X170759906Y-100620886D01*
X170775078Y-100628996D01*
X170904659Y-100735341D01*
X171011004Y-100864922D01*
X171011005Y-100864924D01*
X171090024Y-101012758D01*
X171138687Y-101173177D01*
X171155117Y-101340000D01*
X171138687Y-101506823D01*
X171090024Y-101667242D01*
X171021033Y-101796315D01*
X171011004Y-101815078D01*
X170904659Y-101944659D01*
X170775078Y-102051004D01*
X170775076Y-102051005D01*
X170627242Y-102130024D01*
X170466823Y-102178687D01*
X170341804Y-102191000D01*
X170258196Y-102191000D01*
X170133177Y-102178687D01*
X169972758Y-102130024D01*
X169824924Y-102051005D01*
X169824922Y-102051004D01*
X169695341Y-101944659D01*
X169588996Y-101815078D01*
X169578967Y-101796315D01*
X169509976Y-101667242D01*
X169461313Y-101506823D01*
X169444883Y-101340000D01*
X169461313Y-101173177D01*
X169509976Y-101012758D01*
X169588995Y-100864924D01*
X169588996Y-100864922D01*
X169695341Y-100735341D01*
X169824922Y-100628996D01*
X169840094Y-100620886D01*
X169972758Y-100549976D01*
X170133177Y-100501313D01*
X170258196Y-100489000D01*
X170341804Y-100489000D01*
X170466823Y-100501313D01*
X170466823Y-100501313D01*
G37*
G36*
X174141824Y-99256314D02*
G01*
X174302243Y-99304977D01*
X174434907Y-99375887D01*
X174450079Y-99383997D01*
X174579660Y-99490342D01*
X174686005Y-99619923D01*
X174686006Y-99619925D01*
X174765025Y-99767759D01*
X174813688Y-99928178D01*
X174830118Y-100095001D01*
X174813688Y-100261824D01*
X174765025Y-100422243D01*
X174696751Y-100549975D01*
X174686005Y-100570079D01*
X174579660Y-100699660D01*
X174450079Y-100806005D01*
X174450077Y-100806006D01*
X174302243Y-100885025D01*
X174141824Y-100933688D01*
X174016805Y-100946001D01*
X173933197Y-100946001D01*
X173808178Y-100933688D01*
X173647759Y-100885025D01*
X173499925Y-100806006D01*
X173499923Y-100806005D01*
X173370342Y-100699660D01*
X173263997Y-100570079D01*
X173253251Y-100549975D01*
X173184977Y-100422243D01*
X173136314Y-100261824D01*
X173119884Y-100095001D01*
X173136314Y-99928178D01*
X173184977Y-99767759D01*
X173263996Y-99619925D01*
X173263997Y-99619923D01*
X173370342Y-99490342D01*
X173499923Y-99383997D01*
X173515095Y-99375887D01*
X173647759Y-99304977D01*
X173808178Y-99256314D01*
X173933197Y-99244001D01*
X174016805Y-99244001D01*
X174141824Y-99256314D01*
X174141824Y-99256314D01*
G37*
G36*
X158901824Y-99256314D02*
G01*
X159062243Y-99304977D01*
X159194907Y-99375887D01*
X159210079Y-99383997D01*
X159339660Y-99490342D01*
X159446005Y-99619923D01*
X159446006Y-99619925D01*
X159525025Y-99767759D01*
X159573688Y-99928178D01*
X159590118Y-100095001D01*
X159573688Y-100261824D01*
X159525025Y-100422243D01*
X159456751Y-100549975D01*
X159446005Y-100570079D01*
X159339660Y-100699660D01*
X159210079Y-100806005D01*
X159210077Y-100806006D01*
X159062243Y-100885025D01*
X158901824Y-100933688D01*
X158776805Y-100946001D01*
X158693197Y-100946001D01*
X158568178Y-100933688D01*
X158407759Y-100885025D01*
X158259925Y-100806006D01*
X158259923Y-100806005D01*
X158130342Y-100699660D01*
X158023997Y-100570079D01*
X158013251Y-100549975D01*
X157944977Y-100422243D01*
X157896314Y-100261824D01*
X157879884Y-100095001D01*
X157896314Y-99928178D01*
X157944977Y-99767759D01*
X158023996Y-99619925D01*
X158023997Y-99619923D01*
X158130342Y-99490342D01*
X158259923Y-99383997D01*
X158275095Y-99375887D01*
X158407759Y-99304977D01*
X158568178Y-99256314D01*
X158693197Y-99244001D01*
X158776805Y-99244001D01*
X158901824Y-99256314D01*
X158901824Y-99256314D01*
G37*
G36*
X170466823Y-97961313D02*
G01*
X170627242Y-98009976D01*
X170759906Y-98080886D01*
X170775078Y-98088996D01*
X170904659Y-98195341D01*
X171011004Y-98324922D01*
X171011005Y-98324924D01*
X171090024Y-98472758D01*
X171138687Y-98633177D01*
X171155117Y-98800000D01*
X171138687Y-98966823D01*
X171090024Y-99127242D01*
X171021033Y-99256315D01*
X171011004Y-99275078D01*
X170904659Y-99404659D01*
X170775078Y-99511004D01*
X170775076Y-99511005D01*
X170627242Y-99590024D01*
X170466823Y-99638687D01*
X170341804Y-99651000D01*
X170258196Y-99651000D01*
X170133177Y-99638687D01*
X169972758Y-99590024D01*
X169824924Y-99511005D01*
X169824922Y-99511004D01*
X169695341Y-99404659D01*
X169588996Y-99275078D01*
X169578967Y-99256315D01*
X169509976Y-99127242D01*
X169461313Y-98966823D01*
X169444883Y-98800000D01*
X169461313Y-98633177D01*
X169509976Y-98472758D01*
X169588995Y-98324924D01*
X169588996Y-98324922D01*
X169695341Y-98195341D01*
X169824922Y-98088996D01*
X169840094Y-98080886D01*
X169972758Y-98009976D01*
X170133177Y-97961313D01*
X170258196Y-97949000D01*
X170341804Y-97949000D01*
X170466823Y-97961313D01*
X170466823Y-97961313D01*
G37*
G36*
X162846823Y-97961313D02*
G01*
X163007242Y-98009976D01*
X163139906Y-98080886D01*
X163155078Y-98088996D01*
X163284659Y-98195341D01*
X163391004Y-98324922D01*
X163391005Y-98324924D01*
X163470024Y-98472758D01*
X163518687Y-98633177D01*
X163535117Y-98800000D01*
X163518687Y-98966823D01*
X163470024Y-99127242D01*
X163401033Y-99256315D01*
X163391004Y-99275078D01*
X163284659Y-99404659D01*
X163155078Y-99511004D01*
X163155076Y-99511005D01*
X163007242Y-99590024D01*
X162846823Y-99638687D01*
X162721804Y-99651000D01*
X162638196Y-99651000D01*
X162513177Y-99638687D01*
X162352758Y-99590024D01*
X162204924Y-99511005D01*
X162204922Y-99511004D01*
X162075341Y-99404659D01*
X161968996Y-99275078D01*
X161958967Y-99256315D01*
X161889976Y-99127242D01*
X161841313Y-98966823D01*
X161824883Y-98800000D01*
X161841313Y-98633177D01*
X161889976Y-98472758D01*
X161968995Y-98324924D01*
X161968996Y-98324922D01*
X162075341Y-98195341D01*
X162204922Y-98088996D01*
X162220094Y-98080886D01*
X162352758Y-98009976D01*
X162513177Y-97961313D01*
X162638196Y-97949000D01*
X162721804Y-97949000D01*
X162846823Y-97961313D01*
X162846823Y-97961313D01*
G37*
G36*
X158901824Y-96716314D02*
G01*
X159062243Y-96764977D01*
X159194907Y-96835887D01*
X159210079Y-96843997D01*
X159339660Y-96950342D01*
X159446005Y-97079923D01*
X159446006Y-97079925D01*
X159525025Y-97227759D01*
X159573688Y-97388178D01*
X159590118Y-97555001D01*
X159573688Y-97721824D01*
X159525025Y-97882243D01*
X159456751Y-98009975D01*
X159446005Y-98030079D01*
X159339660Y-98159660D01*
X159210079Y-98266005D01*
X159210077Y-98266006D01*
X159062243Y-98345025D01*
X158901824Y-98393688D01*
X158776805Y-98406001D01*
X158693197Y-98406001D01*
X158568178Y-98393688D01*
X158407759Y-98345025D01*
X158259925Y-98266006D01*
X158259923Y-98266005D01*
X158130342Y-98159660D01*
X158023997Y-98030079D01*
X158013251Y-98009975D01*
X157944977Y-97882243D01*
X157896314Y-97721824D01*
X157879884Y-97555001D01*
X157896314Y-97388178D01*
X157944977Y-97227759D01*
X158023996Y-97079925D01*
X158023997Y-97079923D01*
X158130342Y-96950342D01*
X158259923Y-96843997D01*
X158275095Y-96835887D01*
X158407759Y-96764977D01*
X158568178Y-96716314D01*
X158693197Y-96704001D01*
X158776805Y-96704001D01*
X158901824Y-96716314D01*
X158901824Y-96716314D01*
G37*
G36*
X174141824Y-96716314D02*
G01*
X174302243Y-96764977D01*
X174434907Y-96835887D01*
X174450079Y-96843997D01*
X174579660Y-96950342D01*
X174686005Y-97079923D01*
X174686006Y-97079925D01*
X174765025Y-97227759D01*
X174813688Y-97388178D01*
X174830118Y-97555001D01*
X174813688Y-97721824D01*
X174765025Y-97882243D01*
X174696751Y-98009975D01*
X174686005Y-98030079D01*
X174579660Y-98159660D01*
X174450079Y-98266005D01*
X174450077Y-98266006D01*
X174302243Y-98345025D01*
X174141824Y-98393688D01*
X174016805Y-98406001D01*
X173933197Y-98406001D01*
X173808178Y-98393688D01*
X173647759Y-98345025D01*
X173499925Y-98266006D01*
X173499923Y-98266005D01*
X173370342Y-98159660D01*
X173263997Y-98030079D01*
X173253251Y-98009975D01*
X173184977Y-97882243D01*
X173136314Y-97721824D01*
X173119884Y-97555001D01*
X173136314Y-97388178D01*
X173184977Y-97227759D01*
X173263996Y-97079925D01*
X173263997Y-97079923D01*
X173370342Y-96950342D01*
X173499923Y-96843997D01*
X173515095Y-96835887D01*
X173647759Y-96764977D01*
X173808178Y-96716314D01*
X173933197Y-96704001D01*
X174016805Y-96704001D01*
X174141824Y-96716314D01*
X174141824Y-96716314D01*
G37*
G36*
X170466823Y-95421313D02*
G01*
X170627242Y-95469976D01*
X170759906Y-95540886D01*
X170775078Y-95548996D01*
X170904659Y-95655341D01*
X171011004Y-95784922D01*
X171011005Y-95784924D01*
X171090024Y-95932758D01*
X171138687Y-96093177D01*
X171155117Y-96260000D01*
X171138687Y-96426823D01*
X171090024Y-96587242D01*
X171021033Y-96716315D01*
X171011004Y-96735078D01*
X170904659Y-96864659D01*
X170775078Y-96971004D01*
X170775076Y-96971005D01*
X170627242Y-97050024D01*
X170466823Y-97098687D01*
X170341804Y-97111000D01*
X170258196Y-97111000D01*
X170133177Y-97098687D01*
X169972758Y-97050024D01*
X169824924Y-96971005D01*
X169824922Y-96971004D01*
X169695341Y-96864659D01*
X169588996Y-96735078D01*
X169578967Y-96716315D01*
X169509976Y-96587242D01*
X169461313Y-96426823D01*
X169444883Y-96260000D01*
X169461313Y-96093177D01*
X169509976Y-95932758D01*
X169588995Y-95784924D01*
X169588996Y-95784922D01*
X169695341Y-95655341D01*
X169824922Y-95548996D01*
X169840094Y-95540886D01*
X169972758Y-95469976D01*
X170133177Y-95421313D01*
X170258196Y-95409000D01*
X170341804Y-95409000D01*
X170466823Y-95421313D01*
X170466823Y-95421313D01*
G37*
G36*
X162846823Y-95421313D02*
G01*
X163007242Y-95469976D01*
X163139906Y-95540886D01*
X163155078Y-95548996D01*
X163284659Y-95655341D01*
X163391004Y-95784922D01*
X163391005Y-95784924D01*
X163470024Y-95932758D01*
X163518687Y-96093177D01*
X163535117Y-96260000D01*
X163518687Y-96426823D01*
X163470024Y-96587242D01*
X163401033Y-96716315D01*
X163391004Y-96735078D01*
X163284659Y-96864659D01*
X163155078Y-96971004D01*
X163155076Y-96971005D01*
X163007242Y-97050024D01*
X162846823Y-97098687D01*
X162721804Y-97111000D01*
X162638196Y-97111000D01*
X162513177Y-97098687D01*
X162352758Y-97050024D01*
X162204924Y-96971005D01*
X162204922Y-96971004D01*
X162075341Y-96864659D01*
X161968996Y-96735078D01*
X161958967Y-96716315D01*
X161889976Y-96587242D01*
X161841313Y-96426823D01*
X161824883Y-96260000D01*
X161841313Y-96093177D01*
X161889976Y-95932758D01*
X161968995Y-95784924D01*
X161968996Y-95784922D01*
X162075341Y-95655341D01*
X162204922Y-95548996D01*
X162220094Y-95540886D01*
X162352758Y-95469976D01*
X162513177Y-95421313D01*
X162638196Y-95409000D01*
X162721804Y-95409000D01*
X162846823Y-95421313D01*
X162846823Y-95421313D01*
G37*
G36*
X174141824Y-94176314D02*
G01*
X174302243Y-94224977D01*
X174434907Y-94295887D01*
X174450079Y-94303997D01*
X174579660Y-94410342D01*
X174686005Y-94539923D01*
X174686006Y-94539925D01*
X174765025Y-94687759D01*
X174813688Y-94848178D01*
X174830118Y-95015001D01*
X174813688Y-95181824D01*
X174765025Y-95342243D01*
X174696751Y-95469975D01*
X174686005Y-95490079D01*
X174579660Y-95619660D01*
X174450079Y-95726005D01*
X174450077Y-95726006D01*
X174302243Y-95805025D01*
X174141824Y-95853688D01*
X174016805Y-95866001D01*
X173933197Y-95866001D01*
X173808178Y-95853688D01*
X173647759Y-95805025D01*
X173499925Y-95726006D01*
X173499923Y-95726005D01*
X173370342Y-95619660D01*
X173263997Y-95490079D01*
X173253251Y-95469975D01*
X173184977Y-95342243D01*
X173136314Y-95181824D01*
X173119884Y-95015001D01*
X173136314Y-94848178D01*
X173184977Y-94687759D01*
X173263996Y-94539925D01*
X173263997Y-94539923D01*
X173370342Y-94410342D01*
X173499923Y-94303997D01*
X173515095Y-94295887D01*
X173647759Y-94224977D01*
X173808178Y-94176314D01*
X173933197Y-94164001D01*
X174016805Y-94164001D01*
X174141824Y-94176314D01*
X174141824Y-94176314D01*
G37*
G36*
X158901824Y-94176314D02*
G01*
X159062243Y-94224977D01*
X159194907Y-94295887D01*
X159210079Y-94303997D01*
X159339660Y-94410342D01*
X159446005Y-94539923D01*
X159446006Y-94539925D01*
X159525025Y-94687759D01*
X159573688Y-94848178D01*
X159590118Y-95015001D01*
X159573688Y-95181824D01*
X159525025Y-95342243D01*
X159456751Y-95469975D01*
X159446005Y-95490079D01*
X159339660Y-95619660D01*
X159210079Y-95726005D01*
X159210077Y-95726006D01*
X159062243Y-95805025D01*
X158901824Y-95853688D01*
X158776805Y-95866001D01*
X158693197Y-95866001D01*
X158568178Y-95853688D01*
X158407759Y-95805025D01*
X158259925Y-95726006D01*
X158259923Y-95726005D01*
X158130342Y-95619660D01*
X158023997Y-95490079D01*
X158013251Y-95469975D01*
X157944977Y-95342243D01*
X157896314Y-95181824D01*
X157879884Y-95015001D01*
X157896314Y-94848178D01*
X157944977Y-94687759D01*
X158023996Y-94539925D01*
X158023997Y-94539923D01*
X158130342Y-94410342D01*
X158259923Y-94303997D01*
X158275095Y-94295887D01*
X158407759Y-94224977D01*
X158568178Y-94176314D01*
X158693197Y-94164001D01*
X158776805Y-94164001D01*
X158901824Y-94176314D01*
X158901824Y-94176314D01*
G37*
G36*
X162846823Y-92881313D02*
G01*
X163007242Y-92929976D01*
X163139906Y-93000886D01*
X163155078Y-93008996D01*
X163284659Y-93115341D01*
X163391004Y-93244922D01*
X163391005Y-93244924D01*
X163470024Y-93392758D01*
X163518687Y-93553177D01*
X163535117Y-93720000D01*
X163518687Y-93886823D01*
X163470024Y-94047242D01*
X163401033Y-94176315D01*
X163391004Y-94195078D01*
X163284659Y-94324659D01*
X163155078Y-94431004D01*
X163155076Y-94431005D01*
X163007242Y-94510024D01*
X162846823Y-94558687D01*
X162721804Y-94571000D01*
X162638196Y-94571000D01*
X162513177Y-94558687D01*
X162352758Y-94510024D01*
X162204924Y-94431005D01*
X162204922Y-94431004D01*
X162075341Y-94324659D01*
X161968996Y-94195078D01*
X161958967Y-94176315D01*
X161889976Y-94047242D01*
X161841313Y-93886823D01*
X161824883Y-93720000D01*
X161841313Y-93553177D01*
X161889976Y-93392758D01*
X161968995Y-93244924D01*
X161968996Y-93244922D01*
X162075341Y-93115341D01*
X162204922Y-93008996D01*
X162220094Y-93000886D01*
X162352758Y-92929976D01*
X162513177Y-92881313D01*
X162638196Y-92869000D01*
X162721804Y-92869000D01*
X162846823Y-92881313D01*
X162846823Y-92881313D01*
G37*
G36*
X170466823Y-92881313D02*
G01*
X170627242Y-92929976D01*
X170759906Y-93000886D01*
X170775078Y-93008996D01*
X170904659Y-93115341D01*
X171011004Y-93244922D01*
X171011005Y-93244924D01*
X171090024Y-93392758D01*
X171138687Y-93553177D01*
X171155117Y-93720000D01*
X171138687Y-93886823D01*
X171090024Y-94047242D01*
X171021033Y-94176315D01*
X171011004Y-94195078D01*
X170904659Y-94324659D01*
X170775078Y-94431004D01*
X170775076Y-94431005D01*
X170627242Y-94510024D01*
X170466823Y-94558687D01*
X170341804Y-94571000D01*
X170258196Y-94571000D01*
X170133177Y-94558687D01*
X169972758Y-94510024D01*
X169824924Y-94431005D01*
X169824922Y-94431004D01*
X169695341Y-94324659D01*
X169588996Y-94195078D01*
X169578967Y-94176315D01*
X169509976Y-94047242D01*
X169461313Y-93886823D01*
X169444883Y-93720000D01*
X169461313Y-93553177D01*
X169509976Y-93392758D01*
X169588995Y-93244924D01*
X169588996Y-93244922D01*
X169695341Y-93115341D01*
X169824922Y-93008996D01*
X169840094Y-93000886D01*
X169972758Y-92929976D01*
X170133177Y-92881313D01*
X170258196Y-92869000D01*
X170341804Y-92869000D01*
X170466823Y-92881313D01*
X170466823Y-92881313D01*
G37*
G36*
X174141824Y-91636314D02*
G01*
X174302243Y-91684977D01*
X174434907Y-91755887D01*
X174450079Y-91763997D01*
X174579660Y-91870342D01*
X174686005Y-91999923D01*
X174686006Y-91999925D01*
X174765025Y-92147759D01*
X174813688Y-92308178D01*
X174830118Y-92475001D01*
X174813688Y-92641824D01*
X174765025Y-92802243D01*
X174696751Y-92929975D01*
X174686005Y-92950079D01*
X174579660Y-93079660D01*
X174450079Y-93186005D01*
X174450077Y-93186006D01*
X174302243Y-93265025D01*
X174141824Y-93313688D01*
X174016805Y-93326001D01*
X173933197Y-93326001D01*
X173808178Y-93313688D01*
X173647759Y-93265025D01*
X173499925Y-93186006D01*
X173499923Y-93186005D01*
X173370342Y-93079660D01*
X173263997Y-92950079D01*
X173253251Y-92929975D01*
X173184977Y-92802243D01*
X173136314Y-92641824D01*
X173119884Y-92475001D01*
X173136314Y-92308178D01*
X173184977Y-92147759D01*
X173263996Y-91999925D01*
X173263997Y-91999923D01*
X173370342Y-91870342D01*
X173499923Y-91763997D01*
X173515095Y-91755887D01*
X173647759Y-91684977D01*
X173808178Y-91636314D01*
X173933197Y-91624001D01*
X174016805Y-91624001D01*
X174141824Y-91636314D01*
X174141824Y-91636314D01*
G37*
G36*
X158901824Y-91636314D02*
G01*
X159062243Y-91684977D01*
X159194907Y-91755887D01*
X159210079Y-91763997D01*
X159339660Y-91870342D01*
X159446005Y-91999923D01*
X159446006Y-91999925D01*
X159525025Y-92147759D01*
X159573688Y-92308178D01*
X159590118Y-92475001D01*
X159573688Y-92641824D01*
X159525025Y-92802243D01*
X159456751Y-92929975D01*
X159446005Y-92950079D01*
X159339660Y-93079660D01*
X159210079Y-93186005D01*
X159210077Y-93186006D01*
X159062243Y-93265025D01*
X158901824Y-93313688D01*
X158776805Y-93326001D01*
X158693197Y-93326001D01*
X158568178Y-93313688D01*
X158407759Y-93265025D01*
X158259925Y-93186006D01*
X158259923Y-93186005D01*
X158130342Y-93079660D01*
X158023997Y-92950079D01*
X158013251Y-92929975D01*
X157944977Y-92802243D01*
X157896314Y-92641824D01*
X157879884Y-92475001D01*
X157896314Y-92308178D01*
X157944977Y-92147759D01*
X158023996Y-91999925D01*
X158023997Y-91999923D01*
X158130342Y-91870342D01*
X158259923Y-91763997D01*
X158275095Y-91755887D01*
X158407759Y-91684977D01*
X158568178Y-91636314D01*
X158693197Y-91624001D01*
X158776805Y-91624001D01*
X158901824Y-91636314D01*
X158901824Y-91636314D01*
G37*
G36*
X162846823Y-90341313D02*
G01*
X163007242Y-90389976D01*
X163139906Y-90460886D01*
X163155078Y-90468996D01*
X163284659Y-90575341D01*
X163391004Y-90704922D01*
X163391005Y-90704924D01*
X163470024Y-90852758D01*
X163518687Y-91013177D01*
X163535117Y-91180000D01*
X163518687Y-91346823D01*
X163470024Y-91507242D01*
X163401033Y-91636315D01*
X163391004Y-91655078D01*
X163284659Y-91784659D01*
X163155078Y-91891004D01*
X163155076Y-91891005D01*
X163007242Y-91970024D01*
X162846823Y-92018687D01*
X162721804Y-92031000D01*
X162638196Y-92031000D01*
X162513177Y-92018687D01*
X162352758Y-91970024D01*
X162204924Y-91891005D01*
X162204922Y-91891004D01*
X162075341Y-91784659D01*
X161968996Y-91655078D01*
X161958967Y-91636315D01*
X161889976Y-91507242D01*
X161841313Y-91346823D01*
X161824883Y-91180000D01*
X161841313Y-91013177D01*
X161889976Y-90852758D01*
X161968995Y-90704924D01*
X161968996Y-90704922D01*
X162075341Y-90575341D01*
X162204922Y-90468996D01*
X162220094Y-90460886D01*
X162352758Y-90389976D01*
X162513177Y-90341313D01*
X162638196Y-90329000D01*
X162721804Y-90329000D01*
X162846823Y-90341313D01*
X162846823Y-90341313D01*
G37*
G36*
X170466823Y-90341313D02*
G01*
X170627242Y-90389976D01*
X170759906Y-90460886D01*
X170775078Y-90468996D01*
X170904659Y-90575341D01*
X171011004Y-90704922D01*
X171011005Y-90704924D01*
X171090024Y-90852758D01*
X171138687Y-91013177D01*
X171155117Y-91180000D01*
X171138687Y-91346823D01*
X171090024Y-91507242D01*
X171021033Y-91636315D01*
X171011004Y-91655078D01*
X170904659Y-91784659D01*
X170775078Y-91891004D01*
X170775076Y-91891005D01*
X170627242Y-91970024D01*
X170466823Y-92018687D01*
X170341804Y-92031000D01*
X170258196Y-92031000D01*
X170133177Y-92018687D01*
X169972758Y-91970024D01*
X169824924Y-91891005D01*
X169824922Y-91891004D01*
X169695341Y-91784659D01*
X169588996Y-91655078D01*
X169578967Y-91636315D01*
X169509976Y-91507242D01*
X169461313Y-91346823D01*
X169444883Y-91180000D01*
X169461313Y-91013177D01*
X169509976Y-90852758D01*
X169588995Y-90704924D01*
X169588996Y-90704922D01*
X169695341Y-90575341D01*
X169824922Y-90468996D01*
X169840094Y-90460886D01*
X169972758Y-90389976D01*
X170133177Y-90341313D01*
X170258196Y-90329000D01*
X170341804Y-90329000D01*
X170466823Y-90341313D01*
X170466823Y-90341313D01*
G37*
G36*
X174141824Y-89096314D02*
G01*
X174302243Y-89144977D01*
X174434907Y-89215887D01*
X174450079Y-89223997D01*
X174579660Y-89330342D01*
X174686005Y-89459923D01*
X174686006Y-89459925D01*
X174765025Y-89607759D01*
X174813688Y-89768178D01*
X174830118Y-89935001D01*
X174813688Y-90101824D01*
X174765025Y-90262243D01*
X174696751Y-90389975D01*
X174686005Y-90410079D01*
X174579660Y-90539660D01*
X174450079Y-90646005D01*
X174450077Y-90646006D01*
X174302243Y-90725025D01*
X174141824Y-90773688D01*
X174016805Y-90786001D01*
X173933197Y-90786001D01*
X173808178Y-90773688D01*
X173647759Y-90725025D01*
X173499925Y-90646006D01*
X173499923Y-90646005D01*
X173370342Y-90539660D01*
X173263997Y-90410079D01*
X173253251Y-90389975D01*
X173184977Y-90262243D01*
X173136314Y-90101824D01*
X173119884Y-89935001D01*
X173136314Y-89768178D01*
X173184977Y-89607759D01*
X173263996Y-89459925D01*
X173263997Y-89459923D01*
X173370342Y-89330342D01*
X173499923Y-89223997D01*
X173515095Y-89215887D01*
X173647759Y-89144977D01*
X173808178Y-89096314D01*
X173933197Y-89084001D01*
X174016805Y-89084001D01*
X174141824Y-89096314D01*
X174141824Y-89096314D01*
G37*
G36*
X158901824Y-89096314D02*
G01*
X159062243Y-89144977D01*
X159194907Y-89215887D01*
X159210079Y-89223997D01*
X159339660Y-89330342D01*
X159446005Y-89459923D01*
X159446006Y-89459925D01*
X159525025Y-89607759D01*
X159573688Y-89768178D01*
X159590118Y-89935001D01*
X159573688Y-90101824D01*
X159525025Y-90262243D01*
X159456751Y-90389975D01*
X159446005Y-90410079D01*
X159339660Y-90539660D01*
X159210079Y-90646005D01*
X159210077Y-90646006D01*
X159062243Y-90725025D01*
X158901824Y-90773688D01*
X158776805Y-90786001D01*
X158693197Y-90786001D01*
X158568178Y-90773688D01*
X158407759Y-90725025D01*
X158259925Y-90646006D01*
X158259923Y-90646005D01*
X158130342Y-90539660D01*
X158023997Y-90410079D01*
X158013251Y-90389975D01*
X157944977Y-90262243D01*
X157896314Y-90101824D01*
X157879884Y-89935001D01*
X157896314Y-89768178D01*
X157944977Y-89607759D01*
X158023996Y-89459925D01*
X158023997Y-89459923D01*
X158130342Y-89330342D01*
X158259923Y-89223997D01*
X158275095Y-89215887D01*
X158407759Y-89144977D01*
X158568178Y-89096314D01*
X158693197Y-89084001D01*
X158776805Y-89084001D01*
X158901824Y-89096314D01*
X158901824Y-89096314D01*
G37*
G36*
X170466823Y-87801313D02*
G01*
X170627242Y-87849976D01*
X170759906Y-87920886D01*
X170775078Y-87928996D01*
X170904659Y-88035341D01*
X171011004Y-88164922D01*
X171011005Y-88164924D01*
X171090024Y-88312758D01*
X171138687Y-88473177D01*
X171155117Y-88640000D01*
X171138687Y-88806823D01*
X171090024Y-88967242D01*
X171021033Y-89096315D01*
X171011004Y-89115078D01*
X170904659Y-89244659D01*
X170775078Y-89351004D01*
X170775076Y-89351005D01*
X170627242Y-89430024D01*
X170466823Y-89478687D01*
X170341804Y-89491000D01*
X170258196Y-89491000D01*
X170133177Y-89478687D01*
X169972758Y-89430024D01*
X169824924Y-89351005D01*
X169824922Y-89351004D01*
X169695341Y-89244659D01*
X169588996Y-89115078D01*
X169578967Y-89096315D01*
X169509976Y-88967242D01*
X169461313Y-88806823D01*
X169444883Y-88640000D01*
X169461313Y-88473177D01*
X169509976Y-88312758D01*
X169588995Y-88164924D01*
X169588996Y-88164922D01*
X169695341Y-88035341D01*
X169824922Y-87928996D01*
X169840094Y-87920886D01*
X169972758Y-87849976D01*
X170133177Y-87801313D01*
X170258196Y-87789000D01*
X170341804Y-87789000D01*
X170466823Y-87801313D01*
X170466823Y-87801313D01*
G37*
G36*
X162846823Y-87801313D02*
G01*
X163007242Y-87849976D01*
X163139906Y-87920886D01*
X163155078Y-87928996D01*
X163284659Y-88035341D01*
X163391004Y-88164922D01*
X163391005Y-88164924D01*
X163470024Y-88312758D01*
X163518687Y-88473177D01*
X163535117Y-88640000D01*
X163518687Y-88806823D01*
X163470024Y-88967242D01*
X163401033Y-89096315D01*
X163391004Y-89115078D01*
X163284659Y-89244659D01*
X163155078Y-89351004D01*
X163155076Y-89351005D01*
X163007242Y-89430024D01*
X162846823Y-89478687D01*
X162721804Y-89491000D01*
X162638196Y-89491000D01*
X162513177Y-89478687D01*
X162352758Y-89430024D01*
X162204924Y-89351005D01*
X162204922Y-89351004D01*
X162075341Y-89244659D01*
X161968996Y-89115078D01*
X161958967Y-89096315D01*
X161889976Y-88967242D01*
X161841313Y-88806823D01*
X161824883Y-88640000D01*
X161841313Y-88473177D01*
X161889976Y-88312758D01*
X161968995Y-88164924D01*
X161968996Y-88164922D01*
X162075341Y-88035341D01*
X162204922Y-87928996D01*
X162220094Y-87920886D01*
X162352758Y-87849976D01*
X162513177Y-87801313D01*
X162638196Y-87789000D01*
X162721804Y-87789000D01*
X162846823Y-87801313D01*
X162846823Y-87801313D01*
G37*
G36*
X158901824Y-86556314D02*
G01*
X159062243Y-86604977D01*
X159194907Y-86675887D01*
X159210079Y-86683997D01*
X159339660Y-86790342D01*
X159446005Y-86919923D01*
X159446006Y-86919925D01*
X159525025Y-87067759D01*
X159573688Y-87228178D01*
X159590118Y-87395001D01*
X159573688Y-87561824D01*
X159525025Y-87722243D01*
X159456751Y-87849975D01*
X159446005Y-87870079D01*
X159339660Y-87999660D01*
X159210079Y-88106005D01*
X159210077Y-88106006D01*
X159062243Y-88185025D01*
X158901824Y-88233688D01*
X158776805Y-88246001D01*
X158693197Y-88246001D01*
X158568178Y-88233688D01*
X158407759Y-88185025D01*
X158259925Y-88106006D01*
X158259923Y-88106005D01*
X158130342Y-87999660D01*
X158023997Y-87870079D01*
X158013251Y-87849975D01*
X157944977Y-87722243D01*
X157896314Y-87561824D01*
X157879884Y-87395001D01*
X157896314Y-87228178D01*
X157944977Y-87067759D01*
X158023996Y-86919925D01*
X158023997Y-86919923D01*
X158130342Y-86790342D01*
X158259923Y-86683997D01*
X158275095Y-86675887D01*
X158407759Y-86604977D01*
X158568178Y-86556314D01*
X158693197Y-86544001D01*
X158776805Y-86544001D01*
X158901824Y-86556314D01*
X158901824Y-86556314D01*
G37*
G36*
X174141824Y-86556314D02*
G01*
X174302243Y-86604977D01*
X174434907Y-86675887D01*
X174450079Y-86683997D01*
X174579660Y-86790342D01*
X174686005Y-86919923D01*
X174686006Y-86919925D01*
X174765025Y-87067759D01*
X174813688Y-87228178D01*
X174830118Y-87395001D01*
X174813688Y-87561824D01*
X174765025Y-87722243D01*
X174696751Y-87849975D01*
X174686005Y-87870079D01*
X174579660Y-87999660D01*
X174450079Y-88106005D01*
X174450077Y-88106006D01*
X174302243Y-88185025D01*
X174141824Y-88233688D01*
X174016805Y-88246001D01*
X173933197Y-88246001D01*
X173808178Y-88233688D01*
X173647759Y-88185025D01*
X173499925Y-88106006D01*
X173499923Y-88106005D01*
X173370342Y-87999660D01*
X173263997Y-87870079D01*
X173253251Y-87849975D01*
X173184977Y-87722243D01*
X173136314Y-87561824D01*
X173119884Y-87395001D01*
X173136314Y-87228178D01*
X173184977Y-87067759D01*
X173263996Y-86919925D01*
X173263997Y-86919923D01*
X173370342Y-86790342D01*
X173499923Y-86683997D01*
X173515095Y-86675887D01*
X173647759Y-86604977D01*
X173808178Y-86556314D01*
X173933197Y-86544001D01*
X174016805Y-86544001D01*
X174141824Y-86556314D01*
X174141824Y-86556314D01*
G37*
G36*
X162846823Y-85261313D02*
G01*
X163007242Y-85309976D01*
X163139906Y-85380886D01*
X163155078Y-85388996D01*
X163284659Y-85495341D01*
X163391004Y-85624922D01*
X163391005Y-85624924D01*
X163470024Y-85772758D01*
X163518687Y-85933177D01*
X163535117Y-86100000D01*
X163518687Y-86266823D01*
X163470024Y-86427242D01*
X163401033Y-86556315D01*
X163391004Y-86575078D01*
X163284659Y-86704659D01*
X163155078Y-86811004D01*
X163155076Y-86811005D01*
X163007242Y-86890024D01*
X162846823Y-86938687D01*
X162721804Y-86951000D01*
X162638196Y-86951000D01*
X162513177Y-86938687D01*
X162352758Y-86890024D01*
X162204924Y-86811005D01*
X162204922Y-86811004D01*
X162075341Y-86704659D01*
X161968996Y-86575078D01*
X161958967Y-86556315D01*
X161889976Y-86427242D01*
X161841313Y-86266823D01*
X161824883Y-86100000D01*
X161841313Y-85933177D01*
X161889976Y-85772758D01*
X161968995Y-85624924D01*
X161968996Y-85624922D01*
X162075341Y-85495341D01*
X162204922Y-85388996D01*
X162220094Y-85380886D01*
X162352758Y-85309976D01*
X162513177Y-85261313D01*
X162638196Y-85249000D01*
X162721804Y-85249000D01*
X162846823Y-85261313D01*
X162846823Y-85261313D01*
G37*
G36*
X170466823Y-85261313D02*
G01*
X170627242Y-85309976D01*
X170759906Y-85380886D01*
X170775078Y-85388996D01*
X170904659Y-85495341D01*
X171011004Y-85624922D01*
X171011005Y-85624924D01*
X171090024Y-85772758D01*
X171138687Y-85933177D01*
X171155117Y-86100000D01*
X171138687Y-86266823D01*
X171090024Y-86427242D01*
X171021033Y-86556315D01*
X171011004Y-86575078D01*
X170904659Y-86704659D01*
X170775078Y-86811004D01*
X170775076Y-86811005D01*
X170627242Y-86890024D01*
X170466823Y-86938687D01*
X170341804Y-86951000D01*
X170258196Y-86951000D01*
X170133177Y-86938687D01*
X169972758Y-86890024D01*
X169824924Y-86811005D01*
X169824922Y-86811004D01*
X169695341Y-86704659D01*
X169588996Y-86575078D01*
X169578967Y-86556315D01*
X169509976Y-86427242D01*
X169461313Y-86266823D01*
X169444883Y-86100000D01*
X169461313Y-85933177D01*
X169509976Y-85772758D01*
X169588995Y-85624924D01*
X169588996Y-85624922D01*
X169695341Y-85495341D01*
X169824922Y-85388996D01*
X169840094Y-85380886D01*
X169972758Y-85309976D01*
X170133177Y-85261313D01*
X170258196Y-85249000D01*
X170341804Y-85249000D01*
X170466823Y-85261313D01*
X170466823Y-85261313D01*
G37*
G36*
X158901824Y-84016314D02*
G01*
X159062243Y-84064977D01*
X159194907Y-84135887D01*
X159210079Y-84143997D01*
X159339660Y-84250342D01*
X159446005Y-84379923D01*
X159446006Y-84379925D01*
X159525025Y-84527759D01*
X159573688Y-84688178D01*
X159590118Y-84855001D01*
X159573688Y-85021824D01*
X159525025Y-85182243D01*
X159456751Y-85309975D01*
X159446005Y-85330079D01*
X159339660Y-85459660D01*
X159210079Y-85566005D01*
X159210077Y-85566006D01*
X159062243Y-85645025D01*
X158901824Y-85693688D01*
X158776805Y-85706001D01*
X158693197Y-85706001D01*
X158568178Y-85693688D01*
X158407759Y-85645025D01*
X158259925Y-85566006D01*
X158259923Y-85566005D01*
X158130342Y-85459660D01*
X158023997Y-85330079D01*
X158013251Y-85309975D01*
X157944977Y-85182243D01*
X157896314Y-85021824D01*
X157879884Y-84855001D01*
X157896314Y-84688178D01*
X157944977Y-84527759D01*
X158023996Y-84379925D01*
X158023997Y-84379923D01*
X158130342Y-84250342D01*
X158259923Y-84143997D01*
X158275095Y-84135887D01*
X158407759Y-84064977D01*
X158568178Y-84016314D01*
X158693197Y-84004001D01*
X158776805Y-84004001D01*
X158901824Y-84016314D01*
X158901824Y-84016314D01*
G37*
G36*
X174141824Y-84016314D02*
G01*
X174302243Y-84064977D01*
X174434907Y-84135887D01*
X174450079Y-84143997D01*
X174579660Y-84250342D01*
X174686005Y-84379923D01*
X174686006Y-84379925D01*
X174765025Y-84527759D01*
X174813688Y-84688178D01*
X174830118Y-84855001D01*
X174813688Y-85021824D01*
X174765025Y-85182243D01*
X174696751Y-85309975D01*
X174686005Y-85330079D01*
X174579660Y-85459660D01*
X174450079Y-85566005D01*
X174450077Y-85566006D01*
X174302243Y-85645025D01*
X174141824Y-85693688D01*
X174016805Y-85706001D01*
X173933197Y-85706001D01*
X173808178Y-85693688D01*
X173647759Y-85645025D01*
X173499925Y-85566006D01*
X173499923Y-85566005D01*
X173370342Y-85459660D01*
X173263997Y-85330079D01*
X173253251Y-85309975D01*
X173184977Y-85182243D01*
X173136314Y-85021824D01*
X173119884Y-84855001D01*
X173136314Y-84688178D01*
X173184977Y-84527759D01*
X173263996Y-84379925D01*
X173263997Y-84379923D01*
X173370342Y-84250342D01*
X173499923Y-84143997D01*
X173515095Y-84135887D01*
X173647759Y-84064977D01*
X173808178Y-84016314D01*
X173933197Y-84004001D01*
X174016805Y-84004001D01*
X174141824Y-84016314D01*
X174141824Y-84016314D01*
G37*
G36*
X170466823Y-82721313D02*
G01*
X170627242Y-82769976D01*
X170759906Y-82840886D01*
X170775078Y-82848996D01*
X170904659Y-82955341D01*
X171011004Y-83084922D01*
X171011005Y-83084924D01*
X171090024Y-83232758D01*
X171138687Y-83393177D01*
X171155117Y-83560000D01*
X171138687Y-83726823D01*
X171090024Y-83887242D01*
X171021033Y-84016315D01*
X171011004Y-84035078D01*
X170904659Y-84164659D01*
X170775078Y-84271004D01*
X170775076Y-84271005D01*
X170627242Y-84350024D01*
X170466823Y-84398687D01*
X170341804Y-84411000D01*
X170258196Y-84411000D01*
X170133177Y-84398687D01*
X169972758Y-84350024D01*
X169824924Y-84271005D01*
X169824922Y-84271004D01*
X169695341Y-84164659D01*
X169588996Y-84035078D01*
X169578967Y-84016315D01*
X169509976Y-83887242D01*
X169461313Y-83726823D01*
X169444883Y-83560000D01*
X169461313Y-83393177D01*
X169509976Y-83232758D01*
X169588995Y-83084924D01*
X169588996Y-83084922D01*
X169695341Y-82955341D01*
X169824922Y-82848996D01*
X169840094Y-82840886D01*
X169972758Y-82769976D01*
X170133177Y-82721313D01*
X170258196Y-82709000D01*
X170341804Y-82709000D01*
X170466823Y-82721313D01*
X170466823Y-82721313D01*
G37*
G36*
X163531000Y-84411000D02*
G01*
X161829000Y-84411000D01*
X161829000Y-82709000D01*
X163531000Y-82709000D01*
X163531000Y-84411000D01*
X163531000Y-84411000D01*
G37*
G36*
X174141824Y-81476314D02*
G01*
X174302243Y-81524977D01*
X174434907Y-81595887D01*
X174450079Y-81603997D01*
X174579660Y-81710342D01*
X174686005Y-81839923D01*
X174686006Y-81839925D01*
X174765025Y-81987759D01*
X174813688Y-82148178D01*
X174830118Y-82315001D01*
X174813688Y-82481824D01*
X174765025Y-82642243D01*
X174696751Y-82769975D01*
X174686005Y-82790079D01*
X174579660Y-82919660D01*
X174450079Y-83026005D01*
X174450077Y-83026006D01*
X174302243Y-83105025D01*
X174141824Y-83153688D01*
X174016805Y-83166001D01*
X173933197Y-83166001D01*
X173808178Y-83153688D01*
X173647759Y-83105025D01*
X173499925Y-83026006D01*
X173499923Y-83026005D01*
X173370342Y-82919660D01*
X173263997Y-82790079D01*
X173253251Y-82769975D01*
X173184977Y-82642243D01*
X173136314Y-82481824D01*
X173119884Y-82315001D01*
X173136314Y-82148178D01*
X173184977Y-81987759D01*
X173263996Y-81839925D01*
X173263997Y-81839923D01*
X173370342Y-81710342D01*
X173499923Y-81603997D01*
X173515095Y-81595887D01*
X173647759Y-81524977D01*
X173808178Y-81476314D01*
X173933197Y-81464001D01*
X174016805Y-81464001D01*
X174141824Y-81476314D01*
X174141824Y-81476314D01*
G37*
G36*
X158901824Y-81476314D02*
G01*
X159062243Y-81524977D01*
X159194907Y-81595887D01*
X159210079Y-81603997D01*
X159339660Y-81710342D01*
X159446005Y-81839923D01*
X159446006Y-81839925D01*
X159525025Y-81987759D01*
X159573688Y-82148178D01*
X159590118Y-82315001D01*
X159573688Y-82481824D01*
X159525025Y-82642243D01*
X159456751Y-82769975D01*
X159446005Y-82790079D01*
X159339660Y-82919660D01*
X159210079Y-83026005D01*
X159210077Y-83026006D01*
X159062243Y-83105025D01*
X158901824Y-83153688D01*
X158776805Y-83166001D01*
X158693197Y-83166001D01*
X158568178Y-83153688D01*
X158407759Y-83105025D01*
X158259925Y-83026006D01*
X158259923Y-83026005D01*
X158130342Y-82919660D01*
X158023997Y-82790079D01*
X158013251Y-82769975D01*
X157944977Y-82642243D01*
X157896314Y-82481824D01*
X157879884Y-82315001D01*
X157896314Y-82148178D01*
X157944977Y-81987759D01*
X158023996Y-81839925D01*
X158023997Y-81839923D01*
X158130342Y-81710342D01*
X158259923Y-81603997D01*
X158275095Y-81595887D01*
X158407759Y-81524977D01*
X158568178Y-81476314D01*
X158693197Y-81464001D01*
X158776805Y-81464001D01*
X158901824Y-81476314D01*
X158901824Y-81476314D01*
G37*
G36*
X174141824Y-78936314D02*
G01*
X174302243Y-78984977D01*
X174434907Y-79055887D01*
X174450079Y-79063997D01*
X174579660Y-79170342D01*
X174686005Y-79299923D01*
X174686006Y-79299925D01*
X174765025Y-79447759D01*
X174813688Y-79608178D01*
X174830118Y-79775001D01*
X174813688Y-79941824D01*
X174765025Y-80102243D01*
X174694115Y-80234907D01*
X174686005Y-80250079D01*
X174579660Y-80379660D01*
X174450079Y-80486005D01*
X174450077Y-80486006D01*
X174302243Y-80565025D01*
X174141824Y-80613688D01*
X174016805Y-80626001D01*
X173933197Y-80626001D01*
X173808178Y-80613688D01*
X173647759Y-80565025D01*
X173499925Y-80486006D01*
X173499923Y-80486005D01*
X173370342Y-80379660D01*
X173263997Y-80250079D01*
X173255887Y-80234907D01*
X173184977Y-80102243D01*
X173136314Y-79941824D01*
X173119884Y-79775001D01*
X173136314Y-79608178D01*
X173184977Y-79447759D01*
X173263996Y-79299925D01*
X173263997Y-79299923D01*
X173370342Y-79170342D01*
X173499923Y-79063997D01*
X173515095Y-79055887D01*
X173647759Y-78984977D01*
X173808178Y-78936314D01*
X173933197Y-78924001D01*
X174016805Y-78924001D01*
X174141824Y-78936314D01*
X174141824Y-78936314D01*
G37*
G36*
X158901824Y-78936314D02*
G01*
X159062243Y-78984977D01*
X159194907Y-79055887D01*
X159210079Y-79063997D01*
X159339660Y-79170342D01*
X159446005Y-79299923D01*
X159446006Y-79299925D01*
X159525025Y-79447759D01*
X159573688Y-79608178D01*
X159590118Y-79775001D01*
X159573688Y-79941824D01*
X159525025Y-80102243D01*
X159454115Y-80234907D01*
X159446005Y-80250079D01*
X159339660Y-80379660D01*
X159210079Y-80486005D01*
X159210077Y-80486006D01*
X159062243Y-80565025D01*
X158901824Y-80613688D01*
X158776805Y-80626001D01*
X158693197Y-80626001D01*
X158568178Y-80613688D01*
X158407759Y-80565025D01*
X158259925Y-80486006D01*
X158259923Y-80486005D01*
X158130342Y-80379660D01*
X158023997Y-80250079D01*
X158015887Y-80234907D01*
X157944977Y-80102243D01*
X157896314Y-79941824D01*
X157879884Y-79775001D01*
X157896314Y-79608178D01*
X157944977Y-79447759D01*
X158023996Y-79299925D01*
X158023997Y-79299923D01*
X158130342Y-79170342D01*
X158259923Y-79063997D01*
X158275095Y-79055887D01*
X158407759Y-78984977D01*
X158568178Y-78936314D01*
X158693197Y-78924001D01*
X158776805Y-78924001D01*
X158901824Y-78936314D01*
X158901824Y-78936314D01*
G37*
G36*
X174141824Y-76396314D02*
G01*
X174302243Y-76444977D01*
X174434907Y-76515887D01*
X174450079Y-76523997D01*
X174579660Y-76630342D01*
X174686005Y-76759923D01*
X174686006Y-76759925D01*
X174765025Y-76907759D01*
X174813688Y-77068178D01*
X174830118Y-77235001D01*
X174813688Y-77401824D01*
X174765025Y-77562243D01*
X174694115Y-77694907D01*
X174686005Y-77710079D01*
X174579660Y-77839660D01*
X174450079Y-77946005D01*
X174450077Y-77946006D01*
X174302243Y-78025025D01*
X174141824Y-78073688D01*
X174016805Y-78086001D01*
X173933197Y-78086001D01*
X173808178Y-78073688D01*
X173647759Y-78025025D01*
X173499925Y-77946006D01*
X173499923Y-77946005D01*
X173370342Y-77839660D01*
X173263997Y-77710079D01*
X173255887Y-77694907D01*
X173184977Y-77562243D01*
X173136314Y-77401824D01*
X173119884Y-77235001D01*
X173136314Y-77068178D01*
X173184977Y-76907759D01*
X173263996Y-76759925D01*
X173263997Y-76759923D01*
X173370342Y-76630342D01*
X173499923Y-76523997D01*
X173515095Y-76515887D01*
X173647759Y-76444977D01*
X173808178Y-76396314D01*
X173933197Y-76384001D01*
X174016805Y-76384001D01*
X174141824Y-76396314D01*
X174141824Y-76396314D01*
G37*
G36*
X159586001Y-78086001D02*
G01*
X157884001Y-78086001D01*
X157884001Y-76384001D01*
X159586001Y-76384001D01*
X159586001Y-78086001D01*
X159586001Y-78086001D01*
G37*
M02*
