G04 #@! TF.GenerationSoftware,KiCad,Pcbnew,(5.1.4)-1*
G04 #@! TF.CreationDate,2021-03-20T22:52:07-04:00*
G04 #@! TF.ProjectId,27C256_to_82s137,32374332-3536-45f7-946f-5f3832733133,rev?*
G04 #@! TF.SameCoordinates,Original*
G04 #@! TF.FileFunction,Copper,L1,Top*
G04 #@! TF.FilePolarity,Positive*
%FSLAX46Y46*%
G04 Gerber Fmt 4.6, Leading zero omitted, Abs format (unit mm)*
G04 Created by KiCad (PCBNEW (5.1.4)-1) date 2021-03-20 22:52:07*
%MOMM*%
%LPD*%
G04 APERTURE LIST*
%ADD10O,1.600000X1.600000*%
%ADD11R,1.600000X1.600000*%
%ADD12C,0.500000*%
%ADD13C,0.250000*%
G04 APERTURE END LIST*
D10*
X170300000Y-83560000D03*
X162680000Y-103880000D03*
X170300000Y-86100000D03*
X162680000Y-101340000D03*
X170300000Y-88640000D03*
X162680000Y-98800000D03*
X170300000Y-91180000D03*
X162680000Y-96260000D03*
X170300000Y-93720000D03*
X162680000Y-93720000D03*
X170300000Y-96260000D03*
X162680000Y-91180000D03*
X170300000Y-98800000D03*
X162680000Y-88640000D03*
X170300000Y-101340000D03*
X162680000Y-86100000D03*
X170300000Y-103880000D03*
D11*
X162680000Y-83560000D03*
D10*
X173975001Y-77235001D03*
X158735001Y-110255001D03*
X173975001Y-79775001D03*
X158735001Y-107715001D03*
X173975001Y-82315001D03*
X158735001Y-105175001D03*
X173975001Y-84855001D03*
X158735001Y-102635001D03*
X173975001Y-87395001D03*
X158735001Y-100095001D03*
X173975001Y-89935001D03*
X158735001Y-97555001D03*
X173975001Y-92475001D03*
X158735001Y-95015001D03*
X173975001Y-95015001D03*
X158735001Y-92475001D03*
X173975001Y-97555001D03*
X158735001Y-89935001D03*
X173975001Y-100095001D03*
X158735001Y-87395001D03*
X173975001Y-102635001D03*
X158735001Y-84855001D03*
X173975001Y-105175001D03*
X158735001Y-82315001D03*
X173975001Y-107715001D03*
X158735001Y-79775001D03*
X173975001Y-110255001D03*
D11*
X158735001Y-77235001D03*
D12*
X170300000Y-78820000D02*
X171884999Y-77235001D01*
X170300000Y-83560000D02*
X170300000Y-78820000D01*
X173975001Y-77235001D02*
X171884999Y-77235001D01*
X171884999Y-77235001D02*
X158735001Y-77235001D01*
D13*
X169500001Y-85300001D02*
X167670001Y-85300001D01*
X170300000Y-86100000D02*
X169500001Y-85300001D01*
X164685001Y-82315001D02*
X165395000Y-83025000D01*
X158735001Y-82315001D02*
X164685001Y-82315001D01*
X167670001Y-85300001D02*
X165395000Y-83025000D01*
X171099999Y-103080001D02*
X171269999Y-103080001D01*
X170300000Y-103880000D02*
X171099999Y-103080001D01*
X171269999Y-103080001D02*
X172070000Y-102280000D01*
X172070000Y-99460002D02*
X173975001Y-97555001D01*
X172070000Y-102280000D02*
X172070000Y-99460002D01*
X173975001Y-84964999D02*
X173975001Y-84855001D01*
X170300000Y-88640000D02*
X173975001Y-84964999D01*
X163725001Y-95015001D02*
X158735001Y-95015001D01*
X164240000Y-95530000D02*
X163725001Y-95015001D01*
X162680000Y-98800000D02*
X164240000Y-97240000D01*
X164240000Y-97240000D02*
X164240000Y-95530000D01*
X173975001Y-87504999D02*
X173975001Y-87395001D01*
X170300000Y-91180000D02*
X173975001Y-87504999D01*
X158735001Y-97555001D02*
X159924999Y-97555001D01*
X161220000Y-96260000D02*
X162680000Y-96260000D01*
X159924999Y-97555001D02*
X161220000Y-96260000D01*
X168320000Y-93720000D02*
X170300000Y-93720000D01*
X167330000Y-94710000D02*
X168320000Y-93720000D01*
X167330000Y-98880000D02*
X167330000Y-94710000D01*
X158735001Y-102635001D02*
X163574999Y-102635001D01*
X163574999Y-102635001D02*
X167330000Y-98880000D01*
X163894999Y-100095001D02*
X158735001Y-100095001D01*
X164720000Y-99270000D02*
X163894999Y-100095001D01*
X164720000Y-95373590D02*
X164720000Y-99270000D01*
X163866409Y-94519999D02*
X164720000Y-95373590D01*
X162680000Y-93720000D02*
X163479999Y-94519999D01*
X163479999Y-94519999D02*
X163866409Y-94519999D01*
X168480000Y-96260000D02*
X170300000Y-96260000D01*
X167780010Y-96959990D02*
X168480000Y-96260000D01*
X167780010Y-101089990D02*
X167780010Y-96959990D01*
X158735001Y-105175001D02*
X163694999Y-105175001D01*
X163694999Y-105175001D02*
X167780010Y-101089990D01*
X160030002Y-91180000D02*
X158735001Y-92475001D01*
X162680000Y-91180000D02*
X160030002Y-91180000D01*
X168890000Y-98800000D02*
X170300000Y-98800000D01*
X168230020Y-99459980D02*
X168890000Y-98800000D01*
X168230020Y-101276390D02*
X168230020Y-99459980D01*
X162591408Y-106915002D02*
X168230020Y-101276390D01*
X158735001Y-107715001D02*
X159535000Y-106915002D01*
X159535000Y-106915002D02*
X162591408Y-106915002D01*
X160030002Y-88640000D02*
X158735001Y-89935001D01*
X162680000Y-88640000D02*
X160030002Y-88640000D01*
X169168630Y-101340000D02*
X168860000Y-101648630D01*
X170300000Y-101340000D02*
X169168630Y-101340000D01*
X168860000Y-101648630D02*
X168860000Y-107220000D01*
X171895001Y-110255001D02*
X173975001Y-110255001D01*
X168860000Y-107220000D02*
X171895001Y-110255001D01*
X160030002Y-86100000D02*
X158735001Y-87395001D01*
X162680000Y-86100000D02*
X160030002Y-86100000D01*
X163811370Y-101340000D02*
X165700000Y-99451370D01*
X162680000Y-101340000D02*
X163811370Y-101340000D01*
X165700000Y-99451370D02*
X165700000Y-94030000D01*
X167135001Y-92594999D02*
X166540000Y-93190000D01*
X172723633Y-92594999D02*
X167135001Y-92594999D01*
X172843631Y-92475001D02*
X172723633Y-92594999D01*
X173975001Y-92475001D02*
X172843631Y-92475001D01*
X165700000Y-94030000D02*
X166540000Y-93190000D01*
X160030002Y-83560000D02*
X158735001Y-84855001D01*
X162680000Y-83560000D02*
X160030002Y-83560000D01*
M02*
