G04 #@! TF.GenerationSoftware,KiCad,Pcbnew,(5.1.4)-1*
G04 #@! TF.CreationDate,2021-03-24T17:48:36-04:00*
G04 #@! TF.ProjectId,27c256_to_82s147,32376332-3536-45f7-946f-5f3832733134,rev?*
G04 #@! TF.SameCoordinates,Original*
G04 #@! TF.FileFunction,Copper,L1,Top*
G04 #@! TF.FilePolarity,Positive*
%FSLAX46Y46*%
G04 Gerber Fmt 4.6, Leading zero omitted, Abs format (unit mm)*
G04 Created by KiCad (PCBNEW (5.1.4)-1) date 2021-03-24 17:48:36*
%MOMM*%
%LPD*%
G04 APERTURE LIST*
%ADD10O,1.600000X1.600000*%
%ADD11R,1.600000X1.600000*%
%ADD12C,0.500000*%
%ADD13C,0.250000*%
G04 APERTURE END LIST*
D10*
X136600000Y-85110000D03*
X128980000Y-107970000D03*
X136600000Y-87650000D03*
X128980000Y-105430000D03*
X136600000Y-90190000D03*
X128980000Y-102890000D03*
X136600000Y-92730000D03*
X128980000Y-100350000D03*
X136600000Y-95270000D03*
X128980000Y-97810000D03*
X136600000Y-97810000D03*
X128980000Y-95270000D03*
X136600000Y-100350000D03*
X128980000Y-92730000D03*
X136600000Y-102890000D03*
X128980000Y-90190000D03*
X136600000Y-105430000D03*
X128980000Y-87650000D03*
X136600000Y-107970000D03*
D11*
X128980000Y-85110000D03*
D10*
X140265001Y-80025001D03*
X125025001Y-113045001D03*
X140265001Y-82565001D03*
X125025001Y-110505001D03*
X140265001Y-85105001D03*
X125025001Y-107965001D03*
X140265001Y-87645001D03*
X125025001Y-105425001D03*
X140265001Y-90185001D03*
X125025001Y-102885001D03*
X140265001Y-92725001D03*
X125025001Y-100345001D03*
X140265001Y-95265001D03*
X125025001Y-97805001D03*
X140265001Y-97805001D03*
X125025001Y-95265001D03*
X140265001Y-100345001D03*
X125025001Y-92725001D03*
X140265001Y-102885001D03*
X125025001Y-90185001D03*
X140265001Y-105425001D03*
X125025001Y-87645001D03*
X140265001Y-107965001D03*
X125025001Y-85105001D03*
X140265001Y-110505001D03*
X125025001Y-82565001D03*
X140265001Y-113045001D03*
D11*
X125025001Y-80025001D03*
D12*
X140265001Y-80025001D02*
X137174999Y-80025001D01*
X136600000Y-80600000D02*
X136600000Y-85110000D01*
X137174999Y-80025001D02*
X136600000Y-80600000D01*
X137174999Y-80025001D02*
X125025001Y-80025001D01*
D13*
X140260002Y-87650000D02*
X140265001Y-87645001D01*
X136600000Y-87650000D02*
X140260002Y-87650000D01*
X136595001Y-113045001D02*
X131230000Y-107680000D01*
X140265001Y-113045001D02*
X136595001Y-113045001D01*
X131230000Y-107680000D02*
X128980000Y-105430000D01*
X126194999Y-110505001D02*
X125025001Y-110505001D01*
X127660000Y-109040000D02*
X126194999Y-110505001D01*
X128980000Y-102890000D02*
X127660000Y-104210000D01*
X127660000Y-104210000D02*
X127660000Y-109040000D01*
X139144999Y-95265001D02*
X140265001Y-95265001D01*
X136600000Y-97810000D02*
X139144999Y-95265001D01*
X139135001Y-100345001D02*
X140265001Y-100345001D01*
X136600000Y-97810000D02*
X139135001Y-100345001D01*
X129520001Y-91604999D02*
X130300000Y-92384998D01*
X125025001Y-92725001D02*
X126145003Y-91604999D01*
X126145003Y-91604999D02*
X129520001Y-91604999D01*
X130300000Y-93950000D02*
X128980000Y-95270000D01*
X130300000Y-92384998D02*
X130300000Y-93950000D01*
X139135001Y-102885001D02*
X140265001Y-102885001D01*
X136600000Y-100350000D02*
X139135001Y-102885001D01*
X126444999Y-95265001D02*
X125025001Y-95265001D01*
X128980000Y-92730000D02*
X126444999Y-95265001D01*
X139135001Y-105425001D02*
X140265001Y-105425001D01*
X136600000Y-102890000D02*
X139135001Y-105425001D01*
X126524999Y-97805001D02*
X125025001Y-97805001D01*
X127780000Y-96550000D02*
X126524999Y-97805001D01*
X129450000Y-96550000D02*
X127780000Y-96550000D01*
X130750010Y-95249990D02*
X129450000Y-96550000D01*
X128980000Y-90190000D02*
X130750010Y-91960010D01*
X130750010Y-91960010D02*
X130750010Y-95249990D01*
X139135001Y-107965001D02*
X140265001Y-107965001D01*
X136600000Y-105430000D02*
X139135001Y-107965001D01*
X126350002Y-99020000D02*
X125025001Y-100345001D01*
X129930000Y-99020000D02*
X126350002Y-99020000D01*
X131200020Y-97749980D02*
X129930000Y-99020000D01*
X128980000Y-87650000D02*
X131200020Y-89870020D01*
X131200020Y-89870020D02*
X131200020Y-97749980D01*
X139135001Y-110505001D02*
X140265001Y-110505001D01*
X136600000Y-107970000D02*
X139135001Y-110505001D01*
X126370002Y-101540000D02*
X125025001Y-102885001D01*
X130120000Y-101540000D02*
X126370002Y-101540000D01*
X131650030Y-100009970D02*
X130120000Y-101540000D01*
X131650030Y-86730030D02*
X131650030Y-100009970D01*
X128980000Y-85110000D02*
X130030000Y-85110000D01*
X130030000Y-85110000D02*
X131650030Y-86730030D01*
M02*
