M48
METRIC,TZ
T1C0.800
%
G90
G05
T1
X128980Y-85110
X128980Y-87650
X128980Y-90190
X128980Y-92730
X128980Y-95270
X128980Y-97810
X128980Y-100350
X128980Y-102890
X128980Y-105430
X128980Y-107970
X136600Y-85110
X136600Y-87650
X136600Y-90190
X136600Y-92730
X136600Y-95270
X136600Y-97810
X136600Y-100350
X136600Y-102890
X136600Y-105430
X136600Y-107970
X125025Y-80025
X125025Y-82565
X125025Y-85105
X125025Y-87645
X125025Y-90185
X125025Y-92725
X125025Y-95265
X125025Y-97805
X125025Y-100345
X125025Y-102885
X125025Y-105425
X125025Y-107965
X125025Y-110505
X125025Y-113045
X140265Y-80025
X140265Y-82565
X140265Y-85105
X140265Y-87645
X140265Y-90185
X140265Y-92725
X140265Y-95265
X140265Y-97805
X140265Y-100345
X140265Y-102885
X140265Y-105425
X140265Y-107965
X140265Y-110505
X140265Y-113045
T0
M30
