G04 #@! TF.GenerationSoftware,KiCad,Pcbnew,(5.1.4)-1*
G04 #@! TF.CreationDate,2021-03-24T17:48:36-04:00*
G04 #@! TF.ProjectId,27c256_to_82s147,32376332-3536-45f7-946f-5f3832733134,rev?*
G04 #@! TF.SameCoordinates,Original*
G04 #@! TF.FileFunction,Soldermask,Bot*
G04 #@! TF.FilePolarity,Negative*
%FSLAX46Y46*%
G04 Gerber Fmt 4.6, Leading zero omitted, Abs format (unit mm)*
G04 Created by KiCad (PCBNEW (5.1.4)-1) date 2021-03-24 17:48:36*
%MOMM*%
%LPD*%
G04 APERTURE LIST*
%ADD10C,0.100000*%
G04 APERTURE END LIST*
D10*
G36*
X140431824Y-112206314D02*
G01*
X140592243Y-112254977D01*
X140724907Y-112325887D01*
X140740079Y-112333997D01*
X140869660Y-112440342D01*
X140976005Y-112569923D01*
X140976006Y-112569925D01*
X141055025Y-112717759D01*
X141103688Y-112878178D01*
X141120118Y-113045001D01*
X141103688Y-113211824D01*
X141055025Y-113372243D01*
X140984115Y-113504907D01*
X140976005Y-113520079D01*
X140869660Y-113649660D01*
X140740079Y-113756005D01*
X140740077Y-113756006D01*
X140592243Y-113835025D01*
X140431824Y-113883688D01*
X140306805Y-113896001D01*
X140223197Y-113896001D01*
X140098178Y-113883688D01*
X139937759Y-113835025D01*
X139789925Y-113756006D01*
X139789923Y-113756005D01*
X139660342Y-113649660D01*
X139553997Y-113520079D01*
X139545887Y-113504907D01*
X139474977Y-113372243D01*
X139426314Y-113211824D01*
X139409884Y-113045001D01*
X139426314Y-112878178D01*
X139474977Y-112717759D01*
X139553996Y-112569925D01*
X139553997Y-112569923D01*
X139660342Y-112440342D01*
X139789923Y-112333997D01*
X139805095Y-112325887D01*
X139937759Y-112254977D01*
X140098178Y-112206314D01*
X140223197Y-112194001D01*
X140306805Y-112194001D01*
X140431824Y-112206314D01*
X140431824Y-112206314D01*
G37*
G36*
X125191824Y-112206314D02*
G01*
X125352243Y-112254977D01*
X125484907Y-112325887D01*
X125500079Y-112333997D01*
X125629660Y-112440342D01*
X125736005Y-112569923D01*
X125736006Y-112569925D01*
X125815025Y-112717759D01*
X125863688Y-112878178D01*
X125880118Y-113045001D01*
X125863688Y-113211824D01*
X125815025Y-113372243D01*
X125744115Y-113504907D01*
X125736005Y-113520079D01*
X125629660Y-113649660D01*
X125500079Y-113756005D01*
X125500077Y-113756006D01*
X125352243Y-113835025D01*
X125191824Y-113883688D01*
X125066805Y-113896001D01*
X124983197Y-113896001D01*
X124858178Y-113883688D01*
X124697759Y-113835025D01*
X124549925Y-113756006D01*
X124549923Y-113756005D01*
X124420342Y-113649660D01*
X124313997Y-113520079D01*
X124305887Y-113504907D01*
X124234977Y-113372243D01*
X124186314Y-113211824D01*
X124169884Y-113045001D01*
X124186314Y-112878178D01*
X124234977Y-112717759D01*
X124313996Y-112569925D01*
X124313997Y-112569923D01*
X124420342Y-112440342D01*
X124549923Y-112333997D01*
X124565095Y-112325887D01*
X124697759Y-112254977D01*
X124858178Y-112206314D01*
X124983197Y-112194001D01*
X125066805Y-112194001D01*
X125191824Y-112206314D01*
X125191824Y-112206314D01*
G37*
G36*
X140431824Y-109666314D02*
G01*
X140592243Y-109714977D01*
X140724907Y-109785887D01*
X140740079Y-109793997D01*
X140869660Y-109900342D01*
X140976005Y-110029923D01*
X140976006Y-110029925D01*
X141055025Y-110177759D01*
X141103688Y-110338178D01*
X141120118Y-110505001D01*
X141103688Y-110671824D01*
X141055025Y-110832243D01*
X140984115Y-110964907D01*
X140976005Y-110980079D01*
X140869660Y-111109660D01*
X140740079Y-111216005D01*
X140740077Y-111216006D01*
X140592243Y-111295025D01*
X140431824Y-111343688D01*
X140306805Y-111356001D01*
X140223197Y-111356001D01*
X140098178Y-111343688D01*
X139937759Y-111295025D01*
X139789925Y-111216006D01*
X139789923Y-111216005D01*
X139660342Y-111109660D01*
X139553997Y-110980079D01*
X139545887Y-110964907D01*
X139474977Y-110832243D01*
X139426314Y-110671824D01*
X139409884Y-110505001D01*
X139426314Y-110338178D01*
X139474977Y-110177759D01*
X139553996Y-110029925D01*
X139553997Y-110029923D01*
X139660342Y-109900342D01*
X139789923Y-109793997D01*
X139805095Y-109785887D01*
X139937759Y-109714977D01*
X140098178Y-109666314D01*
X140223197Y-109654001D01*
X140306805Y-109654001D01*
X140431824Y-109666314D01*
X140431824Y-109666314D01*
G37*
G36*
X125191824Y-109666314D02*
G01*
X125352243Y-109714977D01*
X125484907Y-109785887D01*
X125500079Y-109793997D01*
X125629660Y-109900342D01*
X125736005Y-110029923D01*
X125736006Y-110029925D01*
X125815025Y-110177759D01*
X125863688Y-110338178D01*
X125880118Y-110505001D01*
X125863688Y-110671824D01*
X125815025Y-110832243D01*
X125744115Y-110964907D01*
X125736005Y-110980079D01*
X125629660Y-111109660D01*
X125500079Y-111216005D01*
X125500077Y-111216006D01*
X125352243Y-111295025D01*
X125191824Y-111343688D01*
X125066805Y-111356001D01*
X124983197Y-111356001D01*
X124858178Y-111343688D01*
X124697759Y-111295025D01*
X124549925Y-111216006D01*
X124549923Y-111216005D01*
X124420342Y-111109660D01*
X124313997Y-110980079D01*
X124305887Y-110964907D01*
X124234977Y-110832243D01*
X124186314Y-110671824D01*
X124169884Y-110505001D01*
X124186314Y-110338178D01*
X124234977Y-110177759D01*
X124313996Y-110029925D01*
X124313997Y-110029923D01*
X124420342Y-109900342D01*
X124549923Y-109793997D01*
X124565095Y-109785887D01*
X124697759Y-109714977D01*
X124858178Y-109666314D01*
X124983197Y-109654001D01*
X125066805Y-109654001D01*
X125191824Y-109666314D01*
X125191824Y-109666314D01*
G37*
G36*
X129146823Y-107131313D02*
G01*
X129307242Y-107179976D01*
X129439906Y-107250886D01*
X129455078Y-107258996D01*
X129584659Y-107365341D01*
X129691004Y-107494922D01*
X129691005Y-107494924D01*
X129770024Y-107642758D01*
X129818687Y-107803177D01*
X129835117Y-107970000D01*
X129818687Y-108136823D01*
X129818686Y-108136825D01*
X129771541Y-108292243D01*
X129770024Y-108297242D01*
X129699114Y-108429906D01*
X129691004Y-108445078D01*
X129584659Y-108574659D01*
X129455078Y-108681004D01*
X129455076Y-108681005D01*
X129307242Y-108760024D01*
X129146823Y-108808687D01*
X129021804Y-108821000D01*
X128938196Y-108821000D01*
X128813177Y-108808687D01*
X128652758Y-108760024D01*
X128504924Y-108681005D01*
X128504922Y-108681004D01*
X128375341Y-108574659D01*
X128268996Y-108445078D01*
X128260886Y-108429906D01*
X128189976Y-108297242D01*
X128188460Y-108292243D01*
X128141314Y-108136825D01*
X128141313Y-108136823D01*
X128124883Y-107970000D01*
X128141313Y-107803177D01*
X128189976Y-107642758D01*
X128268995Y-107494924D01*
X128268996Y-107494922D01*
X128375341Y-107365341D01*
X128504922Y-107258996D01*
X128520094Y-107250886D01*
X128652758Y-107179976D01*
X128813177Y-107131313D01*
X128938196Y-107119000D01*
X129021804Y-107119000D01*
X129146823Y-107131313D01*
X129146823Y-107131313D01*
G37*
G36*
X136766823Y-107131313D02*
G01*
X136927242Y-107179976D01*
X137059906Y-107250886D01*
X137075078Y-107258996D01*
X137204659Y-107365341D01*
X137311004Y-107494922D01*
X137311005Y-107494924D01*
X137390024Y-107642758D01*
X137438687Y-107803177D01*
X137455117Y-107970000D01*
X137438687Y-108136823D01*
X137438686Y-108136825D01*
X137391541Y-108292243D01*
X137390024Y-108297242D01*
X137319114Y-108429906D01*
X137311004Y-108445078D01*
X137204659Y-108574659D01*
X137075078Y-108681004D01*
X137075076Y-108681005D01*
X136927242Y-108760024D01*
X136766823Y-108808687D01*
X136641804Y-108821000D01*
X136558196Y-108821000D01*
X136433177Y-108808687D01*
X136272758Y-108760024D01*
X136124924Y-108681005D01*
X136124922Y-108681004D01*
X135995341Y-108574659D01*
X135888996Y-108445078D01*
X135880886Y-108429906D01*
X135809976Y-108297242D01*
X135808460Y-108292243D01*
X135761314Y-108136825D01*
X135761313Y-108136823D01*
X135744883Y-107970000D01*
X135761313Y-107803177D01*
X135809976Y-107642758D01*
X135888995Y-107494924D01*
X135888996Y-107494922D01*
X135995341Y-107365341D01*
X136124922Y-107258996D01*
X136140094Y-107250886D01*
X136272758Y-107179976D01*
X136433177Y-107131313D01*
X136558196Y-107119000D01*
X136641804Y-107119000D01*
X136766823Y-107131313D01*
X136766823Y-107131313D01*
G37*
G36*
X140431824Y-107126314D02*
G01*
X140592243Y-107174977D01*
X140724907Y-107245887D01*
X140740079Y-107253997D01*
X140869660Y-107360342D01*
X140976005Y-107489923D01*
X140976006Y-107489925D01*
X141055025Y-107637759D01*
X141055026Y-107637762D01*
X141056542Y-107642761D01*
X141103688Y-107798178D01*
X141120118Y-107965001D01*
X141103688Y-108131824D01*
X141055025Y-108292243D01*
X140984115Y-108424907D01*
X140976005Y-108440079D01*
X140869660Y-108569660D01*
X140740079Y-108676005D01*
X140740077Y-108676006D01*
X140592243Y-108755025D01*
X140431824Y-108803688D01*
X140306805Y-108816001D01*
X140223197Y-108816001D01*
X140098178Y-108803688D01*
X139937759Y-108755025D01*
X139789925Y-108676006D01*
X139789923Y-108676005D01*
X139660342Y-108569660D01*
X139553997Y-108440079D01*
X139545887Y-108424907D01*
X139474977Y-108292243D01*
X139426314Y-108131824D01*
X139409884Y-107965001D01*
X139426314Y-107798178D01*
X139473460Y-107642761D01*
X139474976Y-107637762D01*
X139474977Y-107637759D01*
X139553996Y-107489925D01*
X139553997Y-107489923D01*
X139660342Y-107360342D01*
X139789923Y-107253997D01*
X139805095Y-107245887D01*
X139937759Y-107174977D01*
X140098178Y-107126314D01*
X140223197Y-107114001D01*
X140306805Y-107114001D01*
X140431824Y-107126314D01*
X140431824Y-107126314D01*
G37*
G36*
X125191824Y-107126314D02*
G01*
X125352243Y-107174977D01*
X125484907Y-107245887D01*
X125500079Y-107253997D01*
X125629660Y-107360342D01*
X125736005Y-107489923D01*
X125736006Y-107489925D01*
X125815025Y-107637759D01*
X125815026Y-107637762D01*
X125816542Y-107642761D01*
X125863688Y-107798178D01*
X125880118Y-107965001D01*
X125863688Y-108131824D01*
X125815025Y-108292243D01*
X125744115Y-108424907D01*
X125736005Y-108440079D01*
X125629660Y-108569660D01*
X125500079Y-108676005D01*
X125500077Y-108676006D01*
X125352243Y-108755025D01*
X125191824Y-108803688D01*
X125066805Y-108816001D01*
X124983197Y-108816001D01*
X124858178Y-108803688D01*
X124697759Y-108755025D01*
X124549925Y-108676006D01*
X124549923Y-108676005D01*
X124420342Y-108569660D01*
X124313997Y-108440079D01*
X124305887Y-108424907D01*
X124234977Y-108292243D01*
X124186314Y-108131824D01*
X124169884Y-107965001D01*
X124186314Y-107798178D01*
X124233460Y-107642761D01*
X124234976Y-107637762D01*
X124234977Y-107637759D01*
X124313996Y-107489925D01*
X124313997Y-107489923D01*
X124420342Y-107360342D01*
X124549923Y-107253997D01*
X124565095Y-107245887D01*
X124697759Y-107174977D01*
X124858178Y-107126314D01*
X124983197Y-107114001D01*
X125066805Y-107114001D01*
X125191824Y-107126314D01*
X125191824Y-107126314D01*
G37*
G36*
X129146823Y-104591313D02*
G01*
X129307242Y-104639976D01*
X129439906Y-104710886D01*
X129455078Y-104718996D01*
X129584659Y-104825341D01*
X129691004Y-104954922D01*
X129691005Y-104954924D01*
X129770024Y-105102758D01*
X129818687Y-105263177D01*
X129835117Y-105430000D01*
X129818687Y-105596823D01*
X129818686Y-105596825D01*
X129771541Y-105752243D01*
X129770024Y-105757242D01*
X129699114Y-105889906D01*
X129691004Y-105905078D01*
X129584659Y-106034659D01*
X129455078Y-106141004D01*
X129455076Y-106141005D01*
X129307242Y-106220024D01*
X129146823Y-106268687D01*
X129021804Y-106281000D01*
X128938196Y-106281000D01*
X128813177Y-106268687D01*
X128652758Y-106220024D01*
X128504924Y-106141005D01*
X128504922Y-106141004D01*
X128375341Y-106034659D01*
X128268996Y-105905078D01*
X128260886Y-105889906D01*
X128189976Y-105757242D01*
X128188460Y-105752243D01*
X128141314Y-105596825D01*
X128141313Y-105596823D01*
X128124883Y-105430000D01*
X128141313Y-105263177D01*
X128189976Y-105102758D01*
X128268995Y-104954924D01*
X128268996Y-104954922D01*
X128375341Y-104825341D01*
X128504922Y-104718996D01*
X128520094Y-104710886D01*
X128652758Y-104639976D01*
X128813177Y-104591313D01*
X128938196Y-104579000D01*
X129021804Y-104579000D01*
X129146823Y-104591313D01*
X129146823Y-104591313D01*
G37*
G36*
X136766823Y-104591313D02*
G01*
X136927242Y-104639976D01*
X137059906Y-104710886D01*
X137075078Y-104718996D01*
X137204659Y-104825341D01*
X137311004Y-104954922D01*
X137311005Y-104954924D01*
X137390024Y-105102758D01*
X137438687Y-105263177D01*
X137455117Y-105430000D01*
X137438687Y-105596823D01*
X137438686Y-105596825D01*
X137391541Y-105752243D01*
X137390024Y-105757242D01*
X137319114Y-105889906D01*
X137311004Y-105905078D01*
X137204659Y-106034659D01*
X137075078Y-106141004D01*
X137075076Y-106141005D01*
X136927242Y-106220024D01*
X136766823Y-106268687D01*
X136641804Y-106281000D01*
X136558196Y-106281000D01*
X136433177Y-106268687D01*
X136272758Y-106220024D01*
X136124924Y-106141005D01*
X136124922Y-106141004D01*
X135995341Y-106034659D01*
X135888996Y-105905078D01*
X135880886Y-105889906D01*
X135809976Y-105757242D01*
X135808460Y-105752243D01*
X135761314Y-105596825D01*
X135761313Y-105596823D01*
X135744883Y-105430000D01*
X135761313Y-105263177D01*
X135809976Y-105102758D01*
X135888995Y-104954924D01*
X135888996Y-104954922D01*
X135995341Y-104825341D01*
X136124922Y-104718996D01*
X136140094Y-104710886D01*
X136272758Y-104639976D01*
X136433177Y-104591313D01*
X136558196Y-104579000D01*
X136641804Y-104579000D01*
X136766823Y-104591313D01*
X136766823Y-104591313D01*
G37*
G36*
X140431824Y-104586314D02*
G01*
X140592243Y-104634977D01*
X140724907Y-104705887D01*
X140740079Y-104713997D01*
X140869660Y-104820342D01*
X140976005Y-104949923D01*
X140976006Y-104949925D01*
X141055025Y-105097759D01*
X141055026Y-105097762D01*
X141056542Y-105102761D01*
X141103688Y-105258178D01*
X141120118Y-105425001D01*
X141103688Y-105591824D01*
X141055025Y-105752243D01*
X140984115Y-105884907D01*
X140976005Y-105900079D01*
X140869660Y-106029660D01*
X140740079Y-106136005D01*
X140740077Y-106136006D01*
X140592243Y-106215025D01*
X140431824Y-106263688D01*
X140306805Y-106276001D01*
X140223197Y-106276001D01*
X140098178Y-106263688D01*
X139937759Y-106215025D01*
X139789925Y-106136006D01*
X139789923Y-106136005D01*
X139660342Y-106029660D01*
X139553997Y-105900079D01*
X139545887Y-105884907D01*
X139474977Y-105752243D01*
X139426314Y-105591824D01*
X139409884Y-105425001D01*
X139426314Y-105258178D01*
X139473460Y-105102761D01*
X139474976Y-105097762D01*
X139474977Y-105097759D01*
X139553996Y-104949925D01*
X139553997Y-104949923D01*
X139660342Y-104820342D01*
X139789923Y-104713997D01*
X139805095Y-104705887D01*
X139937759Y-104634977D01*
X140098178Y-104586314D01*
X140223197Y-104574001D01*
X140306805Y-104574001D01*
X140431824Y-104586314D01*
X140431824Y-104586314D01*
G37*
G36*
X125191824Y-104586314D02*
G01*
X125352243Y-104634977D01*
X125484907Y-104705887D01*
X125500079Y-104713997D01*
X125629660Y-104820342D01*
X125736005Y-104949923D01*
X125736006Y-104949925D01*
X125815025Y-105097759D01*
X125815026Y-105097762D01*
X125816542Y-105102761D01*
X125863688Y-105258178D01*
X125880118Y-105425001D01*
X125863688Y-105591824D01*
X125815025Y-105752243D01*
X125744115Y-105884907D01*
X125736005Y-105900079D01*
X125629660Y-106029660D01*
X125500079Y-106136005D01*
X125500077Y-106136006D01*
X125352243Y-106215025D01*
X125191824Y-106263688D01*
X125066805Y-106276001D01*
X124983197Y-106276001D01*
X124858178Y-106263688D01*
X124697759Y-106215025D01*
X124549925Y-106136006D01*
X124549923Y-106136005D01*
X124420342Y-106029660D01*
X124313997Y-105900079D01*
X124305887Y-105884907D01*
X124234977Y-105752243D01*
X124186314Y-105591824D01*
X124169884Y-105425001D01*
X124186314Y-105258178D01*
X124233460Y-105102761D01*
X124234976Y-105097762D01*
X124234977Y-105097759D01*
X124313996Y-104949925D01*
X124313997Y-104949923D01*
X124420342Y-104820342D01*
X124549923Y-104713997D01*
X124565095Y-104705887D01*
X124697759Y-104634977D01*
X124858178Y-104586314D01*
X124983197Y-104574001D01*
X125066805Y-104574001D01*
X125191824Y-104586314D01*
X125191824Y-104586314D01*
G37*
G36*
X136766823Y-102051313D02*
G01*
X136927242Y-102099976D01*
X137059906Y-102170886D01*
X137075078Y-102178996D01*
X137204659Y-102285341D01*
X137311004Y-102414922D01*
X137311005Y-102414924D01*
X137390024Y-102562758D01*
X137438687Y-102723177D01*
X137455117Y-102890000D01*
X137438687Y-103056823D01*
X137438686Y-103056825D01*
X137391541Y-103212243D01*
X137390024Y-103217242D01*
X137319114Y-103349906D01*
X137311004Y-103365078D01*
X137204659Y-103494659D01*
X137075078Y-103601004D01*
X137075076Y-103601005D01*
X136927242Y-103680024D01*
X136766823Y-103728687D01*
X136641804Y-103741000D01*
X136558196Y-103741000D01*
X136433177Y-103728687D01*
X136272758Y-103680024D01*
X136124924Y-103601005D01*
X136124922Y-103601004D01*
X135995341Y-103494659D01*
X135888996Y-103365078D01*
X135880886Y-103349906D01*
X135809976Y-103217242D01*
X135808460Y-103212243D01*
X135761314Y-103056825D01*
X135761313Y-103056823D01*
X135744883Y-102890000D01*
X135761313Y-102723177D01*
X135809976Y-102562758D01*
X135888995Y-102414924D01*
X135888996Y-102414922D01*
X135995341Y-102285341D01*
X136124922Y-102178996D01*
X136140094Y-102170886D01*
X136272758Y-102099976D01*
X136433177Y-102051313D01*
X136558196Y-102039000D01*
X136641804Y-102039000D01*
X136766823Y-102051313D01*
X136766823Y-102051313D01*
G37*
G36*
X129146823Y-102051313D02*
G01*
X129307242Y-102099976D01*
X129439906Y-102170886D01*
X129455078Y-102178996D01*
X129584659Y-102285341D01*
X129691004Y-102414922D01*
X129691005Y-102414924D01*
X129770024Y-102562758D01*
X129818687Y-102723177D01*
X129835117Y-102890000D01*
X129818687Y-103056823D01*
X129818686Y-103056825D01*
X129771541Y-103212243D01*
X129770024Y-103217242D01*
X129699114Y-103349906D01*
X129691004Y-103365078D01*
X129584659Y-103494659D01*
X129455078Y-103601004D01*
X129455076Y-103601005D01*
X129307242Y-103680024D01*
X129146823Y-103728687D01*
X129021804Y-103741000D01*
X128938196Y-103741000D01*
X128813177Y-103728687D01*
X128652758Y-103680024D01*
X128504924Y-103601005D01*
X128504922Y-103601004D01*
X128375341Y-103494659D01*
X128268996Y-103365078D01*
X128260886Y-103349906D01*
X128189976Y-103217242D01*
X128188460Y-103212243D01*
X128141314Y-103056825D01*
X128141313Y-103056823D01*
X128124883Y-102890000D01*
X128141313Y-102723177D01*
X128189976Y-102562758D01*
X128268995Y-102414924D01*
X128268996Y-102414922D01*
X128375341Y-102285341D01*
X128504922Y-102178996D01*
X128520094Y-102170886D01*
X128652758Y-102099976D01*
X128813177Y-102051313D01*
X128938196Y-102039000D01*
X129021804Y-102039000D01*
X129146823Y-102051313D01*
X129146823Y-102051313D01*
G37*
G36*
X125191824Y-102046314D02*
G01*
X125352243Y-102094977D01*
X125484907Y-102165887D01*
X125500079Y-102173997D01*
X125629660Y-102280342D01*
X125736005Y-102409923D01*
X125736006Y-102409925D01*
X125815025Y-102557759D01*
X125815026Y-102557762D01*
X125816542Y-102562761D01*
X125863688Y-102718178D01*
X125880118Y-102885001D01*
X125863688Y-103051824D01*
X125815025Y-103212243D01*
X125744115Y-103344907D01*
X125736005Y-103360079D01*
X125629660Y-103489660D01*
X125500079Y-103596005D01*
X125500077Y-103596006D01*
X125352243Y-103675025D01*
X125191824Y-103723688D01*
X125066805Y-103736001D01*
X124983197Y-103736001D01*
X124858178Y-103723688D01*
X124697759Y-103675025D01*
X124549925Y-103596006D01*
X124549923Y-103596005D01*
X124420342Y-103489660D01*
X124313997Y-103360079D01*
X124305887Y-103344907D01*
X124234977Y-103212243D01*
X124186314Y-103051824D01*
X124169884Y-102885001D01*
X124186314Y-102718178D01*
X124233460Y-102562761D01*
X124234976Y-102557762D01*
X124234977Y-102557759D01*
X124313996Y-102409925D01*
X124313997Y-102409923D01*
X124420342Y-102280342D01*
X124549923Y-102173997D01*
X124565095Y-102165887D01*
X124697759Y-102094977D01*
X124858178Y-102046314D01*
X124983197Y-102034001D01*
X125066805Y-102034001D01*
X125191824Y-102046314D01*
X125191824Y-102046314D01*
G37*
G36*
X140431824Y-102046314D02*
G01*
X140592243Y-102094977D01*
X140724907Y-102165887D01*
X140740079Y-102173997D01*
X140869660Y-102280342D01*
X140976005Y-102409923D01*
X140976006Y-102409925D01*
X141055025Y-102557759D01*
X141055026Y-102557762D01*
X141056542Y-102562761D01*
X141103688Y-102718178D01*
X141120118Y-102885001D01*
X141103688Y-103051824D01*
X141055025Y-103212243D01*
X140984115Y-103344907D01*
X140976005Y-103360079D01*
X140869660Y-103489660D01*
X140740079Y-103596005D01*
X140740077Y-103596006D01*
X140592243Y-103675025D01*
X140431824Y-103723688D01*
X140306805Y-103736001D01*
X140223197Y-103736001D01*
X140098178Y-103723688D01*
X139937759Y-103675025D01*
X139789925Y-103596006D01*
X139789923Y-103596005D01*
X139660342Y-103489660D01*
X139553997Y-103360079D01*
X139545887Y-103344907D01*
X139474977Y-103212243D01*
X139426314Y-103051824D01*
X139409884Y-102885001D01*
X139426314Y-102718178D01*
X139473460Y-102562761D01*
X139474976Y-102557762D01*
X139474977Y-102557759D01*
X139553996Y-102409925D01*
X139553997Y-102409923D01*
X139660342Y-102280342D01*
X139789923Y-102173997D01*
X139805095Y-102165887D01*
X139937759Y-102094977D01*
X140098178Y-102046314D01*
X140223197Y-102034001D01*
X140306805Y-102034001D01*
X140431824Y-102046314D01*
X140431824Y-102046314D01*
G37*
G36*
X129146823Y-99511313D02*
G01*
X129307242Y-99559976D01*
X129439906Y-99630886D01*
X129455078Y-99638996D01*
X129584659Y-99745341D01*
X129691004Y-99874922D01*
X129691005Y-99874924D01*
X129770024Y-100022758D01*
X129818687Y-100183177D01*
X129835117Y-100350000D01*
X129818687Y-100516823D01*
X129818686Y-100516825D01*
X129771541Y-100672243D01*
X129770024Y-100677242D01*
X129699114Y-100809906D01*
X129691004Y-100825078D01*
X129584659Y-100954659D01*
X129455078Y-101061004D01*
X129455076Y-101061005D01*
X129307242Y-101140024D01*
X129146823Y-101188687D01*
X129021804Y-101201000D01*
X128938196Y-101201000D01*
X128813177Y-101188687D01*
X128652758Y-101140024D01*
X128504924Y-101061005D01*
X128504922Y-101061004D01*
X128375341Y-100954659D01*
X128268996Y-100825078D01*
X128260886Y-100809906D01*
X128189976Y-100677242D01*
X128188460Y-100672243D01*
X128141314Y-100516825D01*
X128141313Y-100516823D01*
X128124883Y-100350000D01*
X128141313Y-100183177D01*
X128189976Y-100022758D01*
X128268995Y-99874924D01*
X128268996Y-99874922D01*
X128375341Y-99745341D01*
X128504922Y-99638996D01*
X128520094Y-99630886D01*
X128652758Y-99559976D01*
X128813177Y-99511313D01*
X128938196Y-99499000D01*
X129021804Y-99499000D01*
X129146823Y-99511313D01*
X129146823Y-99511313D01*
G37*
G36*
X136766823Y-99511313D02*
G01*
X136927242Y-99559976D01*
X137059906Y-99630886D01*
X137075078Y-99638996D01*
X137204659Y-99745341D01*
X137311004Y-99874922D01*
X137311005Y-99874924D01*
X137390024Y-100022758D01*
X137438687Y-100183177D01*
X137455117Y-100350000D01*
X137438687Y-100516823D01*
X137438686Y-100516825D01*
X137391541Y-100672243D01*
X137390024Y-100677242D01*
X137319114Y-100809906D01*
X137311004Y-100825078D01*
X137204659Y-100954659D01*
X137075078Y-101061004D01*
X137075076Y-101061005D01*
X136927242Y-101140024D01*
X136766823Y-101188687D01*
X136641804Y-101201000D01*
X136558196Y-101201000D01*
X136433177Y-101188687D01*
X136272758Y-101140024D01*
X136124924Y-101061005D01*
X136124922Y-101061004D01*
X135995341Y-100954659D01*
X135888996Y-100825078D01*
X135880886Y-100809906D01*
X135809976Y-100677242D01*
X135808460Y-100672243D01*
X135761314Y-100516825D01*
X135761313Y-100516823D01*
X135744883Y-100350000D01*
X135761313Y-100183177D01*
X135809976Y-100022758D01*
X135888995Y-99874924D01*
X135888996Y-99874922D01*
X135995341Y-99745341D01*
X136124922Y-99638996D01*
X136140094Y-99630886D01*
X136272758Y-99559976D01*
X136433177Y-99511313D01*
X136558196Y-99499000D01*
X136641804Y-99499000D01*
X136766823Y-99511313D01*
X136766823Y-99511313D01*
G37*
G36*
X125191824Y-99506314D02*
G01*
X125352243Y-99554977D01*
X125484907Y-99625887D01*
X125500079Y-99633997D01*
X125629660Y-99740342D01*
X125736005Y-99869923D01*
X125736006Y-99869925D01*
X125815025Y-100017759D01*
X125815026Y-100017762D01*
X125816542Y-100022761D01*
X125863688Y-100178178D01*
X125880118Y-100345001D01*
X125863688Y-100511824D01*
X125815025Y-100672243D01*
X125744115Y-100804907D01*
X125736005Y-100820079D01*
X125629660Y-100949660D01*
X125500079Y-101056005D01*
X125500077Y-101056006D01*
X125352243Y-101135025D01*
X125191824Y-101183688D01*
X125066805Y-101196001D01*
X124983197Y-101196001D01*
X124858178Y-101183688D01*
X124697759Y-101135025D01*
X124549925Y-101056006D01*
X124549923Y-101056005D01*
X124420342Y-100949660D01*
X124313997Y-100820079D01*
X124305887Y-100804907D01*
X124234977Y-100672243D01*
X124186314Y-100511824D01*
X124169884Y-100345001D01*
X124186314Y-100178178D01*
X124233460Y-100022761D01*
X124234976Y-100017762D01*
X124234977Y-100017759D01*
X124313996Y-99869925D01*
X124313997Y-99869923D01*
X124420342Y-99740342D01*
X124549923Y-99633997D01*
X124565095Y-99625887D01*
X124697759Y-99554977D01*
X124858178Y-99506314D01*
X124983197Y-99494001D01*
X125066805Y-99494001D01*
X125191824Y-99506314D01*
X125191824Y-99506314D01*
G37*
G36*
X140431824Y-99506314D02*
G01*
X140592243Y-99554977D01*
X140724907Y-99625887D01*
X140740079Y-99633997D01*
X140869660Y-99740342D01*
X140976005Y-99869923D01*
X140976006Y-99869925D01*
X141055025Y-100017759D01*
X141055026Y-100017762D01*
X141056542Y-100022761D01*
X141103688Y-100178178D01*
X141120118Y-100345001D01*
X141103688Y-100511824D01*
X141055025Y-100672243D01*
X140984115Y-100804907D01*
X140976005Y-100820079D01*
X140869660Y-100949660D01*
X140740079Y-101056005D01*
X140740077Y-101056006D01*
X140592243Y-101135025D01*
X140431824Y-101183688D01*
X140306805Y-101196001D01*
X140223197Y-101196001D01*
X140098178Y-101183688D01*
X139937759Y-101135025D01*
X139789925Y-101056006D01*
X139789923Y-101056005D01*
X139660342Y-100949660D01*
X139553997Y-100820079D01*
X139545887Y-100804907D01*
X139474977Y-100672243D01*
X139426314Y-100511824D01*
X139409884Y-100345001D01*
X139426314Y-100178178D01*
X139473460Y-100022761D01*
X139474976Y-100017762D01*
X139474977Y-100017759D01*
X139553996Y-99869925D01*
X139553997Y-99869923D01*
X139660342Y-99740342D01*
X139789923Y-99633997D01*
X139805095Y-99625887D01*
X139937759Y-99554977D01*
X140098178Y-99506314D01*
X140223197Y-99494001D01*
X140306805Y-99494001D01*
X140431824Y-99506314D01*
X140431824Y-99506314D01*
G37*
G36*
X129146823Y-96971313D02*
G01*
X129307242Y-97019976D01*
X129439906Y-97090886D01*
X129455078Y-97098996D01*
X129584659Y-97205341D01*
X129691004Y-97334922D01*
X129691005Y-97334924D01*
X129770024Y-97482758D01*
X129818687Y-97643177D01*
X129835117Y-97810000D01*
X129818687Y-97976823D01*
X129818686Y-97976825D01*
X129771541Y-98132243D01*
X129770024Y-98137242D01*
X129699114Y-98269906D01*
X129691004Y-98285078D01*
X129584659Y-98414659D01*
X129455078Y-98521004D01*
X129455076Y-98521005D01*
X129307242Y-98600024D01*
X129146823Y-98648687D01*
X129021804Y-98661000D01*
X128938196Y-98661000D01*
X128813177Y-98648687D01*
X128652758Y-98600024D01*
X128504924Y-98521005D01*
X128504922Y-98521004D01*
X128375341Y-98414659D01*
X128268996Y-98285078D01*
X128260886Y-98269906D01*
X128189976Y-98137242D01*
X128188460Y-98132243D01*
X128141314Y-97976825D01*
X128141313Y-97976823D01*
X128124883Y-97810000D01*
X128141313Y-97643177D01*
X128189976Y-97482758D01*
X128268995Y-97334924D01*
X128268996Y-97334922D01*
X128375341Y-97205341D01*
X128504922Y-97098996D01*
X128520094Y-97090886D01*
X128652758Y-97019976D01*
X128813177Y-96971313D01*
X128938196Y-96959000D01*
X129021804Y-96959000D01*
X129146823Y-96971313D01*
X129146823Y-96971313D01*
G37*
G36*
X136766823Y-96971313D02*
G01*
X136927242Y-97019976D01*
X137059906Y-97090886D01*
X137075078Y-97098996D01*
X137204659Y-97205341D01*
X137311004Y-97334922D01*
X137311005Y-97334924D01*
X137390024Y-97482758D01*
X137438687Y-97643177D01*
X137455117Y-97810000D01*
X137438687Y-97976823D01*
X137438686Y-97976825D01*
X137391541Y-98132243D01*
X137390024Y-98137242D01*
X137319114Y-98269906D01*
X137311004Y-98285078D01*
X137204659Y-98414659D01*
X137075078Y-98521004D01*
X137075076Y-98521005D01*
X136927242Y-98600024D01*
X136766823Y-98648687D01*
X136641804Y-98661000D01*
X136558196Y-98661000D01*
X136433177Y-98648687D01*
X136272758Y-98600024D01*
X136124924Y-98521005D01*
X136124922Y-98521004D01*
X135995341Y-98414659D01*
X135888996Y-98285078D01*
X135880886Y-98269906D01*
X135809976Y-98137242D01*
X135808460Y-98132243D01*
X135761314Y-97976825D01*
X135761313Y-97976823D01*
X135744883Y-97810000D01*
X135761313Y-97643177D01*
X135809976Y-97482758D01*
X135888995Y-97334924D01*
X135888996Y-97334922D01*
X135995341Y-97205341D01*
X136124922Y-97098996D01*
X136140094Y-97090886D01*
X136272758Y-97019976D01*
X136433177Y-96971313D01*
X136558196Y-96959000D01*
X136641804Y-96959000D01*
X136766823Y-96971313D01*
X136766823Y-96971313D01*
G37*
G36*
X125191824Y-96966314D02*
G01*
X125352243Y-97014977D01*
X125484907Y-97085887D01*
X125500079Y-97093997D01*
X125629660Y-97200342D01*
X125736005Y-97329923D01*
X125736006Y-97329925D01*
X125815025Y-97477759D01*
X125815026Y-97477762D01*
X125816542Y-97482761D01*
X125863688Y-97638178D01*
X125880118Y-97805001D01*
X125863688Y-97971824D01*
X125815025Y-98132243D01*
X125744115Y-98264907D01*
X125736005Y-98280079D01*
X125629660Y-98409660D01*
X125500079Y-98516005D01*
X125500077Y-98516006D01*
X125352243Y-98595025D01*
X125191824Y-98643688D01*
X125066805Y-98656001D01*
X124983197Y-98656001D01*
X124858178Y-98643688D01*
X124697759Y-98595025D01*
X124549925Y-98516006D01*
X124549923Y-98516005D01*
X124420342Y-98409660D01*
X124313997Y-98280079D01*
X124305887Y-98264907D01*
X124234977Y-98132243D01*
X124186314Y-97971824D01*
X124169884Y-97805001D01*
X124186314Y-97638178D01*
X124233460Y-97482761D01*
X124234976Y-97477762D01*
X124234977Y-97477759D01*
X124313996Y-97329925D01*
X124313997Y-97329923D01*
X124420342Y-97200342D01*
X124549923Y-97093997D01*
X124565095Y-97085887D01*
X124697759Y-97014977D01*
X124858178Y-96966314D01*
X124983197Y-96954001D01*
X125066805Y-96954001D01*
X125191824Y-96966314D01*
X125191824Y-96966314D01*
G37*
G36*
X140431824Y-96966314D02*
G01*
X140592243Y-97014977D01*
X140724907Y-97085887D01*
X140740079Y-97093997D01*
X140869660Y-97200342D01*
X140976005Y-97329923D01*
X140976006Y-97329925D01*
X141055025Y-97477759D01*
X141055026Y-97477762D01*
X141056542Y-97482761D01*
X141103688Y-97638178D01*
X141120118Y-97805001D01*
X141103688Y-97971824D01*
X141055025Y-98132243D01*
X140984115Y-98264907D01*
X140976005Y-98280079D01*
X140869660Y-98409660D01*
X140740079Y-98516005D01*
X140740077Y-98516006D01*
X140592243Y-98595025D01*
X140431824Y-98643688D01*
X140306805Y-98656001D01*
X140223197Y-98656001D01*
X140098178Y-98643688D01*
X139937759Y-98595025D01*
X139789925Y-98516006D01*
X139789923Y-98516005D01*
X139660342Y-98409660D01*
X139553997Y-98280079D01*
X139545887Y-98264907D01*
X139474977Y-98132243D01*
X139426314Y-97971824D01*
X139409884Y-97805001D01*
X139426314Y-97638178D01*
X139473460Y-97482761D01*
X139474976Y-97477762D01*
X139474977Y-97477759D01*
X139553996Y-97329925D01*
X139553997Y-97329923D01*
X139660342Y-97200342D01*
X139789923Y-97093997D01*
X139805095Y-97085887D01*
X139937759Y-97014977D01*
X140098178Y-96966314D01*
X140223197Y-96954001D01*
X140306805Y-96954001D01*
X140431824Y-96966314D01*
X140431824Y-96966314D01*
G37*
G36*
X129146823Y-94431313D02*
G01*
X129307242Y-94479976D01*
X129439906Y-94550886D01*
X129455078Y-94558996D01*
X129584659Y-94665341D01*
X129691004Y-94794922D01*
X129691005Y-94794924D01*
X129770024Y-94942758D01*
X129818687Y-95103177D01*
X129835117Y-95270000D01*
X129818687Y-95436823D01*
X129818686Y-95436825D01*
X129771541Y-95592243D01*
X129770024Y-95597242D01*
X129699114Y-95729906D01*
X129691004Y-95745078D01*
X129584659Y-95874659D01*
X129455078Y-95981004D01*
X129455076Y-95981005D01*
X129307242Y-96060024D01*
X129146823Y-96108687D01*
X129021804Y-96121000D01*
X128938196Y-96121000D01*
X128813177Y-96108687D01*
X128652758Y-96060024D01*
X128504924Y-95981005D01*
X128504922Y-95981004D01*
X128375341Y-95874659D01*
X128268996Y-95745078D01*
X128260886Y-95729906D01*
X128189976Y-95597242D01*
X128188460Y-95592243D01*
X128141314Y-95436825D01*
X128141313Y-95436823D01*
X128124883Y-95270000D01*
X128141313Y-95103177D01*
X128189976Y-94942758D01*
X128268995Y-94794924D01*
X128268996Y-94794922D01*
X128375341Y-94665341D01*
X128504922Y-94558996D01*
X128520094Y-94550886D01*
X128652758Y-94479976D01*
X128813177Y-94431313D01*
X128938196Y-94419000D01*
X129021804Y-94419000D01*
X129146823Y-94431313D01*
X129146823Y-94431313D01*
G37*
G36*
X136766823Y-94431313D02*
G01*
X136927242Y-94479976D01*
X137059906Y-94550886D01*
X137075078Y-94558996D01*
X137204659Y-94665341D01*
X137311004Y-94794922D01*
X137311005Y-94794924D01*
X137390024Y-94942758D01*
X137438687Y-95103177D01*
X137455117Y-95270000D01*
X137438687Y-95436823D01*
X137438686Y-95436825D01*
X137391541Y-95592243D01*
X137390024Y-95597242D01*
X137319114Y-95729906D01*
X137311004Y-95745078D01*
X137204659Y-95874659D01*
X137075078Y-95981004D01*
X137075076Y-95981005D01*
X136927242Y-96060024D01*
X136766823Y-96108687D01*
X136641804Y-96121000D01*
X136558196Y-96121000D01*
X136433177Y-96108687D01*
X136272758Y-96060024D01*
X136124924Y-95981005D01*
X136124922Y-95981004D01*
X135995341Y-95874659D01*
X135888996Y-95745078D01*
X135880886Y-95729906D01*
X135809976Y-95597242D01*
X135808460Y-95592243D01*
X135761314Y-95436825D01*
X135761313Y-95436823D01*
X135744883Y-95270000D01*
X135761313Y-95103177D01*
X135809976Y-94942758D01*
X135888995Y-94794924D01*
X135888996Y-94794922D01*
X135995341Y-94665341D01*
X136124922Y-94558996D01*
X136140094Y-94550886D01*
X136272758Y-94479976D01*
X136433177Y-94431313D01*
X136558196Y-94419000D01*
X136641804Y-94419000D01*
X136766823Y-94431313D01*
X136766823Y-94431313D01*
G37*
G36*
X125191824Y-94426314D02*
G01*
X125352243Y-94474977D01*
X125484907Y-94545887D01*
X125500079Y-94553997D01*
X125629660Y-94660342D01*
X125736005Y-94789923D01*
X125736006Y-94789925D01*
X125815025Y-94937759D01*
X125815026Y-94937762D01*
X125816542Y-94942761D01*
X125863688Y-95098178D01*
X125880118Y-95265001D01*
X125863688Y-95431824D01*
X125815025Y-95592243D01*
X125744115Y-95724907D01*
X125736005Y-95740079D01*
X125629660Y-95869660D01*
X125500079Y-95976005D01*
X125500077Y-95976006D01*
X125352243Y-96055025D01*
X125191824Y-96103688D01*
X125066805Y-96116001D01*
X124983197Y-96116001D01*
X124858178Y-96103688D01*
X124697759Y-96055025D01*
X124549925Y-95976006D01*
X124549923Y-95976005D01*
X124420342Y-95869660D01*
X124313997Y-95740079D01*
X124305887Y-95724907D01*
X124234977Y-95592243D01*
X124186314Y-95431824D01*
X124169884Y-95265001D01*
X124186314Y-95098178D01*
X124233460Y-94942761D01*
X124234976Y-94937762D01*
X124234977Y-94937759D01*
X124313996Y-94789925D01*
X124313997Y-94789923D01*
X124420342Y-94660342D01*
X124549923Y-94553997D01*
X124565095Y-94545887D01*
X124697759Y-94474977D01*
X124858178Y-94426314D01*
X124983197Y-94414001D01*
X125066805Y-94414001D01*
X125191824Y-94426314D01*
X125191824Y-94426314D01*
G37*
G36*
X140431824Y-94426314D02*
G01*
X140592243Y-94474977D01*
X140724907Y-94545887D01*
X140740079Y-94553997D01*
X140869660Y-94660342D01*
X140976005Y-94789923D01*
X140976006Y-94789925D01*
X141055025Y-94937759D01*
X141055026Y-94937762D01*
X141056542Y-94942761D01*
X141103688Y-95098178D01*
X141120118Y-95265001D01*
X141103688Y-95431824D01*
X141055025Y-95592243D01*
X140984115Y-95724907D01*
X140976005Y-95740079D01*
X140869660Y-95869660D01*
X140740079Y-95976005D01*
X140740077Y-95976006D01*
X140592243Y-96055025D01*
X140431824Y-96103688D01*
X140306805Y-96116001D01*
X140223197Y-96116001D01*
X140098178Y-96103688D01*
X139937759Y-96055025D01*
X139789925Y-95976006D01*
X139789923Y-95976005D01*
X139660342Y-95869660D01*
X139553997Y-95740079D01*
X139545887Y-95724907D01*
X139474977Y-95592243D01*
X139426314Y-95431824D01*
X139409884Y-95265001D01*
X139426314Y-95098178D01*
X139473460Y-94942761D01*
X139474976Y-94937762D01*
X139474977Y-94937759D01*
X139553996Y-94789925D01*
X139553997Y-94789923D01*
X139660342Y-94660342D01*
X139789923Y-94553997D01*
X139805095Y-94545887D01*
X139937759Y-94474977D01*
X140098178Y-94426314D01*
X140223197Y-94414001D01*
X140306805Y-94414001D01*
X140431824Y-94426314D01*
X140431824Y-94426314D01*
G37*
G36*
X136766823Y-91891313D02*
G01*
X136927242Y-91939976D01*
X137059906Y-92010886D01*
X137075078Y-92018996D01*
X137204659Y-92125341D01*
X137311004Y-92254922D01*
X137311005Y-92254924D01*
X137390024Y-92402758D01*
X137438687Y-92563177D01*
X137455117Y-92730000D01*
X137438687Y-92896823D01*
X137438686Y-92896825D01*
X137391541Y-93052243D01*
X137390024Y-93057242D01*
X137319114Y-93189906D01*
X137311004Y-93205078D01*
X137204659Y-93334659D01*
X137075078Y-93441004D01*
X137075076Y-93441005D01*
X136927242Y-93520024D01*
X136766823Y-93568687D01*
X136641804Y-93581000D01*
X136558196Y-93581000D01*
X136433177Y-93568687D01*
X136272758Y-93520024D01*
X136124924Y-93441005D01*
X136124922Y-93441004D01*
X135995341Y-93334659D01*
X135888996Y-93205078D01*
X135880886Y-93189906D01*
X135809976Y-93057242D01*
X135808460Y-93052243D01*
X135761314Y-92896825D01*
X135761313Y-92896823D01*
X135744883Y-92730000D01*
X135761313Y-92563177D01*
X135809976Y-92402758D01*
X135888995Y-92254924D01*
X135888996Y-92254922D01*
X135995341Y-92125341D01*
X136124922Y-92018996D01*
X136140094Y-92010886D01*
X136272758Y-91939976D01*
X136433177Y-91891313D01*
X136558196Y-91879000D01*
X136641804Y-91879000D01*
X136766823Y-91891313D01*
X136766823Y-91891313D01*
G37*
G36*
X129146823Y-91891313D02*
G01*
X129307242Y-91939976D01*
X129439906Y-92010886D01*
X129455078Y-92018996D01*
X129584659Y-92125341D01*
X129691004Y-92254922D01*
X129691005Y-92254924D01*
X129770024Y-92402758D01*
X129818687Y-92563177D01*
X129835117Y-92730000D01*
X129818687Y-92896823D01*
X129818686Y-92896825D01*
X129771541Y-93052243D01*
X129770024Y-93057242D01*
X129699114Y-93189906D01*
X129691004Y-93205078D01*
X129584659Y-93334659D01*
X129455078Y-93441004D01*
X129455076Y-93441005D01*
X129307242Y-93520024D01*
X129146823Y-93568687D01*
X129021804Y-93581000D01*
X128938196Y-93581000D01*
X128813177Y-93568687D01*
X128652758Y-93520024D01*
X128504924Y-93441005D01*
X128504922Y-93441004D01*
X128375341Y-93334659D01*
X128268996Y-93205078D01*
X128260886Y-93189906D01*
X128189976Y-93057242D01*
X128188460Y-93052243D01*
X128141314Y-92896825D01*
X128141313Y-92896823D01*
X128124883Y-92730000D01*
X128141313Y-92563177D01*
X128189976Y-92402758D01*
X128268995Y-92254924D01*
X128268996Y-92254922D01*
X128375341Y-92125341D01*
X128504922Y-92018996D01*
X128520094Y-92010886D01*
X128652758Y-91939976D01*
X128813177Y-91891313D01*
X128938196Y-91879000D01*
X129021804Y-91879000D01*
X129146823Y-91891313D01*
X129146823Y-91891313D01*
G37*
G36*
X125191824Y-91886314D02*
G01*
X125352243Y-91934977D01*
X125484907Y-92005887D01*
X125500079Y-92013997D01*
X125629660Y-92120342D01*
X125736005Y-92249923D01*
X125736006Y-92249925D01*
X125815025Y-92397759D01*
X125815026Y-92397762D01*
X125816542Y-92402761D01*
X125863688Y-92558178D01*
X125880118Y-92725001D01*
X125863688Y-92891824D01*
X125815025Y-93052243D01*
X125744115Y-93184907D01*
X125736005Y-93200079D01*
X125629660Y-93329660D01*
X125500079Y-93436005D01*
X125500077Y-93436006D01*
X125352243Y-93515025D01*
X125191824Y-93563688D01*
X125066805Y-93576001D01*
X124983197Y-93576001D01*
X124858178Y-93563688D01*
X124697759Y-93515025D01*
X124549925Y-93436006D01*
X124549923Y-93436005D01*
X124420342Y-93329660D01*
X124313997Y-93200079D01*
X124305887Y-93184907D01*
X124234977Y-93052243D01*
X124186314Y-92891824D01*
X124169884Y-92725001D01*
X124186314Y-92558178D01*
X124233460Y-92402761D01*
X124234976Y-92397762D01*
X124234977Y-92397759D01*
X124313996Y-92249925D01*
X124313997Y-92249923D01*
X124420342Y-92120342D01*
X124549923Y-92013997D01*
X124565095Y-92005887D01*
X124697759Y-91934977D01*
X124858178Y-91886314D01*
X124983197Y-91874001D01*
X125066805Y-91874001D01*
X125191824Y-91886314D01*
X125191824Y-91886314D01*
G37*
G36*
X140431824Y-91886314D02*
G01*
X140592243Y-91934977D01*
X140724907Y-92005887D01*
X140740079Y-92013997D01*
X140869660Y-92120342D01*
X140976005Y-92249923D01*
X140976006Y-92249925D01*
X141055025Y-92397759D01*
X141055026Y-92397762D01*
X141056542Y-92402761D01*
X141103688Y-92558178D01*
X141120118Y-92725001D01*
X141103688Y-92891824D01*
X141055025Y-93052243D01*
X140984115Y-93184907D01*
X140976005Y-93200079D01*
X140869660Y-93329660D01*
X140740079Y-93436005D01*
X140740077Y-93436006D01*
X140592243Y-93515025D01*
X140431824Y-93563688D01*
X140306805Y-93576001D01*
X140223197Y-93576001D01*
X140098178Y-93563688D01*
X139937759Y-93515025D01*
X139789925Y-93436006D01*
X139789923Y-93436005D01*
X139660342Y-93329660D01*
X139553997Y-93200079D01*
X139545887Y-93184907D01*
X139474977Y-93052243D01*
X139426314Y-92891824D01*
X139409884Y-92725001D01*
X139426314Y-92558178D01*
X139473460Y-92402761D01*
X139474976Y-92397762D01*
X139474977Y-92397759D01*
X139553996Y-92249925D01*
X139553997Y-92249923D01*
X139660342Y-92120342D01*
X139789923Y-92013997D01*
X139805095Y-92005887D01*
X139937759Y-91934977D01*
X140098178Y-91886314D01*
X140223197Y-91874001D01*
X140306805Y-91874001D01*
X140431824Y-91886314D01*
X140431824Y-91886314D01*
G37*
G36*
X136766823Y-89351313D02*
G01*
X136927242Y-89399976D01*
X137059906Y-89470886D01*
X137075078Y-89478996D01*
X137204659Y-89585341D01*
X137311004Y-89714922D01*
X137311005Y-89714924D01*
X137390024Y-89862758D01*
X137438687Y-90023177D01*
X137455117Y-90190000D01*
X137438687Y-90356823D01*
X137438686Y-90356825D01*
X137391541Y-90512243D01*
X137390024Y-90517242D01*
X137319114Y-90649906D01*
X137311004Y-90665078D01*
X137204659Y-90794659D01*
X137075078Y-90901004D01*
X137075076Y-90901005D01*
X136927242Y-90980024D01*
X136766823Y-91028687D01*
X136641804Y-91041000D01*
X136558196Y-91041000D01*
X136433177Y-91028687D01*
X136272758Y-90980024D01*
X136124924Y-90901005D01*
X136124922Y-90901004D01*
X135995341Y-90794659D01*
X135888996Y-90665078D01*
X135880886Y-90649906D01*
X135809976Y-90517242D01*
X135808460Y-90512243D01*
X135761314Y-90356825D01*
X135761313Y-90356823D01*
X135744883Y-90190000D01*
X135761313Y-90023177D01*
X135809976Y-89862758D01*
X135888995Y-89714924D01*
X135888996Y-89714922D01*
X135995341Y-89585341D01*
X136124922Y-89478996D01*
X136140094Y-89470886D01*
X136272758Y-89399976D01*
X136433177Y-89351313D01*
X136558196Y-89339000D01*
X136641804Y-89339000D01*
X136766823Y-89351313D01*
X136766823Y-89351313D01*
G37*
G36*
X129146823Y-89351313D02*
G01*
X129307242Y-89399976D01*
X129439906Y-89470886D01*
X129455078Y-89478996D01*
X129584659Y-89585341D01*
X129691004Y-89714922D01*
X129691005Y-89714924D01*
X129770024Y-89862758D01*
X129818687Y-90023177D01*
X129835117Y-90190000D01*
X129818687Y-90356823D01*
X129818686Y-90356825D01*
X129771541Y-90512243D01*
X129770024Y-90517242D01*
X129699114Y-90649906D01*
X129691004Y-90665078D01*
X129584659Y-90794659D01*
X129455078Y-90901004D01*
X129455076Y-90901005D01*
X129307242Y-90980024D01*
X129146823Y-91028687D01*
X129021804Y-91041000D01*
X128938196Y-91041000D01*
X128813177Y-91028687D01*
X128652758Y-90980024D01*
X128504924Y-90901005D01*
X128504922Y-90901004D01*
X128375341Y-90794659D01*
X128268996Y-90665078D01*
X128260886Y-90649906D01*
X128189976Y-90517242D01*
X128188460Y-90512243D01*
X128141314Y-90356825D01*
X128141313Y-90356823D01*
X128124883Y-90190000D01*
X128141313Y-90023177D01*
X128189976Y-89862758D01*
X128268995Y-89714924D01*
X128268996Y-89714922D01*
X128375341Y-89585341D01*
X128504922Y-89478996D01*
X128520094Y-89470886D01*
X128652758Y-89399976D01*
X128813177Y-89351313D01*
X128938196Y-89339000D01*
X129021804Y-89339000D01*
X129146823Y-89351313D01*
X129146823Y-89351313D01*
G37*
G36*
X125191824Y-89346314D02*
G01*
X125352243Y-89394977D01*
X125484907Y-89465887D01*
X125500079Y-89473997D01*
X125629660Y-89580342D01*
X125736005Y-89709923D01*
X125736006Y-89709925D01*
X125815025Y-89857759D01*
X125815026Y-89857762D01*
X125816542Y-89862761D01*
X125863688Y-90018178D01*
X125880118Y-90185001D01*
X125863688Y-90351824D01*
X125815025Y-90512243D01*
X125744115Y-90644907D01*
X125736005Y-90660079D01*
X125629660Y-90789660D01*
X125500079Y-90896005D01*
X125500077Y-90896006D01*
X125352243Y-90975025D01*
X125191824Y-91023688D01*
X125066805Y-91036001D01*
X124983197Y-91036001D01*
X124858178Y-91023688D01*
X124697759Y-90975025D01*
X124549925Y-90896006D01*
X124549923Y-90896005D01*
X124420342Y-90789660D01*
X124313997Y-90660079D01*
X124305887Y-90644907D01*
X124234977Y-90512243D01*
X124186314Y-90351824D01*
X124169884Y-90185001D01*
X124186314Y-90018178D01*
X124233460Y-89862761D01*
X124234976Y-89857762D01*
X124234977Y-89857759D01*
X124313996Y-89709925D01*
X124313997Y-89709923D01*
X124420342Y-89580342D01*
X124549923Y-89473997D01*
X124565095Y-89465887D01*
X124697759Y-89394977D01*
X124858178Y-89346314D01*
X124983197Y-89334001D01*
X125066805Y-89334001D01*
X125191824Y-89346314D01*
X125191824Y-89346314D01*
G37*
G36*
X140431824Y-89346314D02*
G01*
X140592243Y-89394977D01*
X140724907Y-89465887D01*
X140740079Y-89473997D01*
X140869660Y-89580342D01*
X140976005Y-89709923D01*
X140976006Y-89709925D01*
X141055025Y-89857759D01*
X141055026Y-89857762D01*
X141056542Y-89862761D01*
X141103688Y-90018178D01*
X141120118Y-90185001D01*
X141103688Y-90351824D01*
X141055025Y-90512243D01*
X140984115Y-90644907D01*
X140976005Y-90660079D01*
X140869660Y-90789660D01*
X140740079Y-90896005D01*
X140740077Y-90896006D01*
X140592243Y-90975025D01*
X140431824Y-91023688D01*
X140306805Y-91036001D01*
X140223197Y-91036001D01*
X140098178Y-91023688D01*
X139937759Y-90975025D01*
X139789925Y-90896006D01*
X139789923Y-90896005D01*
X139660342Y-90789660D01*
X139553997Y-90660079D01*
X139545887Y-90644907D01*
X139474977Y-90512243D01*
X139426314Y-90351824D01*
X139409884Y-90185001D01*
X139426314Y-90018178D01*
X139473460Y-89862761D01*
X139474976Y-89857762D01*
X139474977Y-89857759D01*
X139553996Y-89709925D01*
X139553997Y-89709923D01*
X139660342Y-89580342D01*
X139789923Y-89473997D01*
X139805095Y-89465887D01*
X139937759Y-89394977D01*
X140098178Y-89346314D01*
X140223197Y-89334001D01*
X140306805Y-89334001D01*
X140431824Y-89346314D01*
X140431824Y-89346314D01*
G37*
G36*
X136766823Y-86811313D02*
G01*
X136927242Y-86859976D01*
X137059906Y-86930886D01*
X137075078Y-86938996D01*
X137204659Y-87045341D01*
X137311004Y-87174922D01*
X137311005Y-87174924D01*
X137390024Y-87322758D01*
X137438687Y-87483177D01*
X137455117Y-87650000D01*
X137438687Y-87816823D01*
X137438686Y-87816825D01*
X137391541Y-87972243D01*
X137390024Y-87977242D01*
X137319114Y-88109906D01*
X137311004Y-88125078D01*
X137204659Y-88254659D01*
X137075078Y-88361004D01*
X137075076Y-88361005D01*
X136927242Y-88440024D01*
X136766823Y-88488687D01*
X136641804Y-88501000D01*
X136558196Y-88501000D01*
X136433177Y-88488687D01*
X136272758Y-88440024D01*
X136124924Y-88361005D01*
X136124922Y-88361004D01*
X135995341Y-88254659D01*
X135888996Y-88125078D01*
X135880886Y-88109906D01*
X135809976Y-87977242D01*
X135808460Y-87972243D01*
X135761314Y-87816825D01*
X135761313Y-87816823D01*
X135744883Y-87650000D01*
X135761313Y-87483177D01*
X135809976Y-87322758D01*
X135888995Y-87174924D01*
X135888996Y-87174922D01*
X135995341Y-87045341D01*
X136124922Y-86938996D01*
X136140094Y-86930886D01*
X136272758Y-86859976D01*
X136433177Y-86811313D01*
X136558196Y-86799000D01*
X136641804Y-86799000D01*
X136766823Y-86811313D01*
X136766823Y-86811313D01*
G37*
G36*
X129146823Y-86811313D02*
G01*
X129307242Y-86859976D01*
X129439906Y-86930886D01*
X129455078Y-86938996D01*
X129584659Y-87045341D01*
X129691004Y-87174922D01*
X129691005Y-87174924D01*
X129770024Y-87322758D01*
X129818687Y-87483177D01*
X129835117Y-87650000D01*
X129818687Y-87816823D01*
X129818686Y-87816825D01*
X129771541Y-87972243D01*
X129770024Y-87977242D01*
X129699114Y-88109906D01*
X129691004Y-88125078D01*
X129584659Y-88254659D01*
X129455078Y-88361004D01*
X129455076Y-88361005D01*
X129307242Y-88440024D01*
X129146823Y-88488687D01*
X129021804Y-88501000D01*
X128938196Y-88501000D01*
X128813177Y-88488687D01*
X128652758Y-88440024D01*
X128504924Y-88361005D01*
X128504922Y-88361004D01*
X128375341Y-88254659D01*
X128268996Y-88125078D01*
X128260886Y-88109906D01*
X128189976Y-87977242D01*
X128188460Y-87972243D01*
X128141314Y-87816825D01*
X128141313Y-87816823D01*
X128124883Y-87650000D01*
X128141313Y-87483177D01*
X128189976Y-87322758D01*
X128268995Y-87174924D01*
X128268996Y-87174922D01*
X128375341Y-87045341D01*
X128504922Y-86938996D01*
X128520094Y-86930886D01*
X128652758Y-86859976D01*
X128813177Y-86811313D01*
X128938196Y-86799000D01*
X129021804Y-86799000D01*
X129146823Y-86811313D01*
X129146823Y-86811313D01*
G37*
G36*
X140431824Y-86806314D02*
G01*
X140592243Y-86854977D01*
X140724907Y-86925887D01*
X140740079Y-86933997D01*
X140869660Y-87040342D01*
X140976005Y-87169923D01*
X140976006Y-87169925D01*
X141055025Y-87317759D01*
X141055026Y-87317762D01*
X141056542Y-87322761D01*
X141103688Y-87478178D01*
X141120118Y-87645001D01*
X141103688Y-87811824D01*
X141055025Y-87972243D01*
X140984115Y-88104907D01*
X140976005Y-88120079D01*
X140869660Y-88249660D01*
X140740079Y-88356005D01*
X140740077Y-88356006D01*
X140592243Y-88435025D01*
X140431824Y-88483688D01*
X140306805Y-88496001D01*
X140223197Y-88496001D01*
X140098178Y-88483688D01*
X139937759Y-88435025D01*
X139789925Y-88356006D01*
X139789923Y-88356005D01*
X139660342Y-88249660D01*
X139553997Y-88120079D01*
X139545887Y-88104907D01*
X139474977Y-87972243D01*
X139426314Y-87811824D01*
X139409884Y-87645001D01*
X139426314Y-87478178D01*
X139473460Y-87322761D01*
X139474976Y-87317762D01*
X139474977Y-87317759D01*
X139553996Y-87169925D01*
X139553997Y-87169923D01*
X139660342Y-87040342D01*
X139789923Y-86933997D01*
X139805095Y-86925887D01*
X139937759Y-86854977D01*
X140098178Y-86806314D01*
X140223197Y-86794001D01*
X140306805Y-86794001D01*
X140431824Y-86806314D01*
X140431824Y-86806314D01*
G37*
G36*
X125191824Y-86806314D02*
G01*
X125352243Y-86854977D01*
X125484907Y-86925887D01*
X125500079Y-86933997D01*
X125629660Y-87040342D01*
X125736005Y-87169923D01*
X125736006Y-87169925D01*
X125815025Y-87317759D01*
X125815026Y-87317762D01*
X125816542Y-87322761D01*
X125863688Y-87478178D01*
X125880118Y-87645001D01*
X125863688Y-87811824D01*
X125815025Y-87972243D01*
X125744115Y-88104907D01*
X125736005Y-88120079D01*
X125629660Y-88249660D01*
X125500079Y-88356005D01*
X125500077Y-88356006D01*
X125352243Y-88435025D01*
X125191824Y-88483688D01*
X125066805Y-88496001D01*
X124983197Y-88496001D01*
X124858178Y-88483688D01*
X124697759Y-88435025D01*
X124549925Y-88356006D01*
X124549923Y-88356005D01*
X124420342Y-88249660D01*
X124313997Y-88120079D01*
X124305887Y-88104907D01*
X124234977Y-87972243D01*
X124186314Y-87811824D01*
X124169884Y-87645001D01*
X124186314Y-87478178D01*
X124233460Y-87322761D01*
X124234976Y-87317762D01*
X124234977Y-87317759D01*
X124313996Y-87169925D01*
X124313997Y-87169923D01*
X124420342Y-87040342D01*
X124549923Y-86933997D01*
X124565095Y-86925887D01*
X124697759Y-86854977D01*
X124858178Y-86806314D01*
X124983197Y-86794001D01*
X125066805Y-86794001D01*
X125191824Y-86806314D01*
X125191824Y-86806314D01*
G37*
G36*
X136766823Y-84271313D02*
G01*
X136927242Y-84319976D01*
X137059906Y-84390886D01*
X137075078Y-84398996D01*
X137204659Y-84505341D01*
X137311004Y-84634922D01*
X137311005Y-84634924D01*
X137390024Y-84782758D01*
X137438687Y-84943177D01*
X137455117Y-85110000D01*
X137438687Y-85276823D01*
X137438686Y-85276825D01*
X137391541Y-85432243D01*
X137390024Y-85437242D01*
X137319114Y-85569906D01*
X137311004Y-85585078D01*
X137204659Y-85714659D01*
X137075078Y-85821004D01*
X137075076Y-85821005D01*
X136927242Y-85900024D01*
X136766823Y-85948687D01*
X136641804Y-85961000D01*
X136558196Y-85961000D01*
X136433177Y-85948687D01*
X136272758Y-85900024D01*
X136124924Y-85821005D01*
X136124922Y-85821004D01*
X135995341Y-85714659D01*
X135888996Y-85585078D01*
X135880886Y-85569906D01*
X135809976Y-85437242D01*
X135808460Y-85432243D01*
X135761314Y-85276825D01*
X135761313Y-85276823D01*
X135744883Y-85110000D01*
X135761313Y-84943177D01*
X135809976Y-84782758D01*
X135888995Y-84634924D01*
X135888996Y-84634922D01*
X135995341Y-84505341D01*
X136124922Y-84398996D01*
X136140094Y-84390886D01*
X136272758Y-84319976D01*
X136433177Y-84271313D01*
X136558196Y-84259000D01*
X136641804Y-84259000D01*
X136766823Y-84271313D01*
X136766823Y-84271313D01*
G37*
G36*
X129831000Y-85961000D02*
G01*
X128129000Y-85961000D01*
X128129000Y-84259000D01*
X129831000Y-84259000D01*
X129831000Y-85961000D01*
X129831000Y-85961000D01*
G37*
G36*
X140431824Y-84266314D02*
G01*
X140592243Y-84314977D01*
X140724907Y-84385887D01*
X140740079Y-84393997D01*
X140869660Y-84500342D01*
X140976005Y-84629923D01*
X140976006Y-84629925D01*
X141055025Y-84777759D01*
X141055026Y-84777762D01*
X141056542Y-84782761D01*
X141103688Y-84938178D01*
X141120118Y-85105001D01*
X141103688Y-85271824D01*
X141055025Y-85432243D01*
X140984115Y-85564907D01*
X140976005Y-85580079D01*
X140869660Y-85709660D01*
X140740079Y-85816005D01*
X140740077Y-85816006D01*
X140592243Y-85895025D01*
X140431824Y-85943688D01*
X140306805Y-85956001D01*
X140223197Y-85956001D01*
X140098178Y-85943688D01*
X139937759Y-85895025D01*
X139789925Y-85816006D01*
X139789923Y-85816005D01*
X139660342Y-85709660D01*
X139553997Y-85580079D01*
X139545887Y-85564907D01*
X139474977Y-85432243D01*
X139426314Y-85271824D01*
X139409884Y-85105001D01*
X139426314Y-84938178D01*
X139473460Y-84782761D01*
X139474976Y-84777762D01*
X139474977Y-84777759D01*
X139553996Y-84629925D01*
X139553997Y-84629923D01*
X139660342Y-84500342D01*
X139789923Y-84393997D01*
X139805095Y-84385887D01*
X139937759Y-84314977D01*
X140098178Y-84266314D01*
X140223197Y-84254001D01*
X140306805Y-84254001D01*
X140431824Y-84266314D01*
X140431824Y-84266314D01*
G37*
G36*
X125191824Y-84266314D02*
G01*
X125352243Y-84314977D01*
X125484907Y-84385887D01*
X125500079Y-84393997D01*
X125629660Y-84500342D01*
X125736005Y-84629923D01*
X125736006Y-84629925D01*
X125815025Y-84777759D01*
X125815026Y-84777762D01*
X125816542Y-84782761D01*
X125863688Y-84938178D01*
X125880118Y-85105001D01*
X125863688Y-85271824D01*
X125815025Y-85432243D01*
X125744115Y-85564907D01*
X125736005Y-85580079D01*
X125629660Y-85709660D01*
X125500079Y-85816005D01*
X125500077Y-85816006D01*
X125352243Y-85895025D01*
X125191824Y-85943688D01*
X125066805Y-85956001D01*
X124983197Y-85956001D01*
X124858178Y-85943688D01*
X124697759Y-85895025D01*
X124549925Y-85816006D01*
X124549923Y-85816005D01*
X124420342Y-85709660D01*
X124313997Y-85580079D01*
X124305887Y-85564907D01*
X124234977Y-85432243D01*
X124186314Y-85271824D01*
X124169884Y-85105001D01*
X124186314Y-84938178D01*
X124233460Y-84782761D01*
X124234976Y-84777762D01*
X124234977Y-84777759D01*
X124313996Y-84629925D01*
X124313997Y-84629923D01*
X124420342Y-84500342D01*
X124549923Y-84393997D01*
X124565095Y-84385887D01*
X124697759Y-84314977D01*
X124858178Y-84266314D01*
X124983197Y-84254001D01*
X125066805Y-84254001D01*
X125191824Y-84266314D01*
X125191824Y-84266314D01*
G37*
G36*
X140431824Y-81726314D02*
G01*
X140592243Y-81774977D01*
X140724907Y-81845887D01*
X140740079Y-81853997D01*
X140869660Y-81960342D01*
X140976005Y-82089923D01*
X140976006Y-82089925D01*
X141055025Y-82237759D01*
X141103688Y-82398178D01*
X141120118Y-82565001D01*
X141103688Y-82731824D01*
X141055025Y-82892243D01*
X140984115Y-83024907D01*
X140976005Y-83040079D01*
X140869660Y-83169660D01*
X140740079Y-83276005D01*
X140740077Y-83276006D01*
X140592243Y-83355025D01*
X140431824Y-83403688D01*
X140306805Y-83416001D01*
X140223197Y-83416001D01*
X140098178Y-83403688D01*
X139937759Y-83355025D01*
X139789925Y-83276006D01*
X139789923Y-83276005D01*
X139660342Y-83169660D01*
X139553997Y-83040079D01*
X139545887Y-83024907D01*
X139474977Y-82892243D01*
X139426314Y-82731824D01*
X139409884Y-82565001D01*
X139426314Y-82398178D01*
X139474977Y-82237759D01*
X139553996Y-82089925D01*
X139553997Y-82089923D01*
X139660342Y-81960342D01*
X139789923Y-81853997D01*
X139805095Y-81845887D01*
X139937759Y-81774977D01*
X140098178Y-81726314D01*
X140223197Y-81714001D01*
X140306805Y-81714001D01*
X140431824Y-81726314D01*
X140431824Y-81726314D01*
G37*
G36*
X125191824Y-81726314D02*
G01*
X125352243Y-81774977D01*
X125484907Y-81845887D01*
X125500079Y-81853997D01*
X125629660Y-81960342D01*
X125736005Y-82089923D01*
X125736006Y-82089925D01*
X125815025Y-82237759D01*
X125863688Y-82398178D01*
X125880118Y-82565001D01*
X125863688Y-82731824D01*
X125815025Y-82892243D01*
X125744115Y-83024907D01*
X125736005Y-83040079D01*
X125629660Y-83169660D01*
X125500079Y-83276005D01*
X125500077Y-83276006D01*
X125352243Y-83355025D01*
X125191824Y-83403688D01*
X125066805Y-83416001D01*
X124983197Y-83416001D01*
X124858178Y-83403688D01*
X124697759Y-83355025D01*
X124549925Y-83276006D01*
X124549923Y-83276005D01*
X124420342Y-83169660D01*
X124313997Y-83040079D01*
X124305887Y-83024907D01*
X124234977Y-82892243D01*
X124186314Y-82731824D01*
X124169884Y-82565001D01*
X124186314Y-82398178D01*
X124234977Y-82237759D01*
X124313996Y-82089925D01*
X124313997Y-82089923D01*
X124420342Y-81960342D01*
X124549923Y-81853997D01*
X124565095Y-81845887D01*
X124697759Y-81774977D01*
X124858178Y-81726314D01*
X124983197Y-81714001D01*
X125066805Y-81714001D01*
X125191824Y-81726314D01*
X125191824Y-81726314D01*
G37*
G36*
X140431824Y-79186314D02*
G01*
X140592243Y-79234977D01*
X140724907Y-79305887D01*
X140740079Y-79313997D01*
X140869660Y-79420342D01*
X140976005Y-79549923D01*
X140976006Y-79549925D01*
X141055025Y-79697759D01*
X141103688Y-79858178D01*
X141120118Y-80025001D01*
X141103688Y-80191824D01*
X141055025Y-80352243D01*
X140984115Y-80484907D01*
X140976005Y-80500079D01*
X140869660Y-80629660D01*
X140740079Y-80736005D01*
X140740077Y-80736006D01*
X140592243Y-80815025D01*
X140431824Y-80863688D01*
X140306805Y-80876001D01*
X140223197Y-80876001D01*
X140098178Y-80863688D01*
X139937759Y-80815025D01*
X139789925Y-80736006D01*
X139789923Y-80736005D01*
X139660342Y-80629660D01*
X139553997Y-80500079D01*
X139545887Y-80484907D01*
X139474977Y-80352243D01*
X139426314Y-80191824D01*
X139409884Y-80025001D01*
X139426314Y-79858178D01*
X139474977Y-79697759D01*
X139553996Y-79549925D01*
X139553997Y-79549923D01*
X139660342Y-79420342D01*
X139789923Y-79313997D01*
X139805095Y-79305887D01*
X139937759Y-79234977D01*
X140098178Y-79186314D01*
X140223197Y-79174001D01*
X140306805Y-79174001D01*
X140431824Y-79186314D01*
X140431824Y-79186314D01*
G37*
G36*
X125876001Y-80876001D02*
G01*
X124174001Y-80876001D01*
X124174001Y-79174001D01*
X125876001Y-79174001D01*
X125876001Y-80876001D01*
X125876001Y-80876001D01*
G37*
M02*
