%TF.GenerationSoftware,KiCad,Pcbnew,9.0.4*%
%TF.CreationDate,2026-01-09T20:31:27-05:00*%
%TF.ProjectId,27c256_to_82s135,32376332-3536-45f7-946f-5f3832733133,rev?*%
%TF.SameCoordinates,Original*%
%TF.FileFunction,Copper,L1,Top*%
%TF.FilePolarity,Positive*%
%FSLAX46Y46*%
G04 Gerber Fmt 4.6, Leading zero omitted, Abs format (unit mm)*
G04 Created by KiCad (PCBNEW 9.0.4) date 2026-01-09 20:31:27*
%MOMM*%
%LPD*%
G01*
G04 APERTURE LIST*
G04 Aperture macros list*
%AMRoundRect*
0 Rectangle with rounded corners*
0 $1 Rounding radius*
0 $2 $3 $4 $5 $6 $7 $8 $9 X,Y pos of 4 corners*
0 Add a 4 corners polygon primitive as box body*
4,1,4,$2,$3,$4,$5,$6,$7,$8,$9,$2,$3,0*
0 Add four circle primitives for the rounded corners*
1,1,$1+$1,$2,$3*
1,1,$1+$1,$4,$5*
1,1,$1+$1,$6,$7*
1,1,$1+$1,$8,$9*
0 Add four rect primitives between the rounded corners*
20,1,$1+$1,$2,$3,$4,$5,0*
20,1,$1+$1,$4,$5,$6,$7,0*
20,1,$1+$1,$6,$7,$8,$9,0*
20,1,$1+$1,$8,$9,$2,$3,0*%
G04 Aperture macros list end*
%TA.AperFunction,ComponentPad*%
%ADD10RoundRect,0.250000X-0.550000X-0.550000X0.550000X-0.550000X0.550000X0.550000X-0.550000X0.550000X0*%
%TD*%
%TA.AperFunction,ComponentPad*%
%ADD11C,1.600000*%
%TD*%
%TA.AperFunction,ViaPad*%
%ADD12C,0.600000*%
%TD*%
%TA.AperFunction,Conductor*%
%ADD13C,0.200000*%
%TD*%
%TA.AperFunction,Conductor*%
%ADD14C,1.000000*%
%TD*%
G04 APERTURE END LIST*
D10*
%TO.P,U1,1,VPP*%
%TO.N,+5V*%
X91140000Y-31880000D03*
D11*
%TO.P,U1,2,A12*%
%TO.N,GND*%
X91140000Y-34420000D03*
%TO.P,U1,3,A7*%
%TO.N,A7*%
X91140000Y-36960000D03*
%TO.P,U1,4,A6*%
%TO.N,A6*%
X91140000Y-39500000D03*
%TO.P,U1,5,A5*%
%TO.N,A5*%
X91140000Y-42040000D03*
%TO.P,U1,6,A4*%
%TO.N,A4*%
X91140000Y-44580000D03*
%TO.P,U1,7,A3*%
%TO.N,A3*%
X91140000Y-47120000D03*
%TO.P,U1,8,A2*%
%TO.N,A2*%
X91140000Y-49660000D03*
%TO.P,U1,9,A1*%
%TO.N,A1*%
X91140000Y-52200000D03*
%TO.P,U1,10,A0*%
%TO.N,A0*%
X91140000Y-54740000D03*
%TO.P,U1,11,D0*%
%TO.N,D0*%
X91140000Y-57280000D03*
%TO.P,U1,12,D1*%
%TO.N,D1*%
X91140000Y-59820000D03*
%TO.P,U1,13,D2*%
%TO.N,D2*%
X91140000Y-62360000D03*
%TO.P,U1,14,GND*%
%TO.N,GND*%
X91140000Y-64900000D03*
%TO.P,U1,15,D3*%
%TO.N,D3*%
X106380000Y-64900000D03*
%TO.P,U1,16,D4*%
%TO.N,D4*%
X106380000Y-62360000D03*
%TO.P,U1,17,D5*%
%TO.N,D5*%
X106380000Y-59820000D03*
%TO.P,U1,18,D6*%
%TO.N,D6*%
X106380000Y-57280000D03*
%TO.P,U1,19,D7*%
%TO.N,D7*%
X106380000Y-54740000D03*
%TO.P,U1,20,~{CE}*%
%TO.N,CE*%
X106380000Y-52200000D03*
%TO.P,U1,21,A10*%
%TO.N,GND*%
X106380000Y-49660000D03*
%TO.P,U1,22,~{OE}*%
%TO.N,OE*%
X106380000Y-47120000D03*
%TO.P,U1,23,A11*%
%TO.N,GND*%
X106380000Y-44580000D03*
%TO.P,U1,24,A9*%
X106380000Y-42040000D03*
%TO.P,U1,25,A8*%
X106380000Y-39500000D03*
%TO.P,U1,26,A13*%
X106380000Y-36960000D03*
%TO.P,U1,27,A14*%
X106380000Y-34420000D03*
%TO.P,U1,28,VCC*%
%TO.N,+5V*%
X106380000Y-31880000D03*
%TD*%
D10*
%TO.P,J1,1,Pin_1*%
%TO.N,A0*%
X94959000Y-36950000D03*
D11*
%TO.P,J1,2,Pin_2*%
%TO.N,A1*%
X94959000Y-39490000D03*
%TO.P,J1,3,Pin_3*%
%TO.N,A2*%
X94959000Y-42030000D03*
%TO.P,J1,4,Pin_4*%
%TO.N,A3*%
X94959000Y-44570000D03*
%TO.P,J1,5,Pin_5*%
%TO.N,A4*%
X94959000Y-47110000D03*
%TO.P,J1,6,Pin_6*%
%TO.N,D0*%
X94959000Y-49650000D03*
%TO.P,J1,7,Pin_7*%
%TO.N,D1*%
X94959000Y-52190000D03*
%TO.P,J1,8,Pin_8*%
%TO.N,D2*%
X94959000Y-54730000D03*
%TO.P,J1,9,Pin_9*%
%TO.N,D3*%
X94959000Y-57270000D03*
%TO.P,J1,10,Pin_10*%
%TO.N,GND*%
X94959000Y-59810000D03*
%TO.P,J1,11,Pin_11*%
%TO.N,D4*%
X102579000Y-59810000D03*
%TO.P,J1,12,Pin_12*%
%TO.N,D5*%
X102579000Y-57270000D03*
%TO.P,J1,13,Pin_13*%
%TO.N,D6*%
X102579000Y-54730000D03*
%TO.P,J1,14,Pin_14*%
%TO.N,D7*%
X102579000Y-52190000D03*
%TO.P,J1,15,Pin_15*%
%TO.N,CE*%
X102579000Y-49650000D03*
%TO.P,J1,16,Pin_16*%
%TO.N,OE*%
X102579000Y-47110000D03*
%TO.P,J1,17,Pin_17*%
%TO.N,A5*%
X102579000Y-44570000D03*
%TO.P,J1,18,Pin_18*%
%TO.N,A6*%
X102579000Y-42030000D03*
%TO.P,J1,19,Pin_19*%
%TO.N,A7*%
X102579000Y-39490000D03*
%TO.P,J1,20,Pin_20*%
%TO.N,+5V*%
X102579000Y-36950000D03*
%TD*%
D12*
%TO.N,A3*%
X92348000Y-43420000D03*
%TO.N,A2*%
X92749000Y-41010000D03*
%TO.N,A1*%
X93150000Y-38960000D03*
%TD*%
D13*
%TO.N,A3*%
X93498000Y-44570000D02*
X94959000Y-44570000D01*
X92348000Y-43420000D02*
X93498000Y-44570000D01*
%TO.N,A4*%
X92429000Y-44580000D02*
X94959000Y-47110000D01*
X91140000Y-44580000D02*
X92429000Y-44580000D01*
%TO.N,A2*%
X92749000Y-41010000D02*
X93769000Y-42030000D01*
X93769000Y-42030000D02*
X94959000Y-42030000D01*
%TO.N,A1*%
X93680000Y-39490000D02*
X94959000Y-39490000D01*
X93150000Y-38960000D02*
X93680000Y-39490000D01*
%TO.N,D3*%
X102589000Y-64900000D02*
X94959000Y-57270000D01*
X106380000Y-64900000D02*
X102589000Y-64900000D01*
D14*
%TO.N,+5V*%
X106380000Y-31880000D02*
X91140000Y-31880000D01*
D13*
%TO.N,GND*%
X91140000Y-34420000D02*
X106380000Y-34420000D01*
%TO.N,A7*%
X93480000Y-38210000D02*
X92230000Y-36960000D01*
X98080000Y-38210000D02*
X93480000Y-38210000D01*
X99360000Y-39490000D02*
X98080000Y-38210000D01*
X102579000Y-39490000D02*
X99360000Y-39490000D01*
X92230000Y-36960000D02*
X91140000Y-36960000D01*
%TO.N,A6*%
X92580000Y-39500000D02*
X91140000Y-39500000D01*
X93840000Y-40760000D02*
X92580000Y-39500000D01*
X98190000Y-40760000D02*
X93840000Y-40760000D01*
X102579000Y-42030000D02*
X99460000Y-42030000D01*
X99460000Y-42030000D02*
X98190000Y-40760000D01*
%TO.N,A5*%
X92480000Y-42040000D02*
X91140000Y-42040000D01*
X93750000Y-43310000D02*
X92480000Y-42040000D01*
X98250000Y-43310000D02*
X93750000Y-43310000D01*
X99510000Y-44570000D02*
X98250000Y-43310000D01*
X102579000Y-44570000D02*
X99510000Y-44570000D01*
%TO.N,OE*%
X106380000Y-47120000D02*
X102589000Y-47120000D01*
X102589000Y-47120000D02*
X102579000Y-47110000D01*
%TO.N,CE*%
X105129000Y-52200000D02*
X102579000Y-49650000D01*
X106380000Y-52200000D02*
X105129000Y-52200000D01*
%TO.N,D7*%
X105129000Y-54740000D02*
X102579000Y-52190000D01*
X106380000Y-54740000D02*
X105129000Y-54740000D01*
%TO.N,D6*%
X105129000Y-57280000D02*
X102579000Y-54730000D01*
X106380000Y-57280000D02*
X105129000Y-57280000D01*
%TO.N,D5*%
X106380000Y-59820000D02*
X105129000Y-59820000D01*
X105129000Y-59820000D02*
X102579000Y-57270000D01*
%TO.N,D4*%
X105129000Y-62360000D02*
X102579000Y-59810000D01*
X106380000Y-62360000D02*
X105129000Y-62360000D01*
%TD*%
M02*
