%TF.GenerationSoftware,KiCad,Pcbnew,9.0.4*%
%TF.CreationDate,2026-01-09T20:31:27-05:00*%
%TF.ProjectId,27c256_to_82s135,32376332-3536-45f7-946f-5f3832733133,rev?*%
%TF.SameCoordinates,Original*%
%TF.FileFunction,Legend,Bot*%
%TF.FilePolarity,Positive*%
%FSLAX46Y46*%
G04 Gerber Fmt 4.6, Leading zero omitted, Abs format (unit mm)*
G04 Created by KiCad (PCBNEW 9.0.4) date 2026-01-09 20:31:27*
%MOMM*%
%LPD*%
G01*
G04 APERTURE LIST*
%ADD10C,0.300000*%
G04 APERTURE END LIST*
D10*
X99019757Y-32701431D02*
X99019757Y-33415717D01*
X99448328Y-32558574D02*
X97948328Y-33058574D01*
X97948328Y-33058574D02*
X99448328Y-33558574D01*
X97948328Y-33844288D02*
X97948328Y-34701431D01*
X99448328Y-34272859D02*
X97948328Y-34272859D01*
X98091185Y-35130002D02*
X98019757Y-35201430D01*
X98019757Y-35201430D02*
X97948328Y-35344288D01*
X97948328Y-35344288D02*
X97948328Y-35701430D01*
X97948328Y-35701430D02*
X98019757Y-35844288D01*
X98019757Y-35844288D02*
X98091185Y-35915716D01*
X98091185Y-35915716D02*
X98234042Y-35987145D01*
X98234042Y-35987145D02*
X98376900Y-35987145D01*
X98376900Y-35987145D02*
X98591185Y-35915716D01*
X98591185Y-35915716D02*
X99448328Y-35058573D01*
X99448328Y-35058573D02*
X99448328Y-35987145D01*
X97948328Y-36487144D02*
X97948328Y-37487144D01*
X97948328Y-37487144D02*
X99448328Y-36844287D01*
X99305471Y-38915715D02*
X99376900Y-38844287D01*
X99376900Y-38844287D02*
X99448328Y-38630001D01*
X99448328Y-38630001D02*
X99448328Y-38487144D01*
X99448328Y-38487144D02*
X99376900Y-38272858D01*
X99376900Y-38272858D02*
X99234042Y-38130001D01*
X99234042Y-38130001D02*
X99091185Y-38058572D01*
X99091185Y-38058572D02*
X98805471Y-37987144D01*
X98805471Y-37987144D02*
X98591185Y-37987144D01*
X98591185Y-37987144D02*
X98305471Y-38058572D01*
X98305471Y-38058572D02*
X98162614Y-38130001D01*
X98162614Y-38130001D02*
X98019757Y-38272858D01*
X98019757Y-38272858D02*
X97948328Y-38487144D01*
X97948328Y-38487144D02*
X97948328Y-38630001D01*
X97948328Y-38630001D02*
X98019757Y-38844287D01*
X98019757Y-38844287D02*
X98091185Y-38915715D01*
X98091185Y-39487144D02*
X98019757Y-39558572D01*
X98019757Y-39558572D02*
X97948328Y-39701430D01*
X97948328Y-39701430D02*
X97948328Y-40058572D01*
X97948328Y-40058572D02*
X98019757Y-40201430D01*
X98019757Y-40201430D02*
X98091185Y-40272858D01*
X98091185Y-40272858D02*
X98234042Y-40344287D01*
X98234042Y-40344287D02*
X98376900Y-40344287D01*
X98376900Y-40344287D02*
X98591185Y-40272858D01*
X98591185Y-40272858D02*
X99448328Y-39415715D01*
X99448328Y-39415715D02*
X99448328Y-40344287D01*
X97948328Y-41701429D02*
X97948328Y-40987143D01*
X97948328Y-40987143D02*
X98662614Y-40915715D01*
X98662614Y-40915715D02*
X98591185Y-40987143D01*
X98591185Y-40987143D02*
X98519757Y-41130001D01*
X98519757Y-41130001D02*
X98519757Y-41487143D01*
X98519757Y-41487143D02*
X98591185Y-41630001D01*
X98591185Y-41630001D02*
X98662614Y-41701429D01*
X98662614Y-41701429D02*
X98805471Y-41772858D01*
X98805471Y-41772858D02*
X99162614Y-41772858D01*
X99162614Y-41772858D02*
X99305471Y-41701429D01*
X99305471Y-41701429D02*
X99376900Y-41630001D01*
X99376900Y-41630001D02*
X99448328Y-41487143D01*
X99448328Y-41487143D02*
X99448328Y-41130001D01*
X99448328Y-41130001D02*
X99376900Y-40987143D01*
X99376900Y-40987143D02*
X99305471Y-40915715D01*
X97948328Y-43058572D02*
X97948328Y-42772857D01*
X97948328Y-42772857D02*
X98019757Y-42630000D01*
X98019757Y-42630000D02*
X98091185Y-42558572D01*
X98091185Y-42558572D02*
X98305471Y-42415714D01*
X98305471Y-42415714D02*
X98591185Y-42344286D01*
X98591185Y-42344286D02*
X99162614Y-42344286D01*
X99162614Y-42344286D02*
X99305471Y-42415714D01*
X99305471Y-42415714D02*
X99376900Y-42487143D01*
X99376900Y-42487143D02*
X99448328Y-42630000D01*
X99448328Y-42630000D02*
X99448328Y-42915714D01*
X99448328Y-42915714D02*
X99376900Y-43058572D01*
X99376900Y-43058572D02*
X99305471Y-43130000D01*
X99305471Y-43130000D02*
X99162614Y-43201429D01*
X99162614Y-43201429D02*
X98805471Y-43201429D01*
X98805471Y-43201429D02*
X98662614Y-43130000D01*
X98662614Y-43130000D02*
X98591185Y-43058572D01*
X98591185Y-43058572D02*
X98519757Y-42915714D01*
X98519757Y-42915714D02*
X98519757Y-42630000D01*
X98519757Y-42630000D02*
X98591185Y-42487143D01*
X98591185Y-42487143D02*
X98662614Y-42415714D01*
X98662614Y-42415714D02*
X98805471Y-42344286D01*
X98876900Y-43844285D02*
X98876900Y-44987143D01*
X98448328Y-46344286D02*
X99448328Y-46344286D01*
X97876900Y-45987143D02*
X98948328Y-45630000D01*
X98948328Y-45630000D02*
X98948328Y-46558571D01*
X97948328Y-47844285D02*
X97948328Y-47129999D01*
X97948328Y-47129999D02*
X98662614Y-47058571D01*
X98662614Y-47058571D02*
X98591185Y-47129999D01*
X98591185Y-47129999D02*
X98519757Y-47272857D01*
X98519757Y-47272857D02*
X98519757Y-47629999D01*
X98519757Y-47629999D02*
X98591185Y-47772857D01*
X98591185Y-47772857D02*
X98662614Y-47844285D01*
X98662614Y-47844285D02*
X98805471Y-47915714D01*
X98805471Y-47915714D02*
X99162614Y-47915714D01*
X99162614Y-47915714D02*
X99305471Y-47844285D01*
X99305471Y-47844285D02*
X99376900Y-47772857D01*
X99376900Y-47772857D02*
X99448328Y-47629999D01*
X99448328Y-47629999D02*
X99448328Y-47272857D01*
X99448328Y-47272857D02*
X99376900Y-47129999D01*
X99376900Y-47129999D02*
X99305471Y-47058571D01*
X99448328Y-48558570D02*
X97948328Y-48558570D01*
X97948328Y-48558570D02*
X97948328Y-49129999D01*
X97948328Y-49129999D02*
X98019757Y-49272856D01*
X98019757Y-49272856D02*
X98091185Y-49344285D01*
X98091185Y-49344285D02*
X98234042Y-49415713D01*
X98234042Y-49415713D02*
X98448328Y-49415713D01*
X98448328Y-49415713D02*
X98591185Y-49344285D01*
X98591185Y-49344285D02*
X98662614Y-49272856D01*
X98662614Y-49272856D02*
X98734042Y-49129999D01*
X98734042Y-49129999D02*
X98734042Y-48558570D01*
X97948328Y-50058570D02*
X99162614Y-50058570D01*
X99162614Y-50058570D02*
X99305471Y-50129999D01*
X99305471Y-50129999D02*
X99376900Y-50201428D01*
X99376900Y-50201428D02*
X99448328Y-50344285D01*
X99448328Y-50344285D02*
X99448328Y-50629999D01*
X99448328Y-50629999D02*
X99376900Y-50772856D01*
X99376900Y-50772856D02*
X99305471Y-50844285D01*
X99305471Y-50844285D02*
X99162614Y-50915713D01*
X99162614Y-50915713D02*
X97948328Y-50915713D01*
X98448328Y-52558571D02*
X98448328Y-53129999D01*
X97948328Y-52772856D02*
X99234042Y-52772856D01*
X99234042Y-52772856D02*
X99376900Y-52844285D01*
X99376900Y-52844285D02*
X99448328Y-52987142D01*
X99448328Y-52987142D02*
X99448328Y-53129999D01*
X99448328Y-53844285D02*
X99376900Y-53701428D01*
X99376900Y-53701428D02*
X99305471Y-53629999D01*
X99305471Y-53629999D02*
X99162614Y-53558571D01*
X99162614Y-53558571D02*
X98734042Y-53558571D01*
X98734042Y-53558571D02*
X98591185Y-53629999D01*
X98591185Y-53629999D02*
X98519757Y-53701428D01*
X98519757Y-53701428D02*
X98448328Y-53844285D01*
X98448328Y-53844285D02*
X98448328Y-54058571D01*
X98448328Y-54058571D02*
X98519757Y-54201428D01*
X98519757Y-54201428D02*
X98591185Y-54272857D01*
X98591185Y-54272857D02*
X98734042Y-54344285D01*
X98734042Y-54344285D02*
X99162614Y-54344285D01*
X99162614Y-54344285D02*
X99305471Y-54272857D01*
X99305471Y-54272857D02*
X99376900Y-54201428D01*
X99376900Y-54201428D02*
X99448328Y-54058571D01*
X99448328Y-54058571D02*
X99448328Y-53844285D01*
X98591185Y-56344285D02*
X98519757Y-56201428D01*
X98519757Y-56201428D02*
X98448328Y-56129999D01*
X98448328Y-56129999D02*
X98305471Y-56058571D01*
X98305471Y-56058571D02*
X98234042Y-56058571D01*
X98234042Y-56058571D02*
X98091185Y-56129999D01*
X98091185Y-56129999D02*
X98019757Y-56201428D01*
X98019757Y-56201428D02*
X97948328Y-56344285D01*
X97948328Y-56344285D02*
X97948328Y-56629999D01*
X97948328Y-56629999D02*
X98019757Y-56772857D01*
X98019757Y-56772857D02*
X98091185Y-56844285D01*
X98091185Y-56844285D02*
X98234042Y-56915714D01*
X98234042Y-56915714D02*
X98305471Y-56915714D01*
X98305471Y-56915714D02*
X98448328Y-56844285D01*
X98448328Y-56844285D02*
X98519757Y-56772857D01*
X98519757Y-56772857D02*
X98591185Y-56629999D01*
X98591185Y-56629999D02*
X98591185Y-56344285D01*
X98591185Y-56344285D02*
X98662614Y-56201428D01*
X98662614Y-56201428D02*
X98734042Y-56129999D01*
X98734042Y-56129999D02*
X98876900Y-56058571D01*
X98876900Y-56058571D02*
X99162614Y-56058571D01*
X99162614Y-56058571D02*
X99305471Y-56129999D01*
X99305471Y-56129999D02*
X99376900Y-56201428D01*
X99376900Y-56201428D02*
X99448328Y-56344285D01*
X99448328Y-56344285D02*
X99448328Y-56629999D01*
X99448328Y-56629999D02*
X99376900Y-56772857D01*
X99376900Y-56772857D02*
X99305471Y-56844285D01*
X99305471Y-56844285D02*
X99162614Y-56915714D01*
X99162614Y-56915714D02*
X98876900Y-56915714D01*
X98876900Y-56915714D02*
X98734042Y-56844285D01*
X98734042Y-56844285D02*
X98662614Y-56772857D01*
X98662614Y-56772857D02*
X98591185Y-56629999D01*
X98091185Y-57487142D02*
X98019757Y-57558570D01*
X98019757Y-57558570D02*
X97948328Y-57701428D01*
X97948328Y-57701428D02*
X97948328Y-58058570D01*
X97948328Y-58058570D02*
X98019757Y-58201428D01*
X98019757Y-58201428D02*
X98091185Y-58272856D01*
X98091185Y-58272856D02*
X98234042Y-58344285D01*
X98234042Y-58344285D02*
X98376900Y-58344285D01*
X98376900Y-58344285D02*
X98591185Y-58272856D01*
X98591185Y-58272856D02*
X99448328Y-57415713D01*
X99448328Y-57415713D02*
X99448328Y-58344285D01*
X99376900Y-58915713D02*
X99448328Y-59129999D01*
X99448328Y-59129999D02*
X99448328Y-59487141D01*
X99448328Y-59487141D02*
X99376900Y-59629999D01*
X99376900Y-59629999D02*
X99305471Y-59701427D01*
X99305471Y-59701427D02*
X99162614Y-59772856D01*
X99162614Y-59772856D02*
X99019757Y-59772856D01*
X99019757Y-59772856D02*
X98876900Y-59701427D01*
X98876900Y-59701427D02*
X98805471Y-59629999D01*
X98805471Y-59629999D02*
X98734042Y-59487141D01*
X98734042Y-59487141D02*
X98662614Y-59201427D01*
X98662614Y-59201427D02*
X98591185Y-59058570D01*
X98591185Y-59058570D02*
X98519757Y-58987141D01*
X98519757Y-58987141D02*
X98376900Y-58915713D01*
X98376900Y-58915713D02*
X98234042Y-58915713D01*
X98234042Y-58915713D02*
X98091185Y-58987141D01*
X98091185Y-58987141D02*
X98019757Y-59058570D01*
X98019757Y-59058570D02*
X97948328Y-59201427D01*
X97948328Y-59201427D02*
X97948328Y-59558570D01*
X97948328Y-59558570D02*
X98019757Y-59772856D01*
X99448328Y-61201427D02*
X99448328Y-60344284D01*
X99448328Y-60772855D02*
X97948328Y-60772855D01*
X97948328Y-60772855D02*
X98162614Y-60629998D01*
X98162614Y-60629998D02*
X98305471Y-60487141D01*
X98305471Y-60487141D02*
X98376900Y-60344284D01*
X97948328Y-61701426D02*
X97948328Y-62629998D01*
X97948328Y-62629998D02*
X98519757Y-62129998D01*
X98519757Y-62129998D02*
X98519757Y-62344283D01*
X98519757Y-62344283D02*
X98591185Y-62487141D01*
X98591185Y-62487141D02*
X98662614Y-62558569D01*
X98662614Y-62558569D02*
X98805471Y-62629998D01*
X98805471Y-62629998D02*
X99162614Y-62629998D01*
X99162614Y-62629998D02*
X99305471Y-62558569D01*
X99305471Y-62558569D02*
X99376900Y-62487141D01*
X99376900Y-62487141D02*
X99448328Y-62344283D01*
X99448328Y-62344283D02*
X99448328Y-61915712D01*
X99448328Y-61915712D02*
X99376900Y-61772855D01*
X99376900Y-61772855D02*
X99305471Y-61701426D01*
X97948328Y-63987140D02*
X97948328Y-63272854D01*
X97948328Y-63272854D02*
X98662614Y-63201426D01*
X98662614Y-63201426D02*
X98591185Y-63272854D01*
X98591185Y-63272854D02*
X98519757Y-63415712D01*
X98519757Y-63415712D02*
X98519757Y-63772854D01*
X98519757Y-63772854D02*
X98591185Y-63915712D01*
X98591185Y-63915712D02*
X98662614Y-63987140D01*
X98662614Y-63987140D02*
X98805471Y-64058569D01*
X98805471Y-64058569D02*
X99162614Y-64058569D01*
X99162614Y-64058569D02*
X99305471Y-63987140D01*
X99305471Y-63987140D02*
X99376900Y-63915712D01*
X99376900Y-63915712D02*
X99448328Y-63772854D01*
X99448328Y-63772854D02*
X99448328Y-63415712D01*
X99448328Y-63415712D02*
X99376900Y-63272854D01*
X99376900Y-63272854D02*
X99305471Y-63201426D01*
M02*
