%TF.GenerationSoftware,KiCad,Pcbnew,9.0.4*%
%TF.CreationDate,2026-01-09T20:31:27-05:00*%
%TF.ProjectId,27c256_to_82s135,32376332-3536-45f7-946f-5f3832733133,rev?*%
%TF.SameCoordinates,Original*%
%TF.FileFunction,Soldermask,Bot*%
%TF.FilePolarity,Negative*%
%FSLAX46Y46*%
G04 Gerber Fmt 4.6, Leading zero omitted, Abs format (unit mm)*
G04 Created by KiCad (PCBNEW 9.0.4) date 2026-01-09 20:31:27*
%MOMM*%
%LPD*%
G01*
G04 APERTURE LIST*
G04 Aperture macros list*
%AMRoundRect*
0 Rectangle with rounded corners*
0 $1 Rounding radius*
0 $2 $3 $4 $5 $6 $7 $8 $9 X,Y pos of 4 corners*
0 Add a 4 corners polygon primitive as box body*
4,1,4,$2,$3,$4,$5,$6,$7,$8,$9,$2,$3,0*
0 Add four circle primitives for the rounded corners*
1,1,$1+$1,$2,$3*
1,1,$1+$1,$4,$5*
1,1,$1+$1,$6,$7*
1,1,$1+$1,$8,$9*
0 Add four rect primitives between the rounded corners*
20,1,$1+$1,$2,$3,$4,$5,0*
20,1,$1+$1,$4,$5,$6,$7,0*
20,1,$1+$1,$6,$7,$8,$9,0*
20,1,$1+$1,$8,$9,$2,$3,0*%
G04 Aperture macros list end*
%ADD10RoundRect,0.250000X-0.550000X-0.550000X0.550000X-0.550000X0.550000X0.550000X-0.550000X0.550000X0*%
%ADD11C,1.600000*%
G04 APERTURE END LIST*
D10*
%TO.C,U1*%
X91140000Y-31880000D03*
D11*
X91140000Y-34420000D03*
X91140000Y-36960000D03*
X91140000Y-39500000D03*
X91140000Y-42040000D03*
X91140000Y-44580000D03*
X91140000Y-47120000D03*
X91140000Y-49660000D03*
X91140000Y-52200000D03*
X91140000Y-54740000D03*
X91140000Y-57280000D03*
X91140000Y-59820000D03*
X91140000Y-62360000D03*
X91140000Y-64900000D03*
X106380000Y-64900000D03*
X106380000Y-62360000D03*
X106380000Y-59820000D03*
X106380000Y-57280000D03*
X106380000Y-54740000D03*
X106380000Y-52200000D03*
X106380000Y-49660000D03*
X106380000Y-47120000D03*
X106380000Y-44580000D03*
X106380000Y-42040000D03*
X106380000Y-39500000D03*
X106380000Y-36960000D03*
X106380000Y-34420000D03*
X106380000Y-31880000D03*
%TD*%
D10*
%TO.C,J1*%
X94959000Y-36950000D03*
D11*
X94959000Y-39490000D03*
X94959000Y-42030000D03*
X94959000Y-44570000D03*
X94959000Y-47110000D03*
X94959000Y-49650000D03*
X94959000Y-52190000D03*
X94959000Y-54730000D03*
X94959000Y-57270000D03*
X94959000Y-59810000D03*
X102579000Y-59810000D03*
X102579000Y-57270000D03*
X102579000Y-54730000D03*
X102579000Y-52190000D03*
X102579000Y-49650000D03*
X102579000Y-47110000D03*
X102579000Y-44570000D03*
X102579000Y-42030000D03*
X102579000Y-39490000D03*
X102579000Y-36950000D03*
%TD*%
M02*
