M48
METRIC
T1C0.300
T2C0.800
%
G90
G05
T1
X92.348Y-43.42
X92.749Y-41.01
X93.15Y-38.96
T2
X91.14Y-31.88
X91.14Y-34.42
X91.14Y-36.96
X91.14Y-39.5
X91.14Y-42.04
X91.14Y-44.58
X91.14Y-47.12
X91.14Y-49.66
X91.14Y-52.2
X91.14Y-54.74
X91.14Y-57.28
X91.14Y-59.82
X91.14Y-62.36
X91.14Y-64.9
X94.959Y-36.95
X94.959Y-39.49
X94.959Y-42.03
X94.959Y-44.57
X94.959Y-47.11
X94.959Y-49.65
X94.959Y-52.19
X94.959Y-54.73
X94.959Y-57.27
X94.959Y-59.81
X102.579Y-36.95
X102.579Y-39.49
X102.579Y-42.03
X102.579Y-44.57
X102.579Y-47.11
X102.579Y-49.65
X102.579Y-52.19
X102.579Y-54.73
X102.579Y-57.27
X102.579Y-59.81
X106.38Y-31.88
X106.38Y-34.42
X106.38Y-36.96
X106.38Y-39.5
X106.38Y-42.04
X106.38Y-44.58
X106.38Y-47.12
X106.38Y-49.66
X106.38Y-52.2
X106.38Y-54.74
X106.38Y-57.28
X106.38Y-59.82
X106.38Y-62.36
X106.38Y-64.9
M30
