G04 #@! TF.GenerationSoftware,KiCad,Pcbnew,(5.1.4)-1*
G04 #@! TF.CreationDate,2021-03-20T01:14:52-04:00*
G04 #@! TF.ProjectId,27c256_to_82s123,32376332-3536-45f7-946f-5f3832733132,rev?*
G04 #@! TF.SameCoordinates,Original*
G04 #@! TF.FileFunction,Copper,L2,Bot*
G04 #@! TF.FilePolarity,Positive*
%FSLAX46Y46*%
G04 Gerber Fmt 4.6, Leading zero omitted, Abs format (unit mm)*
G04 Created by KiCad (PCBNEW (5.1.4)-1) date 2021-03-20 01:14:52*
%MOMM*%
%LPD*%
G04 APERTURE LIST*
%ADD10R,1.600000X1.600000*%
%ADD11O,1.600000X1.600000*%
%ADD12C,0.800000*%
%ADD13C,0.250000*%
%ADD14C,0.254000*%
G04 APERTURE END LIST*
D10*
X161000000Y-94820000D03*
D11*
X168620000Y-112600000D03*
X161000000Y-97360000D03*
X168620000Y-110060000D03*
X161000000Y-99900000D03*
X168620000Y-107520000D03*
X161000000Y-102440000D03*
X168620000Y-104980000D03*
X161000000Y-104980000D03*
X168620000Y-102440000D03*
X161000000Y-107520000D03*
X168620000Y-99900000D03*
X161000000Y-110060000D03*
X168620000Y-97360000D03*
X161000000Y-112600000D03*
X168620000Y-94820000D03*
D10*
X157250000Y-87250000D03*
D11*
X172490000Y-120270000D03*
X157250000Y-89790000D03*
X172490000Y-117730000D03*
X157250000Y-92330000D03*
X172490000Y-115190000D03*
X157250000Y-94870000D03*
X172490000Y-112650000D03*
X157250000Y-97410000D03*
X172490000Y-110110000D03*
X157250000Y-99950000D03*
X172490000Y-107570000D03*
X157250000Y-102490000D03*
X172490000Y-105030000D03*
X157250000Y-105030000D03*
X172490000Y-102490000D03*
X157250000Y-107570000D03*
X172490000Y-99950000D03*
X157250000Y-110110000D03*
X172490000Y-97410000D03*
X157250000Y-112650000D03*
X172490000Y-94870000D03*
X157250000Y-115190000D03*
X172490000Y-92330000D03*
X157250000Y-117730000D03*
X172490000Y-89790000D03*
X157250000Y-120270000D03*
X172490000Y-87250000D03*
D12*
X166310000Y-116350000D03*
X165550000Y-118640000D03*
X164790001Y-119345000D03*
X162450000Y-115180000D03*
X163340000Y-117730000D03*
D13*
X162050000Y-94820000D02*
X161000000Y-94820000D01*
X166310000Y-99080000D02*
X162050000Y-94820000D01*
X166310000Y-116350000D02*
X166310000Y-99080000D01*
X165550000Y-101910000D02*
X161000000Y-97360000D01*
X165550000Y-118640000D02*
X165550000Y-101910000D01*
X164790001Y-118779315D02*
X164780000Y-118769314D01*
X164790001Y-119345000D02*
X164790001Y-118779315D01*
X164780000Y-103680000D02*
X164780000Y-103940000D01*
X161000000Y-99900000D02*
X164780000Y-103680000D01*
X164780000Y-118769314D02*
X164780000Y-103940000D01*
X164065001Y-105505001D02*
X161000000Y-102440000D01*
X164065001Y-120075001D02*
X164065001Y-105505001D01*
X164260000Y-120270000D02*
X164065001Y-120075001D01*
X172490000Y-120270000D02*
X164260000Y-120270000D01*
X161920000Y-107520000D02*
X161000000Y-107520000D01*
X162450000Y-115180000D02*
X162450000Y-108050000D01*
X162450000Y-108050000D02*
X161920000Y-107520000D01*
X161000000Y-104980000D02*
X163340000Y-107320000D01*
X163340000Y-107320000D02*
X163340000Y-116770000D01*
X163340000Y-116770000D02*
X163340000Y-117730000D01*
D14*
G36*
X163372461Y-86189417D02*
G01*
X163376788Y-86197553D01*
X163468686Y-86367514D01*
X163502108Y-86417063D01*
X163534889Y-86467159D01*
X163540714Y-86474300D01*
X163663873Y-86623174D01*
X163706309Y-86665315D01*
X163748172Y-86708064D01*
X163755272Y-86713938D01*
X163905002Y-86836055D01*
X163954811Y-86869147D01*
X164004183Y-86902954D01*
X164012290Y-86907337D01*
X164182887Y-86998046D01*
X164238205Y-87020846D01*
X164293176Y-87044407D01*
X164301979Y-87047132D01*
X164486947Y-87102977D01*
X164545632Y-87114597D01*
X164604140Y-87127033D01*
X164613303Y-87127996D01*
X164613305Y-87127996D01*
X164805597Y-87146850D01*
X164834418Y-87146850D01*
X164863077Y-87149964D01*
X164872292Y-87149996D01*
X164879203Y-87149972D01*
X164907891Y-87147058D01*
X164936731Y-87147260D01*
X164945902Y-87146360D01*
X165138058Y-87126163D01*
X165196648Y-87114136D01*
X165255410Y-87102927D01*
X165264232Y-87100264D01*
X165448805Y-87043129D01*
X165503922Y-87019960D01*
X165559417Y-86997539D01*
X165567546Y-86993216D01*
X165567550Y-86993214D01*
X165567553Y-86993212D01*
X165737514Y-86901314D01*
X165787063Y-86867892D01*
X165837159Y-86835111D01*
X165844300Y-86829286D01*
X165993174Y-86706127D01*
X166035315Y-86663691D01*
X166078064Y-86621828D01*
X166083938Y-86614728D01*
X166206055Y-86464998D01*
X166239147Y-86415189D01*
X166272954Y-86365817D01*
X166277337Y-86357710D01*
X166368046Y-86187113D01*
X166379221Y-86160000D01*
X171556165Y-86160000D01*
X171470392Y-86230392D01*
X171291068Y-86448899D01*
X171157818Y-86698192D01*
X171075764Y-86968691D01*
X171048057Y-87250000D01*
X171075764Y-87531309D01*
X171157818Y-87801808D01*
X171291068Y-88051101D01*
X171470392Y-88269608D01*
X171688899Y-88448932D01*
X171826682Y-88522579D01*
X171634869Y-88637615D01*
X171426481Y-88826586D01*
X171258963Y-89052580D01*
X171138754Y-89306913D01*
X171098096Y-89440961D01*
X171220085Y-89663000D01*
X172363000Y-89663000D01*
X172363000Y-89643000D01*
X172617000Y-89643000D01*
X172617000Y-89663000D01*
X172637000Y-89663000D01*
X172637000Y-89917000D01*
X172617000Y-89917000D01*
X172617000Y-92203000D01*
X172637000Y-92203000D01*
X172637000Y-92457000D01*
X172617000Y-92457000D01*
X172617000Y-94743000D01*
X172637000Y-94743000D01*
X172637000Y-94997000D01*
X172617000Y-94997000D01*
X172617000Y-97283000D01*
X172637000Y-97283000D01*
X172637000Y-97537000D01*
X172617000Y-97537000D01*
X172617000Y-99823000D01*
X172637000Y-99823000D01*
X172637000Y-100077000D01*
X172617000Y-100077000D01*
X172617000Y-100097000D01*
X172363000Y-100097000D01*
X172363000Y-100077000D01*
X171220085Y-100077000D01*
X171098096Y-100299039D01*
X171138754Y-100433087D01*
X171258963Y-100687420D01*
X171426481Y-100913414D01*
X171634869Y-101102385D01*
X171826682Y-101217421D01*
X171688899Y-101291068D01*
X171470392Y-101470392D01*
X171291068Y-101688899D01*
X171157818Y-101938192D01*
X171075764Y-102208691D01*
X171048057Y-102490000D01*
X171075764Y-102771309D01*
X171157818Y-103041808D01*
X171291068Y-103291101D01*
X171470392Y-103509608D01*
X171688899Y-103688932D01*
X171826682Y-103762579D01*
X171634869Y-103877615D01*
X171426481Y-104066586D01*
X171258963Y-104292580D01*
X171138754Y-104546913D01*
X171098096Y-104680961D01*
X171220085Y-104903000D01*
X172363000Y-104903000D01*
X172363000Y-104883000D01*
X172617000Y-104883000D01*
X172617000Y-104903000D01*
X172637000Y-104903000D01*
X172637000Y-105157000D01*
X172617000Y-105157000D01*
X172617000Y-105177000D01*
X172363000Y-105177000D01*
X172363000Y-105157000D01*
X171220085Y-105157000D01*
X171098096Y-105379039D01*
X171138754Y-105513087D01*
X171258963Y-105767420D01*
X171426481Y-105993414D01*
X171634869Y-106182385D01*
X171826682Y-106297421D01*
X171688899Y-106371068D01*
X171470392Y-106550392D01*
X171291068Y-106768899D01*
X171157818Y-107018192D01*
X171075764Y-107288691D01*
X171048057Y-107570000D01*
X171075764Y-107851309D01*
X171157818Y-108121808D01*
X171291068Y-108371101D01*
X171470392Y-108589608D01*
X171688899Y-108768932D01*
X171821858Y-108840000D01*
X171688899Y-108911068D01*
X171470392Y-109090392D01*
X171291068Y-109308899D01*
X171157818Y-109558192D01*
X171075764Y-109828691D01*
X171048057Y-110110000D01*
X171075764Y-110391309D01*
X171157818Y-110661808D01*
X171291068Y-110911101D01*
X171470392Y-111129608D01*
X171688899Y-111308932D01*
X171821858Y-111380000D01*
X171688899Y-111451068D01*
X171470392Y-111630392D01*
X171291068Y-111848899D01*
X171157818Y-112098192D01*
X171075764Y-112368691D01*
X171048057Y-112650000D01*
X171075764Y-112931309D01*
X171157818Y-113201808D01*
X171291068Y-113451101D01*
X171470392Y-113669608D01*
X171688899Y-113848932D01*
X171821858Y-113920000D01*
X171688899Y-113991068D01*
X171470392Y-114170392D01*
X171291068Y-114388899D01*
X171157818Y-114638192D01*
X171075764Y-114908691D01*
X171048057Y-115190000D01*
X171075764Y-115471309D01*
X171157818Y-115741808D01*
X171291068Y-115991101D01*
X171470392Y-116209608D01*
X171688899Y-116388932D01*
X171821858Y-116460000D01*
X171688899Y-116531068D01*
X171470392Y-116710392D01*
X171291068Y-116928899D01*
X171157818Y-117178192D01*
X171075764Y-117448691D01*
X171048057Y-117730000D01*
X171075764Y-118011309D01*
X171157818Y-118281808D01*
X171291068Y-118531101D01*
X171470392Y-118749608D01*
X171688899Y-118928932D01*
X171821858Y-119000000D01*
X171688899Y-119071068D01*
X171470392Y-119250392D01*
X171291068Y-119468899D01*
X171269099Y-119510000D01*
X166110903Y-119510000D01*
X166209774Y-119443937D01*
X166353937Y-119299774D01*
X166467205Y-119130256D01*
X166545226Y-118941898D01*
X166585000Y-118741939D01*
X166585000Y-118538061D01*
X166545226Y-118338102D01*
X166467205Y-118149744D01*
X166353937Y-117980226D01*
X166310000Y-117936289D01*
X166310000Y-117385000D01*
X166411939Y-117385000D01*
X166611898Y-117345226D01*
X166800256Y-117267205D01*
X166969774Y-117153937D01*
X167113937Y-117009774D01*
X167227205Y-116840256D01*
X167305226Y-116651898D01*
X167345000Y-116451939D01*
X167345000Y-116248061D01*
X167305226Y-116048102D01*
X167227205Y-115859744D01*
X167113937Y-115690226D01*
X167070000Y-115646289D01*
X167070000Y-99117325D01*
X167073676Y-99080000D01*
X167070000Y-99042675D01*
X167070000Y-99042667D01*
X167059003Y-98931014D01*
X167015546Y-98787753D01*
X166944974Y-98655724D01*
X166850001Y-98539999D01*
X166821003Y-98516201D01*
X163124802Y-94820000D01*
X167178057Y-94820000D01*
X167205764Y-95101309D01*
X167287818Y-95371808D01*
X167421068Y-95621101D01*
X167600392Y-95839608D01*
X167818899Y-96018932D01*
X167951858Y-96090000D01*
X167818899Y-96161068D01*
X167600392Y-96340392D01*
X167421068Y-96558899D01*
X167287818Y-96808192D01*
X167205764Y-97078691D01*
X167178057Y-97360000D01*
X167205764Y-97641309D01*
X167287818Y-97911808D01*
X167421068Y-98161101D01*
X167600392Y-98379608D01*
X167818899Y-98558932D01*
X167951858Y-98630000D01*
X167818899Y-98701068D01*
X167600392Y-98880392D01*
X167421068Y-99098899D01*
X167287818Y-99348192D01*
X167205764Y-99618691D01*
X167178057Y-99900000D01*
X167205764Y-100181309D01*
X167287818Y-100451808D01*
X167421068Y-100701101D01*
X167600392Y-100919608D01*
X167818899Y-101098932D01*
X167951858Y-101170000D01*
X167818899Y-101241068D01*
X167600392Y-101420392D01*
X167421068Y-101638899D01*
X167287818Y-101888192D01*
X167205764Y-102158691D01*
X167178057Y-102440000D01*
X167205764Y-102721309D01*
X167287818Y-102991808D01*
X167421068Y-103241101D01*
X167600392Y-103459608D01*
X167818899Y-103638932D01*
X167951858Y-103710000D01*
X167818899Y-103781068D01*
X167600392Y-103960392D01*
X167421068Y-104178899D01*
X167287818Y-104428192D01*
X167205764Y-104698691D01*
X167178057Y-104980000D01*
X167205764Y-105261309D01*
X167287818Y-105531808D01*
X167421068Y-105781101D01*
X167600392Y-105999608D01*
X167818899Y-106178932D01*
X167951858Y-106250000D01*
X167818899Y-106321068D01*
X167600392Y-106500392D01*
X167421068Y-106718899D01*
X167287818Y-106968192D01*
X167205764Y-107238691D01*
X167178057Y-107520000D01*
X167205764Y-107801309D01*
X167287818Y-108071808D01*
X167421068Y-108321101D01*
X167600392Y-108539608D01*
X167818899Y-108718932D01*
X167951858Y-108790000D01*
X167818899Y-108861068D01*
X167600392Y-109040392D01*
X167421068Y-109258899D01*
X167287818Y-109508192D01*
X167205764Y-109778691D01*
X167178057Y-110060000D01*
X167205764Y-110341309D01*
X167287818Y-110611808D01*
X167421068Y-110861101D01*
X167600392Y-111079608D01*
X167818899Y-111258932D01*
X167951858Y-111330000D01*
X167818899Y-111401068D01*
X167600392Y-111580392D01*
X167421068Y-111798899D01*
X167287818Y-112048192D01*
X167205764Y-112318691D01*
X167178057Y-112600000D01*
X167205764Y-112881309D01*
X167287818Y-113151808D01*
X167421068Y-113401101D01*
X167600392Y-113619608D01*
X167818899Y-113798932D01*
X168068192Y-113932182D01*
X168338691Y-114014236D01*
X168549508Y-114035000D01*
X168690492Y-114035000D01*
X168901309Y-114014236D01*
X169171808Y-113932182D01*
X169421101Y-113798932D01*
X169639608Y-113619608D01*
X169818932Y-113401101D01*
X169952182Y-113151808D01*
X170034236Y-112881309D01*
X170061943Y-112600000D01*
X170034236Y-112318691D01*
X169952182Y-112048192D01*
X169818932Y-111798899D01*
X169639608Y-111580392D01*
X169421101Y-111401068D01*
X169288142Y-111330000D01*
X169421101Y-111258932D01*
X169639608Y-111079608D01*
X169818932Y-110861101D01*
X169952182Y-110611808D01*
X170034236Y-110341309D01*
X170061943Y-110060000D01*
X170034236Y-109778691D01*
X169952182Y-109508192D01*
X169818932Y-109258899D01*
X169639608Y-109040392D01*
X169421101Y-108861068D01*
X169288142Y-108790000D01*
X169421101Y-108718932D01*
X169639608Y-108539608D01*
X169818932Y-108321101D01*
X169952182Y-108071808D01*
X170034236Y-107801309D01*
X170061943Y-107520000D01*
X170034236Y-107238691D01*
X169952182Y-106968192D01*
X169818932Y-106718899D01*
X169639608Y-106500392D01*
X169421101Y-106321068D01*
X169288142Y-106250000D01*
X169421101Y-106178932D01*
X169639608Y-105999608D01*
X169818932Y-105781101D01*
X169952182Y-105531808D01*
X170034236Y-105261309D01*
X170061943Y-104980000D01*
X170034236Y-104698691D01*
X169952182Y-104428192D01*
X169818932Y-104178899D01*
X169639608Y-103960392D01*
X169421101Y-103781068D01*
X169288142Y-103710000D01*
X169421101Y-103638932D01*
X169639608Y-103459608D01*
X169818932Y-103241101D01*
X169952182Y-102991808D01*
X170034236Y-102721309D01*
X170061943Y-102440000D01*
X170034236Y-102158691D01*
X169952182Y-101888192D01*
X169818932Y-101638899D01*
X169639608Y-101420392D01*
X169421101Y-101241068D01*
X169288142Y-101170000D01*
X169421101Y-101098932D01*
X169639608Y-100919608D01*
X169818932Y-100701101D01*
X169952182Y-100451808D01*
X170034236Y-100181309D01*
X170061943Y-99900000D01*
X170034236Y-99618691D01*
X169952182Y-99348192D01*
X169818932Y-99098899D01*
X169639608Y-98880392D01*
X169421101Y-98701068D01*
X169288142Y-98630000D01*
X169421101Y-98558932D01*
X169639608Y-98379608D01*
X169818932Y-98161101D01*
X169952182Y-97911808D01*
X169998523Y-97759039D01*
X171098096Y-97759039D01*
X171138754Y-97893087D01*
X171258963Y-98147420D01*
X171426481Y-98373414D01*
X171634869Y-98562385D01*
X171830982Y-98680000D01*
X171634869Y-98797615D01*
X171426481Y-98986586D01*
X171258963Y-99212580D01*
X171138754Y-99466913D01*
X171098096Y-99600961D01*
X171220085Y-99823000D01*
X172363000Y-99823000D01*
X172363000Y-97537000D01*
X171220085Y-97537000D01*
X171098096Y-97759039D01*
X169998523Y-97759039D01*
X170034236Y-97641309D01*
X170061943Y-97360000D01*
X170034236Y-97078691D01*
X169952182Y-96808192D01*
X169818932Y-96558899D01*
X169639608Y-96340392D01*
X169421101Y-96161068D01*
X169288142Y-96090000D01*
X169421101Y-96018932D01*
X169639608Y-95839608D01*
X169818932Y-95621101D01*
X169952182Y-95371808D01*
X169998523Y-95219039D01*
X171098096Y-95219039D01*
X171138754Y-95353087D01*
X171258963Y-95607420D01*
X171426481Y-95833414D01*
X171634869Y-96022385D01*
X171830982Y-96140000D01*
X171634869Y-96257615D01*
X171426481Y-96446586D01*
X171258963Y-96672580D01*
X171138754Y-96926913D01*
X171098096Y-97060961D01*
X171220085Y-97283000D01*
X172363000Y-97283000D01*
X172363000Y-94997000D01*
X171220085Y-94997000D01*
X171098096Y-95219039D01*
X169998523Y-95219039D01*
X170034236Y-95101309D01*
X170061943Y-94820000D01*
X170034236Y-94538691D01*
X169952182Y-94268192D01*
X169818932Y-94018899D01*
X169639608Y-93800392D01*
X169421101Y-93621068D01*
X169171808Y-93487818D01*
X168901309Y-93405764D01*
X168690492Y-93385000D01*
X168549508Y-93385000D01*
X168338691Y-93405764D01*
X168068192Y-93487818D01*
X167818899Y-93621068D01*
X167600392Y-93800392D01*
X167421068Y-94018899D01*
X167287818Y-94268192D01*
X167205764Y-94538691D01*
X167178057Y-94820000D01*
X163124802Y-94820000D01*
X162613804Y-94309003D01*
X162590001Y-94279999D01*
X162474276Y-94185026D01*
X162438072Y-94165674D01*
X162438072Y-94020000D01*
X162425812Y-93895518D01*
X162389502Y-93775820D01*
X162330537Y-93665506D01*
X162251185Y-93568815D01*
X162154494Y-93489463D01*
X162044180Y-93430498D01*
X161924482Y-93394188D01*
X161800000Y-93381928D01*
X160200000Y-93381928D01*
X160075518Y-93394188D01*
X159955820Y-93430498D01*
X159845506Y-93489463D01*
X159748815Y-93568815D01*
X159669463Y-93665506D01*
X159610498Y-93775820D01*
X159574188Y-93895518D01*
X159561928Y-94020000D01*
X159561928Y-95620000D01*
X159574188Y-95744482D01*
X159610498Y-95864180D01*
X159669463Y-95974494D01*
X159748815Y-96071185D01*
X159845506Y-96150537D01*
X159955820Y-96209502D01*
X160075518Y-96245812D01*
X160093482Y-96247581D01*
X159980392Y-96340392D01*
X159801068Y-96558899D01*
X159667818Y-96808192D01*
X159585764Y-97078691D01*
X159558057Y-97360000D01*
X159585764Y-97641309D01*
X159667818Y-97911808D01*
X159801068Y-98161101D01*
X159980392Y-98379608D01*
X160198899Y-98558932D01*
X160331858Y-98630000D01*
X160198899Y-98701068D01*
X159980392Y-98880392D01*
X159801068Y-99098899D01*
X159667818Y-99348192D01*
X159585764Y-99618691D01*
X159558057Y-99900000D01*
X159585764Y-100181309D01*
X159667818Y-100451808D01*
X159801068Y-100701101D01*
X159980392Y-100919608D01*
X160198899Y-101098932D01*
X160331858Y-101170000D01*
X160198899Y-101241068D01*
X159980392Y-101420392D01*
X159801068Y-101638899D01*
X159667818Y-101888192D01*
X159585764Y-102158691D01*
X159558057Y-102440000D01*
X159585764Y-102721309D01*
X159667818Y-102991808D01*
X159801068Y-103241101D01*
X159980392Y-103459608D01*
X160198899Y-103638932D01*
X160331858Y-103710000D01*
X160198899Y-103781068D01*
X159980392Y-103960392D01*
X159801068Y-104178899D01*
X159667818Y-104428192D01*
X159585764Y-104698691D01*
X159558057Y-104980000D01*
X159585764Y-105261309D01*
X159667818Y-105531808D01*
X159801068Y-105781101D01*
X159980392Y-105999608D01*
X160198899Y-106178932D01*
X160331858Y-106250000D01*
X160198899Y-106321068D01*
X159980392Y-106500392D01*
X159801068Y-106718899D01*
X159667818Y-106968192D01*
X159585764Y-107238691D01*
X159558057Y-107520000D01*
X159585764Y-107801309D01*
X159667818Y-108071808D01*
X159801068Y-108321101D01*
X159980392Y-108539608D01*
X160198899Y-108718932D01*
X160331858Y-108790000D01*
X160198899Y-108861068D01*
X159980392Y-109040392D01*
X159801068Y-109258899D01*
X159667818Y-109508192D01*
X159585764Y-109778691D01*
X159558057Y-110060000D01*
X159585764Y-110341309D01*
X159667818Y-110611808D01*
X159801068Y-110861101D01*
X159980392Y-111079608D01*
X160198899Y-111258932D01*
X160336682Y-111332579D01*
X160144869Y-111447615D01*
X159936481Y-111636586D01*
X159768963Y-111862580D01*
X159648754Y-112116913D01*
X159608096Y-112250961D01*
X159730085Y-112473000D01*
X160873000Y-112473000D01*
X160873000Y-112453000D01*
X161127000Y-112453000D01*
X161127000Y-112473000D01*
X161147000Y-112473000D01*
X161147000Y-112727000D01*
X161127000Y-112727000D01*
X161127000Y-113870624D01*
X161349040Y-113991909D01*
X161613881Y-113897070D01*
X161690000Y-113851419D01*
X161690000Y-114476289D01*
X161646063Y-114520226D01*
X161532795Y-114689744D01*
X161454774Y-114878102D01*
X161415000Y-115078061D01*
X161415000Y-115281939D01*
X161454774Y-115481898D01*
X161532795Y-115670256D01*
X161646063Y-115839774D01*
X161790226Y-115983937D01*
X161959744Y-116097205D01*
X162148102Y-116175226D01*
X162348061Y-116215000D01*
X162551939Y-116215000D01*
X162580001Y-116209418D01*
X162580001Y-116732658D01*
X162580000Y-116732668D01*
X162580000Y-117026289D01*
X162536063Y-117070226D01*
X162422795Y-117239744D01*
X162344774Y-117428102D01*
X162305000Y-117628061D01*
X162305000Y-117831939D01*
X162344774Y-118031898D01*
X162422795Y-118220256D01*
X162536063Y-118389774D01*
X162680226Y-118533937D01*
X162849744Y-118647205D01*
X163038102Y-118725226D01*
X163238061Y-118765000D01*
X163305001Y-118765000D01*
X163305001Y-120037679D01*
X163301325Y-120075001D01*
X163305001Y-120112323D01*
X163305001Y-120112333D01*
X163315998Y-120223986D01*
X163359455Y-120367247D01*
X163430027Y-120499277D01*
X163469872Y-120547827D01*
X163525000Y-120615002D01*
X163554004Y-120638805D01*
X163696196Y-120780997D01*
X163719999Y-120810001D01*
X163835724Y-120904974D01*
X163967753Y-120975546D01*
X164111014Y-121019003D01*
X164222667Y-121030000D01*
X164222676Y-121030000D01*
X164259999Y-121033676D01*
X164297322Y-121030000D01*
X171269099Y-121030000D01*
X171291068Y-121071101D01*
X171470392Y-121289608D01*
X171531795Y-121340000D01*
X158195981Y-121340000D01*
X158313519Y-121233414D01*
X158481037Y-121007420D01*
X158601246Y-120753087D01*
X158641904Y-120619039D01*
X158519915Y-120397000D01*
X157377000Y-120397000D01*
X157377000Y-120417000D01*
X157123000Y-120417000D01*
X157123000Y-120397000D01*
X157103000Y-120397000D01*
X157103000Y-120143000D01*
X157123000Y-120143000D01*
X157123000Y-120123000D01*
X157377000Y-120123000D01*
X157377000Y-120143000D01*
X158519915Y-120143000D01*
X158641904Y-119920961D01*
X158601246Y-119786913D01*
X158481037Y-119532580D01*
X158313519Y-119306586D01*
X158105131Y-119117615D01*
X157913318Y-119002579D01*
X158051101Y-118928932D01*
X158269608Y-118749608D01*
X158448932Y-118531101D01*
X158582182Y-118281808D01*
X158664236Y-118011309D01*
X158691943Y-117730000D01*
X158664236Y-117448691D01*
X158582182Y-117178192D01*
X158448932Y-116928899D01*
X158269608Y-116710392D01*
X158051101Y-116531068D01*
X157918142Y-116460000D01*
X158051101Y-116388932D01*
X158269608Y-116209608D01*
X158448932Y-115991101D01*
X158582182Y-115741808D01*
X158664236Y-115471309D01*
X158691943Y-115190000D01*
X158664236Y-114908691D01*
X158582182Y-114638192D01*
X158448932Y-114388899D01*
X158269608Y-114170392D01*
X158051101Y-113991068D01*
X157918142Y-113920000D01*
X158051101Y-113848932D01*
X158269608Y-113669608D01*
X158448932Y-113451101D01*
X158582182Y-113201808D01*
X158658857Y-112949039D01*
X159608096Y-112949039D01*
X159648754Y-113083087D01*
X159768963Y-113337420D01*
X159936481Y-113563414D01*
X160144869Y-113752385D01*
X160386119Y-113897070D01*
X160650960Y-113991909D01*
X160873000Y-113870624D01*
X160873000Y-112727000D01*
X159730085Y-112727000D01*
X159608096Y-112949039D01*
X158658857Y-112949039D01*
X158664236Y-112931309D01*
X158691943Y-112650000D01*
X158664236Y-112368691D01*
X158582182Y-112098192D01*
X158448932Y-111848899D01*
X158269608Y-111630392D01*
X158051101Y-111451068D01*
X157918142Y-111380000D01*
X158051101Y-111308932D01*
X158269608Y-111129608D01*
X158448932Y-110911101D01*
X158582182Y-110661808D01*
X158664236Y-110391309D01*
X158691943Y-110110000D01*
X158664236Y-109828691D01*
X158582182Y-109558192D01*
X158448932Y-109308899D01*
X158269608Y-109090392D01*
X158051101Y-108911068D01*
X157918142Y-108840000D01*
X158051101Y-108768932D01*
X158269608Y-108589608D01*
X158448932Y-108371101D01*
X158582182Y-108121808D01*
X158664236Y-107851309D01*
X158691943Y-107570000D01*
X158664236Y-107288691D01*
X158582182Y-107018192D01*
X158448932Y-106768899D01*
X158269608Y-106550392D01*
X158051101Y-106371068D01*
X157918142Y-106300000D01*
X158051101Y-106228932D01*
X158269608Y-106049608D01*
X158448932Y-105831101D01*
X158582182Y-105581808D01*
X158664236Y-105311309D01*
X158691943Y-105030000D01*
X158664236Y-104748691D01*
X158582182Y-104478192D01*
X158448932Y-104228899D01*
X158269608Y-104010392D01*
X158051101Y-103831068D01*
X157918142Y-103760000D01*
X158051101Y-103688932D01*
X158269608Y-103509608D01*
X158448932Y-103291101D01*
X158582182Y-103041808D01*
X158664236Y-102771309D01*
X158691943Y-102490000D01*
X158664236Y-102208691D01*
X158582182Y-101938192D01*
X158448932Y-101688899D01*
X158269608Y-101470392D01*
X158051101Y-101291068D01*
X157918142Y-101220000D01*
X158051101Y-101148932D01*
X158269608Y-100969608D01*
X158448932Y-100751101D01*
X158582182Y-100501808D01*
X158664236Y-100231309D01*
X158691943Y-99950000D01*
X158664236Y-99668691D01*
X158582182Y-99398192D01*
X158448932Y-99148899D01*
X158269608Y-98930392D01*
X158051101Y-98751068D01*
X157913318Y-98677421D01*
X158105131Y-98562385D01*
X158313519Y-98373414D01*
X158481037Y-98147420D01*
X158601246Y-97893087D01*
X158641904Y-97759039D01*
X158519915Y-97537000D01*
X157377000Y-97537000D01*
X157377000Y-97557000D01*
X157123000Y-97557000D01*
X157123000Y-97537000D01*
X157103000Y-97537000D01*
X157103000Y-97283000D01*
X157123000Y-97283000D01*
X157123000Y-94997000D01*
X157377000Y-94997000D01*
X157377000Y-97283000D01*
X158519915Y-97283000D01*
X158641904Y-97060961D01*
X158601246Y-96926913D01*
X158481037Y-96672580D01*
X158313519Y-96446586D01*
X158105131Y-96257615D01*
X157909018Y-96140000D01*
X158105131Y-96022385D01*
X158313519Y-95833414D01*
X158481037Y-95607420D01*
X158601246Y-95353087D01*
X158641904Y-95219039D01*
X158519915Y-94997000D01*
X157377000Y-94997000D01*
X157123000Y-94997000D01*
X157103000Y-94997000D01*
X157103000Y-94743000D01*
X157123000Y-94743000D01*
X157123000Y-92457000D01*
X157377000Y-92457000D01*
X157377000Y-94743000D01*
X158519915Y-94743000D01*
X158641904Y-94520961D01*
X158601246Y-94386913D01*
X158481037Y-94132580D01*
X158313519Y-93906586D01*
X158105131Y-93717615D01*
X157909018Y-93600000D01*
X158105131Y-93482385D01*
X158313519Y-93293414D01*
X158481037Y-93067420D01*
X158601246Y-92813087D01*
X158641904Y-92679039D01*
X171098096Y-92679039D01*
X171138754Y-92813087D01*
X171258963Y-93067420D01*
X171426481Y-93293414D01*
X171634869Y-93482385D01*
X171830982Y-93600000D01*
X171634869Y-93717615D01*
X171426481Y-93906586D01*
X171258963Y-94132580D01*
X171138754Y-94386913D01*
X171098096Y-94520961D01*
X171220085Y-94743000D01*
X172363000Y-94743000D01*
X172363000Y-92457000D01*
X171220085Y-92457000D01*
X171098096Y-92679039D01*
X158641904Y-92679039D01*
X158519915Y-92457000D01*
X157377000Y-92457000D01*
X157123000Y-92457000D01*
X157103000Y-92457000D01*
X157103000Y-92203000D01*
X157123000Y-92203000D01*
X157123000Y-89917000D01*
X157377000Y-89917000D01*
X157377000Y-92203000D01*
X158519915Y-92203000D01*
X158641904Y-91980961D01*
X158601246Y-91846913D01*
X158481037Y-91592580D01*
X158313519Y-91366586D01*
X158105131Y-91177615D01*
X157909018Y-91060000D01*
X158105131Y-90942385D01*
X158313519Y-90753414D01*
X158481037Y-90527420D01*
X158601246Y-90273087D01*
X158641904Y-90139039D01*
X171098096Y-90139039D01*
X171138754Y-90273087D01*
X171258963Y-90527420D01*
X171426481Y-90753414D01*
X171634869Y-90942385D01*
X171830982Y-91060000D01*
X171634869Y-91177615D01*
X171426481Y-91366586D01*
X171258963Y-91592580D01*
X171138754Y-91846913D01*
X171098096Y-91980961D01*
X171220085Y-92203000D01*
X172363000Y-92203000D01*
X172363000Y-89917000D01*
X171220085Y-89917000D01*
X171098096Y-90139039D01*
X158641904Y-90139039D01*
X158519915Y-89917000D01*
X157377000Y-89917000D01*
X157123000Y-89917000D01*
X157103000Y-89917000D01*
X157103000Y-89663000D01*
X157123000Y-89663000D01*
X157123000Y-89643000D01*
X157377000Y-89643000D01*
X157377000Y-89663000D01*
X158519915Y-89663000D01*
X158641904Y-89440961D01*
X158601246Y-89306913D01*
X158481037Y-89052580D01*
X158313519Y-88826586D01*
X158149920Y-88678231D01*
X158174482Y-88675812D01*
X158294180Y-88639502D01*
X158404494Y-88580537D01*
X158501185Y-88501185D01*
X158580537Y-88404494D01*
X158639502Y-88294180D01*
X158675812Y-88174482D01*
X158688072Y-88050000D01*
X158688072Y-86450000D01*
X158675812Y-86325518D01*
X158639502Y-86205820D01*
X158615010Y-86160000D01*
X163360576Y-86160000D01*
X163372461Y-86189417D01*
X163372461Y-86189417D01*
G37*
X163372461Y-86189417D02*
X163376788Y-86197553D01*
X163468686Y-86367514D01*
X163502108Y-86417063D01*
X163534889Y-86467159D01*
X163540714Y-86474300D01*
X163663873Y-86623174D01*
X163706309Y-86665315D01*
X163748172Y-86708064D01*
X163755272Y-86713938D01*
X163905002Y-86836055D01*
X163954811Y-86869147D01*
X164004183Y-86902954D01*
X164012290Y-86907337D01*
X164182887Y-86998046D01*
X164238205Y-87020846D01*
X164293176Y-87044407D01*
X164301979Y-87047132D01*
X164486947Y-87102977D01*
X164545632Y-87114597D01*
X164604140Y-87127033D01*
X164613303Y-87127996D01*
X164613305Y-87127996D01*
X164805597Y-87146850D01*
X164834418Y-87146850D01*
X164863077Y-87149964D01*
X164872292Y-87149996D01*
X164879203Y-87149972D01*
X164907891Y-87147058D01*
X164936731Y-87147260D01*
X164945902Y-87146360D01*
X165138058Y-87126163D01*
X165196648Y-87114136D01*
X165255410Y-87102927D01*
X165264232Y-87100264D01*
X165448805Y-87043129D01*
X165503922Y-87019960D01*
X165559417Y-86997539D01*
X165567546Y-86993216D01*
X165567550Y-86993214D01*
X165567553Y-86993212D01*
X165737514Y-86901314D01*
X165787063Y-86867892D01*
X165837159Y-86835111D01*
X165844300Y-86829286D01*
X165993174Y-86706127D01*
X166035315Y-86663691D01*
X166078064Y-86621828D01*
X166083938Y-86614728D01*
X166206055Y-86464998D01*
X166239147Y-86415189D01*
X166272954Y-86365817D01*
X166277337Y-86357710D01*
X166368046Y-86187113D01*
X166379221Y-86160000D01*
X171556165Y-86160000D01*
X171470392Y-86230392D01*
X171291068Y-86448899D01*
X171157818Y-86698192D01*
X171075764Y-86968691D01*
X171048057Y-87250000D01*
X171075764Y-87531309D01*
X171157818Y-87801808D01*
X171291068Y-88051101D01*
X171470392Y-88269608D01*
X171688899Y-88448932D01*
X171826682Y-88522579D01*
X171634869Y-88637615D01*
X171426481Y-88826586D01*
X171258963Y-89052580D01*
X171138754Y-89306913D01*
X171098096Y-89440961D01*
X171220085Y-89663000D01*
X172363000Y-89663000D01*
X172363000Y-89643000D01*
X172617000Y-89643000D01*
X172617000Y-89663000D01*
X172637000Y-89663000D01*
X172637000Y-89917000D01*
X172617000Y-89917000D01*
X172617000Y-92203000D01*
X172637000Y-92203000D01*
X172637000Y-92457000D01*
X172617000Y-92457000D01*
X172617000Y-94743000D01*
X172637000Y-94743000D01*
X172637000Y-94997000D01*
X172617000Y-94997000D01*
X172617000Y-97283000D01*
X172637000Y-97283000D01*
X172637000Y-97537000D01*
X172617000Y-97537000D01*
X172617000Y-99823000D01*
X172637000Y-99823000D01*
X172637000Y-100077000D01*
X172617000Y-100077000D01*
X172617000Y-100097000D01*
X172363000Y-100097000D01*
X172363000Y-100077000D01*
X171220085Y-100077000D01*
X171098096Y-100299039D01*
X171138754Y-100433087D01*
X171258963Y-100687420D01*
X171426481Y-100913414D01*
X171634869Y-101102385D01*
X171826682Y-101217421D01*
X171688899Y-101291068D01*
X171470392Y-101470392D01*
X171291068Y-101688899D01*
X171157818Y-101938192D01*
X171075764Y-102208691D01*
X171048057Y-102490000D01*
X171075764Y-102771309D01*
X171157818Y-103041808D01*
X171291068Y-103291101D01*
X171470392Y-103509608D01*
X171688899Y-103688932D01*
X171826682Y-103762579D01*
X171634869Y-103877615D01*
X171426481Y-104066586D01*
X171258963Y-104292580D01*
X171138754Y-104546913D01*
X171098096Y-104680961D01*
X171220085Y-104903000D01*
X172363000Y-104903000D01*
X172363000Y-104883000D01*
X172617000Y-104883000D01*
X172617000Y-104903000D01*
X172637000Y-104903000D01*
X172637000Y-105157000D01*
X172617000Y-105157000D01*
X172617000Y-105177000D01*
X172363000Y-105177000D01*
X172363000Y-105157000D01*
X171220085Y-105157000D01*
X171098096Y-105379039D01*
X171138754Y-105513087D01*
X171258963Y-105767420D01*
X171426481Y-105993414D01*
X171634869Y-106182385D01*
X171826682Y-106297421D01*
X171688899Y-106371068D01*
X171470392Y-106550392D01*
X171291068Y-106768899D01*
X171157818Y-107018192D01*
X171075764Y-107288691D01*
X171048057Y-107570000D01*
X171075764Y-107851309D01*
X171157818Y-108121808D01*
X171291068Y-108371101D01*
X171470392Y-108589608D01*
X171688899Y-108768932D01*
X171821858Y-108840000D01*
X171688899Y-108911068D01*
X171470392Y-109090392D01*
X171291068Y-109308899D01*
X171157818Y-109558192D01*
X171075764Y-109828691D01*
X171048057Y-110110000D01*
X171075764Y-110391309D01*
X171157818Y-110661808D01*
X171291068Y-110911101D01*
X171470392Y-111129608D01*
X171688899Y-111308932D01*
X171821858Y-111380000D01*
X171688899Y-111451068D01*
X171470392Y-111630392D01*
X171291068Y-111848899D01*
X171157818Y-112098192D01*
X171075764Y-112368691D01*
X171048057Y-112650000D01*
X171075764Y-112931309D01*
X171157818Y-113201808D01*
X171291068Y-113451101D01*
X171470392Y-113669608D01*
X171688899Y-113848932D01*
X171821858Y-113920000D01*
X171688899Y-113991068D01*
X171470392Y-114170392D01*
X171291068Y-114388899D01*
X171157818Y-114638192D01*
X171075764Y-114908691D01*
X171048057Y-115190000D01*
X171075764Y-115471309D01*
X171157818Y-115741808D01*
X171291068Y-115991101D01*
X171470392Y-116209608D01*
X171688899Y-116388932D01*
X171821858Y-116460000D01*
X171688899Y-116531068D01*
X171470392Y-116710392D01*
X171291068Y-116928899D01*
X171157818Y-117178192D01*
X171075764Y-117448691D01*
X171048057Y-117730000D01*
X171075764Y-118011309D01*
X171157818Y-118281808D01*
X171291068Y-118531101D01*
X171470392Y-118749608D01*
X171688899Y-118928932D01*
X171821858Y-119000000D01*
X171688899Y-119071068D01*
X171470392Y-119250392D01*
X171291068Y-119468899D01*
X171269099Y-119510000D01*
X166110903Y-119510000D01*
X166209774Y-119443937D01*
X166353937Y-119299774D01*
X166467205Y-119130256D01*
X166545226Y-118941898D01*
X166585000Y-118741939D01*
X166585000Y-118538061D01*
X166545226Y-118338102D01*
X166467205Y-118149744D01*
X166353937Y-117980226D01*
X166310000Y-117936289D01*
X166310000Y-117385000D01*
X166411939Y-117385000D01*
X166611898Y-117345226D01*
X166800256Y-117267205D01*
X166969774Y-117153937D01*
X167113937Y-117009774D01*
X167227205Y-116840256D01*
X167305226Y-116651898D01*
X167345000Y-116451939D01*
X167345000Y-116248061D01*
X167305226Y-116048102D01*
X167227205Y-115859744D01*
X167113937Y-115690226D01*
X167070000Y-115646289D01*
X167070000Y-99117325D01*
X167073676Y-99080000D01*
X167070000Y-99042675D01*
X167070000Y-99042667D01*
X167059003Y-98931014D01*
X167015546Y-98787753D01*
X166944974Y-98655724D01*
X166850001Y-98539999D01*
X166821003Y-98516201D01*
X163124802Y-94820000D01*
X167178057Y-94820000D01*
X167205764Y-95101309D01*
X167287818Y-95371808D01*
X167421068Y-95621101D01*
X167600392Y-95839608D01*
X167818899Y-96018932D01*
X167951858Y-96090000D01*
X167818899Y-96161068D01*
X167600392Y-96340392D01*
X167421068Y-96558899D01*
X167287818Y-96808192D01*
X167205764Y-97078691D01*
X167178057Y-97360000D01*
X167205764Y-97641309D01*
X167287818Y-97911808D01*
X167421068Y-98161101D01*
X167600392Y-98379608D01*
X167818899Y-98558932D01*
X167951858Y-98630000D01*
X167818899Y-98701068D01*
X167600392Y-98880392D01*
X167421068Y-99098899D01*
X167287818Y-99348192D01*
X167205764Y-99618691D01*
X167178057Y-99900000D01*
X167205764Y-100181309D01*
X167287818Y-100451808D01*
X167421068Y-100701101D01*
X167600392Y-100919608D01*
X167818899Y-101098932D01*
X167951858Y-101170000D01*
X167818899Y-101241068D01*
X167600392Y-101420392D01*
X167421068Y-101638899D01*
X167287818Y-101888192D01*
X167205764Y-102158691D01*
X167178057Y-102440000D01*
X167205764Y-102721309D01*
X167287818Y-102991808D01*
X167421068Y-103241101D01*
X167600392Y-103459608D01*
X167818899Y-103638932D01*
X167951858Y-103710000D01*
X167818899Y-103781068D01*
X167600392Y-103960392D01*
X167421068Y-104178899D01*
X167287818Y-104428192D01*
X167205764Y-104698691D01*
X167178057Y-104980000D01*
X167205764Y-105261309D01*
X167287818Y-105531808D01*
X167421068Y-105781101D01*
X167600392Y-105999608D01*
X167818899Y-106178932D01*
X167951858Y-106250000D01*
X167818899Y-106321068D01*
X167600392Y-106500392D01*
X167421068Y-106718899D01*
X167287818Y-106968192D01*
X167205764Y-107238691D01*
X167178057Y-107520000D01*
X167205764Y-107801309D01*
X167287818Y-108071808D01*
X167421068Y-108321101D01*
X167600392Y-108539608D01*
X167818899Y-108718932D01*
X167951858Y-108790000D01*
X167818899Y-108861068D01*
X167600392Y-109040392D01*
X167421068Y-109258899D01*
X167287818Y-109508192D01*
X167205764Y-109778691D01*
X167178057Y-110060000D01*
X167205764Y-110341309D01*
X167287818Y-110611808D01*
X167421068Y-110861101D01*
X167600392Y-111079608D01*
X167818899Y-111258932D01*
X167951858Y-111330000D01*
X167818899Y-111401068D01*
X167600392Y-111580392D01*
X167421068Y-111798899D01*
X167287818Y-112048192D01*
X167205764Y-112318691D01*
X167178057Y-112600000D01*
X167205764Y-112881309D01*
X167287818Y-113151808D01*
X167421068Y-113401101D01*
X167600392Y-113619608D01*
X167818899Y-113798932D01*
X168068192Y-113932182D01*
X168338691Y-114014236D01*
X168549508Y-114035000D01*
X168690492Y-114035000D01*
X168901309Y-114014236D01*
X169171808Y-113932182D01*
X169421101Y-113798932D01*
X169639608Y-113619608D01*
X169818932Y-113401101D01*
X169952182Y-113151808D01*
X170034236Y-112881309D01*
X170061943Y-112600000D01*
X170034236Y-112318691D01*
X169952182Y-112048192D01*
X169818932Y-111798899D01*
X169639608Y-111580392D01*
X169421101Y-111401068D01*
X169288142Y-111330000D01*
X169421101Y-111258932D01*
X169639608Y-111079608D01*
X169818932Y-110861101D01*
X169952182Y-110611808D01*
X170034236Y-110341309D01*
X170061943Y-110060000D01*
X170034236Y-109778691D01*
X169952182Y-109508192D01*
X169818932Y-109258899D01*
X169639608Y-109040392D01*
X169421101Y-108861068D01*
X169288142Y-108790000D01*
X169421101Y-108718932D01*
X169639608Y-108539608D01*
X169818932Y-108321101D01*
X169952182Y-108071808D01*
X170034236Y-107801309D01*
X170061943Y-107520000D01*
X170034236Y-107238691D01*
X169952182Y-106968192D01*
X169818932Y-106718899D01*
X169639608Y-106500392D01*
X169421101Y-106321068D01*
X169288142Y-106250000D01*
X169421101Y-106178932D01*
X169639608Y-105999608D01*
X169818932Y-105781101D01*
X169952182Y-105531808D01*
X170034236Y-105261309D01*
X170061943Y-104980000D01*
X170034236Y-104698691D01*
X169952182Y-104428192D01*
X169818932Y-104178899D01*
X169639608Y-103960392D01*
X169421101Y-103781068D01*
X169288142Y-103710000D01*
X169421101Y-103638932D01*
X169639608Y-103459608D01*
X169818932Y-103241101D01*
X169952182Y-102991808D01*
X170034236Y-102721309D01*
X170061943Y-102440000D01*
X170034236Y-102158691D01*
X169952182Y-101888192D01*
X169818932Y-101638899D01*
X169639608Y-101420392D01*
X169421101Y-101241068D01*
X169288142Y-101170000D01*
X169421101Y-101098932D01*
X169639608Y-100919608D01*
X169818932Y-100701101D01*
X169952182Y-100451808D01*
X170034236Y-100181309D01*
X170061943Y-99900000D01*
X170034236Y-99618691D01*
X169952182Y-99348192D01*
X169818932Y-99098899D01*
X169639608Y-98880392D01*
X169421101Y-98701068D01*
X169288142Y-98630000D01*
X169421101Y-98558932D01*
X169639608Y-98379608D01*
X169818932Y-98161101D01*
X169952182Y-97911808D01*
X169998523Y-97759039D01*
X171098096Y-97759039D01*
X171138754Y-97893087D01*
X171258963Y-98147420D01*
X171426481Y-98373414D01*
X171634869Y-98562385D01*
X171830982Y-98680000D01*
X171634869Y-98797615D01*
X171426481Y-98986586D01*
X171258963Y-99212580D01*
X171138754Y-99466913D01*
X171098096Y-99600961D01*
X171220085Y-99823000D01*
X172363000Y-99823000D01*
X172363000Y-97537000D01*
X171220085Y-97537000D01*
X171098096Y-97759039D01*
X169998523Y-97759039D01*
X170034236Y-97641309D01*
X170061943Y-97360000D01*
X170034236Y-97078691D01*
X169952182Y-96808192D01*
X169818932Y-96558899D01*
X169639608Y-96340392D01*
X169421101Y-96161068D01*
X169288142Y-96090000D01*
X169421101Y-96018932D01*
X169639608Y-95839608D01*
X169818932Y-95621101D01*
X169952182Y-95371808D01*
X169998523Y-95219039D01*
X171098096Y-95219039D01*
X171138754Y-95353087D01*
X171258963Y-95607420D01*
X171426481Y-95833414D01*
X171634869Y-96022385D01*
X171830982Y-96140000D01*
X171634869Y-96257615D01*
X171426481Y-96446586D01*
X171258963Y-96672580D01*
X171138754Y-96926913D01*
X171098096Y-97060961D01*
X171220085Y-97283000D01*
X172363000Y-97283000D01*
X172363000Y-94997000D01*
X171220085Y-94997000D01*
X171098096Y-95219039D01*
X169998523Y-95219039D01*
X170034236Y-95101309D01*
X170061943Y-94820000D01*
X170034236Y-94538691D01*
X169952182Y-94268192D01*
X169818932Y-94018899D01*
X169639608Y-93800392D01*
X169421101Y-93621068D01*
X169171808Y-93487818D01*
X168901309Y-93405764D01*
X168690492Y-93385000D01*
X168549508Y-93385000D01*
X168338691Y-93405764D01*
X168068192Y-93487818D01*
X167818899Y-93621068D01*
X167600392Y-93800392D01*
X167421068Y-94018899D01*
X167287818Y-94268192D01*
X167205764Y-94538691D01*
X167178057Y-94820000D01*
X163124802Y-94820000D01*
X162613804Y-94309003D01*
X162590001Y-94279999D01*
X162474276Y-94185026D01*
X162438072Y-94165674D01*
X162438072Y-94020000D01*
X162425812Y-93895518D01*
X162389502Y-93775820D01*
X162330537Y-93665506D01*
X162251185Y-93568815D01*
X162154494Y-93489463D01*
X162044180Y-93430498D01*
X161924482Y-93394188D01*
X161800000Y-93381928D01*
X160200000Y-93381928D01*
X160075518Y-93394188D01*
X159955820Y-93430498D01*
X159845506Y-93489463D01*
X159748815Y-93568815D01*
X159669463Y-93665506D01*
X159610498Y-93775820D01*
X159574188Y-93895518D01*
X159561928Y-94020000D01*
X159561928Y-95620000D01*
X159574188Y-95744482D01*
X159610498Y-95864180D01*
X159669463Y-95974494D01*
X159748815Y-96071185D01*
X159845506Y-96150537D01*
X159955820Y-96209502D01*
X160075518Y-96245812D01*
X160093482Y-96247581D01*
X159980392Y-96340392D01*
X159801068Y-96558899D01*
X159667818Y-96808192D01*
X159585764Y-97078691D01*
X159558057Y-97360000D01*
X159585764Y-97641309D01*
X159667818Y-97911808D01*
X159801068Y-98161101D01*
X159980392Y-98379608D01*
X160198899Y-98558932D01*
X160331858Y-98630000D01*
X160198899Y-98701068D01*
X159980392Y-98880392D01*
X159801068Y-99098899D01*
X159667818Y-99348192D01*
X159585764Y-99618691D01*
X159558057Y-99900000D01*
X159585764Y-100181309D01*
X159667818Y-100451808D01*
X159801068Y-100701101D01*
X159980392Y-100919608D01*
X160198899Y-101098932D01*
X160331858Y-101170000D01*
X160198899Y-101241068D01*
X159980392Y-101420392D01*
X159801068Y-101638899D01*
X159667818Y-101888192D01*
X159585764Y-102158691D01*
X159558057Y-102440000D01*
X159585764Y-102721309D01*
X159667818Y-102991808D01*
X159801068Y-103241101D01*
X159980392Y-103459608D01*
X160198899Y-103638932D01*
X160331858Y-103710000D01*
X160198899Y-103781068D01*
X159980392Y-103960392D01*
X159801068Y-104178899D01*
X159667818Y-104428192D01*
X159585764Y-104698691D01*
X159558057Y-104980000D01*
X159585764Y-105261309D01*
X159667818Y-105531808D01*
X159801068Y-105781101D01*
X159980392Y-105999608D01*
X160198899Y-106178932D01*
X160331858Y-106250000D01*
X160198899Y-106321068D01*
X159980392Y-106500392D01*
X159801068Y-106718899D01*
X159667818Y-106968192D01*
X159585764Y-107238691D01*
X159558057Y-107520000D01*
X159585764Y-107801309D01*
X159667818Y-108071808D01*
X159801068Y-108321101D01*
X159980392Y-108539608D01*
X160198899Y-108718932D01*
X160331858Y-108790000D01*
X160198899Y-108861068D01*
X159980392Y-109040392D01*
X159801068Y-109258899D01*
X159667818Y-109508192D01*
X159585764Y-109778691D01*
X159558057Y-110060000D01*
X159585764Y-110341309D01*
X159667818Y-110611808D01*
X159801068Y-110861101D01*
X159980392Y-111079608D01*
X160198899Y-111258932D01*
X160336682Y-111332579D01*
X160144869Y-111447615D01*
X159936481Y-111636586D01*
X159768963Y-111862580D01*
X159648754Y-112116913D01*
X159608096Y-112250961D01*
X159730085Y-112473000D01*
X160873000Y-112473000D01*
X160873000Y-112453000D01*
X161127000Y-112453000D01*
X161127000Y-112473000D01*
X161147000Y-112473000D01*
X161147000Y-112727000D01*
X161127000Y-112727000D01*
X161127000Y-113870624D01*
X161349040Y-113991909D01*
X161613881Y-113897070D01*
X161690000Y-113851419D01*
X161690000Y-114476289D01*
X161646063Y-114520226D01*
X161532795Y-114689744D01*
X161454774Y-114878102D01*
X161415000Y-115078061D01*
X161415000Y-115281939D01*
X161454774Y-115481898D01*
X161532795Y-115670256D01*
X161646063Y-115839774D01*
X161790226Y-115983937D01*
X161959744Y-116097205D01*
X162148102Y-116175226D01*
X162348061Y-116215000D01*
X162551939Y-116215000D01*
X162580001Y-116209418D01*
X162580001Y-116732658D01*
X162580000Y-116732668D01*
X162580000Y-117026289D01*
X162536063Y-117070226D01*
X162422795Y-117239744D01*
X162344774Y-117428102D01*
X162305000Y-117628061D01*
X162305000Y-117831939D01*
X162344774Y-118031898D01*
X162422795Y-118220256D01*
X162536063Y-118389774D01*
X162680226Y-118533937D01*
X162849744Y-118647205D01*
X163038102Y-118725226D01*
X163238061Y-118765000D01*
X163305001Y-118765000D01*
X163305001Y-120037679D01*
X163301325Y-120075001D01*
X163305001Y-120112323D01*
X163305001Y-120112333D01*
X163315998Y-120223986D01*
X163359455Y-120367247D01*
X163430027Y-120499277D01*
X163469872Y-120547827D01*
X163525000Y-120615002D01*
X163554004Y-120638805D01*
X163696196Y-120780997D01*
X163719999Y-120810001D01*
X163835724Y-120904974D01*
X163967753Y-120975546D01*
X164111014Y-121019003D01*
X164222667Y-121030000D01*
X164222676Y-121030000D01*
X164259999Y-121033676D01*
X164297322Y-121030000D01*
X171269099Y-121030000D01*
X171291068Y-121071101D01*
X171470392Y-121289608D01*
X171531795Y-121340000D01*
X158195981Y-121340000D01*
X158313519Y-121233414D01*
X158481037Y-121007420D01*
X158601246Y-120753087D01*
X158641904Y-120619039D01*
X158519915Y-120397000D01*
X157377000Y-120397000D01*
X157377000Y-120417000D01*
X157123000Y-120417000D01*
X157123000Y-120397000D01*
X157103000Y-120397000D01*
X157103000Y-120143000D01*
X157123000Y-120143000D01*
X157123000Y-120123000D01*
X157377000Y-120123000D01*
X157377000Y-120143000D01*
X158519915Y-120143000D01*
X158641904Y-119920961D01*
X158601246Y-119786913D01*
X158481037Y-119532580D01*
X158313519Y-119306586D01*
X158105131Y-119117615D01*
X157913318Y-119002579D01*
X158051101Y-118928932D01*
X158269608Y-118749608D01*
X158448932Y-118531101D01*
X158582182Y-118281808D01*
X158664236Y-118011309D01*
X158691943Y-117730000D01*
X158664236Y-117448691D01*
X158582182Y-117178192D01*
X158448932Y-116928899D01*
X158269608Y-116710392D01*
X158051101Y-116531068D01*
X157918142Y-116460000D01*
X158051101Y-116388932D01*
X158269608Y-116209608D01*
X158448932Y-115991101D01*
X158582182Y-115741808D01*
X158664236Y-115471309D01*
X158691943Y-115190000D01*
X158664236Y-114908691D01*
X158582182Y-114638192D01*
X158448932Y-114388899D01*
X158269608Y-114170392D01*
X158051101Y-113991068D01*
X157918142Y-113920000D01*
X158051101Y-113848932D01*
X158269608Y-113669608D01*
X158448932Y-113451101D01*
X158582182Y-113201808D01*
X158658857Y-112949039D01*
X159608096Y-112949039D01*
X159648754Y-113083087D01*
X159768963Y-113337420D01*
X159936481Y-113563414D01*
X160144869Y-113752385D01*
X160386119Y-113897070D01*
X160650960Y-113991909D01*
X160873000Y-113870624D01*
X160873000Y-112727000D01*
X159730085Y-112727000D01*
X159608096Y-112949039D01*
X158658857Y-112949039D01*
X158664236Y-112931309D01*
X158691943Y-112650000D01*
X158664236Y-112368691D01*
X158582182Y-112098192D01*
X158448932Y-111848899D01*
X158269608Y-111630392D01*
X158051101Y-111451068D01*
X157918142Y-111380000D01*
X158051101Y-111308932D01*
X158269608Y-111129608D01*
X158448932Y-110911101D01*
X158582182Y-110661808D01*
X158664236Y-110391309D01*
X158691943Y-110110000D01*
X158664236Y-109828691D01*
X158582182Y-109558192D01*
X158448932Y-109308899D01*
X158269608Y-109090392D01*
X158051101Y-108911068D01*
X157918142Y-108840000D01*
X158051101Y-108768932D01*
X158269608Y-108589608D01*
X158448932Y-108371101D01*
X158582182Y-108121808D01*
X158664236Y-107851309D01*
X158691943Y-107570000D01*
X158664236Y-107288691D01*
X158582182Y-107018192D01*
X158448932Y-106768899D01*
X158269608Y-106550392D01*
X158051101Y-106371068D01*
X157918142Y-106300000D01*
X158051101Y-106228932D01*
X158269608Y-106049608D01*
X158448932Y-105831101D01*
X158582182Y-105581808D01*
X158664236Y-105311309D01*
X158691943Y-105030000D01*
X158664236Y-104748691D01*
X158582182Y-104478192D01*
X158448932Y-104228899D01*
X158269608Y-104010392D01*
X158051101Y-103831068D01*
X157918142Y-103760000D01*
X158051101Y-103688932D01*
X158269608Y-103509608D01*
X158448932Y-103291101D01*
X158582182Y-103041808D01*
X158664236Y-102771309D01*
X158691943Y-102490000D01*
X158664236Y-102208691D01*
X158582182Y-101938192D01*
X158448932Y-101688899D01*
X158269608Y-101470392D01*
X158051101Y-101291068D01*
X157918142Y-101220000D01*
X158051101Y-101148932D01*
X158269608Y-100969608D01*
X158448932Y-100751101D01*
X158582182Y-100501808D01*
X158664236Y-100231309D01*
X158691943Y-99950000D01*
X158664236Y-99668691D01*
X158582182Y-99398192D01*
X158448932Y-99148899D01*
X158269608Y-98930392D01*
X158051101Y-98751068D01*
X157913318Y-98677421D01*
X158105131Y-98562385D01*
X158313519Y-98373414D01*
X158481037Y-98147420D01*
X158601246Y-97893087D01*
X158641904Y-97759039D01*
X158519915Y-97537000D01*
X157377000Y-97537000D01*
X157377000Y-97557000D01*
X157123000Y-97557000D01*
X157123000Y-97537000D01*
X157103000Y-97537000D01*
X157103000Y-97283000D01*
X157123000Y-97283000D01*
X157123000Y-94997000D01*
X157377000Y-94997000D01*
X157377000Y-97283000D01*
X158519915Y-97283000D01*
X158641904Y-97060961D01*
X158601246Y-96926913D01*
X158481037Y-96672580D01*
X158313519Y-96446586D01*
X158105131Y-96257615D01*
X157909018Y-96140000D01*
X158105131Y-96022385D01*
X158313519Y-95833414D01*
X158481037Y-95607420D01*
X158601246Y-95353087D01*
X158641904Y-95219039D01*
X158519915Y-94997000D01*
X157377000Y-94997000D01*
X157123000Y-94997000D01*
X157103000Y-94997000D01*
X157103000Y-94743000D01*
X157123000Y-94743000D01*
X157123000Y-92457000D01*
X157377000Y-92457000D01*
X157377000Y-94743000D01*
X158519915Y-94743000D01*
X158641904Y-94520961D01*
X158601246Y-94386913D01*
X158481037Y-94132580D01*
X158313519Y-93906586D01*
X158105131Y-93717615D01*
X157909018Y-93600000D01*
X158105131Y-93482385D01*
X158313519Y-93293414D01*
X158481037Y-93067420D01*
X158601246Y-92813087D01*
X158641904Y-92679039D01*
X171098096Y-92679039D01*
X171138754Y-92813087D01*
X171258963Y-93067420D01*
X171426481Y-93293414D01*
X171634869Y-93482385D01*
X171830982Y-93600000D01*
X171634869Y-93717615D01*
X171426481Y-93906586D01*
X171258963Y-94132580D01*
X171138754Y-94386913D01*
X171098096Y-94520961D01*
X171220085Y-94743000D01*
X172363000Y-94743000D01*
X172363000Y-92457000D01*
X171220085Y-92457000D01*
X171098096Y-92679039D01*
X158641904Y-92679039D01*
X158519915Y-92457000D01*
X157377000Y-92457000D01*
X157123000Y-92457000D01*
X157103000Y-92457000D01*
X157103000Y-92203000D01*
X157123000Y-92203000D01*
X157123000Y-89917000D01*
X157377000Y-89917000D01*
X157377000Y-92203000D01*
X158519915Y-92203000D01*
X158641904Y-91980961D01*
X158601246Y-91846913D01*
X158481037Y-91592580D01*
X158313519Y-91366586D01*
X158105131Y-91177615D01*
X157909018Y-91060000D01*
X158105131Y-90942385D01*
X158313519Y-90753414D01*
X158481037Y-90527420D01*
X158601246Y-90273087D01*
X158641904Y-90139039D01*
X171098096Y-90139039D01*
X171138754Y-90273087D01*
X171258963Y-90527420D01*
X171426481Y-90753414D01*
X171634869Y-90942385D01*
X171830982Y-91060000D01*
X171634869Y-91177615D01*
X171426481Y-91366586D01*
X171258963Y-91592580D01*
X171138754Y-91846913D01*
X171098096Y-91980961D01*
X171220085Y-92203000D01*
X172363000Y-92203000D01*
X172363000Y-89917000D01*
X171220085Y-89917000D01*
X171098096Y-90139039D01*
X158641904Y-90139039D01*
X158519915Y-89917000D01*
X157377000Y-89917000D01*
X157123000Y-89917000D01*
X157103000Y-89917000D01*
X157103000Y-89663000D01*
X157123000Y-89663000D01*
X157123000Y-89643000D01*
X157377000Y-89643000D01*
X157377000Y-89663000D01*
X158519915Y-89663000D01*
X158641904Y-89440961D01*
X158601246Y-89306913D01*
X158481037Y-89052580D01*
X158313519Y-88826586D01*
X158149920Y-88678231D01*
X158174482Y-88675812D01*
X158294180Y-88639502D01*
X158404494Y-88580537D01*
X158501185Y-88501185D01*
X158580537Y-88404494D01*
X158639502Y-88294180D01*
X158675812Y-88174482D01*
X158688072Y-88050000D01*
X158688072Y-86450000D01*
X158675812Y-86325518D01*
X158639502Y-86205820D01*
X158615010Y-86160000D01*
X163360576Y-86160000D01*
X163372461Y-86189417D01*
M02*
