M48
METRIC,TZ
T1C0.400
T2C0.800
%
G90
G05
T1
X162450Y-115180
X163340Y-117730
X164790Y-119345
X165550Y-118640
X166310Y-116350
T2
X161000Y-94820
X161000Y-97360
X161000Y-99900
X161000Y-102440
X161000Y-104980
X161000Y-107520
X161000Y-110060
X161000Y-112600
X168620Y-94820
X168620Y-97360
X168620Y-99900
X168620Y-102440
X168620Y-104980
X168620Y-107520
X168620Y-110060
X168620Y-112600
X157250Y-87250
X157250Y-89790
X157250Y-92330
X157250Y-94870
X157250Y-97410
X157250Y-99950
X157250Y-102490
X157250Y-105030
X157250Y-107570
X157250Y-110110
X157250Y-112650
X157250Y-115190
X157250Y-117730
X157250Y-120270
X172490Y-87250
X172490Y-89790
X172490Y-92330
X172490Y-94870
X172490Y-97410
X172490Y-99950
X172490Y-102490
X172490Y-105030
X172490Y-107570
X172490Y-110110
X172490Y-112650
X172490Y-115190
X172490Y-117730
X172490Y-120270
T0
M30
