G04 #@! TF.GenerationSoftware,KiCad,Pcbnew,(5.1.4)-1*
G04 #@! TF.CreationDate,2021-03-20T01:01:25-04:00*
G04 #@! TF.ProjectId,27c256_to_82s123,32376332-3536-45f7-946f-5f3832733132,rev?*
G04 #@! TF.SameCoordinates,Original*
G04 #@! TF.FileFunction,Legend,Top*
G04 #@! TF.FilePolarity,Positive*
%FSLAX46Y46*%
G04 Gerber Fmt 4.6, Leading zero omitted, Abs format (unit mm)*
G04 Created by KiCad (PCBNEW (5.1.4)-1) date 2021-03-20 01:01:25*
%MOMM*%
%LPD*%
G04 APERTURE LIST*
%ADD10C,0.150000*%
%ADD11C,0.120000*%
G04 APERTURE END LIST*
D10*
X162039523Y-88137619D02*
X162087142Y-88090000D01*
X162182380Y-88042380D01*
X162420476Y-88042380D01*
X162515714Y-88090000D01*
X162563333Y-88137619D01*
X162610952Y-88232857D01*
X162610952Y-88328095D01*
X162563333Y-88470952D01*
X161991904Y-89042380D01*
X162610952Y-89042380D01*
X162944285Y-88042380D02*
X163610952Y-88042380D01*
X163182380Y-89042380D01*
X164563333Y-88947142D02*
X164515714Y-88994761D01*
X164372857Y-89042380D01*
X164277619Y-89042380D01*
X164134761Y-88994761D01*
X164039523Y-88899523D01*
X163991904Y-88804285D01*
X163944285Y-88613809D01*
X163944285Y-88470952D01*
X163991904Y-88280476D01*
X164039523Y-88185238D01*
X164134761Y-88090000D01*
X164277619Y-88042380D01*
X164372857Y-88042380D01*
X164515714Y-88090000D01*
X164563333Y-88137619D01*
X164944285Y-88137619D02*
X164991904Y-88090000D01*
X165087142Y-88042380D01*
X165325238Y-88042380D01*
X165420476Y-88090000D01*
X165468095Y-88137619D01*
X165515714Y-88232857D01*
X165515714Y-88328095D01*
X165468095Y-88470952D01*
X164896666Y-89042380D01*
X165515714Y-89042380D01*
X166420476Y-88042380D02*
X165944285Y-88042380D01*
X165896666Y-88518571D01*
X165944285Y-88470952D01*
X166039523Y-88423333D01*
X166277619Y-88423333D01*
X166372857Y-88470952D01*
X166420476Y-88518571D01*
X166468095Y-88613809D01*
X166468095Y-88851904D01*
X166420476Y-88947142D01*
X166372857Y-88994761D01*
X166277619Y-89042380D01*
X166039523Y-89042380D01*
X165944285Y-88994761D01*
X165896666Y-88947142D01*
X167325238Y-88042380D02*
X167134761Y-88042380D01*
X167039523Y-88090000D01*
X166991904Y-88137619D01*
X166896666Y-88280476D01*
X166849047Y-88470952D01*
X166849047Y-88851904D01*
X166896666Y-88947142D01*
X166944285Y-88994761D01*
X167039523Y-89042380D01*
X167230000Y-89042380D01*
X167325238Y-88994761D01*
X167372857Y-88947142D01*
X167420476Y-88851904D01*
X167420476Y-88613809D01*
X167372857Y-88518571D01*
X167325238Y-88470952D01*
X167230000Y-88423333D01*
X167039523Y-88423333D01*
X166944285Y-88470952D01*
X166896666Y-88518571D01*
X166849047Y-88613809D01*
X164087142Y-90025714D02*
X164468095Y-90025714D01*
X164230000Y-89692380D02*
X164230000Y-90549523D01*
X164277619Y-90644761D01*
X164372857Y-90692380D01*
X164468095Y-90692380D01*
X164944285Y-90692380D02*
X164849047Y-90644761D01*
X164801428Y-90597142D01*
X164753809Y-90501904D01*
X164753809Y-90216190D01*
X164801428Y-90120952D01*
X164849047Y-90073333D01*
X164944285Y-90025714D01*
X165087142Y-90025714D01*
X165182380Y-90073333D01*
X165230000Y-90120952D01*
X165277619Y-90216190D01*
X165277619Y-90501904D01*
X165230000Y-90597142D01*
X165182380Y-90644761D01*
X165087142Y-90692380D01*
X164944285Y-90692380D01*
X162253809Y-91770952D02*
X162158571Y-91723333D01*
X162110952Y-91675714D01*
X162063333Y-91580476D01*
X162063333Y-91532857D01*
X162110952Y-91437619D01*
X162158571Y-91390000D01*
X162253809Y-91342380D01*
X162444285Y-91342380D01*
X162539523Y-91390000D01*
X162587142Y-91437619D01*
X162634761Y-91532857D01*
X162634761Y-91580476D01*
X162587142Y-91675714D01*
X162539523Y-91723333D01*
X162444285Y-91770952D01*
X162253809Y-91770952D01*
X162158571Y-91818571D01*
X162110952Y-91866190D01*
X162063333Y-91961428D01*
X162063333Y-92151904D01*
X162110952Y-92247142D01*
X162158571Y-92294761D01*
X162253809Y-92342380D01*
X162444285Y-92342380D01*
X162539523Y-92294761D01*
X162587142Y-92247142D01*
X162634761Y-92151904D01*
X162634761Y-91961428D01*
X162587142Y-91866190D01*
X162539523Y-91818571D01*
X162444285Y-91770952D01*
X163015714Y-91437619D02*
X163063333Y-91390000D01*
X163158571Y-91342380D01*
X163396666Y-91342380D01*
X163491904Y-91390000D01*
X163539523Y-91437619D01*
X163587142Y-91532857D01*
X163587142Y-91628095D01*
X163539523Y-91770952D01*
X162968095Y-92342380D01*
X163587142Y-92342380D01*
X163968095Y-92294761D02*
X164110952Y-92342380D01*
X164349047Y-92342380D01*
X164444285Y-92294761D01*
X164491904Y-92247142D01*
X164539523Y-92151904D01*
X164539523Y-92056666D01*
X164491904Y-91961428D01*
X164444285Y-91913809D01*
X164349047Y-91866190D01*
X164158571Y-91818571D01*
X164063333Y-91770952D01*
X164015714Y-91723333D01*
X163968095Y-91628095D01*
X163968095Y-91532857D01*
X164015714Y-91437619D01*
X164063333Y-91390000D01*
X164158571Y-91342380D01*
X164396666Y-91342380D01*
X164539523Y-91390000D01*
X165491904Y-92342380D02*
X164920476Y-92342380D01*
X165206190Y-92342380D02*
X165206190Y-91342380D01*
X165110952Y-91485238D01*
X165015714Y-91580476D01*
X164920476Y-91628095D01*
X165872857Y-91437619D02*
X165920476Y-91390000D01*
X166015714Y-91342380D01*
X166253809Y-91342380D01*
X166349047Y-91390000D01*
X166396666Y-91437619D01*
X166444285Y-91532857D01*
X166444285Y-91628095D01*
X166396666Y-91770952D01*
X165825238Y-92342380D01*
X166444285Y-92342380D01*
X166777619Y-91342380D02*
X167396666Y-91342380D01*
X167063333Y-91723333D01*
X167206190Y-91723333D01*
X167301428Y-91770952D01*
X167349047Y-91818571D01*
X167396666Y-91913809D01*
X167396666Y-92151904D01*
X167349047Y-92247142D01*
X167301428Y-92294761D01*
X167206190Y-92342380D01*
X166920476Y-92342380D01*
X166825238Y-92294761D01*
X166777619Y-92247142D01*
D11*
X165810000Y-93490000D02*
G75*
G02X163810000Y-93490000I-1000000J0D01*
G01*
X163810000Y-93490000D02*
X162160000Y-93490000D01*
X162160000Y-93490000D02*
X162160000Y-113930000D01*
X162160000Y-113930000D02*
X167460000Y-113930000D01*
X167460000Y-113930000D02*
X167460000Y-93490000D01*
X167460000Y-93490000D02*
X165810000Y-93490000D01*
X165870000Y-85920000D02*
G75*
G02X163870000Y-85920000I-1000000J0D01*
G01*
X163870000Y-85920000D02*
X158410000Y-85920000D01*
X158410000Y-85920000D02*
X158410000Y-121600000D01*
X158410000Y-121600000D02*
X171330000Y-121600000D01*
X171330000Y-121600000D02*
X171330000Y-85920000D01*
X171330000Y-85920000D02*
X165870000Y-85920000D01*
M02*
