G04 #@! TF.GenerationSoftware,KiCad,Pcbnew,(5.1.4)-1*
G04 #@! TF.CreationDate,2021-03-20T01:14:52-04:00*
G04 #@! TF.ProjectId,27c256_to_82s123,32376332-3536-45f7-946f-5f3832733132,rev?*
G04 #@! TF.SameCoordinates,Original*
G04 #@! TF.FileFunction,Legend,Top*
G04 #@! TF.FilePolarity,Positive*
%FSLAX46Y46*%
G04 Gerber Fmt 4.6, Leading zero omitted, Abs format (unit mm)*
G04 Created by KiCad (PCBNEW (5.1.4)-1) date 2021-03-20 01:14:52*
%MOMM*%
%LPD*%
G04 APERTURE LIST*
%ADD10C,0.150000*%
%ADD11C,0.120000*%
G04 APERTURE END LIST*
D10*
X158794285Y-88890000D02*
X159222857Y-88890000D01*
X158708571Y-89147142D02*
X159008571Y-88247142D01*
X159308571Y-89147142D01*
X159480000Y-88247142D02*
X159994285Y-88247142D01*
X159737142Y-89147142D02*
X159737142Y-88247142D01*
X160251428Y-88332857D02*
X160294285Y-88290000D01*
X160380000Y-88247142D01*
X160594285Y-88247142D01*
X160680000Y-88290000D01*
X160722857Y-88332857D01*
X160765714Y-88418571D01*
X160765714Y-88504285D01*
X160722857Y-88632857D01*
X160208571Y-89147142D01*
X160765714Y-89147142D01*
X161065714Y-88247142D02*
X161665714Y-88247142D01*
X161280000Y-89147142D01*
X162522857Y-89061428D02*
X162480000Y-89104285D01*
X162351428Y-89147142D01*
X162265714Y-89147142D01*
X162137142Y-89104285D01*
X162051428Y-89018571D01*
X162008571Y-88932857D01*
X161965714Y-88761428D01*
X161965714Y-88632857D01*
X162008571Y-88461428D01*
X162051428Y-88375714D01*
X162137142Y-88290000D01*
X162265714Y-88247142D01*
X162351428Y-88247142D01*
X162480000Y-88290000D01*
X162522857Y-88332857D01*
X162865714Y-88332857D02*
X162908571Y-88290000D01*
X162994285Y-88247142D01*
X163208571Y-88247142D01*
X163294285Y-88290000D01*
X163337142Y-88332857D01*
X163380000Y-88418571D01*
X163380000Y-88504285D01*
X163337142Y-88632857D01*
X162822857Y-89147142D01*
X163380000Y-89147142D01*
X164194285Y-88247142D02*
X163765714Y-88247142D01*
X163722857Y-88675714D01*
X163765714Y-88632857D01*
X163851428Y-88590000D01*
X164065714Y-88590000D01*
X164151428Y-88632857D01*
X164194285Y-88675714D01*
X164237142Y-88761428D01*
X164237142Y-88975714D01*
X164194285Y-89061428D01*
X164151428Y-89104285D01*
X164065714Y-89147142D01*
X163851428Y-89147142D01*
X163765714Y-89104285D01*
X163722857Y-89061428D01*
X165008571Y-88247142D02*
X164837142Y-88247142D01*
X164751428Y-88290000D01*
X164708571Y-88332857D01*
X164622857Y-88461428D01*
X164580000Y-88632857D01*
X164580000Y-88975714D01*
X164622857Y-89061428D01*
X164665714Y-89104285D01*
X164751428Y-89147142D01*
X164922857Y-89147142D01*
X165008571Y-89104285D01*
X165051428Y-89061428D01*
X165094285Y-88975714D01*
X165094285Y-88761428D01*
X165051428Y-88675714D01*
X165008571Y-88632857D01*
X164922857Y-88590000D01*
X164751428Y-88590000D01*
X164665714Y-88632857D01*
X164622857Y-88675714D01*
X164580000Y-88761428D01*
X165994285Y-89147142D02*
X165694285Y-88718571D01*
X165480000Y-89147142D02*
X165480000Y-88247142D01*
X165822857Y-88247142D01*
X165908571Y-88290000D01*
X165951428Y-88332857D01*
X165994285Y-88418571D01*
X165994285Y-88547142D01*
X165951428Y-88632857D01*
X165908571Y-88675714D01*
X165822857Y-88718571D01*
X165480000Y-88718571D01*
X166380000Y-88804285D02*
X167065714Y-88804285D01*
X167880000Y-88547142D02*
X167880000Y-89147142D01*
X167665714Y-88204285D02*
X167451428Y-88847142D01*
X168008571Y-88847142D01*
X168780000Y-88247142D02*
X168351428Y-88247142D01*
X168308571Y-88675714D01*
X168351428Y-88632857D01*
X168437142Y-88590000D01*
X168651428Y-88590000D01*
X168737142Y-88632857D01*
X168780000Y-88675714D01*
X168822857Y-88761428D01*
X168822857Y-88975714D01*
X168780000Y-89061428D01*
X168737142Y-89104285D01*
X168651428Y-89147142D01*
X168437142Y-89147142D01*
X168351428Y-89104285D01*
X168308571Y-89061428D01*
X169208571Y-89147142D02*
X169208571Y-88247142D01*
X169551428Y-88247142D01*
X169637142Y-88290000D01*
X169680000Y-88332857D01*
X169722857Y-88418571D01*
X169722857Y-88547142D01*
X169680000Y-88632857D01*
X169637142Y-88675714D01*
X169551428Y-88718571D01*
X169208571Y-88718571D01*
X170108571Y-88247142D02*
X170108571Y-88975714D01*
X170151428Y-89061428D01*
X170194285Y-89104285D01*
X170280000Y-89147142D01*
X170451428Y-89147142D01*
X170537142Y-89104285D01*
X170580000Y-89061428D01*
X170622857Y-88975714D01*
X170622857Y-88247142D01*
X164151428Y-90047142D02*
X164494285Y-90047142D01*
X164280000Y-89747142D02*
X164280000Y-90518571D01*
X164322857Y-90604285D01*
X164408571Y-90647142D01*
X164494285Y-90647142D01*
X164922857Y-90647142D02*
X164837142Y-90604285D01*
X164794285Y-90561428D01*
X164751428Y-90475714D01*
X164751428Y-90218571D01*
X164794285Y-90132857D01*
X164837142Y-90090000D01*
X164922857Y-90047142D01*
X165051428Y-90047142D01*
X165137142Y-90090000D01*
X165180000Y-90132857D01*
X165222857Y-90218571D01*
X165222857Y-90475714D01*
X165180000Y-90561428D01*
X165137142Y-90604285D01*
X165051428Y-90647142D01*
X164922857Y-90647142D01*
X162501428Y-91632857D02*
X162415714Y-91590000D01*
X162372857Y-91547142D01*
X162330000Y-91461428D01*
X162330000Y-91418571D01*
X162372857Y-91332857D01*
X162415714Y-91290000D01*
X162501428Y-91247142D01*
X162672857Y-91247142D01*
X162758571Y-91290000D01*
X162801428Y-91332857D01*
X162844285Y-91418571D01*
X162844285Y-91461428D01*
X162801428Y-91547142D01*
X162758571Y-91590000D01*
X162672857Y-91632857D01*
X162501428Y-91632857D01*
X162415714Y-91675714D01*
X162372857Y-91718571D01*
X162330000Y-91804285D01*
X162330000Y-91975714D01*
X162372857Y-92061428D01*
X162415714Y-92104285D01*
X162501428Y-92147142D01*
X162672857Y-92147142D01*
X162758571Y-92104285D01*
X162801428Y-92061428D01*
X162844285Y-91975714D01*
X162844285Y-91804285D01*
X162801428Y-91718571D01*
X162758571Y-91675714D01*
X162672857Y-91632857D01*
X163187142Y-91332857D02*
X163230000Y-91290000D01*
X163315714Y-91247142D01*
X163530000Y-91247142D01*
X163615714Y-91290000D01*
X163658571Y-91332857D01*
X163701428Y-91418571D01*
X163701428Y-91504285D01*
X163658571Y-91632857D01*
X163144285Y-92147142D01*
X163701428Y-92147142D01*
X164044285Y-92104285D02*
X164172857Y-92147142D01*
X164387142Y-92147142D01*
X164472857Y-92104285D01*
X164515714Y-92061428D01*
X164558571Y-91975714D01*
X164558571Y-91890000D01*
X164515714Y-91804285D01*
X164472857Y-91761428D01*
X164387142Y-91718571D01*
X164215714Y-91675714D01*
X164130000Y-91632857D01*
X164087142Y-91590000D01*
X164044285Y-91504285D01*
X164044285Y-91418571D01*
X164087142Y-91332857D01*
X164130000Y-91290000D01*
X164215714Y-91247142D01*
X164430000Y-91247142D01*
X164558571Y-91290000D01*
X165415714Y-92147142D02*
X164901428Y-92147142D01*
X165158571Y-92147142D02*
X165158571Y-91247142D01*
X165072857Y-91375714D01*
X164987142Y-91461428D01*
X164901428Y-91504285D01*
X165758571Y-91332857D02*
X165801428Y-91290000D01*
X165887142Y-91247142D01*
X166101428Y-91247142D01*
X166187142Y-91290000D01*
X166230000Y-91332857D01*
X166272857Y-91418571D01*
X166272857Y-91504285D01*
X166230000Y-91632857D01*
X165715714Y-92147142D01*
X166272857Y-92147142D01*
X166572857Y-91247142D02*
X167130000Y-91247142D01*
X166830000Y-91590000D01*
X166958571Y-91590000D01*
X167044285Y-91632857D01*
X167087142Y-91675714D01*
X167130000Y-91761428D01*
X167130000Y-91975714D01*
X167087142Y-92061428D01*
X167044285Y-92104285D01*
X166958571Y-92147142D01*
X166701428Y-92147142D01*
X166615714Y-92104285D01*
X166572857Y-92061428D01*
D11*
X165810000Y-93490000D02*
G75*
G02X163810000Y-93490000I-1000000J0D01*
G01*
X163810000Y-93490000D02*
X162160000Y-93490000D01*
X162160000Y-93490000D02*
X162160000Y-113930000D01*
X162160000Y-113930000D02*
X167460000Y-113930000D01*
X167460000Y-113930000D02*
X167460000Y-93490000D01*
X167460000Y-93490000D02*
X165810000Y-93490000D01*
X165870000Y-85920000D02*
G75*
G02X163870000Y-85920000I-1000000J0D01*
G01*
X163870000Y-85920000D02*
X158410000Y-85920000D01*
X158410000Y-85920000D02*
X158410000Y-121600000D01*
X158410000Y-121600000D02*
X171330000Y-121600000D01*
X171330000Y-121600000D02*
X171330000Y-85920000D01*
X171330000Y-85920000D02*
X165870000Y-85920000D01*
M02*
