G04 #@! TF.GenerationSoftware,KiCad,Pcbnew,(5.1.4)-1*
G04 #@! TF.CreationDate,2021-03-20T01:01:25-04:00*
G04 #@! TF.ProjectId,27c256_to_82s123,32376332-3536-45f7-946f-5f3832733132,rev?*
G04 #@! TF.SameCoordinates,Original*
G04 #@! TF.FileFunction,Soldermask,Bot*
G04 #@! TF.FilePolarity,Negative*
%FSLAX46Y46*%
G04 Gerber Fmt 4.6, Leading zero omitted, Abs format (unit mm)*
G04 Created by KiCad (PCBNEW (5.1.4)-1) date 2021-03-20 01:01:25*
%MOMM*%
%LPD*%
G04 APERTURE LIST*
%ADD10C,0.100000*%
G04 APERTURE END LIST*
D10*
G36*
X172656823Y-119431313D02*
G01*
X172817242Y-119479976D01*
X172949906Y-119550886D01*
X172965078Y-119558996D01*
X173094659Y-119665341D01*
X173201004Y-119794922D01*
X173201005Y-119794924D01*
X173280024Y-119942758D01*
X173328687Y-120103177D01*
X173345117Y-120270000D01*
X173328687Y-120436823D01*
X173280024Y-120597242D01*
X173209114Y-120729906D01*
X173201004Y-120745078D01*
X173094659Y-120874659D01*
X172965078Y-120981004D01*
X172965076Y-120981005D01*
X172817242Y-121060024D01*
X172656823Y-121108687D01*
X172531804Y-121121000D01*
X172448196Y-121121000D01*
X172323177Y-121108687D01*
X172162758Y-121060024D01*
X172014924Y-120981005D01*
X172014922Y-120981004D01*
X171885341Y-120874659D01*
X171778996Y-120745078D01*
X171770886Y-120729906D01*
X171699976Y-120597242D01*
X171651313Y-120436823D01*
X171634883Y-120270000D01*
X171651313Y-120103177D01*
X171699976Y-119942758D01*
X171778995Y-119794924D01*
X171778996Y-119794922D01*
X171885341Y-119665341D01*
X172014922Y-119558996D01*
X172030094Y-119550886D01*
X172162758Y-119479976D01*
X172323177Y-119431313D01*
X172448196Y-119419000D01*
X172531804Y-119419000D01*
X172656823Y-119431313D01*
X172656823Y-119431313D01*
G37*
G36*
X157416823Y-119431313D02*
G01*
X157577242Y-119479976D01*
X157709906Y-119550886D01*
X157725078Y-119558996D01*
X157854659Y-119665341D01*
X157961004Y-119794922D01*
X157961005Y-119794924D01*
X158040024Y-119942758D01*
X158088687Y-120103177D01*
X158105117Y-120270000D01*
X158088687Y-120436823D01*
X158040024Y-120597242D01*
X157969114Y-120729906D01*
X157961004Y-120745078D01*
X157854659Y-120874659D01*
X157725078Y-120981004D01*
X157725076Y-120981005D01*
X157577242Y-121060024D01*
X157416823Y-121108687D01*
X157291804Y-121121000D01*
X157208196Y-121121000D01*
X157083177Y-121108687D01*
X156922758Y-121060024D01*
X156774924Y-120981005D01*
X156774922Y-120981004D01*
X156645341Y-120874659D01*
X156538996Y-120745078D01*
X156530886Y-120729906D01*
X156459976Y-120597242D01*
X156411313Y-120436823D01*
X156394883Y-120270000D01*
X156411313Y-120103177D01*
X156459976Y-119942758D01*
X156538995Y-119794924D01*
X156538996Y-119794922D01*
X156645341Y-119665341D01*
X156774922Y-119558996D01*
X156790094Y-119550886D01*
X156922758Y-119479976D01*
X157083177Y-119431313D01*
X157208196Y-119419000D01*
X157291804Y-119419000D01*
X157416823Y-119431313D01*
X157416823Y-119431313D01*
G37*
G36*
X157416823Y-116891313D02*
G01*
X157577242Y-116939976D01*
X157709906Y-117010886D01*
X157725078Y-117018996D01*
X157854659Y-117125341D01*
X157961004Y-117254922D01*
X157961005Y-117254924D01*
X158040024Y-117402758D01*
X158088687Y-117563177D01*
X158105117Y-117730000D01*
X158088687Y-117896823D01*
X158040024Y-118057242D01*
X157969114Y-118189906D01*
X157961004Y-118205078D01*
X157854659Y-118334659D01*
X157725078Y-118441004D01*
X157725076Y-118441005D01*
X157577242Y-118520024D01*
X157416823Y-118568687D01*
X157291804Y-118581000D01*
X157208196Y-118581000D01*
X157083177Y-118568687D01*
X156922758Y-118520024D01*
X156774924Y-118441005D01*
X156774922Y-118441004D01*
X156645341Y-118334659D01*
X156538996Y-118205078D01*
X156530886Y-118189906D01*
X156459976Y-118057242D01*
X156411313Y-117896823D01*
X156394883Y-117730000D01*
X156411313Y-117563177D01*
X156459976Y-117402758D01*
X156538995Y-117254924D01*
X156538996Y-117254922D01*
X156645341Y-117125341D01*
X156774922Y-117018996D01*
X156790094Y-117010886D01*
X156922758Y-116939976D01*
X157083177Y-116891313D01*
X157208196Y-116879000D01*
X157291804Y-116879000D01*
X157416823Y-116891313D01*
X157416823Y-116891313D01*
G37*
G36*
X172656823Y-116891313D02*
G01*
X172817242Y-116939976D01*
X172949906Y-117010886D01*
X172965078Y-117018996D01*
X173094659Y-117125341D01*
X173201004Y-117254922D01*
X173201005Y-117254924D01*
X173280024Y-117402758D01*
X173328687Y-117563177D01*
X173345117Y-117730000D01*
X173328687Y-117896823D01*
X173280024Y-118057242D01*
X173209114Y-118189906D01*
X173201004Y-118205078D01*
X173094659Y-118334659D01*
X172965078Y-118441004D01*
X172965076Y-118441005D01*
X172817242Y-118520024D01*
X172656823Y-118568687D01*
X172531804Y-118581000D01*
X172448196Y-118581000D01*
X172323177Y-118568687D01*
X172162758Y-118520024D01*
X172014924Y-118441005D01*
X172014922Y-118441004D01*
X171885341Y-118334659D01*
X171778996Y-118205078D01*
X171770886Y-118189906D01*
X171699976Y-118057242D01*
X171651313Y-117896823D01*
X171634883Y-117730000D01*
X171651313Y-117563177D01*
X171699976Y-117402758D01*
X171778995Y-117254924D01*
X171778996Y-117254922D01*
X171885341Y-117125341D01*
X172014922Y-117018996D01*
X172030094Y-117010886D01*
X172162758Y-116939976D01*
X172323177Y-116891313D01*
X172448196Y-116879000D01*
X172531804Y-116879000D01*
X172656823Y-116891313D01*
X172656823Y-116891313D01*
G37*
G36*
X157416823Y-114351313D02*
G01*
X157577242Y-114399976D01*
X157709906Y-114470886D01*
X157725078Y-114478996D01*
X157854659Y-114585341D01*
X157961004Y-114714922D01*
X157961005Y-114714924D01*
X158040024Y-114862758D01*
X158088687Y-115023177D01*
X158105117Y-115190000D01*
X158088687Y-115356823D01*
X158040024Y-115517242D01*
X157969114Y-115649906D01*
X157961004Y-115665078D01*
X157854659Y-115794659D01*
X157725078Y-115901004D01*
X157725076Y-115901005D01*
X157577242Y-115980024D01*
X157416823Y-116028687D01*
X157291804Y-116041000D01*
X157208196Y-116041000D01*
X157083177Y-116028687D01*
X156922758Y-115980024D01*
X156774924Y-115901005D01*
X156774922Y-115901004D01*
X156645341Y-115794659D01*
X156538996Y-115665078D01*
X156530886Y-115649906D01*
X156459976Y-115517242D01*
X156411313Y-115356823D01*
X156394883Y-115190000D01*
X156411313Y-115023177D01*
X156459976Y-114862758D01*
X156538995Y-114714924D01*
X156538996Y-114714922D01*
X156645341Y-114585341D01*
X156774922Y-114478996D01*
X156790094Y-114470886D01*
X156922758Y-114399976D01*
X157083177Y-114351313D01*
X157208196Y-114339000D01*
X157291804Y-114339000D01*
X157416823Y-114351313D01*
X157416823Y-114351313D01*
G37*
G36*
X172656823Y-114351313D02*
G01*
X172817242Y-114399976D01*
X172949906Y-114470886D01*
X172965078Y-114478996D01*
X173094659Y-114585341D01*
X173201004Y-114714922D01*
X173201005Y-114714924D01*
X173280024Y-114862758D01*
X173328687Y-115023177D01*
X173345117Y-115190000D01*
X173328687Y-115356823D01*
X173280024Y-115517242D01*
X173209114Y-115649906D01*
X173201004Y-115665078D01*
X173094659Y-115794659D01*
X172965078Y-115901004D01*
X172965076Y-115901005D01*
X172817242Y-115980024D01*
X172656823Y-116028687D01*
X172531804Y-116041000D01*
X172448196Y-116041000D01*
X172323177Y-116028687D01*
X172162758Y-115980024D01*
X172014924Y-115901005D01*
X172014922Y-115901004D01*
X171885341Y-115794659D01*
X171778996Y-115665078D01*
X171770886Y-115649906D01*
X171699976Y-115517242D01*
X171651313Y-115356823D01*
X171634883Y-115190000D01*
X171651313Y-115023177D01*
X171699976Y-114862758D01*
X171778995Y-114714924D01*
X171778996Y-114714922D01*
X171885341Y-114585341D01*
X172014922Y-114478996D01*
X172030094Y-114470886D01*
X172162758Y-114399976D01*
X172323177Y-114351313D01*
X172448196Y-114339000D01*
X172531804Y-114339000D01*
X172656823Y-114351313D01*
X172656823Y-114351313D01*
G37*
G36*
X172656823Y-111811313D02*
G01*
X172817242Y-111859976D01*
X172949906Y-111930886D01*
X172965078Y-111938996D01*
X173094659Y-112045341D01*
X173201004Y-112174922D01*
X173201005Y-112174924D01*
X173280024Y-112322758D01*
X173328687Y-112483177D01*
X173345117Y-112650000D01*
X173328687Y-112816823D01*
X173280024Y-112977242D01*
X173209114Y-113109906D01*
X173201004Y-113125078D01*
X173094659Y-113254659D01*
X172965078Y-113361004D01*
X172965076Y-113361005D01*
X172817242Y-113440024D01*
X172656823Y-113488687D01*
X172531804Y-113501000D01*
X172448196Y-113501000D01*
X172323177Y-113488687D01*
X172162758Y-113440024D01*
X172014924Y-113361005D01*
X172014922Y-113361004D01*
X171885341Y-113254659D01*
X171778996Y-113125078D01*
X171770886Y-113109906D01*
X171699976Y-112977242D01*
X171651313Y-112816823D01*
X171634883Y-112650000D01*
X171651313Y-112483177D01*
X171699976Y-112322758D01*
X171778995Y-112174924D01*
X171778996Y-112174922D01*
X171885341Y-112045341D01*
X172014922Y-111938996D01*
X172030094Y-111930886D01*
X172162758Y-111859976D01*
X172323177Y-111811313D01*
X172448196Y-111799000D01*
X172531804Y-111799000D01*
X172656823Y-111811313D01*
X172656823Y-111811313D01*
G37*
G36*
X157416823Y-111811313D02*
G01*
X157577242Y-111859976D01*
X157709906Y-111930886D01*
X157725078Y-111938996D01*
X157854659Y-112045341D01*
X157961004Y-112174922D01*
X157961005Y-112174924D01*
X158040024Y-112322758D01*
X158088687Y-112483177D01*
X158105117Y-112650000D01*
X158088687Y-112816823D01*
X158040024Y-112977242D01*
X157969114Y-113109906D01*
X157961004Y-113125078D01*
X157854659Y-113254659D01*
X157725078Y-113361004D01*
X157725076Y-113361005D01*
X157577242Y-113440024D01*
X157416823Y-113488687D01*
X157291804Y-113501000D01*
X157208196Y-113501000D01*
X157083177Y-113488687D01*
X156922758Y-113440024D01*
X156774924Y-113361005D01*
X156774922Y-113361004D01*
X156645341Y-113254659D01*
X156538996Y-113125078D01*
X156530886Y-113109906D01*
X156459976Y-112977242D01*
X156411313Y-112816823D01*
X156394883Y-112650000D01*
X156411313Y-112483177D01*
X156459976Y-112322758D01*
X156538995Y-112174924D01*
X156538996Y-112174922D01*
X156645341Y-112045341D01*
X156774922Y-111938996D01*
X156790094Y-111930886D01*
X156922758Y-111859976D01*
X157083177Y-111811313D01*
X157208196Y-111799000D01*
X157291804Y-111799000D01*
X157416823Y-111811313D01*
X157416823Y-111811313D01*
G37*
G36*
X161166823Y-111761313D02*
G01*
X161327242Y-111809976D01*
X161420783Y-111859975D01*
X161475078Y-111888996D01*
X161604659Y-111995341D01*
X161711004Y-112124922D01*
X161711005Y-112124924D01*
X161790024Y-112272758D01*
X161838687Y-112433177D01*
X161855117Y-112600000D01*
X161838687Y-112766823D01*
X161790024Y-112927242D01*
X161763300Y-112977239D01*
X161711004Y-113075078D01*
X161604659Y-113204659D01*
X161475078Y-113311004D01*
X161475076Y-113311005D01*
X161327242Y-113390024D01*
X161166823Y-113438687D01*
X161041804Y-113451000D01*
X160958196Y-113451000D01*
X160833177Y-113438687D01*
X160672758Y-113390024D01*
X160524924Y-113311005D01*
X160524922Y-113311004D01*
X160395341Y-113204659D01*
X160288996Y-113075078D01*
X160236700Y-112977239D01*
X160209976Y-112927242D01*
X160161313Y-112766823D01*
X160144883Y-112600000D01*
X160161313Y-112433177D01*
X160209976Y-112272758D01*
X160288995Y-112124924D01*
X160288996Y-112124922D01*
X160395341Y-111995341D01*
X160524922Y-111888996D01*
X160579217Y-111859975D01*
X160672758Y-111809976D01*
X160833177Y-111761313D01*
X160958196Y-111749000D01*
X161041804Y-111749000D01*
X161166823Y-111761313D01*
X161166823Y-111761313D01*
G37*
G36*
X168786823Y-111761313D02*
G01*
X168947242Y-111809976D01*
X169040783Y-111859975D01*
X169095078Y-111888996D01*
X169224659Y-111995341D01*
X169331004Y-112124922D01*
X169331005Y-112124924D01*
X169410024Y-112272758D01*
X169458687Y-112433177D01*
X169475117Y-112600000D01*
X169458687Y-112766823D01*
X169410024Y-112927242D01*
X169383300Y-112977239D01*
X169331004Y-113075078D01*
X169224659Y-113204659D01*
X169095078Y-113311004D01*
X169095076Y-113311005D01*
X168947242Y-113390024D01*
X168786823Y-113438687D01*
X168661804Y-113451000D01*
X168578196Y-113451000D01*
X168453177Y-113438687D01*
X168292758Y-113390024D01*
X168144924Y-113311005D01*
X168144922Y-113311004D01*
X168015341Y-113204659D01*
X167908996Y-113075078D01*
X167856700Y-112977239D01*
X167829976Y-112927242D01*
X167781313Y-112766823D01*
X167764883Y-112600000D01*
X167781313Y-112433177D01*
X167829976Y-112272758D01*
X167908995Y-112124924D01*
X167908996Y-112124922D01*
X168015341Y-111995341D01*
X168144922Y-111888996D01*
X168199217Y-111859975D01*
X168292758Y-111809976D01*
X168453177Y-111761313D01*
X168578196Y-111749000D01*
X168661804Y-111749000D01*
X168786823Y-111761313D01*
X168786823Y-111761313D01*
G37*
G36*
X157416823Y-109271313D02*
G01*
X157577242Y-109319976D01*
X157709906Y-109390886D01*
X157725078Y-109398996D01*
X157854659Y-109505341D01*
X157961004Y-109634922D01*
X157961005Y-109634924D01*
X158040024Y-109782758D01*
X158088687Y-109943177D01*
X158105117Y-110110000D01*
X158088687Y-110276823D01*
X158040024Y-110437242D01*
X157969114Y-110569906D01*
X157961004Y-110585078D01*
X157854659Y-110714659D01*
X157725078Y-110821004D01*
X157725076Y-110821005D01*
X157577242Y-110900024D01*
X157416823Y-110948687D01*
X157291804Y-110961000D01*
X157208196Y-110961000D01*
X157083177Y-110948687D01*
X156922758Y-110900024D01*
X156774924Y-110821005D01*
X156774922Y-110821004D01*
X156645341Y-110714659D01*
X156538996Y-110585078D01*
X156530886Y-110569906D01*
X156459976Y-110437242D01*
X156411313Y-110276823D01*
X156394883Y-110110000D01*
X156411313Y-109943177D01*
X156459976Y-109782758D01*
X156538995Y-109634924D01*
X156538996Y-109634922D01*
X156645341Y-109505341D01*
X156774922Y-109398996D01*
X156790094Y-109390886D01*
X156922758Y-109319976D01*
X157083177Y-109271313D01*
X157208196Y-109259000D01*
X157291804Y-109259000D01*
X157416823Y-109271313D01*
X157416823Y-109271313D01*
G37*
G36*
X172656823Y-109271313D02*
G01*
X172817242Y-109319976D01*
X172949906Y-109390886D01*
X172965078Y-109398996D01*
X173094659Y-109505341D01*
X173201004Y-109634922D01*
X173201005Y-109634924D01*
X173280024Y-109782758D01*
X173328687Y-109943177D01*
X173345117Y-110110000D01*
X173328687Y-110276823D01*
X173280024Y-110437242D01*
X173209114Y-110569906D01*
X173201004Y-110585078D01*
X173094659Y-110714659D01*
X172965078Y-110821004D01*
X172965076Y-110821005D01*
X172817242Y-110900024D01*
X172656823Y-110948687D01*
X172531804Y-110961000D01*
X172448196Y-110961000D01*
X172323177Y-110948687D01*
X172162758Y-110900024D01*
X172014924Y-110821005D01*
X172014922Y-110821004D01*
X171885341Y-110714659D01*
X171778996Y-110585078D01*
X171770886Y-110569906D01*
X171699976Y-110437242D01*
X171651313Y-110276823D01*
X171634883Y-110110000D01*
X171651313Y-109943177D01*
X171699976Y-109782758D01*
X171778995Y-109634924D01*
X171778996Y-109634922D01*
X171885341Y-109505341D01*
X172014922Y-109398996D01*
X172030094Y-109390886D01*
X172162758Y-109319976D01*
X172323177Y-109271313D01*
X172448196Y-109259000D01*
X172531804Y-109259000D01*
X172656823Y-109271313D01*
X172656823Y-109271313D01*
G37*
G36*
X168786823Y-109221313D02*
G01*
X168947242Y-109269976D01*
X169040783Y-109319975D01*
X169095078Y-109348996D01*
X169224659Y-109455341D01*
X169331004Y-109584922D01*
X169331005Y-109584924D01*
X169410024Y-109732758D01*
X169458687Y-109893177D01*
X169475117Y-110060000D01*
X169458687Y-110226823D01*
X169410024Y-110387242D01*
X169383300Y-110437239D01*
X169331004Y-110535078D01*
X169224659Y-110664659D01*
X169095078Y-110771004D01*
X169095076Y-110771005D01*
X168947242Y-110850024D01*
X168786823Y-110898687D01*
X168661804Y-110911000D01*
X168578196Y-110911000D01*
X168453177Y-110898687D01*
X168292758Y-110850024D01*
X168144924Y-110771005D01*
X168144922Y-110771004D01*
X168015341Y-110664659D01*
X167908996Y-110535078D01*
X167856700Y-110437239D01*
X167829976Y-110387242D01*
X167781313Y-110226823D01*
X167764883Y-110060000D01*
X167781313Y-109893177D01*
X167829976Y-109732758D01*
X167908995Y-109584924D01*
X167908996Y-109584922D01*
X168015341Y-109455341D01*
X168144922Y-109348996D01*
X168199217Y-109319975D01*
X168292758Y-109269976D01*
X168453177Y-109221313D01*
X168578196Y-109209000D01*
X168661804Y-109209000D01*
X168786823Y-109221313D01*
X168786823Y-109221313D01*
G37*
G36*
X161166823Y-109221313D02*
G01*
X161327242Y-109269976D01*
X161420783Y-109319975D01*
X161475078Y-109348996D01*
X161604659Y-109455341D01*
X161711004Y-109584922D01*
X161711005Y-109584924D01*
X161790024Y-109732758D01*
X161838687Y-109893177D01*
X161855117Y-110060000D01*
X161838687Y-110226823D01*
X161790024Y-110387242D01*
X161763300Y-110437239D01*
X161711004Y-110535078D01*
X161604659Y-110664659D01*
X161475078Y-110771004D01*
X161475076Y-110771005D01*
X161327242Y-110850024D01*
X161166823Y-110898687D01*
X161041804Y-110911000D01*
X160958196Y-110911000D01*
X160833177Y-110898687D01*
X160672758Y-110850024D01*
X160524924Y-110771005D01*
X160524922Y-110771004D01*
X160395341Y-110664659D01*
X160288996Y-110535078D01*
X160236700Y-110437239D01*
X160209976Y-110387242D01*
X160161313Y-110226823D01*
X160144883Y-110060000D01*
X160161313Y-109893177D01*
X160209976Y-109732758D01*
X160288995Y-109584924D01*
X160288996Y-109584922D01*
X160395341Y-109455341D01*
X160524922Y-109348996D01*
X160579217Y-109319975D01*
X160672758Y-109269976D01*
X160833177Y-109221313D01*
X160958196Y-109209000D01*
X161041804Y-109209000D01*
X161166823Y-109221313D01*
X161166823Y-109221313D01*
G37*
G36*
X172656823Y-106731313D02*
G01*
X172817242Y-106779976D01*
X172949906Y-106850886D01*
X172965078Y-106858996D01*
X173094659Y-106965341D01*
X173201004Y-107094922D01*
X173201005Y-107094924D01*
X173280024Y-107242758D01*
X173328687Y-107403177D01*
X173345117Y-107570000D01*
X173328687Y-107736823D01*
X173280024Y-107897242D01*
X173209114Y-108029906D01*
X173201004Y-108045078D01*
X173094659Y-108174659D01*
X172965078Y-108281004D01*
X172965076Y-108281005D01*
X172817242Y-108360024D01*
X172656823Y-108408687D01*
X172531804Y-108421000D01*
X172448196Y-108421000D01*
X172323177Y-108408687D01*
X172162758Y-108360024D01*
X172014924Y-108281005D01*
X172014922Y-108281004D01*
X171885341Y-108174659D01*
X171778996Y-108045078D01*
X171770886Y-108029906D01*
X171699976Y-107897242D01*
X171651313Y-107736823D01*
X171634883Y-107570000D01*
X171651313Y-107403177D01*
X171699976Y-107242758D01*
X171778995Y-107094924D01*
X171778996Y-107094922D01*
X171885341Y-106965341D01*
X172014922Y-106858996D01*
X172030094Y-106850886D01*
X172162758Y-106779976D01*
X172323177Y-106731313D01*
X172448196Y-106719000D01*
X172531804Y-106719000D01*
X172656823Y-106731313D01*
X172656823Y-106731313D01*
G37*
G36*
X157416823Y-106731313D02*
G01*
X157577242Y-106779976D01*
X157709906Y-106850886D01*
X157725078Y-106858996D01*
X157854659Y-106965341D01*
X157961004Y-107094922D01*
X157961005Y-107094924D01*
X158040024Y-107242758D01*
X158088687Y-107403177D01*
X158105117Y-107570000D01*
X158088687Y-107736823D01*
X158040024Y-107897242D01*
X157969114Y-108029906D01*
X157961004Y-108045078D01*
X157854659Y-108174659D01*
X157725078Y-108281004D01*
X157725076Y-108281005D01*
X157577242Y-108360024D01*
X157416823Y-108408687D01*
X157291804Y-108421000D01*
X157208196Y-108421000D01*
X157083177Y-108408687D01*
X156922758Y-108360024D01*
X156774924Y-108281005D01*
X156774922Y-108281004D01*
X156645341Y-108174659D01*
X156538996Y-108045078D01*
X156530886Y-108029906D01*
X156459976Y-107897242D01*
X156411313Y-107736823D01*
X156394883Y-107570000D01*
X156411313Y-107403177D01*
X156459976Y-107242758D01*
X156538995Y-107094924D01*
X156538996Y-107094922D01*
X156645341Y-106965341D01*
X156774922Y-106858996D01*
X156790094Y-106850886D01*
X156922758Y-106779976D01*
X157083177Y-106731313D01*
X157208196Y-106719000D01*
X157291804Y-106719000D01*
X157416823Y-106731313D01*
X157416823Y-106731313D01*
G37*
G36*
X161166823Y-106681313D02*
G01*
X161327242Y-106729976D01*
X161420783Y-106779975D01*
X161475078Y-106808996D01*
X161604659Y-106915341D01*
X161711004Y-107044922D01*
X161711005Y-107044924D01*
X161790024Y-107192758D01*
X161838687Y-107353177D01*
X161855117Y-107520000D01*
X161838687Y-107686823D01*
X161790024Y-107847242D01*
X161763300Y-107897239D01*
X161711004Y-107995078D01*
X161604659Y-108124659D01*
X161475078Y-108231004D01*
X161475076Y-108231005D01*
X161327242Y-108310024D01*
X161166823Y-108358687D01*
X161041804Y-108371000D01*
X160958196Y-108371000D01*
X160833177Y-108358687D01*
X160672758Y-108310024D01*
X160524924Y-108231005D01*
X160524922Y-108231004D01*
X160395341Y-108124659D01*
X160288996Y-107995078D01*
X160236700Y-107897239D01*
X160209976Y-107847242D01*
X160161313Y-107686823D01*
X160144883Y-107520000D01*
X160161313Y-107353177D01*
X160209976Y-107192758D01*
X160288995Y-107044924D01*
X160288996Y-107044922D01*
X160395341Y-106915341D01*
X160524922Y-106808996D01*
X160579217Y-106779975D01*
X160672758Y-106729976D01*
X160833177Y-106681313D01*
X160958196Y-106669000D01*
X161041804Y-106669000D01*
X161166823Y-106681313D01*
X161166823Y-106681313D01*
G37*
G36*
X168786823Y-106681313D02*
G01*
X168947242Y-106729976D01*
X169040783Y-106779975D01*
X169095078Y-106808996D01*
X169224659Y-106915341D01*
X169331004Y-107044922D01*
X169331005Y-107044924D01*
X169410024Y-107192758D01*
X169458687Y-107353177D01*
X169475117Y-107520000D01*
X169458687Y-107686823D01*
X169410024Y-107847242D01*
X169383300Y-107897239D01*
X169331004Y-107995078D01*
X169224659Y-108124659D01*
X169095078Y-108231004D01*
X169095076Y-108231005D01*
X168947242Y-108310024D01*
X168786823Y-108358687D01*
X168661804Y-108371000D01*
X168578196Y-108371000D01*
X168453177Y-108358687D01*
X168292758Y-108310024D01*
X168144924Y-108231005D01*
X168144922Y-108231004D01*
X168015341Y-108124659D01*
X167908996Y-107995078D01*
X167856700Y-107897239D01*
X167829976Y-107847242D01*
X167781313Y-107686823D01*
X167764883Y-107520000D01*
X167781313Y-107353177D01*
X167829976Y-107192758D01*
X167908995Y-107044924D01*
X167908996Y-107044922D01*
X168015341Y-106915341D01*
X168144922Y-106808996D01*
X168199217Y-106779975D01*
X168292758Y-106729976D01*
X168453177Y-106681313D01*
X168578196Y-106669000D01*
X168661804Y-106669000D01*
X168786823Y-106681313D01*
X168786823Y-106681313D01*
G37*
G36*
X157416823Y-104191313D02*
G01*
X157577242Y-104239976D01*
X157709906Y-104310886D01*
X157725078Y-104318996D01*
X157854659Y-104425341D01*
X157961004Y-104554922D01*
X157961005Y-104554924D01*
X158040024Y-104702758D01*
X158088687Y-104863177D01*
X158105117Y-105030000D01*
X158088687Y-105196823D01*
X158040024Y-105357242D01*
X157969114Y-105489906D01*
X157961004Y-105505078D01*
X157854659Y-105634659D01*
X157725078Y-105741004D01*
X157725076Y-105741005D01*
X157577242Y-105820024D01*
X157416823Y-105868687D01*
X157291804Y-105881000D01*
X157208196Y-105881000D01*
X157083177Y-105868687D01*
X156922758Y-105820024D01*
X156774924Y-105741005D01*
X156774922Y-105741004D01*
X156645341Y-105634659D01*
X156538996Y-105505078D01*
X156530886Y-105489906D01*
X156459976Y-105357242D01*
X156411313Y-105196823D01*
X156394883Y-105030000D01*
X156411313Y-104863177D01*
X156459976Y-104702758D01*
X156538995Y-104554924D01*
X156538996Y-104554922D01*
X156645341Y-104425341D01*
X156774922Y-104318996D01*
X156790094Y-104310886D01*
X156922758Y-104239976D01*
X157083177Y-104191313D01*
X157208196Y-104179000D01*
X157291804Y-104179000D01*
X157416823Y-104191313D01*
X157416823Y-104191313D01*
G37*
G36*
X172656823Y-104191313D02*
G01*
X172817242Y-104239976D01*
X172949906Y-104310886D01*
X172965078Y-104318996D01*
X173094659Y-104425341D01*
X173201004Y-104554922D01*
X173201005Y-104554924D01*
X173280024Y-104702758D01*
X173328687Y-104863177D01*
X173345117Y-105030000D01*
X173328687Y-105196823D01*
X173280024Y-105357242D01*
X173209114Y-105489906D01*
X173201004Y-105505078D01*
X173094659Y-105634659D01*
X172965078Y-105741004D01*
X172965076Y-105741005D01*
X172817242Y-105820024D01*
X172656823Y-105868687D01*
X172531804Y-105881000D01*
X172448196Y-105881000D01*
X172323177Y-105868687D01*
X172162758Y-105820024D01*
X172014924Y-105741005D01*
X172014922Y-105741004D01*
X171885341Y-105634659D01*
X171778996Y-105505078D01*
X171770886Y-105489906D01*
X171699976Y-105357242D01*
X171651313Y-105196823D01*
X171634883Y-105030000D01*
X171651313Y-104863177D01*
X171699976Y-104702758D01*
X171778995Y-104554924D01*
X171778996Y-104554922D01*
X171885341Y-104425341D01*
X172014922Y-104318996D01*
X172030094Y-104310886D01*
X172162758Y-104239976D01*
X172323177Y-104191313D01*
X172448196Y-104179000D01*
X172531804Y-104179000D01*
X172656823Y-104191313D01*
X172656823Y-104191313D01*
G37*
G36*
X161166823Y-104141313D02*
G01*
X161327242Y-104189976D01*
X161420783Y-104239975D01*
X161475078Y-104268996D01*
X161604659Y-104375341D01*
X161711004Y-104504922D01*
X161711005Y-104504924D01*
X161790024Y-104652758D01*
X161838687Y-104813177D01*
X161855117Y-104980000D01*
X161838687Y-105146823D01*
X161790024Y-105307242D01*
X161763300Y-105357239D01*
X161711004Y-105455078D01*
X161604659Y-105584659D01*
X161475078Y-105691004D01*
X161475076Y-105691005D01*
X161327242Y-105770024D01*
X161166823Y-105818687D01*
X161041804Y-105831000D01*
X160958196Y-105831000D01*
X160833177Y-105818687D01*
X160672758Y-105770024D01*
X160524924Y-105691005D01*
X160524922Y-105691004D01*
X160395341Y-105584659D01*
X160288996Y-105455078D01*
X160236700Y-105357239D01*
X160209976Y-105307242D01*
X160161313Y-105146823D01*
X160144883Y-104980000D01*
X160161313Y-104813177D01*
X160209976Y-104652758D01*
X160288995Y-104504924D01*
X160288996Y-104504922D01*
X160395341Y-104375341D01*
X160524922Y-104268996D01*
X160579217Y-104239975D01*
X160672758Y-104189976D01*
X160833177Y-104141313D01*
X160958196Y-104129000D01*
X161041804Y-104129000D01*
X161166823Y-104141313D01*
X161166823Y-104141313D01*
G37*
G36*
X168786823Y-104141313D02*
G01*
X168947242Y-104189976D01*
X169040783Y-104239975D01*
X169095078Y-104268996D01*
X169224659Y-104375341D01*
X169331004Y-104504922D01*
X169331005Y-104504924D01*
X169410024Y-104652758D01*
X169458687Y-104813177D01*
X169475117Y-104980000D01*
X169458687Y-105146823D01*
X169410024Y-105307242D01*
X169383300Y-105357239D01*
X169331004Y-105455078D01*
X169224659Y-105584659D01*
X169095078Y-105691004D01*
X169095076Y-105691005D01*
X168947242Y-105770024D01*
X168786823Y-105818687D01*
X168661804Y-105831000D01*
X168578196Y-105831000D01*
X168453177Y-105818687D01*
X168292758Y-105770024D01*
X168144924Y-105691005D01*
X168144922Y-105691004D01*
X168015341Y-105584659D01*
X167908996Y-105455078D01*
X167856700Y-105357239D01*
X167829976Y-105307242D01*
X167781313Y-105146823D01*
X167764883Y-104980000D01*
X167781313Y-104813177D01*
X167829976Y-104652758D01*
X167908995Y-104504924D01*
X167908996Y-104504922D01*
X168015341Y-104375341D01*
X168144922Y-104268996D01*
X168199217Y-104239975D01*
X168292758Y-104189976D01*
X168453177Y-104141313D01*
X168578196Y-104129000D01*
X168661804Y-104129000D01*
X168786823Y-104141313D01*
X168786823Y-104141313D01*
G37*
G36*
X172656823Y-101651313D02*
G01*
X172817242Y-101699976D01*
X172949906Y-101770886D01*
X172965078Y-101778996D01*
X173094659Y-101885341D01*
X173201004Y-102014922D01*
X173201005Y-102014924D01*
X173280024Y-102162758D01*
X173328687Y-102323177D01*
X173345117Y-102490000D01*
X173328687Y-102656823D01*
X173280024Y-102817242D01*
X173209114Y-102949906D01*
X173201004Y-102965078D01*
X173094659Y-103094659D01*
X172965078Y-103201004D01*
X172965076Y-103201005D01*
X172817242Y-103280024D01*
X172656823Y-103328687D01*
X172531804Y-103341000D01*
X172448196Y-103341000D01*
X172323177Y-103328687D01*
X172162758Y-103280024D01*
X172014924Y-103201005D01*
X172014922Y-103201004D01*
X171885341Y-103094659D01*
X171778996Y-102965078D01*
X171770886Y-102949906D01*
X171699976Y-102817242D01*
X171651313Y-102656823D01*
X171634883Y-102490000D01*
X171651313Y-102323177D01*
X171699976Y-102162758D01*
X171778995Y-102014924D01*
X171778996Y-102014922D01*
X171885341Y-101885341D01*
X172014922Y-101778996D01*
X172030094Y-101770886D01*
X172162758Y-101699976D01*
X172323177Y-101651313D01*
X172448196Y-101639000D01*
X172531804Y-101639000D01*
X172656823Y-101651313D01*
X172656823Y-101651313D01*
G37*
G36*
X157416823Y-101651313D02*
G01*
X157577242Y-101699976D01*
X157709906Y-101770886D01*
X157725078Y-101778996D01*
X157854659Y-101885341D01*
X157961004Y-102014922D01*
X157961005Y-102014924D01*
X158040024Y-102162758D01*
X158088687Y-102323177D01*
X158105117Y-102490000D01*
X158088687Y-102656823D01*
X158040024Y-102817242D01*
X157969114Y-102949906D01*
X157961004Y-102965078D01*
X157854659Y-103094659D01*
X157725078Y-103201004D01*
X157725076Y-103201005D01*
X157577242Y-103280024D01*
X157416823Y-103328687D01*
X157291804Y-103341000D01*
X157208196Y-103341000D01*
X157083177Y-103328687D01*
X156922758Y-103280024D01*
X156774924Y-103201005D01*
X156774922Y-103201004D01*
X156645341Y-103094659D01*
X156538996Y-102965078D01*
X156530886Y-102949906D01*
X156459976Y-102817242D01*
X156411313Y-102656823D01*
X156394883Y-102490000D01*
X156411313Y-102323177D01*
X156459976Y-102162758D01*
X156538995Y-102014924D01*
X156538996Y-102014922D01*
X156645341Y-101885341D01*
X156774922Y-101778996D01*
X156790094Y-101770886D01*
X156922758Y-101699976D01*
X157083177Y-101651313D01*
X157208196Y-101639000D01*
X157291804Y-101639000D01*
X157416823Y-101651313D01*
X157416823Y-101651313D01*
G37*
G36*
X161166823Y-101601313D02*
G01*
X161327242Y-101649976D01*
X161420783Y-101699975D01*
X161475078Y-101728996D01*
X161604659Y-101835341D01*
X161711004Y-101964922D01*
X161711005Y-101964924D01*
X161790024Y-102112758D01*
X161838687Y-102273177D01*
X161855117Y-102440000D01*
X161838687Y-102606823D01*
X161790024Y-102767242D01*
X161763300Y-102817239D01*
X161711004Y-102915078D01*
X161604659Y-103044659D01*
X161475078Y-103151004D01*
X161475076Y-103151005D01*
X161327242Y-103230024D01*
X161166823Y-103278687D01*
X161041804Y-103291000D01*
X160958196Y-103291000D01*
X160833177Y-103278687D01*
X160672758Y-103230024D01*
X160524924Y-103151005D01*
X160524922Y-103151004D01*
X160395341Y-103044659D01*
X160288996Y-102915078D01*
X160236700Y-102817239D01*
X160209976Y-102767242D01*
X160161313Y-102606823D01*
X160144883Y-102440000D01*
X160161313Y-102273177D01*
X160209976Y-102112758D01*
X160288995Y-101964924D01*
X160288996Y-101964922D01*
X160395341Y-101835341D01*
X160524922Y-101728996D01*
X160579217Y-101699975D01*
X160672758Y-101649976D01*
X160833177Y-101601313D01*
X160958196Y-101589000D01*
X161041804Y-101589000D01*
X161166823Y-101601313D01*
X161166823Y-101601313D01*
G37*
G36*
X168786823Y-101601313D02*
G01*
X168947242Y-101649976D01*
X169040783Y-101699975D01*
X169095078Y-101728996D01*
X169224659Y-101835341D01*
X169331004Y-101964922D01*
X169331005Y-101964924D01*
X169410024Y-102112758D01*
X169458687Y-102273177D01*
X169475117Y-102440000D01*
X169458687Y-102606823D01*
X169410024Y-102767242D01*
X169383300Y-102817239D01*
X169331004Y-102915078D01*
X169224659Y-103044659D01*
X169095078Y-103151004D01*
X169095076Y-103151005D01*
X168947242Y-103230024D01*
X168786823Y-103278687D01*
X168661804Y-103291000D01*
X168578196Y-103291000D01*
X168453177Y-103278687D01*
X168292758Y-103230024D01*
X168144924Y-103151005D01*
X168144922Y-103151004D01*
X168015341Y-103044659D01*
X167908996Y-102915078D01*
X167856700Y-102817239D01*
X167829976Y-102767242D01*
X167781313Y-102606823D01*
X167764883Y-102440000D01*
X167781313Y-102273177D01*
X167829976Y-102112758D01*
X167908995Y-101964924D01*
X167908996Y-101964922D01*
X168015341Y-101835341D01*
X168144922Y-101728996D01*
X168199217Y-101699975D01*
X168292758Y-101649976D01*
X168453177Y-101601313D01*
X168578196Y-101589000D01*
X168661804Y-101589000D01*
X168786823Y-101601313D01*
X168786823Y-101601313D01*
G37*
G36*
X157416823Y-99111313D02*
G01*
X157577242Y-99159976D01*
X157709906Y-99230886D01*
X157725078Y-99238996D01*
X157854659Y-99345341D01*
X157961004Y-99474922D01*
X157961005Y-99474924D01*
X158040024Y-99622758D01*
X158088687Y-99783177D01*
X158105117Y-99950000D01*
X158088687Y-100116823D01*
X158040024Y-100277242D01*
X157969114Y-100409906D01*
X157961004Y-100425078D01*
X157854659Y-100554659D01*
X157725078Y-100661004D01*
X157725076Y-100661005D01*
X157577242Y-100740024D01*
X157416823Y-100788687D01*
X157291804Y-100801000D01*
X157208196Y-100801000D01*
X157083177Y-100788687D01*
X156922758Y-100740024D01*
X156774924Y-100661005D01*
X156774922Y-100661004D01*
X156645341Y-100554659D01*
X156538996Y-100425078D01*
X156530886Y-100409906D01*
X156459976Y-100277242D01*
X156411313Y-100116823D01*
X156394883Y-99950000D01*
X156411313Y-99783177D01*
X156459976Y-99622758D01*
X156538995Y-99474924D01*
X156538996Y-99474922D01*
X156645341Y-99345341D01*
X156774922Y-99238996D01*
X156790094Y-99230886D01*
X156922758Y-99159976D01*
X157083177Y-99111313D01*
X157208196Y-99099000D01*
X157291804Y-99099000D01*
X157416823Y-99111313D01*
X157416823Y-99111313D01*
G37*
G36*
X172656823Y-99111313D02*
G01*
X172817242Y-99159976D01*
X172949906Y-99230886D01*
X172965078Y-99238996D01*
X173094659Y-99345341D01*
X173201004Y-99474922D01*
X173201005Y-99474924D01*
X173280024Y-99622758D01*
X173328687Y-99783177D01*
X173345117Y-99950000D01*
X173328687Y-100116823D01*
X173280024Y-100277242D01*
X173209114Y-100409906D01*
X173201004Y-100425078D01*
X173094659Y-100554659D01*
X172965078Y-100661004D01*
X172965076Y-100661005D01*
X172817242Y-100740024D01*
X172656823Y-100788687D01*
X172531804Y-100801000D01*
X172448196Y-100801000D01*
X172323177Y-100788687D01*
X172162758Y-100740024D01*
X172014924Y-100661005D01*
X172014922Y-100661004D01*
X171885341Y-100554659D01*
X171778996Y-100425078D01*
X171770886Y-100409906D01*
X171699976Y-100277242D01*
X171651313Y-100116823D01*
X171634883Y-99950000D01*
X171651313Y-99783177D01*
X171699976Y-99622758D01*
X171778995Y-99474924D01*
X171778996Y-99474922D01*
X171885341Y-99345341D01*
X172014922Y-99238996D01*
X172030094Y-99230886D01*
X172162758Y-99159976D01*
X172323177Y-99111313D01*
X172448196Y-99099000D01*
X172531804Y-99099000D01*
X172656823Y-99111313D01*
X172656823Y-99111313D01*
G37*
G36*
X161166823Y-99061313D02*
G01*
X161327242Y-99109976D01*
X161420783Y-99159975D01*
X161475078Y-99188996D01*
X161604659Y-99295341D01*
X161711004Y-99424922D01*
X161711005Y-99424924D01*
X161790024Y-99572758D01*
X161838687Y-99733177D01*
X161855117Y-99900000D01*
X161838687Y-100066823D01*
X161790024Y-100227242D01*
X161763300Y-100277239D01*
X161711004Y-100375078D01*
X161604659Y-100504659D01*
X161475078Y-100611004D01*
X161475076Y-100611005D01*
X161327242Y-100690024D01*
X161166823Y-100738687D01*
X161041804Y-100751000D01*
X160958196Y-100751000D01*
X160833177Y-100738687D01*
X160672758Y-100690024D01*
X160524924Y-100611005D01*
X160524922Y-100611004D01*
X160395341Y-100504659D01*
X160288996Y-100375078D01*
X160236700Y-100277239D01*
X160209976Y-100227242D01*
X160161313Y-100066823D01*
X160144883Y-99900000D01*
X160161313Y-99733177D01*
X160209976Y-99572758D01*
X160288995Y-99424924D01*
X160288996Y-99424922D01*
X160395341Y-99295341D01*
X160524922Y-99188996D01*
X160579217Y-99159975D01*
X160672758Y-99109976D01*
X160833177Y-99061313D01*
X160958196Y-99049000D01*
X161041804Y-99049000D01*
X161166823Y-99061313D01*
X161166823Y-99061313D01*
G37*
G36*
X168786823Y-99061313D02*
G01*
X168947242Y-99109976D01*
X169040783Y-99159975D01*
X169095078Y-99188996D01*
X169224659Y-99295341D01*
X169331004Y-99424922D01*
X169331005Y-99424924D01*
X169410024Y-99572758D01*
X169458687Y-99733177D01*
X169475117Y-99900000D01*
X169458687Y-100066823D01*
X169410024Y-100227242D01*
X169383300Y-100277239D01*
X169331004Y-100375078D01*
X169224659Y-100504659D01*
X169095078Y-100611004D01*
X169095076Y-100611005D01*
X168947242Y-100690024D01*
X168786823Y-100738687D01*
X168661804Y-100751000D01*
X168578196Y-100751000D01*
X168453177Y-100738687D01*
X168292758Y-100690024D01*
X168144924Y-100611005D01*
X168144922Y-100611004D01*
X168015341Y-100504659D01*
X167908996Y-100375078D01*
X167856700Y-100277239D01*
X167829976Y-100227242D01*
X167781313Y-100066823D01*
X167764883Y-99900000D01*
X167781313Y-99733177D01*
X167829976Y-99572758D01*
X167908995Y-99424924D01*
X167908996Y-99424922D01*
X168015341Y-99295341D01*
X168144922Y-99188996D01*
X168199217Y-99159975D01*
X168292758Y-99109976D01*
X168453177Y-99061313D01*
X168578196Y-99049000D01*
X168661804Y-99049000D01*
X168786823Y-99061313D01*
X168786823Y-99061313D01*
G37*
G36*
X157416823Y-96571313D02*
G01*
X157577242Y-96619976D01*
X157709906Y-96690886D01*
X157725078Y-96698996D01*
X157854659Y-96805341D01*
X157961004Y-96934922D01*
X157961005Y-96934924D01*
X158040024Y-97082758D01*
X158088687Y-97243177D01*
X158105117Y-97410000D01*
X158088687Y-97576823D01*
X158040024Y-97737242D01*
X157969114Y-97869906D01*
X157961004Y-97885078D01*
X157854659Y-98014659D01*
X157725078Y-98121004D01*
X157725076Y-98121005D01*
X157577242Y-98200024D01*
X157416823Y-98248687D01*
X157291804Y-98261000D01*
X157208196Y-98261000D01*
X157083177Y-98248687D01*
X156922758Y-98200024D01*
X156774924Y-98121005D01*
X156774922Y-98121004D01*
X156645341Y-98014659D01*
X156538996Y-97885078D01*
X156530886Y-97869906D01*
X156459976Y-97737242D01*
X156411313Y-97576823D01*
X156394883Y-97410000D01*
X156411313Y-97243177D01*
X156459976Y-97082758D01*
X156538995Y-96934924D01*
X156538996Y-96934922D01*
X156645341Y-96805341D01*
X156774922Y-96698996D01*
X156790094Y-96690886D01*
X156922758Y-96619976D01*
X157083177Y-96571313D01*
X157208196Y-96559000D01*
X157291804Y-96559000D01*
X157416823Y-96571313D01*
X157416823Y-96571313D01*
G37*
G36*
X172656823Y-96571313D02*
G01*
X172817242Y-96619976D01*
X172949906Y-96690886D01*
X172965078Y-96698996D01*
X173094659Y-96805341D01*
X173201004Y-96934922D01*
X173201005Y-96934924D01*
X173280024Y-97082758D01*
X173328687Y-97243177D01*
X173345117Y-97410000D01*
X173328687Y-97576823D01*
X173280024Y-97737242D01*
X173209114Y-97869906D01*
X173201004Y-97885078D01*
X173094659Y-98014659D01*
X172965078Y-98121004D01*
X172965076Y-98121005D01*
X172817242Y-98200024D01*
X172656823Y-98248687D01*
X172531804Y-98261000D01*
X172448196Y-98261000D01*
X172323177Y-98248687D01*
X172162758Y-98200024D01*
X172014924Y-98121005D01*
X172014922Y-98121004D01*
X171885341Y-98014659D01*
X171778996Y-97885078D01*
X171770886Y-97869906D01*
X171699976Y-97737242D01*
X171651313Y-97576823D01*
X171634883Y-97410000D01*
X171651313Y-97243177D01*
X171699976Y-97082758D01*
X171778995Y-96934924D01*
X171778996Y-96934922D01*
X171885341Y-96805341D01*
X172014922Y-96698996D01*
X172030094Y-96690886D01*
X172162758Y-96619976D01*
X172323177Y-96571313D01*
X172448196Y-96559000D01*
X172531804Y-96559000D01*
X172656823Y-96571313D01*
X172656823Y-96571313D01*
G37*
G36*
X161166823Y-96521313D02*
G01*
X161327242Y-96569976D01*
X161420783Y-96619975D01*
X161475078Y-96648996D01*
X161604659Y-96755341D01*
X161711004Y-96884922D01*
X161711005Y-96884924D01*
X161790024Y-97032758D01*
X161838687Y-97193177D01*
X161855117Y-97360000D01*
X161838687Y-97526823D01*
X161790024Y-97687242D01*
X161763300Y-97737239D01*
X161711004Y-97835078D01*
X161604659Y-97964659D01*
X161475078Y-98071004D01*
X161475076Y-98071005D01*
X161327242Y-98150024D01*
X161166823Y-98198687D01*
X161041804Y-98211000D01*
X160958196Y-98211000D01*
X160833177Y-98198687D01*
X160672758Y-98150024D01*
X160524924Y-98071005D01*
X160524922Y-98071004D01*
X160395341Y-97964659D01*
X160288996Y-97835078D01*
X160236700Y-97737239D01*
X160209976Y-97687242D01*
X160161313Y-97526823D01*
X160144883Y-97360000D01*
X160161313Y-97193177D01*
X160209976Y-97032758D01*
X160288995Y-96884924D01*
X160288996Y-96884922D01*
X160395341Y-96755341D01*
X160524922Y-96648996D01*
X160579217Y-96619975D01*
X160672758Y-96569976D01*
X160833177Y-96521313D01*
X160958196Y-96509000D01*
X161041804Y-96509000D01*
X161166823Y-96521313D01*
X161166823Y-96521313D01*
G37*
G36*
X168786823Y-96521313D02*
G01*
X168947242Y-96569976D01*
X169040783Y-96619975D01*
X169095078Y-96648996D01*
X169224659Y-96755341D01*
X169331004Y-96884922D01*
X169331005Y-96884924D01*
X169410024Y-97032758D01*
X169458687Y-97193177D01*
X169475117Y-97360000D01*
X169458687Y-97526823D01*
X169410024Y-97687242D01*
X169383300Y-97737239D01*
X169331004Y-97835078D01*
X169224659Y-97964659D01*
X169095078Y-98071004D01*
X169095076Y-98071005D01*
X168947242Y-98150024D01*
X168786823Y-98198687D01*
X168661804Y-98211000D01*
X168578196Y-98211000D01*
X168453177Y-98198687D01*
X168292758Y-98150024D01*
X168144924Y-98071005D01*
X168144922Y-98071004D01*
X168015341Y-97964659D01*
X167908996Y-97835078D01*
X167856700Y-97737239D01*
X167829976Y-97687242D01*
X167781313Y-97526823D01*
X167764883Y-97360000D01*
X167781313Y-97193177D01*
X167829976Y-97032758D01*
X167908995Y-96884924D01*
X167908996Y-96884922D01*
X168015341Y-96755341D01*
X168144922Y-96648996D01*
X168199217Y-96619975D01*
X168292758Y-96569976D01*
X168453177Y-96521313D01*
X168578196Y-96509000D01*
X168661804Y-96509000D01*
X168786823Y-96521313D01*
X168786823Y-96521313D01*
G37*
G36*
X172656823Y-94031313D02*
G01*
X172817242Y-94079976D01*
X172949906Y-94150886D01*
X172965078Y-94158996D01*
X173094659Y-94265341D01*
X173201004Y-94394922D01*
X173201005Y-94394924D01*
X173280024Y-94542758D01*
X173328687Y-94703177D01*
X173345117Y-94870000D01*
X173328687Y-95036823D01*
X173280024Y-95197242D01*
X173209114Y-95329906D01*
X173201004Y-95345078D01*
X173094659Y-95474659D01*
X172965078Y-95581004D01*
X172965076Y-95581005D01*
X172817242Y-95660024D01*
X172656823Y-95708687D01*
X172531804Y-95721000D01*
X172448196Y-95721000D01*
X172323177Y-95708687D01*
X172162758Y-95660024D01*
X172014924Y-95581005D01*
X172014922Y-95581004D01*
X171885341Y-95474659D01*
X171778996Y-95345078D01*
X171770886Y-95329906D01*
X171699976Y-95197242D01*
X171651313Y-95036823D01*
X171634883Y-94870000D01*
X171651313Y-94703177D01*
X171699976Y-94542758D01*
X171778995Y-94394924D01*
X171778996Y-94394922D01*
X171885341Y-94265341D01*
X172014922Y-94158996D01*
X172030094Y-94150886D01*
X172162758Y-94079976D01*
X172323177Y-94031313D01*
X172448196Y-94019000D01*
X172531804Y-94019000D01*
X172656823Y-94031313D01*
X172656823Y-94031313D01*
G37*
G36*
X157416823Y-94031313D02*
G01*
X157577242Y-94079976D01*
X157709906Y-94150886D01*
X157725078Y-94158996D01*
X157854659Y-94265341D01*
X157961004Y-94394922D01*
X157961005Y-94394924D01*
X158040024Y-94542758D01*
X158088687Y-94703177D01*
X158105117Y-94870000D01*
X158088687Y-95036823D01*
X158040024Y-95197242D01*
X157969114Y-95329906D01*
X157961004Y-95345078D01*
X157854659Y-95474659D01*
X157725078Y-95581004D01*
X157725076Y-95581005D01*
X157577242Y-95660024D01*
X157416823Y-95708687D01*
X157291804Y-95721000D01*
X157208196Y-95721000D01*
X157083177Y-95708687D01*
X156922758Y-95660024D01*
X156774924Y-95581005D01*
X156774922Y-95581004D01*
X156645341Y-95474659D01*
X156538996Y-95345078D01*
X156530886Y-95329906D01*
X156459976Y-95197242D01*
X156411313Y-95036823D01*
X156394883Y-94870000D01*
X156411313Y-94703177D01*
X156459976Y-94542758D01*
X156538995Y-94394924D01*
X156538996Y-94394922D01*
X156645341Y-94265341D01*
X156774922Y-94158996D01*
X156790094Y-94150886D01*
X156922758Y-94079976D01*
X157083177Y-94031313D01*
X157208196Y-94019000D01*
X157291804Y-94019000D01*
X157416823Y-94031313D01*
X157416823Y-94031313D01*
G37*
G36*
X161851000Y-95671000D02*
G01*
X160149000Y-95671000D01*
X160149000Y-93969000D01*
X161851000Y-93969000D01*
X161851000Y-95671000D01*
X161851000Y-95671000D01*
G37*
G36*
X168786823Y-93981313D02*
G01*
X168947242Y-94029976D01*
X169040783Y-94079975D01*
X169095078Y-94108996D01*
X169224659Y-94215341D01*
X169331004Y-94344922D01*
X169331005Y-94344924D01*
X169410024Y-94492758D01*
X169458687Y-94653177D01*
X169475117Y-94820000D01*
X169458687Y-94986823D01*
X169410024Y-95147242D01*
X169383300Y-95197239D01*
X169331004Y-95295078D01*
X169224659Y-95424659D01*
X169095078Y-95531004D01*
X169095076Y-95531005D01*
X168947242Y-95610024D01*
X168786823Y-95658687D01*
X168661804Y-95671000D01*
X168578196Y-95671000D01*
X168453177Y-95658687D01*
X168292758Y-95610024D01*
X168144924Y-95531005D01*
X168144922Y-95531004D01*
X168015341Y-95424659D01*
X167908996Y-95295078D01*
X167856700Y-95197239D01*
X167829976Y-95147242D01*
X167781313Y-94986823D01*
X167764883Y-94820000D01*
X167781313Y-94653177D01*
X167829976Y-94492758D01*
X167908995Y-94344924D01*
X167908996Y-94344922D01*
X168015341Y-94215341D01*
X168144922Y-94108996D01*
X168199217Y-94079975D01*
X168292758Y-94029976D01*
X168453177Y-93981313D01*
X168578196Y-93969000D01*
X168661804Y-93969000D01*
X168786823Y-93981313D01*
X168786823Y-93981313D01*
G37*
G36*
X157416823Y-91491313D02*
G01*
X157577242Y-91539976D01*
X157709906Y-91610886D01*
X157725078Y-91618996D01*
X157854659Y-91725341D01*
X157961004Y-91854922D01*
X157961005Y-91854924D01*
X158040024Y-92002758D01*
X158088687Y-92163177D01*
X158105117Y-92330000D01*
X158088687Y-92496823D01*
X158040024Y-92657242D01*
X157969114Y-92789906D01*
X157961004Y-92805078D01*
X157854659Y-92934659D01*
X157725078Y-93041004D01*
X157725076Y-93041005D01*
X157577242Y-93120024D01*
X157416823Y-93168687D01*
X157291804Y-93181000D01*
X157208196Y-93181000D01*
X157083177Y-93168687D01*
X156922758Y-93120024D01*
X156774924Y-93041005D01*
X156774922Y-93041004D01*
X156645341Y-92934659D01*
X156538996Y-92805078D01*
X156530886Y-92789906D01*
X156459976Y-92657242D01*
X156411313Y-92496823D01*
X156394883Y-92330000D01*
X156411313Y-92163177D01*
X156459976Y-92002758D01*
X156538995Y-91854924D01*
X156538996Y-91854922D01*
X156645341Y-91725341D01*
X156774922Y-91618996D01*
X156790094Y-91610886D01*
X156922758Y-91539976D01*
X157083177Y-91491313D01*
X157208196Y-91479000D01*
X157291804Y-91479000D01*
X157416823Y-91491313D01*
X157416823Y-91491313D01*
G37*
G36*
X172656823Y-91491313D02*
G01*
X172817242Y-91539976D01*
X172949906Y-91610886D01*
X172965078Y-91618996D01*
X173094659Y-91725341D01*
X173201004Y-91854922D01*
X173201005Y-91854924D01*
X173280024Y-92002758D01*
X173328687Y-92163177D01*
X173345117Y-92330000D01*
X173328687Y-92496823D01*
X173280024Y-92657242D01*
X173209114Y-92789906D01*
X173201004Y-92805078D01*
X173094659Y-92934659D01*
X172965078Y-93041004D01*
X172965076Y-93041005D01*
X172817242Y-93120024D01*
X172656823Y-93168687D01*
X172531804Y-93181000D01*
X172448196Y-93181000D01*
X172323177Y-93168687D01*
X172162758Y-93120024D01*
X172014924Y-93041005D01*
X172014922Y-93041004D01*
X171885341Y-92934659D01*
X171778996Y-92805078D01*
X171770886Y-92789906D01*
X171699976Y-92657242D01*
X171651313Y-92496823D01*
X171634883Y-92330000D01*
X171651313Y-92163177D01*
X171699976Y-92002758D01*
X171778995Y-91854924D01*
X171778996Y-91854922D01*
X171885341Y-91725341D01*
X172014922Y-91618996D01*
X172030094Y-91610886D01*
X172162758Y-91539976D01*
X172323177Y-91491313D01*
X172448196Y-91479000D01*
X172531804Y-91479000D01*
X172656823Y-91491313D01*
X172656823Y-91491313D01*
G37*
G36*
X157416823Y-88951313D02*
G01*
X157577242Y-88999976D01*
X157709906Y-89070886D01*
X157725078Y-89078996D01*
X157854659Y-89185341D01*
X157961004Y-89314922D01*
X157961005Y-89314924D01*
X158040024Y-89462758D01*
X158088687Y-89623177D01*
X158105117Y-89790000D01*
X158088687Y-89956823D01*
X158040024Y-90117242D01*
X157969114Y-90249906D01*
X157961004Y-90265078D01*
X157854659Y-90394659D01*
X157725078Y-90501004D01*
X157725076Y-90501005D01*
X157577242Y-90580024D01*
X157416823Y-90628687D01*
X157291804Y-90641000D01*
X157208196Y-90641000D01*
X157083177Y-90628687D01*
X156922758Y-90580024D01*
X156774924Y-90501005D01*
X156774922Y-90501004D01*
X156645341Y-90394659D01*
X156538996Y-90265078D01*
X156530886Y-90249906D01*
X156459976Y-90117242D01*
X156411313Y-89956823D01*
X156394883Y-89790000D01*
X156411313Y-89623177D01*
X156459976Y-89462758D01*
X156538995Y-89314924D01*
X156538996Y-89314922D01*
X156645341Y-89185341D01*
X156774922Y-89078996D01*
X156790094Y-89070886D01*
X156922758Y-88999976D01*
X157083177Y-88951313D01*
X157208196Y-88939000D01*
X157291804Y-88939000D01*
X157416823Y-88951313D01*
X157416823Y-88951313D01*
G37*
G36*
X172656823Y-88951313D02*
G01*
X172817242Y-88999976D01*
X172949906Y-89070886D01*
X172965078Y-89078996D01*
X173094659Y-89185341D01*
X173201004Y-89314922D01*
X173201005Y-89314924D01*
X173280024Y-89462758D01*
X173328687Y-89623177D01*
X173345117Y-89790000D01*
X173328687Y-89956823D01*
X173280024Y-90117242D01*
X173209114Y-90249906D01*
X173201004Y-90265078D01*
X173094659Y-90394659D01*
X172965078Y-90501004D01*
X172965076Y-90501005D01*
X172817242Y-90580024D01*
X172656823Y-90628687D01*
X172531804Y-90641000D01*
X172448196Y-90641000D01*
X172323177Y-90628687D01*
X172162758Y-90580024D01*
X172014924Y-90501005D01*
X172014922Y-90501004D01*
X171885341Y-90394659D01*
X171778996Y-90265078D01*
X171770886Y-90249906D01*
X171699976Y-90117242D01*
X171651313Y-89956823D01*
X171634883Y-89790000D01*
X171651313Y-89623177D01*
X171699976Y-89462758D01*
X171778995Y-89314924D01*
X171778996Y-89314922D01*
X171885341Y-89185341D01*
X172014922Y-89078996D01*
X172030094Y-89070886D01*
X172162758Y-88999976D01*
X172323177Y-88951313D01*
X172448196Y-88939000D01*
X172531804Y-88939000D01*
X172656823Y-88951313D01*
X172656823Y-88951313D01*
G37*
G36*
X158101000Y-88101000D02*
G01*
X156399000Y-88101000D01*
X156399000Y-86399000D01*
X158101000Y-86399000D01*
X158101000Y-88101000D01*
X158101000Y-88101000D01*
G37*
G36*
X172656823Y-86411313D02*
G01*
X172817242Y-86459976D01*
X172949906Y-86530886D01*
X172965078Y-86538996D01*
X173094659Y-86645341D01*
X173201004Y-86774922D01*
X173201005Y-86774924D01*
X173280024Y-86922758D01*
X173328687Y-87083177D01*
X173345117Y-87250000D01*
X173328687Y-87416823D01*
X173280024Y-87577242D01*
X173209114Y-87709906D01*
X173201004Y-87725078D01*
X173094659Y-87854659D01*
X172965078Y-87961004D01*
X172965076Y-87961005D01*
X172817242Y-88040024D01*
X172656823Y-88088687D01*
X172531804Y-88101000D01*
X172448196Y-88101000D01*
X172323177Y-88088687D01*
X172162758Y-88040024D01*
X172014924Y-87961005D01*
X172014922Y-87961004D01*
X171885341Y-87854659D01*
X171778996Y-87725078D01*
X171770886Y-87709906D01*
X171699976Y-87577242D01*
X171651313Y-87416823D01*
X171634883Y-87250000D01*
X171651313Y-87083177D01*
X171699976Y-86922758D01*
X171778995Y-86774924D01*
X171778996Y-86774922D01*
X171885341Y-86645341D01*
X172014922Y-86538996D01*
X172030094Y-86530886D01*
X172162758Y-86459976D01*
X172323177Y-86411313D01*
X172448196Y-86399000D01*
X172531804Y-86399000D01*
X172656823Y-86411313D01*
X172656823Y-86411313D01*
G37*
M02*
