G04 #@! TF.GenerationSoftware,KiCad,Pcbnew,(5.1.4)-1*
G04 #@! TF.CreationDate,2021-05-13T22:14:35-04:00*
G04 #@! TF.ProjectId,27c256_to_82s141,32376332-3536-45f7-946f-5f3832733134,rev?*
G04 #@! TF.SameCoordinates,Original*
G04 #@! TF.FileFunction,Soldermask,Top*
G04 #@! TF.FilePolarity,Negative*
%FSLAX46Y46*%
G04 Gerber Fmt 4.6, Leading zero omitted, Abs format (unit mm)*
G04 Created by KiCad (PCBNEW (5.1.4)-1) date 2021-05-13 22:14:35*
%MOMM*%
%LPD*%
G04 APERTURE LIST*
%ADD10C,0.100000*%
G04 APERTURE END LIST*
D10*
G36*
X126211824Y-82916314D02*
G01*
X126372243Y-82964977D01*
X126492012Y-83028995D01*
X126520079Y-83043997D01*
X126649660Y-83150342D01*
X126756005Y-83279923D01*
X126756006Y-83279925D01*
X126835025Y-83427759D01*
X126883688Y-83588178D01*
X126900118Y-83755001D01*
X126883688Y-83921824D01*
X126835025Y-84082243D01*
X126764115Y-84214907D01*
X126756005Y-84230079D01*
X126649660Y-84359660D01*
X126520079Y-84466005D01*
X126520077Y-84466006D01*
X126372243Y-84545025D01*
X126211824Y-84593688D01*
X126086805Y-84606001D01*
X126003197Y-84606001D01*
X125878178Y-84593688D01*
X125717759Y-84545025D01*
X125569925Y-84466006D01*
X125569923Y-84466005D01*
X125440342Y-84359660D01*
X125333997Y-84230079D01*
X125325887Y-84214907D01*
X125254977Y-84082243D01*
X125206314Y-83921824D01*
X125189884Y-83755001D01*
X125206314Y-83588178D01*
X125254977Y-83427759D01*
X125333996Y-83279925D01*
X125333997Y-83279923D01*
X125440342Y-83150342D01*
X125569923Y-83043997D01*
X125597990Y-83028995D01*
X125717759Y-82964977D01*
X125878178Y-82916314D01*
X126003197Y-82904001D01*
X126086805Y-82904001D01*
X126211824Y-82916314D01*
X126211824Y-82916314D01*
G37*
G36*
X110971824Y-82916314D02*
G01*
X111132243Y-82964977D01*
X111252012Y-83028995D01*
X111280079Y-83043997D01*
X111409660Y-83150342D01*
X111516005Y-83279923D01*
X111516006Y-83279925D01*
X111595025Y-83427759D01*
X111643688Y-83588178D01*
X111660118Y-83755001D01*
X111643688Y-83921824D01*
X111595025Y-84082243D01*
X111524115Y-84214907D01*
X111516005Y-84230079D01*
X111409660Y-84359660D01*
X111280079Y-84466005D01*
X111280077Y-84466006D01*
X111132243Y-84545025D01*
X110971824Y-84593688D01*
X110846805Y-84606001D01*
X110763197Y-84606001D01*
X110638178Y-84593688D01*
X110477759Y-84545025D01*
X110329925Y-84466006D01*
X110329923Y-84466005D01*
X110200342Y-84359660D01*
X110093997Y-84230079D01*
X110085887Y-84214907D01*
X110014977Y-84082243D01*
X109966314Y-83921824D01*
X109949884Y-83755001D01*
X109966314Y-83588178D01*
X110014977Y-83427759D01*
X110093996Y-83279925D01*
X110093997Y-83279923D01*
X110200342Y-83150342D01*
X110329923Y-83043997D01*
X110357990Y-83028995D01*
X110477759Y-82964977D01*
X110638178Y-82916314D01*
X110763197Y-82904001D01*
X110846805Y-82904001D01*
X110971824Y-82916314D01*
X110971824Y-82916314D01*
G37*
G36*
X122556823Y-82901313D02*
G01*
X122717242Y-82949976D01*
X122849906Y-83020886D01*
X122865078Y-83028996D01*
X122994659Y-83135341D01*
X123101004Y-83264922D01*
X123101005Y-83264924D01*
X123180024Y-83412758D01*
X123228687Y-83573177D01*
X123245117Y-83740000D01*
X123228687Y-83906823D01*
X123180024Y-84067242D01*
X123109114Y-84199906D01*
X123101004Y-84215078D01*
X122994659Y-84344659D01*
X122865078Y-84451004D01*
X122865076Y-84451005D01*
X122717242Y-84530024D01*
X122556823Y-84578687D01*
X122431804Y-84591000D01*
X122348196Y-84591000D01*
X122223177Y-84578687D01*
X122062758Y-84530024D01*
X121914924Y-84451005D01*
X121914922Y-84451004D01*
X121785341Y-84344659D01*
X121678996Y-84215078D01*
X121670886Y-84199906D01*
X121599976Y-84067242D01*
X121551313Y-83906823D01*
X121534883Y-83740000D01*
X121551313Y-83573177D01*
X121599976Y-83412758D01*
X121678995Y-83264924D01*
X121678996Y-83264922D01*
X121785341Y-83135341D01*
X121914922Y-83028996D01*
X121930094Y-83020886D01*
X122062758Y-82949976D01*
X122223177Y-82901313D01*
X122348196Y-82889000D01*
X122431804Y-82889000D01*
X122556823Y-82901313D01*
X122556823Y-82901313D01*
G37*
G36*
X107316823Y-82901313D02*
G01*
X107477242Y-82949976D01*
X107609906Y-83020886D01*
X107625078Y-83028996D01*
X107754659Y-83135341D01*
X107861004Y-83264922D01*
X107861005Y-83264924D01*
X107940024Y-83412758D01*
X107988687Y-83573177D01*
X108005117Y-83740000D01*
X107988687Y-83906823D01*
X107940024Y-84067242D01*
X107869114Y-84199906D01*
X107861004Y-84215078D01*
X107754659Y-84344659D01*
X107625078Y-84451004D01*
X107625076Y-84451005D01*
X107477242Y-84530024D01*
X107316823Y-84578687D01*
X107191804Y-84591000D01*
X107108196Y-84591000D01*
X106983177Y-84578687D01*
X106822758Y-84530024D01*
X106674924Y-84451005D01*
X106674922Y-84451004D01*
X106545341Y-84344659D01*
X106438996Y-84215078D01*
X106430886Y-84199906D01*
X106359976Y-84067242D01*
X106311313Y-83906823D01*
X106294883Y-83740000D01*
X106311313Y-83573177D01*
X106359976Y-83412758D01*
X106438995Y-83264924D01*
X106438996Y-83264922D01*
X106545341Y-83135341D01*
X106674922Y-83028996D01*
X106690094Y-83020886D01*
X106822758Y-82949976D01*
X106983177Y-82901313D01*
X107108196Y-82889000D01*
X107191804Y-82889000D01*
X107316823Y-82901313D01*
X107316823Y-82901313D01*
G37*
G36*
X110971824Y-80376314D02*
G01*
X111132243Y-80424977D01*
X111252012Y-80488995D01*
X111280079Y-80503997D01*
X111409660Y-80610342D01*
X111516005Y-80739923D01*
X111516006Y-80739925D01*
X111595025Y-80887759D01*
X111643688Y-81048178D01*
X111660118Y-81215001D01*
X111643688Y-81381824D01*
X111595025Y-81542243D01*
X111524115Y-81674907D01*
X111516005Y-81690079D01*
X111409660Y-81819660D01*
X111280079Y-81926005D01*
X111280077Y-81926006D01*
X111132243Y-82005025D01*
X110971824Y-82053688D01*
X110846805Y-82066001D01*
X110763197Y-82066001D01*
X110638178Y-82053688D01*
X110477759Y-82005025D01*
X110329925Y-81926006D01*
X110329923Y-81926005D01*
X110200342Y-81819660D01*
X110093997Y-81690079D01*
X110085887Y-81674907D01*
X110014977Y-81542243D01*
X109966314Y-81381824D01*
X109949884Y-81215001D01*
X109966314Y-81048178D01*
X110014977Y-80887759D01*
X110093996Y-80739925D01*
X110093997Y-80739923D01*
X110200342Y-80610342D01*
X110329923Y-80503997D01*
X110357990Y-80488995D01*
X110477759Y-80424977D01*
X110638178Y-80376314D01*
X110763197Y-80364001D01*
X110846805Y-80364001D01*
X110971824Y-80376314D01*
X110971824Y-80376314D01*
G37*
G36*
X126211824Y-80376314D02*
G01*
X126372243Y-80424977D01*
X126492012Y-80488995D01*
X126520079Y-80503997D01*
X126649660Y-80610342D01*
X126756005Y-80739923D01*
X126756006Y-80739925D01*
X126835025Y-80887759D01*
X126883688Y-81048178D01*
X126900118Y-81215001D01*
X126883688Y-81381824D01*
X126835025Y-81542243D01*
X126764115Y-81674907D01*
X126756005Y-81690079D01*
X126649660Y-81819660D01*
X126520079Y-81926005D01*
X126520077Y-81926006D01*
X126372243Y-82005025D01*
X126211824Y-82053688D01*
X126086805Y-82066001D01*
X126003197Y-82066001D01*
X125878178Y-82053688D01*
X125717759Y-82005025D01*
X125569925Y-81926006D01*
X125569923Y-81926005D01*
X125440342Y-81819660D01*
X125333997Y-81690079D01*
X125325887Y-81674907D01*
X125254977Y-81542243D01*
X125206314Y-81381824D01*
X125189884Y-81215001D01*
X125206314Y-81048178D01*
X125254977Y-80887759D01*
X125333996Y-80739925D01*
X125333997Y-80739923D01*
X125440342Y-80610342D01*
X125569923Y-80503997D01*
X125597990Y-80488995D01*
X125717759Y-80424977D01*
X125878178Y-80376314D01*
X126003197Y-80364001D01*
X126086805Y-80364001D01*
X126211824Y-80376314D01*
X126211824Y-80376314D01*
G37*
G36*
X122556823Y-80361313D02*
G01*
X122717242Y-80409976D01*
X122849906Y-80480886D01*
X122865078Y-80488996D01*
X122994659Y-80595341D01*
X123101004Y-80724922D01*
X123101005Y-80724924D01*
X123180024Y-80872758D01*
X123228687Y-81033177D01*
X123245117Y-81200000D01*
X123228687Y-81366823D01*
X123180024Y-81527242D01*
X123109114Y-81659906D01*
X123101004Y-81675078D01*
X122994659Y-81804659D01*
X122865078Y-81911004D01*
X122865076Y-81911005D01*
X122717242Y-81990024D01*
X122556823Y-82038687D01*
X122431804Y-82051000D01*
X122348196Y-82051000D01*
X122223177Y-82038687D01*
X122062758Y-81990024D01*
X121914924Y-81911005D01*
X121914922Y-81911004D01*
X121785341Y-81804659D01*
X121678996Y-81675078D01*
X121670886Y-81659906D01*
X121599976Y-81527242D01*
X121551313Y-81366823D01*
X121534883Y-81200000D01*
X121551313Y-81033177D01*
X121599976Y-80872758D01*
X121678995Y-80724924D01*
X121678996Y-80724922D01*
X121785341Y-80595341D01*
X121914922Y-80488996D01*
X121930094Y-80480886D01*
X122062758Y-80409976D01*
X122223177Y-80361313D01*
X122348196Y-80349000D01*
X122431804Y-80349000D01*
X122556823Y-80361313D01*
X122556823Y-80361313D01*
G37*
G36*
X107316823Y-80361313D02*
G01*
X107477242Y-80409976D01*
X107609906Y-80480886D01*
X107625078Y-80488996D01*
X107754659Y-80595341D01*
X107861004Y-80724922D01*
X107861005Y-80724924D01*
X107940024Y-80872758D01*
X107988687Y-81033177D01*
X108005117Y-81200000D01*
X107988687Y-81366823D01*
X107940024Y-81527242D01*
X107869114Y-81659906D01*
X107861004Y-81675078D01*
X107754659Y-81804659D01*
X107625078Y-81911004D01*
X107625076Y-81911005D01*
X107477242Y-81990024D01*
X107316823Y-82038687D01*
X107191804Y-82051000D01*
X107108196Y-82051000D01*
X106983177Y-82038687D01*
X106822758Y-81990024D01*
X106674924Y-81911005D01*
X106674922Y-81911004D01*
X106545341Y-81804659D01*
X106438996Y-81675078D01*
X106430886Y-81659906D01*
X106359976Y-81527242D01*
X106311313Y-81366823D01*
X106294883Y-81200000D01*
X106311313Y-81033177D01*
X106359976Y-80872758D01*
X106438995Y-80724924D01*
X106438996Y-80724922D01*
X106545341Y-80595341D01*
X106674922Y-80488996D01*
X106690094Y-80480886D01*
X106822758Y-80409976D01*
X106983177Y-80361313D01*
X107108196Y-80349000D01*
X107191804Y-80349000D01*
X107316823Y-80361313D01*
X107316823Y-80361313D01*
G37*
G36*
X126211824Y-77836314D02*
G01*
X126372243Y-77884977D01*
X126492012Y-77948995D01*
X126520079Y-77963997D01*
X126649660Y-78070342D01*
X126756005Y-78199923D01*
X126756006Y-78199925D01*
X126835025Y-78347759D01*
X126883688Y-78508178D01*
X126900118Y-78675001D01*
X126883688Y-78841824D01*
X126835025Y-79002243D01*
X126764115Y-79134907D01*
X126756005Y-79150079D01*
X126649660Y-79279660D01*
X126520079Y-79386005D01*
X126520077Y-79386006D01*
X126372243Y-79465025D01*
X126211824Y-79513688D01*
X126086805Y-79526001D01*
X126003197Y-79526001D01*
X125878178Y-79513688D01*
X125717759Y-79465025D01*
X125569925Y-79386006D01*
X125569923Y-79386005D01*
X125440342Y-79279660D01*
X125333997Y-79150079D01*
X125325887Y-79134907D01*
X125254977Y-79002243D01*
X125206314Y-78841824D01*
X125189884Y-78675001D01*
X125206314Y-78508178D01*
X125254977Y-78347759D01*
X125333996Y-78199925D01*
X125333997Y-78199923D01*
X125440342Y-78070342D01*
X125569923Y-77963997D01*
X125597990Y-77948995D01*
X125717759Y-77884977D01*
X125878178Y-77836314D01*
X126003197Y-77824001D01*
X126086805Y-77824001D01*
X126211824Y-77836314D01*
X126211824Y-77836314D01*
G37*
G36*
X110971824Y-77836314D02*
G01*
X111132243Y-77884977D01*
X111252012Y-77948995D01*
X111280079Y-77963997D01*
X111409660Y-78070342D01*
X111516005Y-78199923D01*
X111516006Y-78199925D01*
X111595025Y-78347759D01*
X111643688Y-78508178D01*
X111660118Y-78675001D01*
X111643688Y-78841824D01*
X111595025Y-79002243D01*
X111524115Y-79134907D01*
X111516005Y-79150079D01*
X111409660Y-79279660D01*
X111280079Y-79386005D01*
X111280077Y-79386006D01*
X111132243Y-79465025D01*
X110971824Y-79513688D01*
X110846805Y-79526001D01*
X110763197Y-79526001D01*
X110638178Y-79513688D01*
X110477759Y-79465025D01*
X110329925Y-79386006D01*
X110329923Y-79386005D01*
X110200342Y-79279660D01*
X110093997Y-79150079D01*
X110085887Y-79134907D01*
X110014977Y-79002243D01*
X109966314Y-78841824D01*
X109949884Y-78675001D01*
X109966314Y-78508178D01*
X110014977Y-78347759D01*
X110093996Y-78199925D01*
X110093997Y-78199923D01*
X110200342Y-78070342D01*
X110329923Y-77963997D01*
X110357990Y-77948995D01*
X110477759Y-77884977D01*
X110638178Y-77836314D01*
X110763197Y-77824001D01*
X110846805Y-77824001D01*
X110971824Y-77836314D01*
X110971824Y-77836314D01*
G37*
G36*
X107316823Y-77821313D02*
G01*
X107477242Y-77869976D01*
X107609906Y-77940886D01*
X107625078Y-77948996D01*
X107754659Y-78055341D01*
X107861004Y-78184922D01*
X107861005Y-78184924D01*
X107940024Y-78332758D01*
X107988687Y-78493177D01*
X108005117Y-78660000D01*
X107988687Y-78826823D01*
X107940024Y-78987242D01*
X107869114Y-79119906D01*
X107861004Y-79135078D01*
X107754659Y-79264659D01*
X107625078Y-79371004D01*
X107625076Y-79371005D01*
X107477242Y-79450024D01*
X107316823Y-79498687D01*
X107191804Y-79511000D01*
X107108196Y-79511000D01*
X106983177Y-79498687D01*
X106822758Y-79450024D01*
X106674924Y-79371005D01*
X106674922Y-79371004D01*
X106545341Y-79264659D01*
X106438996Y-79135078D01*
X106430886Y-79119906D01*
X106359976Y-78987242D01*
X106311313Y-78826823D01*
X106294883Y-78660000D01*
X106311313Y-78493177D01*
X106359976Y-78332758D01*
X106438995Y-78184924D01*
X106438996Y-78184922D01*
X106545341Y-78055341D01*
X106674922Y-77948996D01*
X106690094Y-77940886D01*
X106822758Y-77869976D01*
X106983177Y-77821313D01*
X107108196Y-77809000D01*
X107191804Y-77809000D01*
X107316823Y-77821313D01*
X107316823Y-77821313D01*
G37*
G36*
X122556823Y-77821313D02*
G01*
X122717242Y-77869976D01*
X122849906Y-77940886D01*
X122865078Y-77948996D01*
X122994659Y-78055341D01*
X123101004Y-78184922D01*
X123101005Y-78184924D01*
X123180024Y-78332758D01*
X123228687Y-78493177D01*
X123245117Y-78660000D01*
X123228687Y-78826823D01*
X123180024Y-78987242D01*
X123109114Y-79119906D01*
X123101004Y-79135078D01*
X122994659Y-79264659D01*
X122865078Y-79371004D01*
X122865076Y-79371005D01*
X122717242Y-79450024D01*
X122556823Y-79498687D01*
X122431804Y-79511000D01*
X122348196Y-79511000D01*
X122223177Y-79498687D01*
X122062758Y-79450024D01*
X121914924Y-79371005D01*
X121914922Y-79371004D01*
X121785341Y-79264659D01*
X121678996Y-79135078D01*
X121670886Y-79119906D01*
X121599976Y-78987242D01*
X121551313Y-78826823D01*
X121534883Y-78660000D01*
X121551313Y-78493177D01*
X121599976Y-78332758D01*
X121678995Y-78184924D01*
X121678996Y-78184922D01*
X121785341Y-78055341D01*
X121914922Y-77948996D01*
X121930094Y-77940886D01*
X122062758Y-77869976D01*
X122223177Y-77821313D01*
X122348196Y-77809000D01*
X122431804Y-77809000D01*
X122556823Y-77821313D01*
X122556823Y-77821313D01*
G37*
G36*
X110971824Y-75296314D02*
G01*
X111132243Y-75344977D01*
X111252012Y-75408995D01*
X111280079Y-75423997D01*
X111409660Y-75530342D01*
X111516005Y-75659923D01*
X111516006Y-75659925D01*
X111595025Y-75807759D01*
X111643688Y-75968178D01*
X111660118Y-76135001D01*
X111643688Y-76301824D01*
X111595025Y-76462243D01*
X111524115Y-76594907D01*
X111516005Y-76610079D01*
X111409660Y-76739660D01*
X111280079Y-76846005D01*
X111280077Y-76846006D01*
X111132243Y-76925025D01*
X110971824Y-76973688D01*
X110846805Y-76986001D01*
X110763197Y-76986001D01*
X110638178Y-76973688D01*
X110477759Y-76925025D01*
X110329925Y-76846006D01*
X110329923Y-76846005D01*
X110200342Y-76739660D01*
X110093997Y-76610079D01*
X110085887Y-76594907D01*
X110014977Y-76462243D01*
X109966314Y-76301824D01*
X109949884Y-76135001D01*
X109966314Y-75968178D01*
X110014977Y-75807759D01*
X110093996Y-75659925D01*
X110093997Y-75659923D01*
X110200342Y-75530342D01*
X110329923Y-75423997D01*
X110357990Y-75408995D01*
X110477759Y-75344977D01*
X110638178Y-75296314D01*
X110763197Y-75284001D01*
X110846805Y-75284001D01*
X110971824Y-75296314D01*
X110971824Y-75296314D01*
G37*
G36*
X126211824Y-75296314D02*
G01*
X126372243Y-75344977D01*
X126492012Y-75408995D01*
X126520079Y-75423997D01*
X126649660Y-75530342D01*
X126756005Y-75659923D01*
X126756006Y-75659925D01*
X126835025Y-75807759D01*
X126883688Y-75968178D01*
X126900118Y-76135001D01*
X126883688Y-76301824D01*
X126835025Y-76462243D01*
X126764115Y-76594907D01*
X126756005Y-76610079D01*
X126649660Y-76739660D01*
X126520079Y-76846005D01*
X126520077Y-76846006D01*
X126372243Y-76925025D01*
X126211824Y-76973688D01*
X126086805Y-76986001D01*
X126003197Y-76986001D01*
X125878178Y-76973688D01*
X125717759Y-76925025D01*
X125569925Y-76846006D01*
X125569923Y-76846005D01*
X125440342Y-76739660D01*
X125333997Y-76610079D01*
X125325887Y-76594907D01*
X125254977Y-76462243D01*
X125206314Y-76301824D01*
X125189884Y-76135001D01*
X125206314Y-75968178D01*
X125254977Y-75807759D01*
X125333996Y-75659925D01*
X125333997Y-75659923D01*
X125440342Y-75530342D01*
X125569923Y-75423997D01*
X125597990Y-75408995D01*
X125717759Y-75344977D01*
X125878178Y-75296314D01*
X126003197Y-75284001D01*
X126086805Y-75284001D01*
X126211824Y-75296314D01*
X126211824Y-75296314D01*
G37*
G36*
X122556823Y-75281313D02*
G01*
X122717242Y-75329976D01*
X122849906Y-75400886D01*
X122865078Y-75408996D01*
X122994659Y-75515341D01*
X123101004Y-75644922D01*
X123101005Y-75644924D01*
X123180024Y-75792758D01*
X123228687Y-75953177D01*
X123245117Y-76120000D01*
X123228687Y-76286823D01*
X123180024Y-76447242D01*
X123109114Y-76579906D01*
X123101004Y-76595078D01*
X122994659Y-76724659D01*
X122865078Y-76831004D01*
X122865076Y-76831005D01*
X122717242Y-76910024D01*
X122556823Y-76958687D01*
X122431804Y-76971000D01*
X122348196Y-76971000D01*
X122223177Y-76958687D01*
X122062758Y-76910024D01*
X121914924Y-76831005D01*
X121914922Y-76831004D01*
X121785341Y-76724659D01*
X121678996Y-76595078D01*
X121670886Y-76579906D01*
X121599976Y-76447242D01*
X121551313Y-76286823D01*
X121534883Y-76120000D01*
X121551313Y-75953177D01*
X121599976Y-75792758D01*
X121678995Y-75644924D01*
X121678996Y-75644922D01*
X121785341Y-75515341D01*
X121914922Y-75408996D01*
X121930094Y-75400886D01*
X122062758Y-75329976D01*
X122223177Y-75281313D01*
X122348196Y-75269000D01*
X122431804Y-75269000D01*
X122556823Y-75281313D01*
X122556823Y-75281313D01*
G37*
G36*
X107316823Y-75281313D02*
G01*
X107477242Y-75329976D01*
X107609906Y-75400886D01*
X107625078Y-75408996D01*
X107754659Y-75515341D01*
X107861004Y-75644922D01*
X107861005Y-75644924D01*
X107940024Y-75792758D01*
X107988687Y-75953177D01*
X108005117Y-76120000D01*
X107988687Y-76286823D01*
X107940024Y-76447242D01*
X107869114Y-76579906D01*
X107861004Y-76595078D01*
X107754659Y-76724659D01*
X107625078Y-76831004D01*
X107625076Y-76831005D01*
X107477242Y-76910024D01*
X107316823Y-76958687D01*
X107191804Y-76971000D01*
X107108196Y-76971000D01*
X106983177Y-76958687D01*
X106822758Y-76910024D01*
X106674924Y-76831005D01*
X106674922Y-76831004D01*
X106545341Y-76724659D01*
X106438996Y-76595078D01*
X106430886Y-76579906D01*
X106359976Y-76447242D01*
X106311313Y-76286823D01*
X106294883Y-76120000D01*
X106311313Y-75953177D01*
X106359976Y-75792758D01*
X106438995Y-75644924D01*
X106438996Y-75644922D01*
X106545341Y-75515341D01*
X106674922Y-75408996D01*
X106690094Y-75400886D01*
X106822758Y-75329976D01*
X106983177Y-75281313D01*
X107108196Y-75269000D01*
X107191804Y-75269000D01*
X107316823Y-75281313D01*
X107316823Y-75281313D01*
G37*
G36*
X126211824Y-72756314D02*
G01*
X126372243Y-72804977D01*
X126492012Y-72868995D01*
X126520079Y-72883997D01*
X126649660Y-72990342D01*
X126756005Y-73119923D01*
X126756006Y-73119925D01*
X126835025Y-73267759D01*
X126883688Y-73428178D01*
X126900118Y-73595001D01*
X126883688Y-73761824D01*
X126835025Y-73922243D01*
X126764115Y-74054907D01*
X126756005Y-74070079D01*
X126649660Y-74199660D01*
X126520079Y-74306005D01*
X126520077Y-74306006D01*
X126372243Y-74385025D01*
X126211824Y-74433688D01*
X126086805Y-74446001D01*
X126003197Y-74446001D01*
X125878178Y-74433688D01*
X125717759Y-74385025D01*
X125569925Y-74306006D01*
X125569923Y-74306005D01*
X125440342Y-74199660D01*
X125333997Y-74070079D01*
X125325887Y-74054907D01*
X125254977Y-73922243D01*
X125206314Y-73761824D01*
X125189884Y-73595001D01*
X125206314Y-73428178D01*
X125254977Y-73267759D01*
X125333996Y-73119925D01*
X125333997Y-73119923D01*
X125440342Y-72990342D01*
X125569923Y-72883997D01*
X125597990Y-72868995D01*
X125717759Y-72804977D01*
X125878178Y-72756314D01*
X126003197Y-72744001D01*
X126086805Y-72744001D01*
X126211824Y-72756314D01*
X126211824Y-72756314D01*
G37*
G36*
X110971824Y-72756314D02*
G01*
X111132243Y-72804977D01*
X111252012Y-72868995D01*
X111280079Y-72883997D01*
X111409660Y-72990342D01*
X111516005Y-73119923D01*
X111516006Y-73119925D01*
X111595025Y-73267759D01*
X111643688Y-73428178D01*
X111660118Y-73595001D01*
X111643688Y-73761824D01*
X111595025Y-73922243D01*
X111524115Y-74054907D01*
X111516005Y-74070079D01*
X111409660Y-74199660D01*
X111280079Y-74306005D01*
X111280077Y-74306006D01*
X111132243Y-74385025D01*
X110971824Y-74433688D01*
X110846805Y-74446001D01*
X110763197Y-74446001D01*
X110638178Y-74433688D01*
X110477759Y-74385025D01*
X110329925Y-74306006D01*
X110329923Y-74306005D01*
X110200342Y-74199660D01*
X110093997Y-74070079D01*
X110085887Y-74054907D01*
X110014977Y-73922243D01*
X109966314Y-73761824D01*
X109949884Y-73595001D01*
X109966314Y-73428178D01*
X110014977Y-73267759D01*
X110093996Y-73119925D01*
X110093997Y-73119923D01*
X110200342Y-72990342D01*
X110329923Y-72883997D01*
X110357990Y-72868995D01*
X110477759Y-72804977D01*
X110638178Y-72756314D01*
X110763197Y-72744001D01*
X110846805Y-72744001D01*
X110971824Y-72756314D01*
X110971824Y-72756314D01*
G37*
G36*
X122556823Y-72741313D02*
G01*
X122717242Y-72789976D01*
X122849906Y-72860886D01*
X122865078Y-72868996D01*
X122994659Y-72975341D01*
X123101004Y-73104922D01*
X123101005Y-73104924D01*
X123180024Y-73252758D01*
X123228687Y-73413177D01*
X123245117Y-73580000D01*
X123228687Y-73746823D01*
X123180024Y-73907242D01*
X123109114Y-74039906D01*
X123101004Y-74055078D01*
X122994659Y-74184659D01*
X122865078Y-74291004D01*
X122865076Y-74291005D01*
X122717242Y-74370024D01*
X122556823Y-74418687D01*
X122431804Y-74431000D01*
X122348196Y-74431000D01*
X122223177Y-74418687D01*
X122062758Y-74370024D01*
X121914924Y-74291005D01*
X121914922Y-74291004D01*
X121785341Y-74184659D01*
X121678996Y-74055078D01*
X121670886Y-74039906D01*
X121599976Y-73907242D01*
X121551313Y-73746823D01*
X121534883Y-73580000D01*
X121551313Y-73413177D01*
X121599976Y-73252758D01*
X121678995Y-73104924D01*
X121678996Y-73104922D01*
X121785341Y-72975341D01*
X121914922Y-72868996D01*
X121930094Y-72860886D01*
X122062758Y-72789976D01*
X122223177Y-72741313D01*
X122348196Y-72729000D01*
X122431804Y-72729000D01*
X122556823Y-72741313D01*
X122556823Y-72741313D01*
G37*
G36*
X107316823Y-72741313D02*
G01*
X107477242Y-72789976D01*
X107609906Y-72860886D01*
X107625078Y-72868996D01*
X107754659Y-72975341D01*
X107861004Y-73104922D01*
X107861005Y-73104924D01*
X107940024Y-73252758D01*
X107988687Y-73413177D01*
X108005117Y-73580000D01*
X107988687Y-73746823D01*
X107940024Y-73907242D01*
X107869114Y-74039906D01*
X107861004Y-74055078D01*
X107754659Y-74184659D01*
X107625078Y-74291004D01*
X107625076Y-74291005D01*
X107477242Y-74370024D01*
X107316823Y-74418687D01*
X107191804Y-74431000D01*
X107108196Y-74431000D01*
X106983177Y-74418687D01*
X106822758Y-74370024D01*
X106674924Y-74291005D01*
X106674922Y-74291004D01*
X106545341Y-74184659D01*
X106438996Y-74055078D01*
X106430886Y-74039906D01*
X106359976Y-73907242D01*
X106311313Y-73746823D01*
X106294883Y-73580000D01*
X106311313Y-73413177D01*
X106359976Y-73252758D01*
X106438995Y-73104924D01*
X106438996Y-73104922D01*
X106545341Y-72975341D01*
X106674922Y-72868996D01*
X106690094Y-72860886D01*
X106822758Y-72789976D01*
X106983177Y-72741313D01*
X107108196Y-72729000D01*
X107191804Y-72729000D01*
X107316823Y-72741313D01*
X107316823Y-72741313D01*
G37*
G36*
X110971824Y-70216314D02*
G01*
X111132243Y-70264977D01*
X111252012Y-70328995D01*
X111280079Y-70343997D01*
X111409660Y-70450342D01*
X111516005Y-70579923D01*
X111516006Y-70579925D01*
X111595025Y-70727759D01*
X111643688Y-70888178D01*
X111660118Y-71055001D01*
X111643688Y-71221824D01*
X111595025Y-71382243D01*
X111524115Y-71514907D01*
X111516005Y-71530079D01*
X111409660Y-71659660D01*
X111280079Y-71766005D01*
X111280077Y-71766006D01*
X111132243Y-71845025D01*
X110971824Y-71893688D01*
X110846805Y-71906001D01*
X110763197Y-71906001D01*
X110638178Y-71893688D01*
X110477759Y-71845025D01*
X110329925Y-71766006D01*
X110329923Y-71766005D01*
X110200342Y-71659660D01*
X110093997Y-71530079D01*
X110085887Y-71514907D01*
X110014977Y-71382243D01*
X109966314Y-71221824D01*
X109949884Y-71055001D01*
X109966314Y-70888178D01*
X110014977Y-70727759D01*
X110093996Y-70579925D01*
X110093997Y-70579923D01*
X110200342Y-70450342D01*
X110329923Y-70343997D01*
X110357990Y-70328995D01*
X110477759Y-70264977D01*
X110638178Y-70216314D01*
X110763197Y-70204001D01*
X110846805Y-70204001D01*
X110971824Y-70216314D01*
X110971824Y-70216314D01*
G37*
G36*
X126211824Y-70216314D02*
G01*
X126372243Y-70264977D01*
X126492012Y-70328995D01*
X126520079Y-70343997D01*
X126649660Y-70450342D01*
X126756005Y-70579923D01*
X126756006Y-70579925D01*
X126835025Y-70727759D01*
X126883688Y-70888178D01*
X126900118Y-71055001D01*
X126883688Y-71221824D01*
X126835025Y-71382243D01*
X126764115Y-71514907D01*
X126756005Y-71530079D01*
X126649660Y-71659660D01*
X126520079Y-71766005D01*
X126520077Y-71766006D01*
X126372243Y-71845025D01*
X126211824Y-71893688D01*
X126086805Y-71906001D01*
X126003197Y-71906001D01*
X125878178Y-71893688D01*
X125717759Y-71845025D01*
X125569925Y-71766006D01*
X125569923Y-71766005D01*
X125440342Y-71659660D01*
X125333997Y-71530079D01*
X125325887Y-71514907D01*
X125254977Y-71382243D01*
X125206314Y-71221824D01*
X125189884Y-71055001D01*
X125206314Y-70888178D01*
X125254977Y-70727759D01*
X125333996Y-70579925D01*
X125333997Y-70579923D01*
X125440342Y-70450342D01*
X125569923Y-70343997D01*
X125597990Y-70328995D01*
X125717759Y-70264977D01*
X125878178Y-70216314D01*
X126003197Y-70204001D01*
X126086805Y-70204001D01*
X126211824Y-70216314D01*
X126211824Y-70216314D01*
G37*
G36*
X107316823Y-70201313D02*
G01*
X107477242Y-70249976D01*
X107609906Y-70320886D01*
X107625078Y-70328996D01*
X107754659Y-70435341D01*
X107861004Y-70564922D01*
X107861005Y-70564924D01*
X107940024Y-70712758D01*
X107988687Y-70873177D01*
X108005117Y-71040000D01*
X107988687Y-71206823D01*
X107940024Y-71367242D01*
X107869114Y-71499906D01*
X107861004Y-71515078D01*
X107754659Y-71644659D01*
X107625078Y-71751004D01*
X107625076Y-71751005D01*
X107477242Y-71830024D01*
X107316823Y-71878687D01*
X107191804Y-71891000D01*
X107108196Y-71891000D01*
X106983177Y-71878687D01*
X106822758Y-71830024D01*
X106674924Y-71751005D01*
X106674922Y-71751004D01*
X106545341Y-71644659D01*
X106438996Y-71515078D01*
X106430886Y-71499906D01*
X106359976Y-71367242D01*
X106311313Y-71206823D01*
X106294883Y-71040000D01*
X106311313Y-70873177D01*
X106359976Y-70712758D01*
X106438995Y-70564924D01*
X106438996Y-70564922D01*
X106545341Y-70435341D01*
X106674922Y-70328996D01*
X106690094Y-70320886D01*
X106822758Y-70249976D01*
X106983177Y-70201313D01*
X107108196Y-70189000D01*
X107191804Y-70189000D01*
X107316823Y-70201313D01*
X107316823Y-70201313D01*
G37*
G36*
X122556823Y-70201313D02*
G01*
X122717242Y-70249976D01*
X122849906Y-70320886D01*
X122865078Y-70328996D01*
X122994659Y-70435341D01*
X123101004Y-70564922D01*
X123101005Y-70564924D01*
X123180024Y-70712758D01*
X123228687Y-70873177D01*
X123245117Y-71040000D01*
X123228687Y-71206823D01*
X123180024Y-71367242D01*
X123109114Y-71499906D01*
X123101004Y-71515078D01*
X122994659Y-71644659D01*
X122865078Y-71751004D01*
X122865076Y-71751005D01*
X122717242Y-71830024D01*
X122556823Y-71878687D01*
X122431804Y-71891000D01*
X122348196Y-71891000D01*
X122223177Y-71878687D01*
X122062758Y-71830024D01*
X121914924Y-71751005D01*
X121914922Y-71751004D01*
X121785341Y-71644659D01*
X121678996Y-71515078D01*
X121670886Y-71499906D01*
X121599976Y-71367242D01*
X121551313Y-71206823D01*
X121534883Y-71040000D01*
X121551313Y-70873177D01*
X121599976Y-70712758D01*
X121678995Y-70564924D01*
X121678996Y-70564922D01*
X121785341Y-70435341D01*
X121914922Y-70328996D01*
X121930094Y-70320886D01*
X122062758Y-70249976D01*
X122223177Y-70201313D01*
X122348196Y-70189000D01*
X122431804Y-70189000D01*
X122556823Y-70201313D01*
X122556823Y-70201313D01*
G37*
G36*
X110971824Y-67676314D02*
G01*
X111132243Y-67724977D01*
X111252012Y-67788995D01*
X111280079Y-67803997D01*
X111409660Y-67910342D01*
X111516005Y-68039923D01*
X111516006Y-68039925D01*
X111595025Y-68187759D01*
X111643688Y-68348178D01*
X111660118Y-68515001D01*
X111643688Y-68681824D01*
X111595025Y-68842243D01*
X111524115Y-68974907D01*
X111516005Y-68990079D01*
X111409660Y-69119660D01*
X111280079Y-69226005D01*
X111280077Y-69226006D01*
X111132243Y-69305025D01*
X110971824Y-69353688D01*
X110846805Y-69366001D01*
X110763197Y-69366001D01*
X110638178Y-69353688D01*
X110477759Y-69305025D01*
X110329925Y-69226006D01*
X110329923Y-69226005D01*
X110200342Y-69119660D01*
X110093997Y-68990079D01*
X110085887Y-68974907D01*
X110014977Y-68842243D01*
X109966314Y-68681824D01*
X109949884Y-68515001D01*
X109966314Y-68348178D01*
X110014977Y-68187759D01*
X110093996Y-68039925D01*
X110093997Y-68039923D01*
X110200342Y-67910342D01*
X110329923Y-67803997D01*
X110357990Y-67788995D01*
X110477759Y-67724977D01*
X110638178Y-67676314D01*
X110763197Y-67664001D01*
X110846805Y-67664001D01*
X110971824Y-67676314D01*
X110971824Y-67676314D01*
G37*
G36*
X126211824Y-67676314D02*
G01*
X126372243Y-67724977D01*
X126492012Y-67788995D01*
X126520079Y-67803997D01*
X126649660Y-67910342D01*
X126756005Y-68039923D01*
X126756006Y-68039925D01*
X126835025Y-68187759D01*
X126883688Y-68348178D01*
X126900118Y-68515001D01*
X126883688Y-68681824D01*
X126835025Y-68842243D01*
X126764115Y-68974907D01*
X126756005Y-68990079D01*
X126649660Y-69119660D01*
X126520079Y-69226005D01*
X126520077Y-69226006D01*
X126372243Y-69305025D01*
X126211824Y-69353688D01*
X126086805Y-69366001D01*
X126003197Y-69366001D01*
X125878178Y-69353688D01*
X125717759Y-69305025D01*
X125569925Y-69226006D01*
X125569923Y-69226005D01*
X125440342Y-69119660D01*
X125333997Y-68990079D01*
X125325887Y-68974907D01*
X125254977Y-68842243D01*
X125206314Y-68681824D01*
X125189884Y-68515001D01*
X125206314Y-68348178D01*
X125254977Y-68187759D01*
X125333996Y-68039925D01*
X125333997Y-68039923D01*
X125440342Y-67910342D01*
X125569923Y-67803997D01*
X125597990Y-67788995D01*
X125717759Y-67724977D01*
X125878178Y-67676314D01*
X126003197Y-67664001D01*
X126086805Y-67664001D01*
X126211824Y-67676314D01*
X126211824Y-67676314D01*
G37*
G36*
X122556823Y-67661313D02*
G01*
X122717242Y-67709976D01*
X122849906Y-67780886D01*
X122865078Y-67788996D01*
X122994659Y-67895341D01*
X123101004Y-68024922D01*
X123101005Y-68024924D01*
X123180024Y-68172758D01*
X123228687Y-68333177D01*
X123245117Y-68500000D01*
X123228687Y-68666823D01*
X123180024Y-68827242D01*
X123109114Y-68959906D01*
X123101004Y-68975078D01*
X122994659Y-69104659D01*
X122865078Y-69211004D01*
X122865076Y-69211005D01*
X122717242Y-69290024D01*
X122556823Y-69338687D01*
X122431804Y-69351000D01*
X122348196Y-69351000D01*
X122223177Y-69338687D01*
X122062758Y-69290024D01*
X121914924Y-69211005D01*
X121914922Y-69211004D01*
X121785341Y-69104659D01*
X121678996Y-68975078D01*
X121670886Y-68959906D01*
X121599976Y-68827242D01*
X121551313Y-68666823D01*
X121534883Y-68500000D01*
X121551313Y-68333177D01*
X121599976Y-68172758D01*
X121678995Y-68024924D01*
X121678996Y-68024922D01*
X121785341Y-67895341D01*
X121914922Y-67788996D01*
X121930094Y-67780886D01*
X122062758Y-67709976D01*
X122223177Y-67661313D01*
X122348196Y-67649000D01*
X122431804Y-67649000D01*
X122556823Y-67661313D01*
X122556823Y-67661313D01*
G37*
G36*
X107316823Y-67661313D02*
G01*
X107477242Y-67709976D01*
X107609906Y-67780886D01*
X107625078Y-67788996D01*
X107754659Y-67895341D01*
X107861004Y-68024922D01*
X107861005Y-68024924D01*
X107940024Y-68172758D01*
X107988687Y-68333177D01*
X108005117Y-68500000D01*
X107988687Y-68666823D01*
X107940024Y-68827242D01*
X107869114Y-68959906D01*
X107861004Y-68975078D01*
X107754659Y-69104659D01*
X107625078Y-69211004D01*
X107625076Y-69211005D01*
X107477242Y-69290024D01*
X107316823Y-69338687D01*
X107191804Y-69351000D01*
X107108196Y-69351000D01*
X106983177Y-69338687D01*
X106822758Y-69290024D01*
X106674924Y-69211005D01*
X106674922Y-69211004D01*
X106545341Y-69104659D01*
X106438996Y-68975078D01*
X106430886Y-68959906D01*
X106359976Y-68827242D01*
X106311313Y-68666823D01*
X106294883Y-68500000D01*
X106311313Y-68333177D01*
X106359976Y-68172758D01*
X106438995Y-68024924D01*
X106438996Y-68024922D01*
X106545341Y-67895341D01*
X106674922Y-67788996D01*
X106690094Y-67780886D01*
X106822758Y-67709976D01*
X106983177Y-67661313D01*
X107108196Y-67649000D01*
X107191804Y-67649000D01*
X107316823Y-67661313D01*
X107316823Y-67661313D01*
G37*
G36*
X126211824Y-65136314D02*
G01*
X126372243Y-65184977D01*
X126492012Y-65248995D01*
X126520079Y-65263997D01*
X126649660Y-65370342D01*
X126756005Y-65499923D01*
X126756006Y-65499925D01*
X126835025Y-65647759D01*
X126883688Y-65808178D01*
X126900118Y-65975001D01*
X126883688Y-66141824D01*
X126835025Y-66302243D01*
X126764115Y-66434907D01*
X126756005Y-66450079D01*
X126649660Y-66579660D01*
X126520079Y-66686005D01*
X126520077Y-66686006D01*
X126372243Y-66765025D01*
X126211824Y-66813688D01*
X126086805Y-66826001D01*
X126003197Y-66826001D01*
X125878178Y-66813688D01*
X125717759Y-66765025D01*
X125569925Y-66686006D01*
X125569923Y-66686005D01*
X125440342Y-66579660D01*
X125333997Y-66450079D01*
X125325887Y-66434907D01*
X125254977Y-66302243D01*
X125206314Y-66141824D01*
X125189884Y-65975001D01*
X125206314Y-65808178D01*
X125254977Y-65647759D01*
X125333996Y-65499925D01*
X125333997Y-65499923D01*
X125440342Y-65370342D01*
X125569923Y-65263997D01*
X125597990Y-65248995D01*
X125717759Y-65184977D01*
X125878178Y-65136314D01*
X126003197Y-65124001D01*
X126086805Y-65124001D01*
X126211824Y-65136314D01*
X126211824Y-65136314D01*
G37*
G36*
X110971824Y-65136314D02*
G01*
X111132243Y-65184977D01*
X111252012Y-65248995D01*
X111280079Y-65263997D01*
X111409660Y-65370342D01*
X111516005Y-65499923D01*
X111516006Y-65499925D01*
X111595025Y-65647759D01*
X111643688Y-65808178D01*
X111660118Y-65975001D01*
X111643688Y-66141824D01*
X111595025Y-66302243D01*
X111524115Y-66434907D01*
X111516005Y-66450079D01*
X111409660Y-66579660D01*
X111280079Y-66686005D01*
X111280077Y-66686006D01*
X111132243Y-66765025D01*
X110971824Y-66813688D01*
X110846805Y-66826001D01*
X110763197Y-66826001D01*
X110638178Y-66813688D01*
X110477759Y-66765025D01*
X110329925Y-66686006D01*
X110329923Y-66686005D01*
X110200342Y-66579660D01*
X110093997Y-66450079D01*
X110085887Y-66434907D01*
X110014977Y-66302243D01*
X109966314Y-66141824D01*
X109949884Y-65975001D01*
X109966314Y-65808178D01*
X110014977Y-65647759D01*
X110093996Y-65499925D01*
X110093997Y-65499923D01*
X110200342Y-65370342D01*
X110329923Y-65263997D01*
X110357990Y-65248995D01*
X110477759Y-65184977D01*
X110638178Y-65136314D01*
X110763197Y-65124001D01*
X110846805Y-65124001D01*
X110971824Y-65136314D01*
X110971824Y-65136314D01*
G37*
G36*
X107316823Y-65121313D02*
G01*
X107477242Y-65169976D01*
X107609906Y-65240886D01*
X107625078Y-65248996D01*
X107754659Y-65355341D01*
X107861004Y-65484922D01*
X107861005Y-65484924D01*
X107940024Y-65632758D01*
X107988687Y-65793177D01*
X108005117Y-65960000D01*
X107988687Y-66126823D01*
X107940024Y-66287242D01*
X107869114Y-66419906D01*
X107861004Y-66435078D01*
X107754659Y-66564659D01*
X107625078Y-66671004D01*
X107625076Y-66671005D01*
X107477242Y-66750024D01*
X107316823Y-66798687D01*
X107191804Y-66811000D01*
X107108196Y-66811000D01*
X106983177Y-66798687D01*
X106822758Y-66750024D01*
X106674924Y-66671005D01*
X106674922Y-66671004D01*
X106545341Y-66564659D01*
X106438996Y-66435078D01*
X106430886Y-66419906D01*
X106359976Y-66287242D01*
X106311313Y-66126823D01*
X106294883Y-65960000D01*
X106311313Y-65793177D01*
X106359976Y-65632758D01*
X106438995Y-65484924D01*
X106438996Y-65484922D01*
X106545341Y-65355341D01*
X106674922Y-65248996D01*
X106690094Y-65240886D01*
X106822758Y-65169976D01*
X106983177Y-65121313D01*
X107108196Y-65109000D01*
X107191804Y-65109000D01*
X107316823Y-65121313D01*
X107316823Y-65121313D01*
G37*
G36*
X122556823Y-65121313D02*
G01*
X122717242Y-65169976D01*
X122849906Y-65240886D01*
X122865078Y-65248996D01*
X122994659Y-65355341D01*
X123101004Y-65484922D01*
X123101005Y-65484924D01*
X123180024Y-65632758D01*
X123228687Y-65793177D01*
X123245117Y-65960000D01*
X123228687Y-66126823D01*
X123180024Y-66287242D01*
X123109114Y-66419906D01*
X123101004Y-66435078D01*
X122994659Y-66564659D01*
X122865078Y-66671004D01*
X122865076Y-66671005D01*
X122717242Y-66750024D01*
X122556823Y-66798687D01*
X122431804Y-66811000D01*
X122348196Y-66811000D01*
X122223177Y-66798687D01*
X122062758Y-66750024D01*
X121914924Y-66671005D01*
X121914922Y-66671004D01*
X121785341Y-66564659D01*
X121678996Y-66435078D01*
X121670886Y-66419906D01*
X121599976Y-66287242D01*
X121551313Y-66126823D01*
X121534883Y-65960000D01*
X121551313Y-65793177D01*
X121599976Y-65632758D01*
X121678995Y-65484924D01*
X121678996Y-65484922D01*
X121785341Y-65355341D01*
X121914922Y-65248996D01*
X121930094Y-65240886D01*
X122062758Y-65169976D01*
X122223177Y-65121313D01*
X122348196Y-65109000D01*
X122431804Y-65109000D01*
X122556823Y-65121313D01*
X122556823Y-65121313D01*
G37*
G36*
X110971824Y-62596314D02*
G01*
X111132243Y-62644977D01*
X111252012Y-62708995D01*
X111280079Y-62723997D01*
X111409660Y-62830342D01*
X111516005Y-62959923D01*
X111516006Y-62959925D01*
X111595025Y-63107759D01*
X111643688Y-63268178D01*
X111660118Y-63435001D01*
X111643688Y-63601824D01*
X111595025Y-63762243D01*
X111524115Y-63894907D01*
X111516005Y-63910079D01*
X111409660Y-64039660D01*
X111280079Y-64146005D01*
X111280077Y-64146006D01*
X111132243Y-64225025D01*
X110971824Y-64273688D01*
X110846805Y-64286001D01*
X110763197Y-64286001D01*
X110638178Y-64273688D01*
X110477759Y-64225025D01*
X110329925Y-64146006D01*
X110329923Y-64146005D01*
X110200342Y-64039660D01*
X110093997Y-63910079D01*
X110085887Y-63894907D01*
X110014977Y-63762243D01*
X109966314Y-63601824D01*
X109949884Y-63435001D01*
X109966314Y-63268178D01*
X110014977Y-63107759D01*
X110093996Y-62959925D01*
X110093997Y-62959923D01*
X110200342Y-62830342D01*
X110329923Y-62723997D01*
X110357990Y-62708995D01*
X110477759Y-62644977D01*
X110638178Y-62596314D01*
X110763197Y-62584001D01*
X110846805Y-62584001D01*
X110971824Y-62596314D01*
X110971824Y-62596314D01*
G37*
G36*
X126211824Y-62596314D02*
G01*
X126372243Y-62644977D01*
X126492012Y-62708995D01*
X126520079Y-62723997D01*
X126649660Y-62830342D01*
X126756005Y-62959923D01*
X126756006Y-62959925D01*
X126835025Y-63107759D01*
X126883688Y-63268178D01*
X126900118Y-63435001D01*
X126883688Y-63601824D01*
X126835025Y-63762243D01*
X126764115Y-63894907D01*
X126756005Y-63910079D01*
X126649660Y-64039660D01*
X126520079Y-64146005D01*
X126520077Y-64146006D01*
X126372243Y-64225025D01*
X126211824Y-64273688D01*
X126086805Y-64286001D01*
X126003197Y-64286001D01*
X125878178Y-64273688D01*
X125717759Y-64225025D01*
X125569925Y-64146006D01*
X125569923Y-64146005D01*
X125440342Y-64039660D01*
X125333997Y-63910079D01*
X125325887Y-63894907D01*
X125254977Y-63762243D01*
X125206314Y-63601824D01*
X125189884Y-63435001D01*
X125206314Y-63268178D01*
X125254977Y-63107759D01*
X125333996Y-62959925D01*
X125333997Y-62959923D01*
X125440342Y-62830342D01*
X125569923Y-62723997D01*
X125597990Y-62708995D01*
X125717759Y-62644977D01*
X125878178Y-62596314D01*
X126003197Y-62584001D01*
X126086805Y-62584001D01*
X126211824Y-62596314D01*
X126211824Y-62596314D01*
G37*
G36*
X122556823Y-62581313D02*
G01*
X122717242Y-62629976D01*
X122849906Y-62700886D01*
X122865078Y-62708996D01*
X122994659Y-62815341D01*
X123101004Y-62944922D01*
X123101005Y-62944924D01*
X123180024Y-63092758D01*
X123228687Y-63253177D01*
X123245117Y-63420000D01*
X123228687Y-63586823D01*
X123180024Y-63747242D01*
X123109114Y-63879906D01*
X123101004Y-63895078D01*
X122994659Y-64024659D01*
X122865078Y-64131004D01*
X122865076Y-64131005D01*
X122717242Y-64210024D01*
X122556823Y-64258687D01*
X122431804Y-64271000D01*
X122348196Y-64271000D01*
X122223177Y-64258687D01*
X122062758Y-64210024D01*
X121914924Y-64131005D01*
X121914922Y-64131004D01*
X121785341Y-64024659D01*
X121678996Y-63895078D01*
X121670886Y-63879906D01*
X121599976Y-63747242D01*
X121551313Y-63586823D01*
X121534883Y-63420000D01*
X121551313Y-63253177D01*
X121599976Y-63092758D01*
X121678995Y-62944924D01*
X121678996Y-62944922D01*
X121785341Y-62815341D01*
X121914922Y-62708996D01*
X121930094Y-62700886D01*
X122062758Y-62629976D01*
X122223177Y-62581313D01*
X122348196Y-62569000D01*
X122431804Y-62569000D01*
X122556823Y-62581313D01*
X122556823Y-62581313D01*
G37*
G36*
X107316823Y-62581313D02*
G01*
X107477242Y-62629976D01*
X107609906Y-62700886D01*
X107625078Y-62708996D01*
X107754659Y-62815341D01*
X107861004Y-62944922D01*
X107861005Y-62944924D01*
X107940024Y-63092758D01*
X107988687Y-63253177D01*
X108005117Y-63420000D01*
X107988687Y-63586823D01*
X107940024Y-63747242D01*
X107869114Y-63879906D01*
X107861004Y-63895078D01*
X107754659Y-64024659D01*
X107625078Y-64131004D01*
X107625076Y-64131005D01*
X107477242Y-64210024D01*
X107316823Y-64258687D01*
X107191804Y-64271000D01*
X107108196Y-64271000D01*
X106983177Y-64258687D01*
X106822758Y-64210024D01*
X106674924Y-64131005D01*
X106674922Y-64131004D01*
X106545341Y-64024659D01*
X106438996Y-63895078D01*
X106430886Y-63879906D01*
X106359976Y-63747242D01*
X106311313Y-63586823D01*
X106294883Y-63420000D01*
X106311313Y-63253177D01*
X106359976Y-63092758D01*
X106438995Y-62944924D01*
X106438996Y-62944922D01*
X106545341Y-62815341D01*
X106674922Y-62708996D01*
X106690094Y-62700886D01*
X106822758Y-62629976D01*
X106983177Y-62581313D01*
X107108196Y-62569000D01*
X107191804Y-62569000D01*
X107316823Y-62581313D01*
X107316823Y-62581313D01*
G37*
G36*
X126211824Y-60056314D02*
G01*
X126372243Y-60104977D01*
X126492012Y-60168995D01*
X126520079Y-60183997D01*
X126649660Y-60290342D01*
X126756005Y-60419923D01*
X126756006Y-60419925D01*
X126835025Y-60567759D01*
X126883688Y-60728178D01*
X126900118Y-60895001D01*
X126883688Y-61061824D01*
X126835025Y-61222243D01*
X126764115Y-61354907D01*
X126756005Y-61370079D01*
X126649660Y-61499660D01*
X126520079Y-61606005D01*
X126520077Y-61606006D01*
X126372243Y-61685025D01*
X126211824Y-61733688D01*
X126086805Y-61746001D01*
X126003197Y-61746001D01*
X125878178Y-61733688D01*
X125717759Y-61685025D01*
X125569925Y-61606006D01*
X125569923Y-61606005D01*
X125440342Y-61499660D01*
X125333997Y-61370079D01*
X125325887Y-61354907D01*
X125254977Y-61222243D01*
X125206314Y-61061824D01*
X125189884Y-60895001D01*
X125206314Y-60728178D01*
X125254977Y-60567759D01*
X125333996Y-60419925D01*
X125333997Y-60419923D01*
X125440342Y-60290342D01*
X125569923Y-60183997D01*
X125597990Y-60168995D01*
X125717759Y-60104977D01*
X125878178Y-60056314D01*
X126003197Y-60044001D01*
X126086805Y-60044001D01*
X126211824Y-60056314D01*
X126211824Y-60056314D01*
G37*
G36*
X110971824Y-60056314D02*
G01*
X111132243Y-60104977D01*
X111252012Y-60168995D01*
X111280079Y-60183997D01*
X111409660Y-60290342D01*
X111516005Y-60419923D01*
X111516006Y-60419925D01*
X111595025Y-60567759D01*
X111643688Y-60728178D01*
X111660118Y-60895001D01*
X111643688Y-61061824D01*
X111595025Y-61222243D01*
X111524115Y-61354907D01*
X111516005Y-61370079D01*
X111409660Y-61499660D01*
X111280079Y-61606005D01*
X111280077Y-61606006D01*
X111132243Y-61685025D01*
X110971824Y-61733688D01*
X110846805Y-61746001D01*
X110763197Y-61746001D01*
X110638178Y-61733688D01*
X110477759Y-61685025D01*
X110329925Y-61606006D01*
X110329923Y-61606005D01*
X110200342Y-61499660D01*
X110093997Y-61370079D01*
X110085887Y-61354907D01*
X110014977Y-61222243D01*
X109966314Y-61061824D01*
X109949884Y-60895001D01*
X109966314Y-60728178D01*
X110014977Y-60567759D01*
X110093996Y-60419925D01*
X110093997Y-60419923D01*
X110200342Y-60290342D01*
X110329923Y-60183997D01*
X110357990Y-60168995D01*
X110477759Y-60104977D01*
X110638178Y-60056314D01*
X110763197Y-60044001D01*
X110846805Y-60044001D01*
X110971824Y-60056314D01*
X110971824Y-60056314D01*
G37*
G36*
X122556823Y-60041313D02*
G01*
X122717242Y-60089976D01*
X122849906Y-60160886D01*
X122865078Y-60168996D01*
X122994659Y-60275341D01*
X123101004Y-60404922D01*
X123101005Y-60404924D01*
X123180024Y-60552758D01*
X123228687Y-60713177D01*
X123245117Y-60880000D01*
X123228687Y-61046823D01*
X123180024Y-61207242D01*
X123109114Y-61339906D01*
X123101004Y-61355078D01*
X122994659Y-61484659D01*
X122865078Y-61591004D01*
X122865076Y-61591005D01*
X122717242Y-61670024D01*
X122556823Y-61718687D01*
X122431804Y-61731000D01*
X122348196Y-61731000D01*
X122223177Y-61718687D01*
X122062758Y-61670024D01*
X121914924Y-61591005D01*
X121914922Y-61591004D01*
X121785341Y-61484659D01*
X121678996Y-61355078D01*
X121670886Y-61339906D01*
X121599976Y-61207242D01*
X121551313Y-61046823D01*
X121534883Y-60880000D01*
X121551313Y-60713177D01*
X121599976Y-60552758D01*
X121678995Y-60404924D01*
X121678996Y-60404922D01*
X121785341Y-60275341D01*
X121914922Y-60168996D01*
X121930094Y-60160886D01*
X122062758Y-60089976D01*
X122223177Y-60041313D01*
X122348196Y-60029000D01*
X122431804Y-60029000D01*
X122556823Y-60041313D01*
X122556823Y-60041313D01*
G37*
G36*
X107316823Y-60041313D02*
G01*
X107477242Y-60089976D01*
X107609906Y-60160886D01*
X107625078Y-60168996D01*
X107754659Y-60275341D01*
X107861004Y-60404922D01*
X107861005Y-60404924D01*
X107940024Y-60552758D01*
X107988687Y-60713177D01*
X108005117Y-60880000D01*
X107988687Y-61046823D01*
X107940024Y-61207242D01*
X107869114Y-61339906D01*
X107861004Y-61355078D01*
X107754659Y-61484659D01*
X107625078Y-61591004D01*
X107625076Y-61591005D01*
X107477242Y-61670024D01*
X107316823Y-61718687D01*
X107191804Y-61731000D01*
X107108196Y-61731000D01*
X106983177Y-61718687D01*
X106822758Y-61670024D01*
X106674924Y-61591005D01*
X106674922Y-61591004D01*
X106545341Y-61484659D01*
X106438996Y-61355078D01*
X106430886Y-61339906D01*
X106359976Y-61207242D01*
X106311313Y-61046823D01*
X106294883Y-60880000D01*
X106311313Y-60713177D01*
X106359976Y-60552758D01*
X106438995Y-60404924D01*
X106438996Y-60404922D01*
X106545341Y-60275341D01*
X106674922Y-60168996D01*
X106690094Y-60160886D01*
X106822758Y-60089976D01*
X106983177Y-60041313D01*
X107108196Y-60029000D01*
X107191804Y-60029000D01*
X107316823Y-60041313D01*
X107316823Y-60041313D01*
G37*
G36*
X126211824Y-57516314D02*
G01*
X126372243Y-57564977D01*
X126492012Y-57628995D01*
X126520079Y-57643997D01*
X126649660Y-57750342D01*
X126756005Y-57879923D01*
X126756006Y-57879925D01*
X126835025Y-58027759D01*
X126883688Y-58188178D01*
X126900118Y-58355001D01*
X126883688Y-58521824D01*
X126835025Y-58682243D01*
X126764115Y-58814907D01*
X126756005Y-58830079D01*
X126649660Y-58959660D01*
X126520079Y-59066005D01*
X126520077Y-59066006D01*
X126372243Y-59145025D01*
X126211824Y-59193688D01*
X126086805Y-59206001D01*
X126003197Y-59206001D01*
X125878178Y-59193688D01*
X125717759Y-59145025D01*
X125569925Y-59066006D01*
X125569923Y-59066005D01*
X125440342Y-58959660D01*
X125333997Y-58830079D01*
X125325887Y-58814907D01*
X125254977Y-58682243D01*
X125206314Y-58521824D01*
X125189884Y-58355001D01*
X125206314Y-58188178D01*
X125254977Y-58027759D01*
X125333996Y-57879925D01*
X125333997Y-57879923D01*
X125440342Y-57750342D01*
X125569923Y-57643997D01*
X125597990Y-57628995D01*
X125717759Y-57564977D01*
X125878178Y-57516314D01*
X126003197Y-57504001D01*
X126086805Y-57504001D01*
X126211824Y-57516314D01*
X126211824Y-57516314D01*
G37*
G36*
X110971824Y-57516314D02*
G01*
X111132243Y-57564977D01*
X111252012Y-57628995D01*
X111280079Y-57643997D01*
X111409660Y-57750342D01*
X111516005Y-57879923D01*
X111516006Y-57879925D01*
X111595025Y-58027759D01*
X111643688Y-58188178D01*
X111660118Y-58355001D01*
X111643688Y-58521824D01*
X111595025Y-58682243D01*
X111524115Y-58814907D01*
X111516005Y-58830079D01*
X111409660Y-58959660D01*
X111280079Y-59066005D01*
X111280077Y-59066006D01*
X111132243Y-59145025D01*
X110971824Y-59193688D01*
X110846805Y-59206001D01*
X110763197Y-59206001D01*
X110638178Y-59193688D01*
X110477759Y-59145025D01*
X110329925Y-59066006D01*
X110329923Y-59066005D01*
X110200342Y-58959660D01*
X110093997Y-58830079D01*
X110085887Y-58814907D01*
X110014977Y-58682243D01*
X109966314Y-58521824D01*
X109949884Y-58355001D01*
X109966314Y-58188178D01*
X110014977Y-58027759D01*
X110093996Y-57879925D01*
X110093997Y-57879923D01*
X110200342Y-57750342D01*
X110329923Y-57643997D01*
X110357990Y-57628995D01*
X110477759Y-57564977D01*
X110638178Y-57516314D01*
X110763197Y-57504001D01*
X110846805Y-57504001D01*
X110971824Y-57516314D01*
X110971824Y-57516314D01*
G37*
G36*
X107316823Y-57501313D02*
G01*
X107477242Y-57549976D01*
X107609906Y-57620886D01*
X107625078Y-57628996D01*
X107754659Y-57735341D01*
X107861004Y-57864922D01*
X107861005Y-57864924D01*
X107940024Y-58012758D01*
X107988687Y-58173177D01*
X108005117Y-58340000D01*
X107988687Y-58506823D01*
X107940024Y-58667242D01*
X107869114Y-58799906D01*
X107861004Y-58815078D01*
X107754659Y-58944659D01*
X107625078Y-59051004D01*
X107625076Y-59051005D01*
X107477242Y-59130024D01*
X107316823Y-59178687D01*
X107191804Y-59191000D01*
X107108196Y-59191000D01*
X106983177Y-59178687D01*
X106822758Y-59130024D01*
X106674924Y-59051005D01*
X106674922Y-59051004D01*
X106545341Y-58944659D01*
X106438996Y-58815078D01*
X106430886Y-58799906D01*
X106359976Y-58667242D01*
X106311313Y-58506823D01*
X106294883Y-58340000D01*
X106311313Y-58173177D01*
X106359976Y-58012758D01*
X106438995Y-57864924D01*
X106438996Y-57864922D01*
X106545341Y-57735341D01*
X106674922Y-57628996D01*
X106690094Y-57620886D01*
X106822758Y-57549976D01*
X106983177Y-57501313D01*
X107108196Y-57489000D01*
X107191804Y-57489000D01*
X107316823Y-57501313D01*
X107316823Y-57501313D01*
G37*
G36*
X122556823Y-57501313D02*
G01*
X122717242Y-57549976D01*
X122849906Y-57620886D01*
X122865078Y-57628996D01*
X122994659Y-57735341D01*
X123101004Y-57864922D01*
X123101005Y-57864924D01*
X123180024Y-58012758D01*
X123228687Y-58173177D01*
X123245117Y-58340000D01*
X123228687Y-58506823D01*
X123180024Y-58667242D01*
X123109114Y-58799906D01*
X123101004Y-58815078D01*
X122994659Y-58944659D01*
X122865078Y-59051004D01*
X122865076Y-59051005D01*
X122717242Y-59130024D01*
X122556823Y-59178687D01*
X122431804Y-59191000D01*
X122348196Y-59191000D01*
X122223177Y-59178687D01*
X122062758Y-59130024D01*
X121914924Y-59051005D01*
X121914922Y-59051004D01*
X121785341Y-58944659D01*
X121678996Y-58815078D01*
X121670886Y-58799906D01*
X121599976Y-58667242D01*
X121551313Y-58506823D01*
X121534883Y-58340000D01*
X121551313Y-58173177D01*
X121599976Y-58012758D01*
X121678995Y-57864924D01*
X121678996Y-57864922D01*
X121785341Y-57735341D01*
X121914922Y-57628996D01*
X121930094Y-57620886D01*
X122062758Y-57549976D01*
X122223177Y-57501313D01*
X122348196Y-57489000D01*
X122431804Y-57489000D01*
X122556823Y-57501313D01*
X122556823Y-57501313D01*
G37*
G36*
X126211824Y-54976314D02*
G01*
X126372243Y-55024977D01*
X126492012Y-55088995D01*
X126520079Y-55103997D01*
X126649660Y-55210342D01*
X126756005Y-55339923D01*
X126756006Y-55339925D01*
X126835025Y-55487759D01*
X126883688Y-55648178D01*
X126900118Y-55815001D01*
X126883688Y-55981824D01*
X126835025Y-56142243D01*
X126764115Y-56274907D01*
X126756005Y-56290079D01*
X126649660Y-56419660D01*
X126520079Y-56526005D01*
X126520077Y-56526006D01*
X126372243Y-56605025D01*
X126211824Y-56653688D01*
X126086805Y-56666001D01*
X126003197Y-56666001D01*
X125878178Y-56653688D01*
X125717759Y-56605025D01*
X125569925Y-56526006D01*
X125569923Y-56526005D01*
X125440342Y-56419660D01*
X125333997Y-56290079D01*
X125325887Y-56274907D01*
X125254977Y-56142243D01*
X125206314Y-55981824D01*
X125189884Y-55815001D01*
X125206314Y-55648178D01*
X125254977Y-55487759D01*
X125333996Y-55339925D01*
X125333997Y-55339923D01*
X125440342Y-55210342D01*
X125569923Y-55103997D01*
X125597990Y-55088995D01*
X125717759Y-55024977D01*
X125878178Y-54976314D01*
X126003197Y-54964001D01*
X126086805Y-54964001D01*
X126211824Y-54976314D01*
X126211824Y-54976314D01*
G37*
G36*
X110971824Y-54976314D02*
G01*
X111132243Y-55024977D01*
X111252012Y-55088995D01*
X111280079Y-55103997D01*
X111409660Y-55210342D01*
X111516005Y-55339923D01*
X111516006Y-55339925D01*
X111595025Y-55487759D01*
X111643688Y-55648178D01*
X111660118Y-55815001D01*
X111643688Y-55981824D01*
X111595025Y-56142243D01*
X111524115Y-56274907D01*
X111516005Y-56290079D01*
X111409660Y-56419660D01*
X111280079Y-56526005D01*
X111280077Y-56526006D01*
X111132243Y-56605025D01*
X110971824Y-56653688D01*
X110846805Y-56666001D01*
X110763197Y-56666001D01*
X110638178Y-56653688D01*
X110477759Y-56605025D01*
X110329925Y-56526006D01*
X110329923Y-56526005D01*
X110200342Y-56419660D01*
X110093997Y-56290079D01*
X110085887Y-56274907D01*
X110014977Y-56142243D01*
X109966314Y-55981824D01*
X109949884Y-55815001D01*
X109966314Y-55648178D01*
X110014977Y-55487759D01*
X110093996Y-55339925D01*
X110093997Y-55339923D01*
X110200342Y-55210342D01*
X110329923Y-55103997D01*
X110357990Y-55088995D01*
X110477759Y-55024977D01*
X110638178Y-54976314D01*
X110763197Y-54964001D01*
X110846805Y-54964001D01*
X110971824Y-54976314D01*
X110971824Y-54976314D01*
G37*
G36*
X122556823Y-54961313D02*
G01*
X122717242Y-55009976D01*
X122849906Y-55080886D01*
X122865078Y-55088996D01*
X122994659Y-55195341D01*
X123101004Y-55324922D01*
X123101005Y-55324924D01*
X123180024Y-55472758D01*
X123228687Y-55633177D01*
X123245117Y-55800000D01*
X123228687Y-55966823D01*
X123180024Y-56127242D01*
X123109114Y-56259906D01*
X123101004Y-56275078D01*
X122994659Y-56404659D01*
X122865078Y-56511004D01*
X122865076Y-56511005D01*
X122717242Y-56590024D01*
X122556823Y-56638687D01*
X122431804Y-56651000D01*
X122348196Y-56651000D01*
X122223177Y-56638687D01*
X122062758Y-56590024D01*
X121914924Y-56511005D01*
X121914922Y-56511004D01*
X121785341Y-56404659D01*
X121678996Y-56275078D01*
X121670886Y-56259906D01*
X121599976Y-56127242D01*
X121551313Y-55966823D01*
X121534883Y-55800000D01*
X121551313Y-55633177D01*
X121599976Y-55472758D01*
X121678995Y-55324924D01*
X121678996Y-55324922D01*
X121785341Y-55195341D01*
X121914922Y-55088996D01*
X121930094Y-55080886D01*
X122062758Y-55009976D01*
X122223177Y-54961313D01*
X122348196Y-54949000D01*
X122431804Y-54949000D01*
X122556823Y-54961313D01*
X122556823Y-54961313D01*
G37*
G36*
X108001000Y-56651000D02*
G01*
X106299000Y-56651000D01*
X106299000Y-54949000D01*
X108001000Y-54949000D01*
X108001000Y-56651000D01*
X108001000Y-56651000D01*
G37*
G36*
X126211824Y-52436314D02*
G01*
X126372243Y-52484977D01*
X126504907Y-52555887D01*
X126520079Y-52563997D01*
X126649660Y-52670342D01*
X126756005Y-52799923D01*
X126756006Y-52799925D01*
X126835025Y-52947759D01*
X126883688Y-53108178D01*
X126900118Y-53275001D01*
X126883688Y-53441824D01*
X126835025Y-53602243D01*
X126764115Y-53734907D01*
X126756005Y-53750079D01*
X126649660Y-53879660D01*
X126520079Y-53986005D01*
X126520077Y-53986006D01*
X126372243Y-54065025D01*
X126211824Y-54113688D01*
X126086805Y-54126001D01*
X126003197Y-54126001D01*
X125878178Y-54113688D01*
X125717759Y-54065025D01*
X125569925Y-53986006D01*
X125569923Y-53986005D01*
X125440342Y-53879660D01*
X125333997Y-53750079D01*
X125325887Y-53734907D01*
X125254977Y-53602243D01*
X125206314Y-53441824D01*
X125189884Y-53275001D01*
X125206314Y-53108178D01*
X125254977Y-52947759D01*
X125333996Y-52799925D01*
X125333997Y-52799923D01*
X125440342Y-52670342D01*
X125569923Y-52563997D01*
X125585095Y-52555887D01*
X125717759Y-52484977D01*
X125878178Y-52436314D01*
X126003197Y-52424001D01*
X126086805Y-52424001D01*
X126211824Y-52436314D01*
X126211824Y-52436314D01*
G37*
G36*
X110971824Y-52436314D02*
G01*
X111132243Y-52484977D01*
X111264907Y-52555887D01*
X111280079Y-52563997D01*
X111409660Y-52670342D01*
X111516005Y-52799923D01*
X111516006Y-52799925D01*
X111595025Y-52947759D01*
X111643688Y-53108178D01*
X111660118Y-53275001D01*
X111643688Y-53441824D01*
X111595025Y-53602243D01*
X111524115Y-53734907D01*
X111516005Y-53750079D01*
X111409660Y-53879660D01*
X111280079Y-53986005D01*
X111280077Y-53986006D01*
X111132243Y-54065025D01*
X110971824Y-54113688D01*
X110846805Y-54126001D01*
X110763197Y-54126001D01*
X110638178Y-54113688D01*
X110477759Y-54065025D01*
X110329925Y-53986006D01*
X110329923Y-53986005D01*
X110200342Y-53879660D01*
X110093997Y-53750079D01*
X110085887Y-53734907D01*
X110014977Y-53602243D01*
X109966314Y-53441824D01*
X109949884Y-53275001D01*
X109966314Y-53108178D01*
X110014977Y-52947759D01*
X110093996Y-52799925D01*
X110093997Y-52799923D01*
X110200342Y-52670342D01*
X110329923Y-52563997D01*
X110345095Y-52555887D01*
X110477759Y-52484977D01*
X110638178Y-52436314D01*
X110763197Y-52424001D01*
X110846805Y-52424001D01*
X110971824Y-52436314D01*
X110971824Y-52436314D01*
G37*
G36*
X126211824Y-49896314D02*
G01*
X126372243Y-49944977D01*
X126504907Y-50015887D01*
X126520079Y-50023997D01*
X126649660Y-50130342D01*
X126756005Y-50259923D01*
X126756006Y-50259925D01*
X126835025Y-50407759D01*
X126883688Y-50568178D01*
X126900118Y-50735001D01*
X126883688Y-50901824D01*
X126835025Y-51062243D01*
X126764115Y-51194907D01*
X126756005Y-51210079D01*
X126649660Y-51339660D01*
X126520079Y-51446005D01*
X126520077Y-51446006D01*
X126372243Y-51525025D01*
X126211824Y-51573688D01*
X126086805Y-51586001D01*
X126003197Y-51586001D01*
X125878178Y-51573688D01*
X125717759Y-51525025D01*
X125569925Y-51446006D01*
X125569923Y-51446005D01*
X125440342Y-51339660D01*
X125333997Y-51210079D01*
X125325887Y-51194907D01*
X125254977Y-51062243D01*
X125206314Y-50901824D01*
X125189884Y-50735001D01*
X125206314Y-50568178D01*
X125254977Y-50407759D01*
X125333996Y-50259925D01*
X125333997Y-50259923D01*
X125440342Y-50130342D01*
X125569923Y-50023997D01*
X125585095Y-50015887D01*
X125717759Y-49944977D01*
X125878178Y-49896314D01*
X126003197Y-49884001D01*
X126086805Y-49884001D01*
X126211824Y-49896314D01*
X126211824Y-49896314D01*
G37*
G36*
X111656001Y-51586001D02*
G01*
X109954001Y-51586001D01*
X109954001Y-49884001D01*
X111656001Y-49884001D01*
X111656001Y-51586001D01*
X111656001Y-51586001D01*
G37*
M02*
