M48
METRIC,TZ
T1C0.400
T2C0.800
%
G90
G05
T1
X116030Y-50540
X118240Y-50540
X118260Y-63480
X118450Y-83800
X120250Y-69850
X124200Y-65900
X124200Y-69850
X124550Y-51950
T2
X114760Y-55800
X114760Y-58340
X114760Y-60880
X114760Y-63420
X114760Y-65960
X114760Y-68500
X114760Y-71040
X114760Y-73580
X114760Y-76120
X114760Y-78660
X114760Y-81200
X114760Y-83740
X122380Y-55800
X122380Y-58340
X122380Y-60880
X122380Y-63420
X122380Y-65960
X122380Y-68500
X122380Y-71040
X122380Y-73580
X122380Y-76120
X122380Y-78660
X122380Y-81200
X122380Y-83740
X110805Y-50735
X110805Y-53275
X110805Y-55815
X110805Y-58355
X110805Y-60895
X110805Y-63435
X110805Y-65975
X110805Y-68515
X110805Y-71055
X110805Y-73595
X110805Y-76135
X110805Y-78675
X110805Y-81215
X110805Y-83755
X126045Y-50735
X126045Y-53275
X126045Y-55815
X126045Y-58355
X126045Y-60895
X126045Y-63435
X126045Y-65975
X126045Y-68515
X126045Y-71055
X126045Y-73595
X126045Y-76135
X126045Y-78675
X126045Y-81215
X126045Y-83755
T0
M30
