G04 #@! TF.GenerationSoftware,KiCad,Pcbnew,(5.1.4)-1*
G04 #@! TF.CreationDate,2021-03-21T00:40:16-04:00*
G04 #@! TF.ProjectId,27c256_to_82s141,32376332-3536-45f7-946f-5f3832733134,rev?*
G04 #@! TF.SameCoordinates,Original*
G04 #@! TF.FileFunction,Legend,Bot*
G04 #@! TF.FilePolarity,Positive*
%FSLAX46Y46*%
G04 Gerber Fmt 4.6, Leading zero omitted, Abs format (unit mm)*
G04 Created by KiCad (PCBNEW (5.1.4)-1) date 2021-03-21 00:40:16*
%MOMM*%
%LPD*%
G04 APERTURE LIST*
%ADD10C,0.150000*%
%ADD11C,0.120000*%
G04 APERTURE END LIST*
D10*
X122271428Y-49152380D02*
X121604761Y-49152380D01*
X122033333Y-50152380D01*
X120795238Y-49485714D02*
X120795238Y-50152380D01*
X121033333Y-49104761D02*
X121271428Y-49819047D01*
X120652380Y-49819047D01*
X120319047Y-49866666D02*
X119842857Y-49866666D01*
X120414285Y-50152380D02*
X120080952Y-49152380D01*
X119747619Y-50152380D01*
X118938095Y-50152380D02*
X119414285Y-50152380D01*
X119414285Y-49152380D01*
X118652380Y-50104761D02*
X118509523Y-50152380D01*
X118271428Y-50152380D01*
X118176190Y-50104761D01*
X118128571Y-50057142D01*
X118080952Y-49961904D01*
X118080952Y-49866666D01*
X118128571Y-49771428D01*
X118176190Y-49723809D01*
X118271428Y-49676190D01*
X118461904Y-49628571D01*
X118557142Y-49580952D01*
X118604761Y-49533333D01*
X118652380Y-49438095D01*
X118652380Y-49342857D01*
X118604761Y-49247619D01*
X118557142Y-49200000D01*
X118461904Y-49152380D01*
X118223809Y-49152380D01*
X118080952Y-49200000D01*
X117461904Y-49152380D02*
X117366666Y-49152380D01*
X117271428Y-49200000D01*
X117223809Y-49247619D01*
X117176190Y-49342857D01*
X117128571Y-49533333D01*
X117128571Y-49771428D01*
X117176190Y-49961904D01*
X117223809Y-50057142D01*
X117271428Y-50104761D01*
X117366666Y-50152380D01*
X117461904Y-50152380D01*
X117557142Y-50104761D01*
X117604761Y-50057142D01*
X117652380Y-49961904D01*
X117700000Y-49771428D01*
X117700000Y-49533333D01*
X117652380Y-49342857D01*
X117604761Y-49247619D01*
X117557142Y-49200000D01*
X117461904Y-49152380D01*
X116747619Y-49247619D02*
X116700000Y-49200000D01*
X116604761Y-49152380D01*
X116366666Y-49152380D01*
X116271428Y-49200000D01*
X116223809Y-49247619D01*
X116176190Y-49342857D01*
X116176190Y-49438095D01*
X116223809Y-49580952D01*
X116795238Y-50152380D01*
X116176190Y-50152380D01*
D11*
X112660000Y-51180000D02*
X112660000Y-51880000D01*
X113860000Y-51880000D02*
X113860000Y-51180000D01*
D10*
X114765000Y-47675000D02*
X114765000Y-46300000D01*
X123640000Y-47675000D02*
X123640000Y-51825000D01*
X114740000Y-47675000D02*
X114740000Y-51825000D01*
X123640000Y-47675000D02*
X123525000Y-47675000D01*
X123640000Y-51825000D02*
X123525000Y-51825000D01*
X114740000Y-51825000D02*
X114855000Y-51825000D01*
X114740000Y-47675000D02*
X114765000Y-47675000D01*
M02*
