G04 #@! TF.GenerationSoftware,KiCad,Pcbnew,(5.1.4)-1*
G04 #@! TF.CreationDate,2021-05-13T22:14:35-04:00*
G04 #@! TF.ProjectId,27c256_to_82s141,32376332-3536-45f7-946f-5f3832733134,rev?*
G04 #@! TF.SameCoordinates,Original*
G04 #@! TF.FileFunction,Legend,Top*
G04 #@! TF.FilePolarity,Positive*
%FSLAX46Y46*%
G04 Gerber Fmt 4.6, Leading zero omitted, Abs format (unit mm)*
G04 Created by KiCad (PCBNEW (5.1.4)-1) date 2021-05-13 22:14:35*
%MOMM*%
%LPD*%
G04 APERTURE LIST*
%ADD10C,0.200000*%
%ADD11C,0.120000*%
%ADD12C,0.150000*%
G04 APERTURE END LIST*
D10*
X113423809Y-51183333D02*
X113804761Y-51183333D01*
X113347619Y-51411904D02*
X113614285Y-50611904D01*
X113880952Y-51411904D01*
X114033333Y-50611904D02*
X114490476Y-50611904D01*
X114261904Y-51411904D02*
X114261904Y-50611904D01*
X114719047Y-50688095D02*
X114757142Y-50650000D01*
X114833333Y-50611904D01*
X115023809Y-50611904D01*
X115100000Y-50650000D01*
X115138095Y-50688095D01*
X115176190Y-50764285D01*
X115176190Y-50840476D01*
X115138095Y-50954761D01*
X114680952Y-51411904D01*
X115176190Y-51411904D01*
X115442857Y-50611904D02*
X115976190Y-50611904D01*
X115633333Y-51411904D01*
X116738095Y-51335714D02*
X116700000Y-51373809D01*
X116585714Y-51411904D01*
X116509523Y-51411904D01*
X116395238Y-51373809D01*
X116319047Y-51297619D01*
X116280952Y-51221428D01*
X116242857Y-51069047D01*
X116242857Y-50954761D01*
X116280952Y-50802380D01*
X116319047Y-50726190D01*
X116395238Y-50650000D01*
X116509523Y-50611904D01*
X116585714Y-50611904D01*
X116700000Y-50650000D01*
X116738095Y-50688095D01*
X117042857Y-50688095D02*
X117080952Y-50650000D01*
X117157142Y-50611904D01*
X117347619Y-50611904D01*
X117423809Y-50650000D01*
X117461904Y-50688095D01*
X117500000Y-50764285D01*
X117500000Y-50840476D01*
X117461904Y-50954761D01*
X117004761Y-51411904D01*
X117500000Y-51411904D01*
X118223809Y-50611904D02*
X117842857Y-50611904D01*
X117804761Y-50992857D01*
X117842857Y-50954761D01*
X117919047Y-50916666D01*
X118109523Y-50916666D01*
X118185714Y-50954761D01*
X118223809Y-50992857D01*
X118261904Y-51069047D01*
X118261904Y-51259523D01*
X118223809Y-51335714D01*
X118185714Y-51373809D01*
X118109523Y-51411904D01*
X117919047Y-51411904D01*
X117842857Y-51373809D01*
X117804761Y-51335714D01*
X118947619Y-50611904D02*
X118795238Y-50611904D01*
X118719047Y-50650000D01*
X118680952Y-50688095D01*
X118604761Y-50802380D01*
X118566666Y-50954761D01*
X118566666Y-51259523D01*
X118604761Y-51335714D01*
X118642857Y-51373809D01*
X118719047Y-51411904D01*
X118871428Y-51411904D01*
X118947619Y-51373809D01*
X118985714Y-51335714D01*
X119023809Y-51259523D01*
X119023809Y-51069047D01*
X118985714Y-50992857D01*
X118947619Y-50954761D01*
X118871428Y-50916666D01*
X118719047Y-50916666D01*
X118642857Y-50954761D01*
X118604761Y-50992857D01*
X118566666Y-51069047D01*
X119823809Y-51411904D02*
X119557142Y-51030952D01*
X119366666Y-51411904D02*
X119366666Y-50611904D01*
X119671428Y-50611904D01*
X119747619Y-50650000D01*
X119785714Y-50688095D01*
X119823809Y-50764285D01*
X119823809Y-50878571D01*
X119785714Y-50954761D01*
X119747619Y-50992857D01*
X119671428Y-51030952D01*
X119366666Y-51030952D01*
X120166666Y-51107142D02*
X120776190Y-51107142D01*
X121500000Y-50878571D02*
X121500000Y-51411904D01*
X121309523Y-50573809D02*
X121119047Y-51145238D01*
X121614285Y-51145238D01*
X122300000Y-50611904D02*
X121919047Y-50611904D01*
X121880952Y-50992857D01*
X121919047Y-50954761D01*
X121995238Y-50916666D01*
X122185714Y-50916666D01*
X122261904Y-50954761D01*
X122300000Y-50992857D01*
X122338095Y-51069047D01*
X122338095Y-51259523D01*
X122300000Y-51335714D01*
X122261904Y-51373809D01*
X122185714Y-51411904D01*
X121995238Y-51411904D01*
X121919047Y-51373809D01*
X121880952Y-51335714D01*
X122680952Y-51411904D02*
X122680952Y-50611904D01*
X122985714Y-50611904D01*
X123061904Y-50650000D01*
X123100000Y-50688095D01*
X123138095Y-50764285D01*
X123138095Y-50878571D01*
X123100000Y-50954761D01*
X123061904Y-50992857D01*
X122985714Y-51030952D01*
X122680952Y-51030952D01*
X123480952Y-50611904D02*
X123480952Y-51259523D01*
X123519047Y-51335714D01*
X123557142Y-51373809D01*
X123633333Y-51411904D01*
X123785714Y-51411904D01*
X123861904Y-51373809D01*
X123900000Y-51335714D01*
X123938095Y-51259523D01*
X123938095Y-50611904D01*
X118185714Y-52278571D02*
X118490476Y-52278571D01*
X118300000Y-52011904D02*
X118300000Y-52697619D01*
X118338095Y-52773809D01*
X118414285Y-52811904D01*
X118490476Y-52811904D01*
X118871428Y-52811904D02*
X118795238Y-52773809D01*
X118757142Y-52735714D01*
X118719047Y-52659523D01*
X118719047Y-52430952D01*
X118757142Y-52354761D01*
X118795238Y-52316666D01*
X118871428Y-52278571D01*
X118985714Y-52278571D01*
X119061904Y-52316666D01*
X119100000Y-52354761D01*
X119138095Y-52430952D01*
X119138095Y-52659523D01*
X119100000Y-52735714D01*
X119061904Y-52773809D01*
X118985714Y-52811904D01*
X118871428Y-52811904D01*
X116719047Y-53754761D02*
X116642857Y-53716666D01*
X116604761Y-53678571D01*
X116566666Y-53602380D01*
X116566666Y-53564285D01*
X116604761Y-53488095D01*
X116642857Y-53450000D01*
X116719047Y-53411904D01*
X116871428Y-53411904D01*
X116947619Y-53450000D01*
X116985714Y-53488095D01*
X117023809Y-53564285D01*
X117023809Y-53602380D01*
X116985714Y-53678571D01*
X116947619Y-53716666D01*
X116871428Y-53754761D01*
X116719047Y-53754761D01*
X116642857Y-53792857D01*
X116604761Y-53830952D01*
X116566666Y-53907142D01*
X116566666Y-54059523D01*
X116604761Y-54135714D01*
X116642857Y-54173809D01*
X116719047Y-54211904D01*
X116871428Y-54211904D01*
X116947619Y-54173809D01*
X116985714Y-54135714D01*
X117023809Y-54059523D01*
X117023809Y-53907142D01*
X116985714Y-53830952D01*
X116947619Y-53792857D01*
X116871428Y-53754761D01*
X117328571Y-53488095D02*
X117366666Y-53450000D01*
X117442857Y-53411904D01*
X117633333Y-53411904D01*
X117709523Y-53450000D01*
X117747619Y-53488095D01*
X117785714Y-53564285D01*
X117785714Y-53640476D01*
X117747619Y-53754761D01*
X117290476Y-54211904D01*
X117785714Y-54211904D01*
X118090476Y-54173809D02*
X118204761Y-54211904D01*
X118395238Y-54211904D01*
X118471428Y-54173809D01*
X118509523Y-54135714D01*
X118547619Y-54059523D01*
X118547619Y-53983333D01*
X118509523Y-53907142D01*
X118471428Y-53869047D01*
X118395238Y-53830952D01*
X118242857Y-53792857D01*
X118166666Y-53754761D01*
X118128571Y-53716666D01*
X118090476Y-53640476D01*
X118090476Y-53564285D01*
X118128571Y-53488095D01*
X118166666Y-53450000D01*
X118242857Y-53411904D01*
X118433333Y-53411904D01*
X118547619Y-53450000D01*
X119309523Y-54211904D02*
X118852380Y-54211904D01*
X119080952Y-54211904D02*
X119080952Y-53411904D01*
X119004761Y-53526190D01*
X118928571Y-53602380D01*
X118852380Y-53640476D01*
X119995238Y-53678571D02*
X119995238Y-54211904D01*
X119804761Y-53373809D02*
X119614285Y-53945238D01*
X120109523Y-53945238D01*
X120833333Y-54211904D02*
X120376190Y-54211904D01*
X120604761Y-54211904D02*
X120604761Y-53411904D01*
X120528571Y-53526190D01*
X120452380Y-53602380D01*
X120376190Y-53640476D01*
D11*
X121230000Y-54470000D02*
X115770000Y-54470000D01*
X121230000Y-85070000D02*
X121230000Y-54470000D01*
X108310000Y-85070000D02*
X121230000Y-85070000D01*
X108310000Y-54470000D02*
X108310000Y-85070000D01*
X113770000Y-54470000D02*
X108310000Y-54470000D01*
X115770000Y-54470000D02*
G75*
G02X113770000Y-54470000I-1000000J0D01*
G01*
X124885001Y-49405001D02*
X119425001Y-49405001D01*
X124885001Y-85085001D02*
X124885001Y-49405001D01*
X111965001Y-85085001D02*
X124885001Y-85085001D01*
X111965001Y-49405001D02*
X111965001Y-85085001D01*
X117425001Y-49405001D02*
X111965001Y-49405001D01*
X119425001Y-49405001D02*
G75*
G02X117425001Y-49405001I-1000000J0D01*
G01*
D12*
X114436666Y-52922380D02*
X114436666Y-53636666D01*
X114389047Y-53779523D01*
X114293809Y-53874761D01*
X114150952Y-53922380D01*
X114055714Y-53922380D01*
X115436666Y-53922380D02*
X114865238Y-53922380D01*
X115150952Y-53922380D02*
X115150952Y-52922380D01*
X115055714Y-53065238D01*
X114960476Y-53160476D01*
X114865238Y-53208095D01*
M02*
