G04 #@! TF.GenerationSoftware,KiCad,Pcbnew,(5.1.4)-1*
G04 #@! TF.CreationDate,2021-03-21T00:40:16-04:00*
G04 #@! TF.ProjectId,27c256_to_82s141,32376332-3536-45f7-946f-5f3832733134,rev?*
G04 #@! TF.SameCoordinates,Original*
G04 #@! TF.FileFunction,Copper,L2,Bot*
G04 #@! TF.FilePolarity,Positive*
%FSLAX46Y46*%
G04 Gerber Fmt 4.6, Leading zero omitted, Abs format (unit mm)*
G04 Created by KiCad (PCBNEW (5.1.4)-1) date 2021-03-21 00:40:16*
%MOMM*%
%LPD*%
G04 APERTURE LIST*
%ADD10R,0.750000X0.800000*%
%ADD11O,1.600000X1.600000*%
%ADD12R,1.600000X1.600000*%
%ADD13R,0.600000X1.500000*%
%ADD14C,0.800000*%
%ADD15C,0.250000*%
%ADD16C,0.400000*%
%ADD17C,0.254000*%
G04 APERTURE END LIST*
D10*
X113260000Y-50780000D03*
X113260000Y-52280000D03*
D11*
X122380000Y-55800000D03*
X114760000Y-83740000D03*
X122380000Y-58340000D03*
X114760000Y-81200000D03*
X122380000Y-60880000D03*
X114760000Y-78660000D03*
X122380000Y-63420000D03*
X114760000Y-76120000D03*
X122380000Y-65960000D03*
X114760000Y-73580000D03*
X122380000Y-68500000D03*
X114760000Y-71040000D03*
X122380000Y-71040000D03*
X114760000Y-68500000D03*
X122380000Y-73580000D03*
X114760000Y-65960000D03*
X122380000Y-76120000D03*
X114760000Y-63420000D03*
X122380000Y-78660000D03*
X114760000Y-60880000D03*
X122380000Y-81200000D03*
X114760000Y-58340000D03*
X122380000Y-83740000D03*
D12*
X114760000Y-55800000D03*
D11*
X126045001Y-50735001D03*
X110805001Y-83755001D03*
X126045001Y-53275001D03*
X110805001Y-81215001D03*
X126045001Y-55815001D03*
X110805001Y-78675001D03*
X126045001Y-58355001D03*
X110805001Y-76135001D03*
X126045001Y-60895001D03*
X110805001Y-73595001D03*
X126045001Y-63435001D03*
X110805001Y-71055001D03*
X126045001Y-65975001D03*
X110805001Y-68515001D03*
X126045001Y-68515001D03*
X110805001Y-65975001D03*
X126045001Y-71055001D03*
X110805001Y-63435001D03*
X126045001Y-73595001D03*
X110805001Y-60895001D03*
X126045001Y-76135001D03*
X110805001Y-58355001D03*
X126045001Y-78675001D03*
X110805001Y-55815001D03*
X126045001Y-81215001D03*
X110805001Y-53275001D03*
X126045001Y-83755001D03*
D12*
X110805001Y-50735001D03*
D13*
X115380000Y-52450000D03*
X116650000Y-52450000D03*
X117920000Y-52450000D03*
X119190000Y-52450000D03*
X120460000Y-52450000D03*
X121730000Y-52450000D03*
X123000000Y-52450000D03*
X123000000Y-47050000D03*
X121730000Y-47050000D03*
X120460000Y-47050000D03*
X119190000Y-47050000D03*
X117920000Y-47050000D03*
X116650000Y-47050000D03*
X115380000Y-47050000D03*
D14*
X124200000Y-65900000D03*
X118450000Y-83800000D03*
X124550000Y-51950000D03*
X124200000Y-69850000D03*
X120250000Y-69850000D03*
X118240000Y-50540000D03*
X118260000Y-63480000D03*
X116030000Y-50540000D03*
D15*
X110805001Y-50735001D02*
X114935001Y-50735001D01*
X115380000Y-51180000D02*
X115380000Y-52450000D01*
X114935001Y-50735001D02*
X115380000Y-51180000D01*
X111936371Y-53275001D02*
X110805001Y-53275001D01*
X112289999Y-53275001D02*
X111936371Y-53275001D01*
X113260000Y-52305000D02*
X112289999Y-53275001D01*
X113260000Y-52280000D02*
X113260000Y-52305000D01*
D16*
X124913631Y-55815001D02*
X124700000Y-56028632D01*
X126045001Y-55815001D02*
X124913631Y-55815001D01*
X124700000Y-59550000D02*
X126045001Y-60895001D01*
X124700000Y-56028632D02*
X124700000Y-59550000D01*
D15*
X124200000Y-69850000D02*
X123634315Y-69850000D01*
X123634315Y-69850000D02*
X120250000Y-69850000D01*
X120460000Y-47050000D02*
X121730000Y-47050000D01*
X120460000Y-48540000D02*
X120460000Y-47050000D01*
X121085001Y-49165001D02*
X120460000Y-48540000D01*
X122380000Y-63420000D02*
X121085001Y-62125001D01*
X121085001Y-62125001D02*
X121085001Y-49165001D01*
X121730000Y-52450000D02*
X123000000Y-52450000D01*
X122380000Y-65960000D02*
X124150000Y-64190000D01*
X123000000Y-53450000D02*
X123000000Y-52450000D01*
X124150000Y-54600000D02*
X123000000Y-53450000D01*
X124150000Y-64190000D02*
X124150000Y-54600000D01*
X116650000Y-47050000D02*
X116650000Y-48050000D01*
X116650000Y-48050000D02*
X117280000Y-48680000D01*
X117280000Y-60850000D02*
X117280000Y-60150000D01*
X122380000Y-68500000D02*
X120280000Y-68500000D01*
X117280000Y-48680000D02*
X117280000Y-60150000D01*
X120280000Y-68500000D02*
X119690000Y-67910000D01*
X119690000Y-67910000D02*
X119690000Y-63260000D01*
X119690000Y-63260000D02*
X117280000Y-60850000D01*
X117920000Y-47050000D02*
X117920000Y-50220000D01*
X117920000Y-50220000D02*
X118240000Y-50540000D01*
X119920000Y-71040000D02*
X122380000Y-71040000D01*
X118260000Y-63480000D02*
X118260000Y-69380000D01*
X118260000Y-69380000D02*
X119920000Y-71040000D01*
X115380000Y-47050000D02*
X115380000Y-48050000D01*
X115380000Y-48050000D02*
X116024999Y-48694999D01*
X116024999Y-48694999D02*
X116024999Y-50534999D01*
X116024999Y-50534999D02*
X116030000Y-50540000D01*
X116650000Y-52450000D02*
X116650000Y-53450000D01*
X126045001Y-71055001D02*
X124860002Y-72240000D01*
X116650000Y-69870000D02*
X116650000Y-52450000D01*
X124860002Y-72240000D02*
X124850000Y-72240000D01*
X124850000Y-72240000D02*
X124780000Y-72310000D01*
X119090000Y-72310000D02*
X118865000Y-72085000D01*
X124780000Y-72310000D02*
X119090000Y-72310000D01*
X119020000Y-72240000D02*
X118865000Y-72085000D01*
X118865000Y-72085000D02*
X116650000Y-69870000D01*
X120460000Y-53450000D02*
X120200000Y-53710000D01*
X120460000Y-52450000D02*
X120460000Y-53450000D01*
X120200000Y-53710000D02*
X118100000Y-53710000D01*
X117920000Y-53530000D02*
X117920000Y-52450000D01*
X118100000Y-53710000D02*
X117920000Y-53530000D01*
X119190000Y-47050000D02*
X119190000Y-52450000D01*
D17*
G36*
X112352061Y-51530000D02*
G01*
X112295498Y-51635820D01*
X112259188Y-51755518D01*
X112246928Y-51880000D01*
X112250000Y-51994250D01*
X112408750Y-52153000D01*
X113133000Y-52153000D01*
X113133000Y-52133000D01*
X113387000Y-52133000D01*
X113387000Y-52153000D01*
X114111250Y-52153000D01*
X114270000Y-51994250D01*
X114273072Y-51880000D01*
X114260812Y-51755518D01*
X114224502Y-51635820D01*
X114167939Y-51530000D01*
X114186647Y-51495001D01*
X114478613Y-51495001D01*
X114454188Y-51575518D01*
X114441928Y-51700000D01*
X114441928Y-53200000D01*
X114454188Y-53324482D01*
X114490498Y-53444180D01*
X114549463Y-53554494D01*
X114628815Y-53651185D01*
X114725506Y-53730537D01*
X114835820Y-53789502D01*
X114955518Y-53825812D01*
X115080000Y-53838072D01*
X115680000Y-53838072D01*
X115804482Y-53825812D01*
X115890001Y-53799870D01*
X115890001Y-54456371D01*
X115804180Y-54410498D01*
X115684482Y-54374188D01*
X115560000Y-54361928D01*
X113960000Y-54361928D01*
X113835518Y-54374188D01*
X113715820Y-54410498D01*
X113605506Y-54469463D01*
X113508815Y-54548815D01*
X113429463Y-54645506D01*
X113370498Y-54755820D01*
X113334188Y-54875518D01*
X113321928Y-55000000D01*
X113321928Y-56600000D01*
X113334188Y-56724482D01*
X113370498Y-56844180D01*
X113429463Y-56954494D01*
X113508815Y-57051185D01*
X113605506Y-57130537D01*
X113715820Y-57189502D01*
X113835518Y-57225812D01*
X113853482Y-57227581D01*
X113740392Y-57320392D01*
X113561068Y-57538899D01*
X113427818Y-57788192D01*
X113345764Y-58058691D01*
X113318057Y-58340000D01*
X113345764Y-58621309D01*
X113427818Y-58891808D01*
X113561068Y-59141101D01*
X113740392Y-59359608D01*
X113958899Y-59538932D01*
X114091858Y-59610000D01*
X113958899Y-59681068D01*
X113740392Y-59860392D01*
X113561068Y-60078899D01*
X113427818Y-60328192D01*
X113345764Y-60598691D01*
X113318057Y-60880000D01*
X113345764Y-61161309D01*
X113427818Y-61431808D01*
X113561068Y-61681101D01*
X113740392Y-61899608D01*
X113958899Y-62078932D01*
X114091858Y-62150000D01*
X113958899Y-62221068D01*
X113740392Y-62400392D01*
X113561068Y-62618899D01*
X113427818Y-62868192D01*
X113345764Y-63138691D01*
X113318057Y-63420000D01*
X113345764Y-63701309D01*
X113427818Y-63971808D01*
X113561068Y-64221101D01*
X113740392Y-64439608D01*
X113958899Y-64618932D01*
X114091858Y-64690000D01*
X113958899Y-64761068D01*
X113740392Y-64940392D01*
X113561068Y-65158899D01*
X113427818Y-65408192D01*
X113345764Y-65678691D01*
X113318057Y-65960000D01*
X113345764Y-66241309D01*
X113427818Y-66511808D01*
X113561068Y-66761101D01*
X113740392Y-66979608D01*
X113958899Y-67158932D01*
X114091858Y-67230000D01*
X113958899Y-67301068D01*
X113740392Y-67480392D01*
X113561068Y-67698899D01*
X113427818Y-67948192D01*
X113345764Y-68218691D01*
X113318057Y-68500000D01*
X113345764Y-68781309D01*
X113427818Y-69051808D01*
X113561068Y-69301101D01*
X113740392Y-69519608D01*
X113958899Y-69698932D01*
X114091858Y-69770000D01*
X113958899Y-69841068D01*
X113740392Y-70020392D01*
X113561068Y-70238899D01*
X113427818Y-70488192D01*
X113345764Y-70758691D01*
X113318057Y-71040000D01*
X113345764Y-71321309D01*
X113427818Y-71591808D01*
X113561068Y-71841101D01*
X113740392Y-72059608D01*
X113958899Y-72238932D01*
X114091858Y-72310000D01*
X113958899Y-72381068D01*
X113740392Y-72560392D01*
X113561068Y-72778899D01*
X113427818Y-73028192D01*
X113345764Y-73298691D01*
X113318057Y-73580000D01*
X113345764Y-73861309D01*
X113427818Y-74131808D01*
X113561068Y-74381101D01*
X113740392Y-74599608D01*
X113958899Y-74778932D01*
X114091858Y-74850000D01*
X113958899Y-74921068D01*
X113740392Y-75100392D01*
X113561068Y-75318899D01*
X113427818Y-75568192D01*
X113345764Y-75838691D01*
X113318057Y-76120000D01*
X113345764Y-76401309D01*
X113427818Y-76671808D01*
X113561068Y-76921101D01*
X113740392Y-77139608D01*
X113958899Y-77318932D01*
X114091858Y-77390000D01*
X113958899Y-77461068D01*
X113740392Y-77640392D01*
X113561068Y-77858899D01*
X113427818Y-78108192D01*
X113345764Y-78378691D01*
X113318057Y-78660000D01*
X113345764Y-78941309D01*
X113427818Y-79211808D01*
X113561068Y-79461101D01*
X113740392Y-79679608D01*
X113958899Y-79858932D01*
X114091858Y-79930000D01*
X113958899Y-80001068D01*
X113740392Y-80180392D01*
X113561068Y-80398899D01*
X113427818Y-80648192D01*
X113345764Y-80918691D01*
X113318057Y-81200000D01*
X113345764Y-81481309D01*
X113427818Y-81751808D01*
X113561068Y-82001101D01*
X113740392Y-82219608D01*
X113958899Y-82398932D01*
X114096682Y-82472579D01*
X113904869Y-82587615D01*
X113696481Y-82776586D01*
X113528963Y-83002580D01*
X113408754Y-83256913D01*
X113368096Y-83390961D01*
X113490085Y-83613000D01*
X114633000Y-83613000D01*
X114633000Y-83593000D01*
X114887000Y-83593000D01*
X114887000Y-83613000D01*
X116029915Y-83613000D01*
X116151904Y-83390961D01*
X116111246Y-83256913D01*
X115991037Y-83002580D01*
X115823519Y-82776586D01*
X115615131Y-82587615D01*
X115423318Y-82472579D01*
X115561101Y-82398932D01*
X115779608Y-82219608D01*
X115958932Y-82001101D01*
X116092182Y-81751808D01*
X116174236Y-81481309D01*
X116201943Y-81200000D01*
X116174236Y-80918691D01*
X116092182Y-80648192D01*
X115958932Y-80398899D01*
X115779608Y-80180392D01*
X115561101Y-80001068D01*
X115428142Y-79930000D01*
X115561101Y-79858932D01*
X115779608Y-79679608D01*
X115958932Y-79461101D01*
X116092182Y-79211808D01*
X116174236Y-78941309D01*
X116201943Y-78660000D01*
X116174236Y-78378691D01*
X116092182Y-78108192D01*
X115958932Y-77858899D01*
X115779608Y-77640392D01*
X115561101Y-77461068D01*
X115428142Y-77390000D01*
X115561101Y-77318932D01*
X115779608Y-77139608D01*
X115958932Y-76921101D01*
X116092182Y-76671808D01*
X116174236Y-76401309D01*
X116201943Y-76120000D01*
X116174236Y-75838691D01*
X116092182Y-75568192D01*
X115958932Y-75318899D01*
X115779608Y-75100392D01*
X115561101Y-74921068D01*
X115428142Y-74850000D01*
X115561101Y-74778932D01*
X115779608Y-74599608D01*
X115958932Y-74381101D01*
X116092182Y-74131808D01*
X116174236Y-73861309D01*
X116201943Y-73580000D01*
X116174236Y-73298691D01*
X116092182Y-73028192D01*
X115958932Y-72778899D01*
X115779608Y-72560392D01*
X115561101Y-72381068D01*
X115428142Y-72310000D01*
X115561101Y-72238932D01*
X115779608Y-72059608D01*
X115958932Y-71841101D01*
X116092182Y-71591808D01*
X116174236Y-71321309D01*
X116201943Y-71040000D01*
X116174236Y-70758691D01*
X116092182Y-70488192D01*
X115958932Y-70238899D01*
X115779608Y-70020392D01*
X115561101Y-69841068D01*
X115428142Y-69770000D01*
X115561101Y-69698932D01*
X115779608Y-69519608D01*
X115890000Y-69385095D01*
X115890000Y-69832678D01*
X115886324Y-69870000D01*
X115890000Y-69907322D01*
X115890000Y-69907332D01*
X115900997Y-70018985D01*
X115921188Y-70085546D01*
X115944454Y-70162246D01*
X116015026Y-70294276D01*
X116048000Y-70334454D01*
X116109999Y-70410001D01*
X116139003Y-70433804D01*
X118353997Y-72648799D01*
X118354003Y-72648804D01*
X118526196Y-72820997D01*
X118549999Y-72850001D01*
X118665724Y-72944974D01*
X118797753Y-73015546D01*
X118941014Y-73059003D01*
X119052667Y-73070000D01*
X119052676Y-73070000D01*
X119089999Y-73073676D01*
X119127322Y-73070000D01*
X121035136Y-73070000D01*
X120965764Y-73298691D01*
X120938057Y-73580000D01*
X120965764Y-73861309D01*
X121047818Y-74131808D01*
X121181068Y-74381101D01*
X121360392Y-74599608D01*
X121578899Y-74778932D01*
X121711858Y-74850000D01*
X121578899Y-74921068D01*
X121360392Y-75100392D01*
X121181068Y-75318899D01*
X121047818Y-75568192D01*
X120965764Y-75838691D01*
X120938057Y-76120000D01*
X120965764Y-76401309D01*
X121047818Y-76671808D01*
X121181068Y-76921101D01*
X121360392Y-77139608D01*
X121578899Y-77318932D01*
X121711858Y-77390000D01*
X121578899Y-77461068D01*
X121360392Y-77640392D01*
X121181068Y-77858899D01*
X121047818Y-78108192D01*
X120965764Y-78378691D01*
X120938057Y-78660000D01*
X120965764Y-78941309D01*
X121047818Y-79211808D01*
X121181068Y-79461101D01*
X121360392Y-79679608D01*
X121578899Y-79858932D01*
X121711858Y-79930000D01*
X121578899Y-80001068D01*
X121360392Y-80180392D01*
X121181068Y-80398899D01*
X121047818Y-80648192D01*
X120965764Y-80918691D01*
X120938057Y-81200000D01*
X120965764Y-81481309D01*
X121047818Y-81751808D01*
X121181068Y-82001101D01*
X121360392Y-82219608D01*
X121578899Y-82398932D01*
X121711858Y-82470000D01*
X121578899Y-82541068D01*
X121360392Y-82720392D01*
X121181068Y-82938899D01*
X121047818Y-83188192D01*
X120965764Y-83458691D01*
X120938057Y-83740000D01*
X120965764Y-84021309D01*
X121047818Y-84291808D01*
X121181068Y-84541101D01*
X121360392Y-84759608D01*
X121458350Y-84840000D01*
X115672899Y-84840000D01*
X115823519Y-84703414D01*
X115991037Y-84477420D01*
X116111246Y-84223087D01*
X116151904Y-84089039D01*
X116029915Y-83867000D01*
X114887000Y-83867000D01*
X114887000Y-83887000D01*
X114633000Y-83887000D01*
X114633000Y-83867000D01*
X113490085Y-83867000D01*
X113368096Y-84089039D01*
X113408754Y-84223087D01*
X113528963Y-84477420D01*
X113696481Y-84703414D01*
X113847101Y-84840000D01*
X111734442Y-84840000D01*
X111868520Y-84718415D01*
X112036038Y-84492421D01*
X112156247Y-84238088D01*
X112196905Y-84104040D01*
X112074916Y-83882001D01*
X110932001Y-83882001D01*
X110932001Y-83902001D01*
X110678001Y-83902001D01*
X110678001Y-83882001D01*
X110658001Y-83882001D01*
X110658001Y-83628001D01*
X110678001Y-83628001D01*
X110678001Y-83608001D01*
X110932001Y-83608001D01*
X110932001Y-83628001D01*
X112074916Y-83628001D01*
X112196905Y-83405962D01*
X112156247Y-83271914D01*
X112036038Y-83017581D01*
X111868520Y-82791587D01*
X111660132Y-82602616D01*
X111468319Y-82487580D01*
X111606102Y-82413933D01*
X111824609Y-82234609D01*
X112003933Y-82016102D01*
X112137183Y-81766809D01*
X112219237Y-81496310D01*
X112246944Y-81215001D01*
X112219237Y-80933692D01*
X112137183Y-80663193D01*
X112003933Y-80413900D01*
X111824609Y-80195393D01*
X111606102Y-80016069D01*
X111473143Y-79945001D01*
X111606102Y-79873933D01*
X111824609Y-79694609D01*
X112003933Y-79476102D01*
X112137183Y-79226809D01*
X112219237Y-78956310D01*
X112246944Y-78675001D01*
X112219237Y-78393692D01*
X112137183Y-78123193D01*
X112003933Y-77873900D01*
X111824609Y-77655393D01*
X111606102Y-77476069D01*
X111473143Y-77405001D01*
X111606102Y-77333933D01*
X111824609Y-77154609D01*
X112003933Y-76936102D01*
X112137183Y-76686809D01*
X112219237Y-76416310D01*
X112246944Y-76135001D01*
X112219237Y-75853692D01*
X112137183Y-75583193D01*
X112003933Y-75333900D01*
X111824609Y-75115393D01*
X111606102Y-74936069D01*
X111473143Y-74865001D01*
X111606102Y-74793933D01*
X111824609Y-74614609D01*
X112003933Y-74396102D01*
X112137183Y-74146809D01*
X112219237Y-73876310D01*
X112246944Y-73595001D01*
X112219237Y-73313692D01*
X112137183Y-73043193D01*
X112003933Y-72793900D01*
X111824609Y-72575393D01*
X111606102Y-72396069D01*
X111473143Y-72325001D01*
X111606102Y-72253933D01*
X111824609Y-72074609D01*
X112003933Y-71856102D01*
X112137183Y-71606809D01*
X112219237Y-71336310D01*
X112246944Y-71055001D01*
X112219237Y-70773692D01*
X112137183Y-70503193D01*
X112003933Y-70253900D01*
X111824609Y-70035393D01*
X111606102Y-69856069D01*
X111473143Y-69785001D01*
X111606102Y-69713933D01*
X111824609Y-69534609D01*
X112003933Y-69316102D01*
X112137183Y-69066809D01*
X112219237Y-68796310D01*
X112246944Y-68515001D01*
X112219237Y-68233692D01*
X112137183Y-67963193D01*
X112003933Y-67713900D01*
X111824609Y-67495393D01*
X111606102Y-67316069D01*
X111473143Y-67245001D01*
X111606102Y-67173933D01*
X111824609Y-66994609D01*
X112003933Y-66776102D01*
X112137183Y-66526809D01*
X112219237Y-66256310D01*
X112246944Y-65975001D01*
X112219237Y-65693692D01*
X112137183Y-65423193D01*
X112003933Y-65173900D01*
X111824609Y-64955393D01*
X111606102Y-64776069D01*
X111473143Y-64705001D01*
X111606102Y-64633933D01*
X111824609Y-64454609D01*
X112003933Y-64236102D01*
X112137183Y-63986809D01*
X112219237Y-63716310D01*
X112246944Y-63435001D01*
X112219237Y-63153692D01*
X112137183Y-62883193D01*
X112003933Y-62633900D01*
X111824609Y-62415393D01*
X111606102Y-62236069D01*
X111473143Y-62165001D01*
X111606102Y-62093933D01*
X111824609Y-61914609D01*
X112003933Y-61696102D01*
X112137183Y-61446809D01*
X112219237Y-61176310D01*
X112246944Y-60895001D01*
X112219237Y-60613692D01*
X112137183Y-60343193D01*
X112003933Y-60093900D01*
X111824609Y-59875393D01*
X111606102Y-59696069D01*
X111473143Y-59625001D01*
X111606102Y-59553933D01*
X111824609Y-59374609D01*
X112003933Y-59156102D01*
X112137183Y-58906809D01*
X112219237Y-58636310D01*
X112246944Y-58355001D01*
X112219237Y-58073692D01*
X112137183Y-57803193D01*
X112003933Y-57553900D01*
X111824609Y-57335393D01*
X111606102Y-57156069D01*
X111473143Y-57085001D01*
X111606102Y-57013933D01*
X111824609Y-56834609D01*
X112003933Y-56616102D01*
X112137183Y-56366809D01*
X112219237Y-56096310D01*
X112246944Y-55815001D01*
X112219237Y-55533692D01*
X112137183Y-55263193D01*
X112003933Y-55013900D01*
X111824609Y-54795393D01*
X111606102Y-54616069D01*
X111468319Y-54542422D01*
X111660132Y-54427386D01*
X111868520Y-54238415D01*
X112036038Y-54012421D01*
X112156247Y-53758088D01*
X112196905Y-53624040D01*
X112074916Y-53402001D01*
X110932001Y-53402001D01*
X110932001Y-53422001D01*
X110678001Y-53422001D01*
X110678001Y-53402001D01*
X110658001Y-53402001D01*
X110658001Y-53148001D01*
X110678001Y-53148001D01*
X110678001Y-53128001D01*
X110932001Y-53128001D01*
X110932001Y-53148001D01*
X112074916Y-53148001D01*
X112196905Y-52925962D01*
X112156247Y-52791914D01*
X112103352Y-52680000D01*
X112246928Y-52680000D01*
X112259188Y-52804482D01*
X112295498Y-52924180D01*
X112354463Y-53034494D01*
X112433815Y-53131185D01*
X112530506Y-53210537D01*
X112640820Y-53269502D01*
X112760518Y-53305812D01*
X112885000Y-53318072D01*
X112974250Y-53315000D01*
X113133000Y-53156250D01*
X113133000Y-52407000D01*
X113387000Y-52407000D01*
X113387000Y-53156250D01*
X113545750Y-53315000D01*
X113635000Y-53318072D01*
X113759482Y-53305812D01*
X113879180Y-53269502D01*
X113989494Y-53210537D01*
X114086185Y-53131185D01*
X114165537Y-53034494D01*
X114224502Y-52924180D01*
X114260812Y-52804482D01*
X114273072Y-52680000D01*
X114270000Y-52565750D01*
X114111250Y-52407000D01*
X113387000Y-52407000D01*
X113133000Y-52407000D01*
X112408750Y-52407000D01*
X112250000Y-52565750D01*
X112246928Y-52680000D01*
X112103352Y-52680000D01*
X112036038Y-52537581D01*
X111868520Y-52311587D01*
X111704921Y-52163232D01*
X111729483Y-52160813D01*
X111849181Y-52124503D01*
X111959495Y-52065538D01*
X112056186Y-51986186D01*
X112135538Y-51889495D01*
X112194503Y-51779181D01*
X112230813Y-51659483D01*
X112243073Y-51535001D01*
X112243073Y-51495001D01*
X112333353Y-51495001D01*
X112352061Y-51530000D01*
X112352061Y-51530000D01*
G37*
X112352061Y-51530000D02*
X112295498Y-51635820D01*
X112259188Y-51755518D01*
X112246928Y-51880000D01*
X112250000Y-51994250D01*
X112408750Y-52153000D01*
X113133000Y-52153000D01*
X113133000Y-52133000D01*
X113387000Y-52133000D01*
X113387000Y-52153000D01*
X114111250Y-52153000D01*
X114270000Y-51994250D01*
X114273072Y-51880000D01*
X114260812Y-51755518D01*
X114224502Y-51635820D01*
X114167939Y-51530000D01*
X114186647Y-51495001D01*
X114478613Y-51495001D01*
X114454188Y-51575518D01*
X114441928Y-51700000D01*
X114441928Y-53200000D01*
X114454188Y-53324482D01*
X114490498Y-53444180D01*
X114549463Y-53554494D01*
X114628815Y-53651185D01*
X114725506Y-53730537D01*
X114835820Y-53789502D01*
X114955518Y-53825812D01*
X115080000Y-53838072D01*
X115680000Y-53838072D01*
X115804482Y-53825812D01*
X115890001Y-53799870D01*
X115890001Y-54456371D01*
X115804180Y-54410498D01*
X115684482Y-54374188D01*
X115560000Y-54361928D01*
X113960000Y-54361928D01*
X113835518Y-54374188D01*
X113715820Y-54410498D01*
X113605506Y-54469463D01*
X113508815Y-54548815D01*
X113429463Y-54645506D01*
X113370498Y-54755820D01*
X113334188Y-54875518D01*
X113321928Y-55000000D01*
X113321928Y-56600000D01*
X113334188Y-56724482D01*
X113370498Y-56844180D01*
X113429463Y-56954494D01*
X113508815Y-57051185D01*
X113605506Y-57130537D01*
X113715820Y-57189502D01*
X113835518Y-57225812D01*
X113853482Y-57227581D01*
X113740392Y-57320392D01*
X113561068Y-57538899D01*
X113427818Y-57788192D01*
X113345764Y-58058691D01*
X113318057Y-58340000D01*
X113345764Y-58621309D01*
X113427818Y-58891808D01*
X113561068Y-59141101D01*
X113740392Y-59359608D01*
X113958899Y-59538932D01*
X114091858Y-59610000D01*
X113958899Y-59681068D01*
X113740392Y-59860392D01*
X113561068Y-60078899D01*
X113427818Y-60328192D01*
X113345764Y-60598691D01*
X113318057Y-60880000D01*
X113345764Y-61161309D01*
X113427818Y-61431808D01*
X113561068Y-61681101D01*
X113740392Y-61899608D01*
X113958899Y-62078932D01*
X114091858Y-62150000D01*
X113958899Y-62221068D01*
X113740392Y-62400392D01*
X113561068Y-62618899D01*
X113427818Y-62868192D01*
X113345764Y-63138691D01*
X113318057Y-63420000D01*
X113345764Y-63701309D01*
X113427818Y-63971808D01*
X113561068Y-64221101D01*
X113740392Y-64439608D01*
X113958899Y-64618932D01*
X114091858Y-64690000D01*
X113958899Y-64761068D01*
X113740392Y-64940392D01*
X113561068Y-65158899D01*
X113427818Y-65408192D01*
X113345764Y-65678691D01*
X113318057Y-65960000D01*
X113345764Y-66241309D01*
X113427818Y-66511808D01*
X113561068Y-66761101D01*
X113740392Y-66979608D01*
X113958899Y-67158932D01*
X114091858Y-67230000D01*
X113958899Y-67301068D01*
X113740392Y-67480392D01*
X113561068Y-67698899D01*
X113427818Y-67948192D01*
X113345764Y-68218691D01*
X113318057Y-68500000D01*
X113345764Y-68781309D01*
X113427818Y-69051808D01*
X113561068Y-69301101D01*
X113740392Y-69519608D01*
X113958899Y-69698932D01*
X114091858Y-69770000D01*
X113958899Y-69841068D01*
X113740392Y-70020392D01*
X113561068Y-70238899D01*
X113427818Y-70488192D01*
X113345764Y-70758691D01*
X113318057Y-71040000D01*
X113345764Y-71321309D01*
X113427818Y-71591808D01*
X113561068Y-71841101D01*
X113740392Y-72059608D01*
X113958899Y-72238932D01*
X114091858Y-72310000D01*
X113958899Y-72381068D01*
X113740392Y-72560392D01*
X113561068Y-72778899D01*
X113427818Y-73028192D01*
X113345764Y-73298691D01*
X113318057Y-73580000D01*
X113345764Y-73861309D01*
X113427818Y-74131808D01*
X113561068Y-74381101D01*
X113740392Y-74599608D01*
X113958899Y-74778932D01*
X114091858Y-74850000D01*
X113958899Y-74921068D01*
X113740392Y-75100392D01*
X113561068Y-75318899D01*
X113427818Y-75568192D01*
X113345764Y-75838691D01*
X113318057Y-76120000D01*
X113345764Y-76401309D01*
X113427818Y-76671808D01*
X113561068Y-76921101D01*
X113740392Y-77139608D01*
X113958899Y-77318932D01*
X114091858Y-77390000D01*
X113958899Y-77461068D01*
X113740392Y-77640392D01*
X113561068Y-77858899D01*
X113427818Y-78108192D01*
X113345764Y-78378691D01*
X113318057Y-78660000D01*
X113345764Y-78941309D01*
X113427818Y-79211808D01*
X113561068Y-79461101D01*
X113740392Y-79679608D01*
X113958899Y-79858932D01*
X114091858Y-79930000D01*
X113958899Y-80001068D01*
X113740392Y-80180392D01*
X113561068Y-80398899D01*
X113427818Y-80648192D01*
X113345764Y-80918691D01*
X113318057Y-81200000D01*
X113345764Y-81481309D01*
X113427818Y-81751808D01*
X113561068Y-82001101D01*
X113740392Y-82219608D01*
X113958899Y-82398932D01*
X114096682Y-82472579D01*
X113904869Y-82587615D01*
X113696481Y-82776586D01*
X113528963Y-83002580D01*
X113408754Y-83256913D01*
X113368096Y-83390961D01*
X113490085Y-83613000D01*
X114633000Y-83613000D01*
X114633000Y-83593000D01*
X114887000Y-83593000D01*
X114887000Y-83613000D01*
X116029915Y-83613000D01*
X116151904Y-83390961D01*
X116111246Y-83256913D01*
X115991037Y-83002580D01*
X115823519Y-82776586D01*
X115615131Y-82587615D01*
X115423318Y-82472579D01*
X115561101Y-82398932D01*
X115779608Y-82219608D01*
X115958932Y-82001101D01*
X116092182Y-81751808D01*
X116174236Y-81481309D01*
X116201943Y-81200000D01*
X116174236Y-80918691D01*
X116092182Y-80648192D01*
X115958932Y-80398899D01*
X115779608Y-80180392D01*
X115561101Y-80001068D01*
X115428142Y-79930000D01*
X115561101Y-79858932D01*
X115779608Y-79679608D01*
X115958932Y-79461101D01*
X116092182Y-79211808D01*
X116174236Y-78941309D01*
X116201943Y-78660000D01*
X116174236Y-78378691D01*
X116092182Y-78108192D01*
X115958932Y-77858899D01*
X115779608Y-77640392D01*
X115561101Y-77461068D01*
X115428142Y-77390000D01*
X115561101Y-77318932D01*
X115779608Y-77139608D01*
X115958932Y-76921101D01*
X116092182Y-76671808D01*
X116174236Y-76401309D01*
X116201943Y-76120000D01*
X116174236Y-75838691D01*
X116092182Y-75568192D01*
X115958932Y-75318899D01*
X115779608Y-75100392D01*
X115561101Y-74921068D01*
X115428142Y-74850000D01*
X115561101Y-74778932D01*
X115779608Y-74599608D01*
X115958932Y-74381101D01*
X116092182Y-74131808D01*
X116174236Y-73861309D01*
X116201943Y-73580000D01*
X116174236Y-73298691D01*
X116092182Y-73028192D01*
X115958932Y-72778899D01*
X115779608Y-72560392D01*
X115561101Y-72381068D01*
X115428142Y-72310000D01*
X115561101Y-72238932D01*
X115779608Y-72059608D01*
X115958932Y-71841101D01*
X116092182Y-71591808D01*
X116174236Y-71321309D01*
X116201943Y-71040000D01*
X116174236Y-70758691D01*
X116092182Y-70488192D01*
X115958932Y-70238899D01*
X115779608Y-70020392D01*
X115561101Y-69841068D01*
X115428142Y-69770000D01*
X115561101Y-69698932D01*
X115779608Y-69519608D01*
X115890000Y-69385095D01*
X115890000Y-69832678D01*
X115886324Y-69870000D01*
X115890000Y-69907322D01*
X115890000Y-69907332D01*
X115900997Y-70018985D01*
X115921188Y-70085546D01*
X115944454Y-70162246D01*
X116015026Y-70294276D01*
X116048000Y-70334454D01*
X116109999Y-70410001D01*
X116139003Y-70433804D01*
X118353997Y-72648799D01*
X118354003Y-72648804D01*
X118526196Y-72820997D01*
X118549999Y-72850001D01*
X118665724Y-72944974D01*
X118797753Y-73015546D01*
X118941014Y-73059003D01*
X119052667Y-73070000D01*
X119052676Y-73070000D01*
X119089999Y-73073676D01*
X119127322Y-73070000D01*
X121035136Y-73070000D01*
X120965764Y-73298691D01*
X120938057Y-73580000D01*
X120965764Y-73861309D01*
X121047818Y-74131808D01*
X121181068Y-74381101D01*
X121360392Y-74599608D01*
X121578899Y-74778932D01*
X121711858Y-74850000D01*
X121578899Y-74921068D01*
X121360392Y-75100392D01*
X121181068Y-75318899D01*
X121047818Y-75568192D01*
X120965764Y-75838691D01*
X120938057Y-76120000D01*
X120965764Y-76401309D01*
X121047818Y-76671808D01*
X121181068Y-76921101D01*
X121360392Y-77139608D01*
X121578899Y-77318932D01*
X121711858Y-77390000D01*
X121578899Y-77461068D01*
X121360392Y-77640392D01*
X121181068Y-77858899D01*
X121047818Y-78108192D01*
X120965764Y-78378691D01*
X120938057Y-78660000D01*
X120965764Y-78941309D01*
X121047818Y-79211808D01*
X121181068Y-79461101D01*
X121360392Y-79679608D01*
X121578899Y-79858932D01*
X121711858Y-79930000D01*
X121578899Y-80001068D01*
X121360392Y-80180392D01*
X121181068Y-80398899D01*
X121047818Y-80648192D01*
X120965764Y-80918691D01*
X120938057Y-81200000D01*
X120965764Y-81481309D01*
X121047818Y-81751808D01*
X121181068Y-82001101D01*
X121360392Y-82219608D01*
X121578899Y-82398932D01*
X121711858Y-82470000D01*
X121578899Y-82541068D01*
X121360392Y-82720392D01*
X121181068Y-82938899D01*
X121047818Y-83188192D01*
X120965764Y-83458691D01*
X120938057Y-83740000D01*
X120965764Y-84021309D01*
X121047818Y-84291808D01*
X121181068Y-84541101D01*
X121360392Y-84759608D01*
X121458350Y-84840000D01*
X115672899Y-84840000D01*
X115823519Y-84703414D01*
X115991037Y-84477420D01*
X116111246Y-84223087D01*
X116151904Y-84089039D01*
X116029915Y-83867000D01*
X114887000Y-83867000D01*
X114887000Y-83887000D01*
X114633000Y-83887000D01*
X114633000Y-83867000D01*
X113490085Y-83867000D01*
X113368096Y-84089039D01*
X113408754Y-84223087D01*
X113528963Y-84477420D01*
X113696481Y-84703414D01*
X113847101Y-84840000D01*
X111734442Y-84840000D01*
X111868520Y-84718415D01*
X112036038Y-84492421D01*
X112156247Y-84238088D01*
X112196905Y-84104040D01*
X112074916Y-83882001D01*
X110932001Y-83882001D01*
X110932001Y-83902001D01*
X110678001Y-83902001D01*
X110678001Y-83882001D01*
X110658001Y-83882001D01*
X110658001Y-83628001D01*
X110678001Y-83628001D01*
X110678001Y-83608001D01*
X110932001Y-83608001D01*
X110932001Y-83628001D01*
X112074916Y-83628001D01*
X112196905Y-83405962D01*
X112156247Y-83271914D01*
X112036038Y-83017581D01*
X111868520Y-82791587D01*
X111660132Y-82602616D01*
X111468319Y-82487580D01*
X111606102Y-82413933D01*
X111824609Y-82234609D01*
X112003933Y-82016102D01*
X112137183Y-81766809D01*
X112219237Y-81496310D01*
X112246944Y-81215001D01*
X112219237Y-80933692D01*
X112137183Y-80663193D01*
X112003933Y-80413900D01*
X111824609Y-80195393D01*
X111606102Y-80016069D01*
X111473143Y-79945001D01*
X111606102Y-79873933D01*
X111824609Y-79694609D01*
X112003933Y-79476102D01*
X112137183Y-79226809D01*
X112219237Y-78956310D01*
X112246944Y-78675001D01*
X112219237Y-78393692D01*
X112137183Y-78123193D01*
X112003933Y-77873900D01*
X111824609Y-77655393D01*
X111606102Y-77476069D01*
X111473143Y-77405001D01*
X111606102Y-77333933D01*
X111824609Y-77154609D01*
X112003933Y-76936102D01*
X112137183Y-76686809D01*
X112219237Y-76416310D01*
X112246944Y-76135001D01*
X112219237Y-75853692D01*
X112137183Y-75583193D01*
X112003933Y-75333900D01*
X111824609Y-75115393D01*
X111606102Y-74936069D01*
X111473143Y-74865001D01*
X111606102Y-74793933D01*
X111824609Y-74614609D01*
X112003933Y-74396102D01*
X112137183Y-74146809D01*
X112219237Y-73876310D01*
X112246944Y-73595001D01*
X112219237Y-73313692D01*
X112137183Y-73043193D01*
X112003933Y-72793900D01*
X111824609Y-72575393D01*
X111606102Y-72396069D01*
X111473143Y-72325001D01*
X111606102Y-72253933D01*
X111824609Y-72074609D01*
X112003933Y-71856102D01*
X112137183Y-71606809D01*
X112219237Y-71336310D01*
X112246944Y-71055001D01*
X112219237Y-70773692D01*
X112137183Y-70503193D01*
X112003933Y-70253900D01*
X111824609Y-70035393D01*
X111606102Y-69856069D01*
X111473143Y-69785001D01*
X111606102Y-69713933D01*
X111824609Y-69534609D01*
X112003933Y-69316102D01*
X112137183Y-69066809D01*
X112219237Y-68796310D01*
X112246944Y-68515001D01*
X112219237Y-68233692D01*
X112137183Y-67963193D01*
X112003933Y-67713900D01*
X111824609Y-67495393D01*
X111606102Y-67316069D01*
X111473143Y-67245001D01*
X111606102Y-67173933D01*
X111824609Y-66994609D01*
X112003933Y-66776102D01*
X112137183Y-66526809D01*
X112219237Y-66256310D01*
X112246944Y-65975001D01*
X112219237Y-65693692D01*
X112137183Y-65423193D01*
X112003933Y-65173900D01*
X111824609Y-64955393D01*
X111606102Y-64776069D01*
X111473143Y-64705001D01*
X111606102Y-64633933D01*
X111824609Y-64454609D01*
X112003933Y-64236102D01*
X112137183Y-63986809D01*
X112219237Y-63716310D01*
X112246944Y-63435001D01*
X112219237Y-63153692D01*
X112137183Y-62883193D01*
X112003933Y-62633900D01*
X111824609Y-62415393D01*
X111606102Y-62236069D01*
X111473143Y-62165001D01*
X111606102Y-62093933D01*
X111824609Y-61914609D01*
X112003933Y-61696102D01*
X112137183Y-61446809D01*
X112219237Y-61176310D01*
X112246944Y-60895001D01*
X112219237Y-60613692D01*
X112137183Y-60343193D01*
X112003933Y-60093900D01*
X111824609Y-59875393D01*
X111606102Y-59696069D01*
X111473143Y-59625001D01*
X111606102Y-59553933D01*
X111824609Y-59374609D01*
X112003933Y-59156102D01*
X112137183Y-58906809D01*
X112219237Y-58636310D01*
X112246944Y-58355001D01*
X112219237Y-58073692D01*
X112137183Y-57803193D01*
X112003933Y-57553900D01*
X111824609Y-57335393D01*
X111606102Y-57156069D01*
X111473143Y-57085001D01*
X111606102Y-57013933D01*
X111824609Y-56834609D01*
X112003933Y-56616102D01*
X112137183Y-56366809D01*
X112219237Y-56096310D01*
X112246944Y-55815001D01*
X112219237Y-55533692D01*
X112137183Y-55263193D01*
X112003933Y-55013900D01*
X111824609Y-54795393D01*
X111606102Y-54616069D01*
X111468319Y-54542422D01*
X111660132Y-54427386D01*
X111868520Y-54238415D01*
X112036038Y-54012421D01*
X112156247Y-53758088D01*
X112196905Y-53624040D01*
X112074916Y-53402001D01*
X110932001Y-53402001D01*
X110932001Y-53422001D01*
X110678001Y-53422001D01*
X110678001Y-53402001D01*
X110658001Y-53402001D01*
X110658001Y-53148001D01*
X110678001Y-53148001D01*
X110678001Y-53128001D01*
X110932001Y-53128001D01*
X110932001Y-53148001D01*
X112074916Y-53148001D01*
X112196905Y-52925962D01*
X112156247Y-52791914D01*
X112103352Y-52680000D01*
X112246928Y-52680000D01*
X112259188Y-52804482D01*
X112295498Y-52924180D01*
X112354463Y-53034494D01*
X112433815Y-53131185D01*
X112530506Y-53210537D01*
X112640820Y-53269502D01*
X112760518Y-53305812D01*
X112885000Y-53318072D01*
X112974250Y-53315000D01*
X113133000Y-53156250D01*
X113133000Y-52407000D01*
X113387000Y-52407000D01*
X113387000Y-53156250D01*
X113545750Y-53315000D01*
X113635000Y-53318072D01*
X113759482Y-53305812D01*
X113879180Y-53269502D01*
X113989494Y-53210537D01*
X114086185Y-53131185D01*
X114165537Y-53034494D01*
X114224502Y-52924180D01*
X114260812Y-52804482D01*
X114273072Y-52680000D01*
X114270000Y-52565750D01*
X114111250Y-52407000D01*
X113387000Y-52407000D01*
X113133000Y-52407000D01*
X112408750Y-52407000D01*
X112250000Y-52565750D01*
X112246928Y-52680000D01*
X112103352Y-52680000D01*
X112036038Y-52537581D01*
X111868520Y-52311587D01*
X111704921Y-52163232D01*
X111729483Y-52160813D01*
X111849181Y-52124503D01*
X111959495Y-52065538D01*
X112056186Y-51986186D01*
X112135538Y-51889495D01*
X112194503Y-51779181D01*
X112230813Y-51659483D01*
X112243073Y-51535001D01*
X112243073Y-51495001D01*
X112333353Y-51495001D01*
X112352061Y-51530000D01*
G36*
X124981482Y-64398415D02*
G01*
X125189870Y-64587386D01*
X125381683Y-64702422D01*
X125243900Y-64776069D01*
X125025393Y-64955393D01*
X124846069Y-65173900D01*
X124712819Y-65423193D01*
X124630765Y-65693692D01*
X124603058Y-65975001D01*
X124630765Y-66256310D01*
X124712819Y-66526809D01*
X124846069Y-66776102D01*
X125025393Y-66994609D01*
X125243900Y-67173933D01*
X125381683Y-67247580D01*
X125189870Y-67362616D01*
X124981482Y-67551587D01*
X124813964Y-67777581D01*
X124693755Y-68031914D01*
X124653097Y-68165962D01*
X124775086Y-68388001D01*
X125918001Y-68388001D01*
X125918001Y-68368001D01*
X126172001Y-68368001D01*
X126172001Y-68388001D01*
X126192001Y-68388001D01*
X126192001Y-68642001D01*
X126172001Y-68642001D01*
X126172001Y-68662001D01*
X125918001Y-68662001D01*
X125918001Y-68642001D01*
X124775086Y-68642001D01*
X124653097Y-68864040D01*
X124693755Y-68998088D01*
X124813964Y-69252421D01*
X124981482Y-69478415D01*
X125189870Y-69667386D01*
X125381683Y-69782422D01*
X125243900Y-69856069D01*
X125025393Y-70035393D01*
X124846069Y-70253900D01*
X124712819Y-70503193D01*
X124630765Y-70773692D01*
X124603058Y-71055001D01*
X124630765Y-71336310D01*
X124644293Y-71380907D01*
X124475201Y-71550000D01*
X123724864Y-71550000D01*
X123794236Y-71321309D01*
X123821943Y-71040000D01*
X123794236Y-70758691D01*
X123712182Y-70488192D01*
X123578932Y-70238899D01*
X123399608Y-70020392D01*
X123181101Y-69841068D01*
X123048142Y-69770000D01*
X123181101Y-69698932D01*
X123399608Y-69519608D01*
X123578932Y-69301101D01*
X123712182Y-69051808D01*
X123794236Y-68781309D01*
X123821943Y-68500000D01*
X123794236Y-68218691D01*
X123712182Y-67948192D01*
X123578932Y-67698899D01*
X123399608Y-67480392D01*
X123181101Y-67301068D01*
X123048142Y-67230000D01*
X123181101Y-67158932D01*
X123399608Y-66979608D01*
X123578932Y-66761101D01*
X123712182Y-66511808D01*
X123794236Y-66241309D01*
X123821943Y-65960000D01*
X123794236Y-65678691D01*
X123780708Y-65634094D01*
X124661004Y-64753798D01*
X124690001Y-64730001D01*
X124716332Y-64697917D01*
X124784974Y-64614277D01*
X124855546Y-64482247D01*
X124868480Y-64439608D01*
X124899003Y-64338986D01*
X124903510Y-64293225D01*
X124981482Y-64398415D01*
X124981482Y-64398415D01*
G37*
X124981482Y-64398415D02*
X125189870Y-64587386D01*
X125381683Y-64702422D01*
X125243900Y-64776069D01*
X125025393Y-64955393D01*
X124846069Y-65173900D01*
X124712819Y-65423193D01*
X124630765Y-65693692D01*
X124603058Y-65975001D01*
X124630765Y-66256310D01*
X124712819Y-66526809D01*
X124846069Y-66776102D01*
X125025393Y-66994609D01*
X125243900Y-67173933D01*
X125381683Y-67247580D01*
X125189870Y-67362616D01*
X124981482Y-67551587D01*
X124813964Y-67777581D01*
X124693755Y-68031914D01*
X124653097Y-68165962D01*
X124775086Y-68388001D01*
X125918001Y-68388001D01*
X125918001Y-68368001D01*
X126172001Y-68368001D01*
X126172001Y-68388001D01*
X126192001Y-68388001D01*
X126192001Y-68642001D01*
X126172001Y-68642001D01*
X126172001Y-68662001D01*
X125918001Y-68662001D01*
X125918001Y-68642001D01*
X124775086Y-68642001D01*
X124653097Y-68864040D01*
X124693755Y-68998088D01*
X124813964Y-69252421D01*
X124981482Y-69478415D01*
X125189870Y-69667386D01*
X125381683Y-69782422D01*
X125243900Y-69856069D01*
X125025393Y-70035393D01*
X124846069Y-70253900D01*
X124712819Y-70503193D01*
X124630765Y-70773692D01*
X124603058Y-71055001D01*
X124630765Y-71336310D01*
X124644293Y-71380907D01*
X124475201Y-71550000D01*
X123724864Y-71550000D01*
X123794236Y-71321309D01*
X123821943Y-71040000D01*
X123794236Y-70758691D01*
X123712182Y-70488192D01*
X123578932Y-70238899D01*
X123399608Y-70020392D01*
X123181101Y-69841068D01*
X123048142Y-69770000D01*
X123181101Y-69698932D01*
X123399608Y-69519608D01*
X123578932Y-69301101D01*
X123712182Y-69051808D01*
X123794236Y-68781309D01*
X123821943Y-68500000D01*
X123794236Y-68218691D01*
X123712182Y-67948192D01*
X123578932Y-67698899D01*
X123399608Y-67480392D01*
X123181101Y-67301068D01*
X123048142Y-67230000D01*
X123181101Y-67158932D01*
X123399608Y-66979608D01*
X123578932Y-66761101D01*
X123712182Y-66511808D01*
X123794236Y-66241309D01*
X123821943Y-65960000D01*
X123794236Y-65678691D01*
X123780708Y-65634094D01*
X124661004Y-64753798D01*
X124690001Y-64730001D01*
X124716332Y-64697917D01*
X124784974Y-64614277D01*
X124855546Y-64482247D01*
X124868480Y-64439608D01*
X124899003Y-64338986D01*
X124903510Y-64293225D01*
X124981482Y-64398415D01*
G36*
X119055026Y-68334276D02*
G01*
X119068763Y-68351014D01*
X119149999Y-68450001D01*
X119179002Y-68473803D01*
X119716200Y-69011002D01*
X119739999Y-69040001D01*
X119768997Y-69063799D01*
X119855723Y-69134974D01*
X119910876Y-69164454D01*
X119987753Y-69205546D01*
X120131014Y-69249003D01*
X120242667Y-69260000D01*
X120242677Y-69260000D01*
X120279999Y-69263676D01*
X120317322Y-69260000D01*
X121159099Y-69260000D01*
X121181068Y-69301101D01*
X121360392Y-69519608D01*
X121578899Y-69698932D01*
X121711858Y-69770000D01*
X121578899Y-69841068D01*
X121360392Y-70020392D01*
X121181068Y-70238899D01*
X121159099Y-70280000D01*
X120234802Y-70280000D01*
X119020000Y-69065199D01*
X119020000Y-68268747D01*
X119055026Y-68334276D01*
X119055026Y-68334276D01*
G37*
X119055026Y-68334276D02*
X119068763Y-68351014D01*
X119149999Y-68450001D01*
X119179002Y-68473803D01*
X119716200Y-69011002D01*
X119739999Y-69040001D01*
X119768997Y-69063799D01*
X119855723Y-69134974D01*
X119910876Y-69164454D01*
X119987753Y-69205546D01*
X120131014Y-69249003D01*
X120242667Y-69260000D01*
X120242677Y-69260000D01*
X120279999Y-69263676D01*
X120317322Y-69260000D01*
X121159099Y-69260000D01*
X121181068Y-69301101D01*
X121360392Y-69519608D01*
X121578899Y-69698932D01*
X121711858Y-69770000D01*
X121578899Y-69841068D01*
X121360392Y-70020392D01*
X121181068Y-70238899D01*
X121159099Y-70280000D01*
X120234802Y-70280000D01*
X119020000Y-69065199D01*
X119020000Y-68268747D01*
X119055026Y-68334276D01*
G36*
X126172001Y-60768001D02*
G01*
X126192001Y-60768001D01*
X126192001Y-61022001D01*
X126172001Y-61022001D01*
X126172001Y-63308001D01*
X126192001Y-63308001D01*
X126192001Y-63562001D01*
X126172001Y-63562001D01*
X126172001Y-63582001D01*
X125918001Y-63582001D01*
X125918001Y-63562001D01*
X125898001Y-63562001D01*
X125898001Y-63308001D01*
X125918001Y-63308001D01*
X125918001Y-61022001D01*
X125898001Y-61022001D01*
X125898001Y-60768001D01*
X125918001Y-60768001D01*
X125918001Y-60748001D01*
X126172001Y-60748001D01*
X126172001Y-60768001D01*
X126172001Y-60768001D01*
G37*
X126172001Y-60768001D02*
X126192001Y-60768001D01*
X126192001Y-61022001D01*
X126172001Y-61022001D01*
X126172001Y-63308001D01*
X126192001Y-63308001D01*
X126192001Y-63562001D01*
X126172001Y-63562001D01*
X126172001Y-63582001D01*
X125918001Y-63582001D01*
X125918001Y-63562001D01*
X125898001Y-63562001D01*
X125898001Y-63308001D01*
X125918001Y-63308001D01*
X125918001Y-61022001D01*
X125898001Y-61022001D01*
X125898001Y-60768001D01*
X125918001Y-60768001D01*
X125918001Y-60748001D01*
X126172001Y-60748001D01*
X126172001Y-60768001D01*
G36*
X125025393Y-59374609D02*
G01*
X125243900Y-59553933D01*
X125381683Y-59627580D01*
X125189870Y-59742616D01*
X124981482Y-59931587D01*
X124910000Y-60028021D01*
X124910000Y-59234002D01*
X125025393Y-59374609D01*
X125025393Y-59374609D01*
G37*
X125025393Y-59374609D02*
X125243900Y-59553933D01*
X125381683Y-59627580D01*
X125189870Y-59742616D01*
X124981482Y-59931587D01*
X124910000Y-60028021D01*
X124910000Y-59234002D01*
X125025393Y-59374609D01*
G36*
X126590001Y-49400754D02*
G01*
X126326310Y-49320765D01*
X126115493Y-49300001D01*
X125974509Y-49300001D01*
X125763692Y-49320765D01*
X125493193Y-49402819D01*
X125243900Y-49536069D01*
X125025393Y-49715393D01*
X124846069Y-49933900D01*
X124712819Y-50183193D01*
X124630765Y-50453692D01*
X124603058Y-50735001D01*
X124630765Y-51016310D01*
X124712819Y-51286809D01*
X124846069Y-51536102D01*
X125025393Y-51754609D01*
X125243900Y-51933933D01*
X125381683Y-52007580D01*
X125189870Y-52122616D01*
X124981482Y-52311587D01*
X124813964Y-52537581D01*
X124693755Y-52791914D01*
X124653097Y-52925962D01*
X124775086Y-53148001D01*
X125918001Y-53148001D01*
X125918001Y-53128001D01*
X126172001Y-53128001D01*
X126172001Y-53148001D01*
X126192001Y-53148001D01*
X126192001Y-53402001D01*
X126172001Y-53402001D01*
X126172001Y-55688001D01*
X126192001Y-55688001D01*
X126192001Y-55942001D01*
X126172001Y-55942001D01*
X126172001Y-55962001D01*
X125918001Y-55962001D01*
X125918001Y-55942001D01*
X125898001Y-55942001D01*
X125898001Y-55688001D01*
X125918001Y-55688001D01*
X125918001Y-53402001D01*
X124775086Y-53402001D01*
X124653097Y-53624040D01*
X124693755Y-53758088D01*
X124813964Y-54012421D01*
X124981482Y-54238415D01*
X125189870Y-54427386D01*
X125385983Y-54545001D01*
X125189870Y-54662616D01*
X124981482Y-54851587D01*
X124910000Y-54948021D01*
X124910000Y-54637333D01*
X124913677Y-54600000D01*
X124899003Y-54451014D01*
X124855546Y-54307753D01*
X124784974Y-54175724D01*
X124713799Y-54088997D01*
X124690001Y-54059999D01*
X124661003Y-54036201D01*
X123927916Y-53303115D01*
X123938072Y-53200000D01*
X123938072Y-51700000D01*
X123925812Y-51575518D01*
X123889502Y-51455820D01*
X123830537Y-51345506D01*
X123751185Y-51248815D01*
X123654494Y-51169463D01*
X123544180Y-51110498D01*
X123424482Y-51074188D01*
X123300000Y-51061928D01*
X122700000Y-51061928D01*
X122575518Y-51074188D01*
X122455820Y-51110498D01*
X122365000Y-51159043D01*
X122274180Y-51110498D01*
X122154482Y-51074188D01*
X122030000Y-51061928D01*
X121845001Y-51061928D01*
X121845001Y-49202324D01*
X121848677Y-49165001D01*
X121845001Y-49127678D01*
X121845001Y-49127668D01*
X121834004Y-49016015D01*
X121790547Y-48872754D01*
X121751126Y-48799003D01*
X121719975Y-48740724D01*
X121648800Y-48653998D01*
X121625002Y-48625000D01*
X121596003Y-48601201D01*
X121432874Y-48438072D01*
X122030000Y-48438072D01*
X122154482Y-48425812D01*
X122274180Y-48389502D01*
X122365000Y-48340957D01*
X122455820Y-48389502D01*
X122575518Y-48425812D01*
X122700000Y-48438072D01*
X122714250Y-48435000D01*
X122873000Y-48276250D01*
X122873000Y-47177000D01*
X123127000Y-47177000D01*
X123127000Y-48276250D01*
X123285750Y-48435000D01*
X123300000Y-48438072D01*
X123424482Y-48425812D01*
X123544180Y-48389502D01*
X123654494Y-48330537D01*
X123751185Y-48251185D01*
X123830537Y-48154494D01*
X123889502Y-48044180D01*
X123925812Y-47924482D01*
X123938072Y-47800000D01*
X123935000Y-47335750D01*
X123776250Y-47177000D01*
X123127000Y-47177000D01*
X122873000Y-47177000D01*
X122853000Y-47177000D01*
X122853000Y-46923000D01*
X122873000Y-46923000D01*
X122873000Y-45823750D01*
X123127000Y-45823750D01*
X123127000Y-46923000D01*
X123776250Y-46923000D01*
X123935000Y-46764250D01*
X123938072Y-46300000D01*
X123925812Y-46175518D01*
X123889502Y-46055820D01*
X123830537Y-45945506D01*
X123751185Y-45848815D01*
X123654494Y-45769463D01*
X123544180Y-45710498D01*
X123424482Y-45674188D01*
X123300000Y-45661928D01*
X123285750Y-45665000D01*
X123127000Y-45823750D01*
X122873000Y-45823750D01*
X122714250Y-45665000D01*
X122700000Y-45661928D01*
X122575518Y-45674188D01*
X122455820Y-45710498D01*
X122365000Y-45759043D01*
X122274180Y-45710498D01*
X122154482Y-45674188D01*
X122030000Y-45661928D01*
X121430000Y-45661928D01*
X121305518Y-45674188D01*
X121185820Y-45710498D01*
X121095000Y-45759043D01*
X121004180Y-45710498D01*
X120884482Y-45674188D01*
X120760000Y-45661928D01*
X120160000Y-45661928D01*
X120035518Y-45674188D01*
X119915820Y-45710498D01*
X119825000Y-45759043D01*
X119734180Y-45710498D01*
X119614482Y-45674188D01*
X119490000Y-45661928D01*
X119349124Y-45661928D01*
X119350405Y-45660000D01*
X126590001Y-45660000D01*
X126590001Y-49400754D01*
X126590001Y-49400754D01*
G37*
X126590001Y-49400754D02*
X126326310Y-49320765D01*
X126115493Y-49300001D01*
X125974509Y-49300001D01*
X125763692Y-49320765D01*
X125493193Y-49402819D01*
X125243900Y-49536069D01*
X125025393Y-49715393D01*
X124846069Y-49933900D01*
X124712819Y-50183193D01*
X124630765Y-50453692D01*
X124603058Y-50735001D01*
X124630765Y-51016310D01*
X124712819Y-51286809D01*
X124846069Y-51536102D01*
X125025393Y-51754609D01*
X125243900Y-51933933D01*
X125381683Y-52007580D01*
X125189870Y-52122616D01*
X124981482Y-52311587D01*
X124813964Y-52537581D01*
X124693755Y-52791914D01*
X124653097Y-52925962D01*
X124775086Y-53148001D01*
X125918001Y-53148001D01*
X125918001Y-53128001D01*
X126172001Y-53128001D01*
X126172001Y-53148001D01*
X126192001Y-53148001D01*
X126192001Y-53402001D01*
X126172001Y-53402001D01*
X126172001Y-55688001D01*
X126192001Y-55688001D01*
X126192001Y-55942001D01*
X126172001Y-55942001D01*
X126172001Y-55962001D01*
X125918001Y-55962001D01*
X125918001Y-55942001D01*
X125898001Y-55942001D01*
X125898001Y-55688001D01*
X125918001Y-55688001D01*
X125918001Y-53402001D01*
X124775086Y-53402001D01*
X124653097Y-53624040D01*
X124693755Y-53758088D01*
X124813964Y-54012421D01*
X124981482Y-54238415D01*
X125189870Y-54427386D01*
X125385983Y-54545001D01*
X125189870Y-54662616D01*
X124981482Y-54851587D01*
X124910000Y-54948021D01*
X124910000Y-54637333D01*
X124913677Y-54600000D01*
X124899003Y-54451014D01*
X124855546Y-54307753D01*
X124784974Y-54175724D01*
X124713799Y-54088997D01*
X124690001Y-54059999D01*
X124661003Y-54036201D01*
X123927916Y-53303115D01*
X123938072Y-53200000D01*
X123938072Y-51700000D01*
X123925812Y-51575518D01*
X123889502Y-51455820D01*
X123830537Y-51345506D01*
X123751185Y-51248815D01*
X123654494Y-51169463D01*
X123544180Y-51110498D01*
X123424482Y-51074188D01*
X123300000Y-51061928D01*
X122700000Y-51061928D01*
X122575518Y-51074188D01*
X122455820Y-51110498D01*
X122365000Y-51159043D01*
X122274180Y-51110498D01*
X122154482Y-51074188D01*
X122030000Y-51061928D01*
X121845001Y-51061928D01*
X121845001Y-49202324D01*
X121848677Y-49165001D01*
X121845001Y-49127678D01*
X121845001Y-49127668D01*
X121834004Y-49016015D01*
X121790547Y-48872754D01*
X121751126Y-48799003D01*
X121719975Y-48740724D01*
X121648800Y-48653998D01*
X121625002Y-48625000D01*
X121596003Y-48601201D01*
X121432874Y-48438072D01*
X122030000Y-48438072D01*
X122154482Y-48425812D01*
X122274180Y-48389502D01*
X122365000Y-48340957D01*
X122455820Y-48389502D01*
X122575518Y-48425812D01*
X122700000Y-48438072D01*
X122714250Y-48435000D01*
X122873000Y-48276250D01*
X122873000Y-47177000D01*
X123127000Y-47177000D01*
X123127000Y-48276250D01*
X123285750Y-48435000D01*
X123300000Y-48438072D01*
X123424482Y-48425812D01*
X123544180Y-48389502D01*
X123654494Y-48330537D01*
X123751185Y-48251185D01*
X123830537Y-48154494D01*
X123889502Y-48044180D01*
X123925812Y-47924482D01*
X123938072Y-47800000D01*
X123935000Y-47335750D01*
X123776250Y-47177000D01*
X123127000Y-47177000D01*
X122873000Y-47177000D01*
X122853000Y-47177000D01*
X122853000Y-46923000D01*
X122873000Y-46923000D01*
X122873000Y-45823750D01*
X123127000Y-45823750D01*
X123127000Y-46923000D01*
X123776250Y-46923000D01*
X123935000Y-46764250D01*
X123938072Y-46300000D01*
X123925812Y-46175518D01*
X123889502Y-46055820D01*
X123830537Y-45945506D01*
X123751185Y-45848815D01*
X123654494Y-45769463D01*
X123544180Y-45710498D01*
X123424482Y-45674188D01*
X123300000Y-45661928D01*
X123285750Y-45665000D01*
X123127000Y-45823750D01*
X122873000Y-45823750D01*
X122714250Y-45665000D01*
X122700000Y-45661928D01*
X122575518Y-45674188D01*
X122455820Y-45710498D01*
X122365000Y-45759043D01*
X122274180Y-45710498D01*
X122154482Y-45674188D01*
X122030000Y-45661928D01*
X121430000Y-45661928D01*
X121305518Y-45674188D01*
X121185820Y-45710498D01*
X121095000Y-45759043D01*
X121004180Y-45710498D01*
X120884482Y-45674188D01*
X120760000Y-45661928D01*
X120160000Y-45661928D01*
X120035518Y-45674188D01*
X119915820Y-45710498D01*
X119825000Y-45759043D01*
X119734180Y-45710498D01*
X119614482Y-45674188D01*
X119490000Y-45661928D01*
X119349124Y-45661928D01*
X119350405Y-45660000D01*
X126590001Y-45660000D01*
X126590001Y-49400754D01*
M02*
