M48
METRIC,TZ
T1C0.400
T2C0.800
%
G90
G05
T1
X116030Y-50540
X118240Y-50540
X118260Y-63480
X118450Y-83800
X120250Y-69850
X124200Y-69850
X124250Y-65600
X124550Y-51950
T2
X107150Y-55800
X107150Y-58340
X107150Y-60880
X107150Y-63420
X107150Y-65960
X107150Y-68500
X107150Y-71040
X107150Y-73580
X107150Y-76120
X107150Y-78660
X107150Y-81200
X107150Y-83740
X122390Y-55800
X122390Y-58340
X122390Y-60880
X122390Y-63420
X122390Y-65960
X122390Y-68500
X122390Y-71040
X122390Y-73580
X122390Y-76120
X122390Y-78660
X122390Y-81200
X122390Y-83740
X110805Y-50735
X110805Y-53275
X110805Y-55815
X110805Y-58355
X110805Y-60895
X110805Y-63435
X110805Y-65975
X110805Y-68515
X110805Y-71055
X110805Y-73595
X110805Y-76135
X110805Y-78675
X110805Y-81215
X110805Y-83755
X126045Y-50735
X126045Y-53275
X126045Y-55815
X126045Y-58355
X126045Y-60895
X126045Y-63435
X126045Y-65975
X126045Y-68515
X126045Y-71055
X126045Y-73595
X126045Y-76135
X126045Y-78675
X126045Y-81215
X126045Y-83755
T0
M30
