M48
METRIC,TZ
T1C0.400
T2C0.800
%
G90
G05
T1
X137070Y-97090
T2
X133260Y-95320
X133260Y-97860
X133260Y-100400
X133260Y-102940
X133260Y-105480
X133260Y-108020
X133260Y-110560
X133260Y-113100
X140880Y-95320
X140880Y-97860
X140880Y-100400
X140880Y-102940
X140880Y-105480
X140880Y-108020
X140880Y-110560
X140880Y-113100
X129375Y-87685
X129375Y-90225
X129375Y-92765
X129375Y-95305
X129375Y-97845
X129375Y-100385
X129375Y-102925
X129375Y-105465
X129375Y-108005
X129375Y-110545
X129375Y-113085
X129375Y-115625
X129375Y-118165
X129375Y-120705
X144615Y-87685
X144615Y-90225
X144615Y-92765
X144615Y-95305
X144615Y-97845
X144615Y-100385
X144615Y-102925
X144615Y-105465
X144615Y-108005
X144615Y-110545
X144615Y-113085
X144615Y-115625
X144615Y-118165
X144615Y-120705
T0
M30
