G04 #@! TF.GenerationSoftware,KiCad,Pcbnew,(5.1.4)-1*
G04 #@! TF.CreationDate,2021-03-08T19:32:54-05:00*
G04 #@! TF.ProjectId,27c256_to_82s129,32376332-3536-45f7-946f-5f3832733132,rev?*
G04 #@! TF.SameCoordinates,Original*
G04 #@! TF.FileFunction,Legend,Top*
G04 #@! TF.FilePolarity,Positive*
%FSLAX46Y46*%
G04 Gerber Fmt 4.6, Leading zero omitted, Abs format (unit mm)*
G04 Created by KiCad (PCBNEW (5.1.4)-1) date 2021-03-08 19:32:54*
%MOMM*%
%LPD*%
G04 APERTURE LIST*
%ADD10C,0.120000*%
%ADD11C,0.150000*%
G04 APERTURE END LIST*
D10*
X130700000Y-90200000D02*
X143300000Y-90200000D01*
D11*
X132053571Y-88187500D02*
X132410714Y-88187500D01*
X131982142Y-88401785D02*
X132232142Y-87651785D01*
X132482142Y-88401785D01*
X132625000Y-87651785D02*
X133053571Y-87651785D01*
X132839285Y-88401785D02*
X132839285Y-87651785D01*
X133267857Y-87723214D02*
X133303571Y-87687500D01*
X133375000Y-87651785D01*
X133553571Y-87651785D01*
X133625000Y-87687500D01*
X133660714Y-87723214D01*
X133696428Y-87794642D01*
X133696428Y-87866071D01*
X133660714Y-87973214D01*
X133232142Y-88401785D01*
X133696428Y-88401785D01*
X133946428Y-87651785D02*
X134446428Y-87651785D01*
X134125000Y-88401785D01*
X135160714Y-88330357D02*
X135125000Y-88366071D01*
X135017857Y-88401785D01*
X134946428Y-88401785D01*
X134839285Y-88366071D01*
X134767857Y-88294642D01*
X134732142Y-88223214D01*
X134696428Y-88080357D01*
X134696428Y-87973214D01*
X134732142Y-87830357D01*
X134767857Y-87758928D01*
X134839285Y-87687500D01*
X134946428Y-87651785D01*
X135017857Y-87651785D01*
X135125000Y-87687500D01*
X135160714Y-87723214D01*
X135446428Y-87723214D02*
X135482142Y-87687500D01*
X135553571Y-87651785D01*
X135732142Y-87651785D01*
X135803571Y-87687500D01*
X135839285Y-87723214D01*
X135875000Y-87794642D01*
X135875000Y-87866071D01*
X135839285Y-87973214D01*
X135410714Y-88401785D01*
X135875000Y-88401785D01*
X136553571Y-87651785D02*
X136196428Y-87651785D01*
X136160714Y-88008928D01*
X136196428Y-87973214D01*
X136267857Y-87937500D01*
X136446428Y-87937500D01*
X136517857Y-87973214D01*
X136553571Y-88008928D01*
X136589285Y-88080357D01*
X136589285Y-88258928D01*
X136553571Y-88330357D01*
X136517857Y-88366071D01*
X136446428Y-88401785D01*
X136267857Y-88401785D01*
X136196428Y-88366071D01*
X136160714Y-88330357D01*
X137232142Y-87651785D02*
X137089285Y-87651785D01*
X137017857Y-87687500D01*
X136982142Y-87723214D01*
X136910714Y-87830357D01*
X136875000Y-87973214D01*
X136875000Y-88258928D01*
X136910714Y-88330357D01*
X136946428Y-88366071D01*
X137017857Y-88401785D01*
X137160714Y-88401785D01*
X137232142Y-88366071D01*
X137267857Y-88330357D01*
X137303571Y-88258928D01*
X137303571Y-88080357D01*
X137267857Y-88008928D01*
X137232142Y-87973214D01*
X137160714Y-87937500D01*
X137017857Y-87937500D01*
X136946428Y-87973214D01*
X136910714Y-88008928D01*
X136875000Y-88080357D01*
X138053571Y-88401785D02*
X137803571Y-88044642D01*
X137625000Y-88401785D02*
X137625000Y-87651785D01*
X137910714Y-87651785D01*
X137982142Y-87687500D01*
X138017857Y-87723214D01*
X138053571Y-87794642D01*
X138053571Y-87901785D01*
X138017857Y-87973214D01*
X137982142Y-88008928D01*
X137910714Y-88044642D01*
X137625000Y-88044642D01*
X138375000Y-88116071D02*
X138946428Y-88116071D01*
X139625000Y-87901785D02*
X139625000Y-88401785D01*
X139446428Y-87616071D02*
X139267857Y-88151785D01*
X139732142Y-88151785D01*
X140375000Y-87651785D02*
X140017857Y-87651785D01*
X139982142Y-88008928D01*
X140017857Y-87973214D01*
X140089285Y-87937500D01*
X140267857Y-87937500D01*
X140339285Y-87973214D01*
X140375000Y-88008928D01*
X140410714Y-88080357D01*
X140410714Y-88258928D01*
X140375000Y-88330357D01*
X140339285Y-88366071D01*
X140267857Y-88401785D01*
X140089285Y-88401785D01*
X140017857Y-88366071D01*
X139982142Y-88330357D01*
X140732142Y-88401785D02*
X140732142Y-87651785D01*
X141017857Y-87651785D01*
X141089285Y-87687500D01*
X141125000Y-87723214D01*
X141160714Y-87794642D01*
X141160714Y-87901785D01*
X141125000Y-87973214D01*
X141089285Y-88008928D01*
X141017857Y-88044642D01*
X140732142Y-88044642D01*
X141482142Y-87651785D02*
X141482142Y-88258928D01*
X141517857Y-88330357D01*
X141553571Y-88366071D01*
X141625000Y-88401785D01*
X141767857Y-88401785D01*
X141839285Y-88366071D01*
X141875000Y-88330357D01*
X141910714Y-88258928D01*
X141910714Y-87651785D01*
X132250000Y-89176785D02*
X132535714Y-89176785D01*
X132357142Y-88926785D02*
X132357142Y-89569642D01*
X132392857Y-89641071D01*
X132464285Y-89676785D01*
X132535714Y-89676785D01*
X132892857Y-89676785D02*
X132821428Y-89641071D01*
X132785714Y-89605357D01*
X132750000Y-89533928D01*
X132750000Y-89319642D01*
X132785714Y-89248214D01*
X132821428Y-89212500D01*
X132892857Y-89176785D01*
X133000000Y-89176785D01*
X133071428Y-89212500D01*
X133107142Y-89248214D01*
X133142857Y-89319642D01*
X133142857Y-89533928D01*
X133107142Y-89605357D01*
X133071428Y-89641071D01*
X133000000Y-89676785D01*
X132892857Y-89676785D01*
X134035714Y-89676785D02*
X134035714Y-88926785D01*
X134321428Y-88926785D01*
X134392857Y-88962500D01*
X134428571Y-88998214D01*
X134464285Y-89069642D01*
X134464285Y-89176785D01*
X134428571Y-89248214D01*
X134392857Y-89283928D01*
X134321428Y-89319642D01*
X134035714Y-89319642D01*
X135214285Y-89676785D02*
X134964285Y-89319642D01*
X134785714Y-89676785D02*
X134785714Y-88926785D01*
X135071428Y-88926785D01*
X135142857Y-88962500D01*
X135178571Y-88998214D01*
X135214285Y-89069642D01*
X135214285Y-89176785D01*
X135178571Y-89248214D01*
X135142857Y-89283928D01*
X135071428Y-89319642D01*
X134785714Y-89319642D01*
X135678571Y-88926785D02*
X135821428Y-88926785D01*
X135892857Y-88962500D01*
X135964285Y-89033928D01*
X136000000Y-89176785D01*
X136000000Y-89426785D01*
X135964285Y-89569642D01*
X135892857Y-89641071D01*
X135821428Y-89676785D01*
X135678571Y-89676785D01*
X135607142Y-89641071D01*
X135535714Y-89569642D01*
X135500000Y-89426785D01*
X135500000Y-89176785D01*
X135535714Y-89033928D01*
X135607142Y-88962500D01*
X135678571Y-88926785D01*
X136321428Y-89676785D02*
X136321428Y-88926785D01*
X136571428Y-89462500D01*
X136821428Y-88926785D01*
X136821428Y-89676785D01*
X138071428Y-89676785D02*
X138071428Y-89283928D01*
X138035714Y-89212500D01*
X137964285Y-89176785D01*
X137821428Y-89176785D01*
X137750000Y-89212500D01*
X138071428Y-89641071D02*
X138000000Y-89676785D01*
X137821428Y-89676785D01*
X137750000Y-89641071D01*
X137714285Y-89569642D01*
X137714285Y-89498214D01*
X137750000Y-89426785D01*
X137821428Y-89391071D01*
X138000000Y-89391071D01*
X138071428Y-89355357D01*
X138750000Y-89676785D02*
X138750000Y-88926785D01*
X138750000Y-89641071D02*
X138678571Y-89676785D01*
X138535714Y-89676785D01*
X138464285Y-89641071D01*
X138428571Y-89605357D01*
X138392857Y-89533928D01*
X138392857Y-89319642D01*
X138428571Y-89248214D01*
X138464285Y-89212500D01*
X138535714Y-89176785D01*
X138678571Y-89176785D01*
X138750000Y-89212500D01*
X139428571Y-89676785D02*
X139428571Y-89283928D01*
X139392857Y-89212500D01*
X139321428Y-89176785D01*
X139178571Y-89176785D01*
X139107142Y-89212500D01*
X139428571Y-89641071D02*
X139357142Y-89676785D01*
X139178571Y-89676785D01*
X139107142Y-89641071D01*
X139071428Y-89569642D01*
X139071428Y-89498214D01*
X139107142Y-89426785D01*
X139178571Y-89391071D01*
X139357142Y-89391071D01*
X139428571Y-89355357D01*
X139785714Y-89176785D02*
X139785714Y-89926785D01*
X139785714Y-89212500D02*
X139857142Y-89176785D01*
X140000000Y-89176785D01*
X140071428Y-89212500D01*
X140107142Y-89248214D01*
X140142857Y-89319642D01*
X140142857Y-89533928D01*
X140107142Y-89605357D01*
X140071428Y-89641071D01*
X140000000Y-89676785D01*
X139857142Y-89676785D01*
X139785714Y-89641071D01*
X140357142Y-89176785D02*
X140642857Y-89176785D01*
X140464285Y-88926785D02*
X140464285Y-89569642D01*
X140500000Y-89641071D01*
X140571428Y-89676785D01*
X140642857Y-89676785D01*
X141178571Y-89641071D02*
X141107142Y-89676785D01*
X140964285Y-89676785D01*
X140892857Y-89641071D01*
X140857142Y-89569642D01*
X140857142Y-89283928D01*
X140892857Y-89212500D01*
X140964285Y-89176785D01*
X141107142Y-89176785D01*
X141178571Y-89212500D01*
X141214285Y-89283928D01*
X141214285Y-89355357D01*
X140857142Y-89426785D01*
X141535714Y-89676785D02*
X141535714Y-89176785D01*
X141535714Y-89319642D02*
X141571428Y-89248214D01*
X141607142Y-89212500D01*
X141678571Y-89176785D01*
X141750000Y-89176785D01*
X130821428Y-92260714D02*
X130857142Y-92225000D01*
X130928571Y-92189285D01*
X131107142Y-92189285D01*
X131178571Y-92225000D01*
X131214285Y-92260714D01*
X131250000Y-92332142D01*
X131250000Y-92403571D01*
X131214285Y-92510714D01*
X130785714Y-92939285D01*
X131250000Y-92939285D01*
X131571428Y-92653571D02*
X132142857Y-92653571D01*
X132428571Y-92189285D02*
X132892857Y-92189285D01*
X132642857Y-92475000D01*
X132750000Y-92475000D01*
X132821428Y-92510714D01*
X132857142Y-92546428D01*
X132892857Y-92617857D01*
X132892857Y-92796428D01*
X132857142Y-92867857D01*
X132821428Y-92903571D01*
X132750000Y-92939285D01*
X132535714Y-92939285D01*
X132464285Y-92903571D01*
X132428571Y-92867857D01*
X133214285Y-92867857D02*
X133250000Y-92903571D01*
X133214285Y-92939285D01*
X133178571Y-92903571D01*
X133214285Y-92867857D01*
X133214285Y-92939285D01*
X133214285Y-92475000D02*
X133250000Y-92510714D01*
X133214285Y-92546428D01*
X133178571Y-92510714D01*
X133214285Y-92475000D01*
X133214285Y-92546428D01*
X134250000Y-92510714D02*
X134178571Y-92475000D01*
X134142857Y-92439285D01*
X134107142Y-92367857D01*
X134107142Y-92332142D01*
X134142857Y-92260714D01*
X134178571Y-92225000D01*
X134250000Y-92189285D01*
X134392857Y-92189285D01*
X134464285Y-92225000D01*
X134500000Y-92260714D01*
X134535714Y-92332142D01*
X134535714Y-92367857D01*
X134500000Y-92439285D01*
X134464285Y-92475000D01*
X134392857Y-92510714D01*
X134250000Y-92510714D01*
X134178571Y-92546428D01*
X134142857Y-92582142D01*
X134107142Y-92653571D01*
X134107142Y-92796428D01*
X134142857Y-92867857D01*
X134178571Y-92903571D01*
X134250000Y-92939285D01*
X134392857Y-92939285D01*
X134464285Y-92903571D01*
X134500000Y-92867857D01*
X134535714Y-92796428D01*
X134535714Y-92653571D01*
X134500000Y-92582142D01*
X134464285Y-92546428D01*
X134392857Y-92510714D01*
X134821428Y-92260714D02*
X134857142Y-92225000D01*
X134928571Y-92189285D01*
X135107142Y-92189285D01*
X135178571Y-92225000D01*
X135214285Y-92260714D01*
X135250000Y-92332142D01*
X135250000Y-92403571D01*
X135214285Y-92510714D01*
X134785714Y-92939285D01*
X135250000Y-92939285D01*
X135535714Y-92903571D02*
X135642857Y-92939285D01*
X135821428Y-92939285D01*
X135892857Y-92903571D01*
X135928571Y-92867857D01*
X135964285Y-92796428D01*
X135964285Y-92725000D01*
X135928571Y-92653571D01*
X135892857Y-92617857D01*
X135821428Y-92582142D01*
X135678571Y-92546428D01*
X135607142Y-92510714D01*
X135571428Y-92475000D01*
X135535714Y-92403571D01*
X135535714Y-92332142D01*
X135571428Y-92260714D01*
X135607142Y-92225000D01*
X135678571Y-92189285D01*
X135857142Y-92189285D01*
X135964285Y-92225000D01*
X136678571Y-92939285D02*
X136250000Y-92939285D01*
X136464285Y-92939285D02*
X136464285Y-92189285D01*
X136392857Y-92296428D01*
X136321428Y-92367857D01*
X136250000Y-92403571D01*
X136964285Y-92260714D02*
X137000000Y-92225000D01*
X137071428Y-92189285D01*
X137250000Y-92189285D01*
X137321428Y-92225000D01*
X137357142Y-92260714D01*
X137392857Y-92332142D01*
X137392857Y-92403571D01*
X137357142Y-92510714D01*
X136928571Y-92939285D01*
X137392857Y-92939285D01*
X138035714Y-92189285D02*
X137892857Y-92189285D01*
X137821428Y-92225000D01*
X137785714Y-92260714D01*
X137714285Y-92367857D01*
X137678571Y-92510714D01*
X137678571Y-92796428D01*
X137714285Y-92867857D01*
X137750000Y-92903571D01*
X137821428Y-92939285D01*
X137964285Y-92939285D01*
X138035714Y-92903571D01*
X138071428Y-92867857D01*
X138107142Y-92796428D01*
X138107142Y-92617857D01*
X138071428Y-92546428D01*
X138035714Y-92510714D01*
X137964285Y-92475000D01*
X137821428Y-92475000D01*
X137750000Y-92510714D01*
X137714285Y-92546428D01*
X137678571Y-92617857D01*
X138964285Y-92153571D02*
X138321428Y-93117857D01*
X139321428Y-92510714D02*
X139250000Y-92475000D01*
X139214285Y-92439285D01*
X139178571Y-92367857D01*
X139178571Y-92332142D01*
X139214285Y-92260714D01*
X139250000Y-92225000D01*
X139321428Y-92189285D01*
X139464285Y-92189285D01*
X139535714Y-92225000D01*
X139571428Y-92260714D01*
X139607142Y-92332142D01*
X139607142Y-92367857D01*
X139571428Y-92439285D01*
X139535714Y-92475000D01*
X139464285Y-92510714D01*
X139321428Y-92510714D01*
X139250000Y-92546428D01*
X139214285Y-92582142D01*
X139178571Y-92653571D01*
X139178571Y-92796428D01*
X139214285Y-92867857D01*
X139250000Y-92903571D01*
X139321428Y-92939285D01*
X139464285Y-92939285D01*
X139535714Y-92903571D01*
X139571428Y-92867857D01*
X139607142Y-92796428D01*
X139607142Y-92653571D01*
X139571428Y-92582142D01*
X139535714Y-92546428D01*
X139464285Y-92510714D01*
X139892857Y-92260714D02*
X139928571Y-92225000D01*
X140000000Y-92189285D01*
X140178571Y-92189285D01*
X140250000Y-92225000D01*
X140285714Y-92260714D01*
X140321428Y-92332142D01*
X140321428Y-92403571D01*
X140285714Y-92510714D01*
X139857142Y-92939285D01*
X140321428Y-92939285D01*
X140607142Y-92903571D02*
X140714285Y-92939285D01*
X140892857Y-92939285D01*
X140964285Y-92903571D01*
X141000000Y-92867857D01*
X141035714Y-92796428D01*
X141035714Y-92725000D01*
X141000000Y-92653571D01*
X140964285Y-92617857D01*
X140892857Y-92582142D01*
X140750000Y-92546428D01*
X140678571Y-92510714D01*
X140642857Y-92475000D01*
X140607142Y-92403571D01*
X140607142Y-92332142D01*
X140642857Y-92260714D01*
X140678571Y-92225000D01*
X140750000Y-92189285D01*
X140928571Y-92189285D01*
X141035714Y-92225000D01*
X141750000Y-92939285D02*
X141321428Y-92939285D01*
X141535714Y-92939285D02*
X141535714Y-92189285D01*
X141464285Y-92296428D01*
X141392857Y-92367857D01*
X141321428Y-92403571D01*
X142035714Y-92260714D02*
X142071428Y-92225000D01*
X142142857Y-92189285D01*
X142321428Y-92189285D01*
X142392857Y-92225000D01*
X142428571Y-92260714D01*
X142464285Y-92332142D01*
X142464285Y-92403571D01*
X142428571Y-92510714D01*
X142000000Y-92939285D01*
X142464285Y-92939285D01*
X142821428Y-92939285D02*
X142964285Y-92939285D01*
X143035714Y-92903571D01*
X143071428Y-92867857D01*
X143142857Y-92760714D01*
X143178571Y-92617857D01*
X143178571Y-92332142D01*
X143142857Y-92260714D01*
X143107142Y-92225000D01*
X143035714Y-92189285D01*
X142892857Y-92189285D01*
X142821428Y-92225000D01*
X142785714Y-92260714D01*
X142750000Y-92332142D01*
X142750000Y-92510714D01*
X142785714Y-92582142D01*
X142821428Y-92617857D01*
X142892857Y-92653571D01*
X143035714Y-92653571D01*
X143107142Y-92617857D01*
X143142857Y-92582142D01*
X143178571Y-92510714D01*
X131250000Y-91439285D02*
X130821428Y-91439285D01*
X131035714Y-91439285D02*
X131035714Y-90689285D01*
X130964285Y-90796428D01*
X130892857Y-90867857D01*
X130821428Y-90903571D01*
X131571428Y-91153571D02*
X132142857Y-91153571D01*
X132464285Y-90760714D02*
X132500000Y-90725000D01*
X132571428Y-90689285D01*
X132750000Y-90689285D01*
X132821428Y-90725000D01*
X132857142Y-90760714D01*
X132892857Y-90832142D01*
X132892857Y-90903571D01*
X132857142Y-91010714D01*
X132428571Y-91439285D01*
X132892857Y-91439285D01*
X133214285Y-91367857D02*
X133250000Y-91403571D01*
X133214285Y-91439285D01*
X133178571Y-91403571D01*
X133214285Y-91367857D01*
X133214285Y-91439285D01*
X133214285Y-90975000D02*
X133250000Y-91010714D01*
X133214285Y-91046428D01*
X133178571Y-91010714D01*
X133214285Y-90975000D01*
X133214285Y-91046428D01*
X134250000Y-91010714D02*
X134178571Y-90975000D01*
X134142857Y-90939285D01*
X134107142Y-90867857D01*
X134107142Y-90832142D01*
X134142857Y-90760714D01*
X134178571Y-90725000D01*
X134250000Y-90689285D01*
X134392857Y-90689285D01*
X134464285Y-90725000D01*
X134500000Y-90760714D01*
X134535714Y-90832142D01*
X134535714Y-90867857D01*
X134500000Y-90939285D01*
X134464285Y-90975000D01*
X134392857Y-91010714D01*
X134250000Y-91010714D01*
X134178571Y-91046428D01*
X134142857Y-91082142D01*
X134107142Y-91153571D01*
X134107142Y-91296428D01*
X134142857Y-91367857D01*
X134178571Y-91403571D01*
X134250000Y-91439285D01*
X134392857Y-91439285D01*
X134464285Y-91403571D01*
X134500000Y-91367857D01*
X134535714Y-91296428D01*
X134535714Y-91153571D01*
X134500000Y-91082142D01*
X134464285Y-91046428D01*
X134392857Y-91010714D01*
X134821428Y-90760714D02*
X134857142Y-90725000D01*
X134928571Y-90689285D01*
X135107142Y-90689285D01*
X135178571Y-90725000D01*
X135214285Y-90760714D01*
X135250000Y-90832142D01*
X135250000Y-90903571D01*
X135214285Y-91010714D01*
X134785714Y-91439285D01*
X135250000Y-91439285D01*
X135535714Y-91403571D02*
X135642857Y-91439285D01*
X135821428Y-91439285D01*
X135892857Y-91403571D01*
X135928571Y-91367857D01*
X135964285Y-91296428D01*
X135964285Y-91225000D01*
X135928571Y-91153571D01*
X135892857Y-91117857D01*
X135821428Y-91082142D01*
X135678571Y-91046428D01*
X135607142Y-91010714D01*
X135571428Y-90975000D01*
X135535714Y-90903571D01*
X135535714Y-90832142D01*
X135571428Y-90760714D01*
X135607142Y-90725000D01*
X135678571Y-90689285D01*
X135857142Y-90689285D01*
X135964285Y-90725000D01*
X136678571Y-91439285D02*
X136250000Y-91439285D01*
X136464285Y-91439285D02*
X136464285Y-90689285D01*
X136392857Y-90796428D01*
X136321428Y-90867857D01*
X136250000Y-90903571D01*
X136928571Y-90689285D02*
X137392857Y-90689285D01*
X137142857Y-90975000D01*
X137250000Y-90975000D01*
X137321428Y-91010714D01*
X137357142Y-91046428D01*
X137392857Y-91117857D01*
X137392857Y-91296428D01*
X137357142Y-91367857D01*
X137321428Y-91403571D01*
X137250000Y-91439285D01*
X137035714Y-91439285D01*
X136964285Y-91403571D01*
X136928571Y-91367857D01*
X137857142Y-90689285D02*
X137928571Y-90689285D01*
X138000000Y-90725000D01*
X138035714Y-90760714D01*
X138071428Y-90832142D01*
X138107142Y-90975000D01*
X138107142Y-91153571D01*
X138071428Y-91296428D01*
X138035714Y-91367857D01*
X138000000Y-91403571D01*
X137928571Y-91439285D01*
X137857142Y-91439285D01*
X137785714Y-91403571D01*
X137750000Y-91367857D01*
X137714285Y-91296428D01*
X137678571Y-91153571D01*
X137678571Y-90975000D01*
X137714285Y-90832142D01*
X137750000Y-90760714D01*
X137785714Y-90725000D01*
X137857142Y-90689285D01*
X138964285Y-90653571D02*
X138321428Y-91617857D01*
X139321428Y-91010714D02*
X139250000Y-90975000D01*
X139214285Y-90939285D01*
X139178571Y-90867857D01*
X139178571Y-90832142D01*
X139214285Y-90760714D01*
X139250000Y-90725000D01*
X139321428Y-90689285D01*
X139464285Y-90689285D01*
X139535714Y-90725000D01*
X139571428Y-90760714D01*
X139607142Y-90832142D01*
X139607142Y-90867857D01*
X139571428Y-90939285D01*
X139535714Y-90975000D01*
X139464285Y-91010714D01*
X139321428Y-91010714D01*
X139250000Y-91046428D01*
X139214285Y-91082142D01*
X139178571Y-91153571D01*
X139178571Y-91296428D01*
X139214285Y-91367857D01*
X139250000Y-91403571D01*
X139321428Y-91439285D01*
X139464285Y-91439285D01*
X139535714Y-91403571D01*
X139571428Y-91367857D01*
X139607142Y-91296428D01*
X139607142Y-91153571D01*
X139571428Y-91082142D01*
X139535714Y-91046428D01*
X139464285Y-91010714D01*
X139892857Y-90760714D02*
X139928571Y-90725000D01*
X140000000Y-90689285D01*
X140178571Y-90689285D01*
X140250000Y-90725000D01*
X140285714Y-90760714D01*
X140321428Y-90832142D01*
X140321428Y-90903571D01*
X140285714Y-91010714D01*
X139857142Y-91439285D01*
X140321428Y-91439285D01*
X140607142Y-91403571D02*
X140714285Y-91439285D01*
X140892857Y-91439285D01*
X140964285Y-91403571D01*
X141000000Y-91367857D01*
X141035714Y-91296428D01*
X141035714Y-91225000D01*
X141000000Y-91153571D01*
X140964285Y-91117857D01*
X140892857Y-91082142D01*
X140750000Y-91046428D01*
X140678571Y-91010714D01*
X140642857Y-90975000D01*
X140607142Y-90903571D01*
X140607142Y-90832142D01*
X140642857Y-90760714D01*
X140678571Y-90725000D01*
X140750000Y-90689285D01*
X140928571Y-90689285D01*
X141035714Y-90725000D01*
X141750000Y-91439285D02*
X141321428Y-91439285D01*
X141535714Y-91439285D02*
X141535714Y-90689285D01*
X141464285Y-90796428D01*
X141392857Y-90867857D01*
X141321428Y-90903571D01*
X142000000Y-90689285D02*
X142464285Y-90689285D01*
X142214285Y-90975000D01*
X142321428Y-90975000D01*
X142392857Y-91010714D01*
X142428571Y-91046428D01*
X142464285Y-91117857D01*
X142464285Y-91296428D01*
X142428571Y-91367857D01*
X142392857Y-91403571D01*
X142321428Y-91439285D01*
X142107142Y-91439285D01*
X142035714Y-91403571D01*
X142000000Y-91367857D01*
X143178571Y-91439285D02*
X142750000Y-91439285D01*
X142964285Y-91439285D02*
X142964285Y-90689285D01*
X142892857Y-90796428D01*
X142821428Y-90867857D01*
X142750000Y-90903571D01*
X135752380Y-99828571D02*
X135752380Y-100400000D01*
X135752380Y-100114285D02*
X134752380Y-100114285D01*
X134895238Y-100209523D01*
X134990476Y-100304761D01*
X135038095Y-100400000D01*
X134847619Y-98685714D02*
X134800000Y-98638095D01*
X134752380Y-98542857D01*
X134752380Y-98304761D01*
X134800000Y-98209523D01*
X134847619Y-98161904D01*
X134942857Y-98114285D01*
X135038095Y-98114285D01*
X135180952Y-98161904D01*
X135752380Y-98733333D01*
X135752380Y-98114285D01*
X134752380Y-97019047D02*
X134752380Y-96400000D01*
X135133333Y-96733333D01*
X135133333Y-96590476D01*
X135180952Y-96495238D01*
X135228571Y-96447619D01*
X135323809Y-96400000D01*
X135561904Y-96400000D01*
X135657142Y-96447619D01*
X135704761Y-96495238D01*
X135752380Y-96590476D01*
X135752380Y-96876190D01*
X135704761Y-96971428D01*
X135657142Y-97019047D01*
X135752380Y-104628571D02*
X135752380Y-105200000D01*
X135752380Y-104914285D02*
X134752380Y-104914285D01*
X134895238Y-105009523D01*
X134990476Y-105104761D01*
X135038095Y-105200000D01*
X134847619Y-103485714D02*
X134800000Y-103438095D01*
X134752380Y-103342857D01*
X134752380Y-103104761D01*
X134800000Y-103009523D01*
X134847619Y-102961904D01*
X134942857Y-102914285D01*
X135038095Y-102914285D01*
X135180952Y-102961904D01*
X135752380Y-103533333D01*
X135752380Y-102914285D01*
X134752380Y-101819047D02*
X134752380Y-101200000D01*
X135133333Y-101533333D01*
X135133333Y-101390476D01*
X135180952Y-101295238D01*
X135228571Y-101247619D01*
X135323809Y-101200000D01*
X135561904Y-101200000D01*
X135657142Y-101247619D01*
X135704761Y-101295238D01*
X135752380Y-101390476D01*
X135752380Y-101676190D01*
X135704761Y-101771428D01*
X135657142Y-101819047D01*
D10*
X139720000Y-93990000D02*
X138070000Y-93990000D01*
X139720000Y-114430000D02*
X139720000Y-93990000D01*
X134420000Y-114430000D02*
X139720000Y-114430000D01*
X134420000Y-93990000D02*
X134420000Y-114430000D01*
X136070000Y-93990000D02*
X134420000Y-93990000D01*
X138070000Y-93990000D02*
G75*
G02X136070000Y-93990000I-1000000J0D01*
G01*
X137940000Y-100300000D02*
X136160000Y-100300000D01*
X136160000Y-96480000D02*
X136160000Y-100300000D01*
X137940000Y-96480000D02*
X136160000Y-96480000D01*
X137940000Y-100300000D02*
X137940000Y-96480000D01*
X137940000Y-105170000D02*
X137940000Y-101350000D01*
X137940000Y-101350000D02*
X136160000Y-101350000D01*
X136160000Y-101350000D02*
X136160000Y-105170000D01*
X137940000Y-105170000D02*
X136160000Y-105170000D01*
X143455001Y-86355001D02*
X137995001Y-86355001D01*
X143455001Y-122035001D02*
X143455001Y-86355001D01*
X130535001Y-122035001D02*
X143455001Y-122035001D01*
X130535001Y-86355001D02*
X130535001Y-122035001D01*
X135995001Y-86355001D02*
X130535001Y-86355001D01*
X137995001Y-86355001D02*
G75*
G02X135995001Y-86355001I-1000000J0D01*
G01*
D11*
X138312380Y-99263333D02*
X139026666Y-99263333D01*
X139169523Y-99310952D01*
X139264761Y-99406190D01*
X139312380Y-99549047D01*
X139312380Y-99644285D01*
X139312380Y-98787142D02*
X138312380Y-98787142D01*
X138312380Y-98406190D01*
X138360000Y-98310952D01*
X138407619Y-98263333D01*
X138502857Y-98215714D01*
X138645714Y-98215714D01*
X138740952Y-98263333D01*
X138788571Y-98310952D01*
X138836190Y-98406190D01*
X138836190Y-98787142D01*
X139312380Y-97263333D02*
X139312380Y-97834761D01*
X139312380Y-97549047D02*
X138312380Y-97549047D01*
X138455238Y-97644285D01*
X138550476Y-97739523D01*
X138598095Y-97834761D01*
X138362380Y-104093333D02*
X139076666Y-104093333D01*
X139219523Y-104140952D01*
X139314761Y-104236190D01*
X139362380Y-104379047D01*
X139362380Y-104474285D01*
X139362380Y-103617142D02*
X138362380Y-103617142D01*
X138362380Y-103236190D01*
X138410000Y-103140952D01*
X138457619Y-103093333D01*
X138552857Y-103045714D01*
X138695714Y-103045714D01*
X138790952Y-103093333D01*
X138838571Y-103140952D01*
X138886190Y-103236190D01*
X138886190Y-103617142D01*
X138457619Y-102664761D02*
X138410000Y-102617142D01*
X138362380Y-102521904D01*
X138362380Y-102283809D01*
X138410000Y-102188571D01*
X138457619Y-102140952D01*
X138552857Y-102093333D01*
X138648095Y-102093333D01*
X138790952Y-102140952D01*
X139362380Y-102712380D01*
X139362380Y-102093333D01*
M02*
