G04 #@! TF.GenerationSoftware,KiCad,Pcbnew,(5.1.4)-1*
G04 #@! TF.CreationDate,2021-03-08T19:32:54-05:00*
G04 #@! TF.ProjectId,27c256_to_82s129,32376332-3536-45f7-946f-5f3832733132,rev?*
G04 #@! TF.SameCoordinates,Original*
G04 #@! TF.FileFunction,Copper,L2,Bot*
G04 #@! TF.FilePolarity,Positive*
%FSLAX46Y46*%
G04 Gerber Fmt 4.6, Leading zero omitted, Abs format (unit mm)*
G04 Created by KiCad (PCBNEW (5.1.4)-1) date 2021-03-08 19:32:54*
%MOMM*%
%LPD*%
G04 APERTURE LIST*
%ADD10O,1.600000X1.600000*%
%ADD11R,1.600000X1.600000*%
%ADD12C,0.800000*%
%ADD13C,0.254000*%
G04 APERTURE END LIST*
D10*
X140880000Y-95320000D03*
X133260000Y-113100000D03*
X140880000Y-97860000D03*
X133260000Y-110560000D03*
X140880000Y-100400000D03*
X133260000Y-108020000D03*
X140880000Y-102940000D03*
X133260000Y-105480000D03*
X140880000Y-105480000D03*
X133260000Y-102940000D03*
X140880000Y-108020000D03*
X133260000Y-100400000D03*
X140880000Y-110560000D03*
X133260000Y-97860000D03*
X140880000Y-113100000D03*
D11*
X133260000Y-95320000D03*
D10*
X144615001Y-87685001D03*
X129375001Y-120705001D03*
X144615001Y-90225001D03*
X129375001Y-118165001D03*
X144615001Y-92765001D03*
X129375001Y-115625001D03*
X144615001Y-95305001D03*
X129375001Y-113085001D03*
X144615001Y-97845001D03*
X129375001Y-110545001D03*
X144615001Y-100385001D03*
X129375001Y-108005001D03*
X144615001Y-102925001D03*
X129375001Y-105465001D03*
X144615001Y-105465001D03*
X129375001Y-102925001D03*
X144615001Y-108005001D03*
X129375001Y-100385001D03*
X144615001Y-110545001D03*
X129375001Y-97845001D03*
X144615001Y-113085001D03*
X129375001Y-95305001D03*
X144615001Y-115625001D03*
X129375001Y-92765001D03*
X144615001Y-118165001D03*
X129375001Y-90225001D03*
X144615001Y-120705001D03*
D11*
X129375001Y-87685001D03*
D12*
X137070000Y-97090000D03*
D13*
G36*
X136071119Y-86693156D02*
G01*
X136076943Y-86700297D01*
X136139145Y-86775486D01*
X136181594Y-86817639D01*
X136223439Y-86860371D01*
X136230540Y-86866245D01*
X136306160Y-86927921D01*
X136356025Y-86961052D01*
X136405350Y-86994825D01*
X136413445Y-86999202D01*
X136413448Y-86999204D01*
X136413451Y-86999205D01*
X136413456Y-86999208D01*
X136499617Y-87045020D01*
X136554909Y-87067809D01*
X136609898Y-87091378D01*
X136618701Y-87094103D01*
X136712119Y-87122308D01*
X136770826Y-87133933D01*
X136829316Y-87146365D01*
X136838470Y-87147327D01*
X136838476Y-87147328D01*
X136838481Y-87147328D01*
X136935598Y-87156850D01*
X136964403Y-87156850D01*
X136993054Y-87159964D01*
X137002269Y-87159996D01*
X137005760Y-87159984D01*
X137034459Y-87157070D01*
X137063308Y-87157272D01*
X137072479Y-87156373D01*
X137169527Y-87146173D01*
X137228152Y-87134139D01*
X137286884Y-87122936D01*
X137295706Y-87120272D01*
X137388925Y-87091416D01*
X137444075Y-87068233D01*
X137499537Y-87045825D01*
X137507666Y-87041502D01*
X137507670Y-87041500D01*
X137507673Y-87041498D01*
X137593511Y-86995086D01*
X137643098Y-86961638D01*
X137693156Y-86928881D01*
X137700297Y-86923057D01*
X137775486Y-86860855D01*
X137817639Y-86818406D01*
X137860371Y-86776561D01*
X137866245Y-86769460D01*
X137927921Y-86693840D01*
X137950405Y-86660000D01*
X143601964Y-86660000D01*
X143595393Y-86665393D01*
X143416069Y-86883900D01*
X143282819Y-87133193D01*
X143200765Y-87403692D01*
X143173058Y-87685001D01*
X143200765Y-87966310D01*
X143282819Y-88236809D01*
X143416069Y-88486102D01*
X143595393Y-88704609D01*
X143813900Y-88883933D01*
X143951683Y-88957580D01*
X143759870Y-89072616D01*
X143551482Y-89261587D01*
X143383964Y-89487581D01*
X143263755Y-89741914D01*
X143223097Y-89875962D01*
X143345086Y-90098001D01*
X144488001Y-90098001D01*
X144488001Y-90078001D01*
X144742001Y-90078001D01*
X144742001Y-90098001D01*
X144762001Y-90098001D01*
X144762001Y-90352001D01*
X144742001Y-90352001D01*
X144742001Y-92638001D01*
X144762001Y-92638001D01*
X144762001Y-92892001D01*
X144742001Y-92892001D01*
X144742001Y-92912001D01*
X144488001Y-92912001D01*
X144488001Y-92892001D01*
X143345086Y-92892001D01*
X143223097Y-93114040D01*
X143263755Y-93248088D01*
X143383964Y-93502421D01*
X143551482Y-93728415D01*
X143759870Y-93917386D01*
X143951683Y-94032422D01*
X143813900Y-94106069D01*
X143595393Y-94285393D01*
X143416069Y-94503900D01*
X143282819Y-94753193D01*
X143200765Y-95023692D01*
X143173058Y-95305001D01*
X143200765Y-95586310D01*
X143282819Y-95856809D01*
X143416069Y-96106102D01*
X143595393Y-96324609D01*
X143813900Y-96503933D01*
X143951683Y-96577580D01*
X143759870Y-96692616D01*
X143551482Y-96881587D01*
X143383964Y-97107581D01*
X143263755Y-97361914D01*
X143223097Y-97495962D01*
X143345086Y-97718001D01*
X144488001Y-97718001D01*
X144488001Y-97698001D01*
X144742001Y-97698001D01*
X144742001Y-97718001D01*
X144762001Y-97718001D01*
X144762001Y-97972001D01*
X144742001Y-97972001D01*
X144742001Y-100258001D01*
X144762001Y-100258001D01*
X144762001Y-100512001D01*
X144742001Y-100512001D01*
X144742001Y-100532001D01*
X144488001Y-100532001D01*
X144488001Y-100512001D01*
X143345086Y-100512001D01*
X143223097Y-100734040D01*
X143263755Y-100868088D01*
X143383964Y-101122421D01*
X143551482Y-101348415D01*
X143759870Y-101537386D01*
X143951683Y-101652422D01*
X143813900Y-101726069D01*
X143595393Y-101905393D01*
X143416069Y-102123900D01*
X143282819Y-102373193D01*
X143200765Y-102643692D01*
X143173058Y-102925001D01*
X143200765Y-103206310D01*
X143282819Y-103476809D01*
X143416069Y-103726102D01*
X143595393Y-103944609D01*
X143813900Y-104123933D01*
X143951683Y-104197580D01*
X143759870Y-104312616D01*
X143551482Y-104501587D01*
X143383964Y-104727581D01*
X143263755Y-104981914D01*
X143223097Y-105115962D01*
X143345086Y-105338001D01*
X144488001Y-105338001D01*
X144488001Y-105318001D01*
X144742001Y-105318001D01*
X144742001Y-105338001D01*
X144762001Y-105338001D01*
X144762001Y-105592001D01*
X144742001Y-105592001D01*
X144742001Y-105612001D01*
X144488001Y-105612001D01*
X144488001Y-105592001D01*
X143345086Y-105592001D01*
X143223097Y-105814040D01*
X143263755Y-105948088D01*
X143383964Y-106202421D01*
X143551482Y-106428415D01*
X143759870Y-106617386D01*
X143951683Y-106732422D01*
X143813900Y-106806069D01*
X143595393Y-106985393D01*
X143416069Y-107203900D01*
X143282819Y-107453193D01*
X143200765Y-107723692D01*
X143173058Y-108005001D01*
X143200765Y-108286310D01*
X143282819Y-108556809D01*
X143416069Y-108806102D01*
X143595393Y-109024609D01*
X143813900Y-109203933D01*
X143946859Y-109275001D01*
X143813900Y-109346069D01*
X143595393Y-109525393D01*
X143416069Y-109743900D01*
X143282819Y-109993193D01*
X143200765Y-110263692D01*
X143173058Y-110545001D01*
X143200765Y-110826310D01*
X143282819Y-111096809D01*
X143416069Y-111346102D01*
X143595393Y-111564609D01*
X143813900Y-111743933D01*
X143946859Y-111815001D01*
X143813900Y-111886069D01*
X143595393Y-112065393D01*
X143416069Y-112283900D01*
X143282819Y-112533193D01*
X143200765Y-112803692D01*
X143173058Y-113085001D01*
X143200765Y-113366310D01*
X143282819Y-113636809D01*
X143416069Y-113886102D01*
X143595393Y-114104609D01*
X143813900Y-114283933D01*
X143946859Y-114355001D01*
X143813900Y-114426069D01*
X143595393Y-114605393D01*
X143416069Y-114823900D01*
X143282819Y-115073193D01*
X143200765Y-115343692D01*
X143173058Y-115625001D01*
X143200765Y-115906310D01*
X143282819Y-116176809D01*
X143416069Y-116426102D01*
X143595393Y-116644609D01*
X143813900Y-116823933D01*
X143946859Y-116895001D01*
X143813900Y-116966069D01*
X143595393Y-117145393D01*
X143416069Y-117363900D01*
X143282819Y-117613193D01*
X143200765Y-117883692D01*
X143173058Y-118165001D01*
X143200765Y-118446310D01*
X143282819Y-118716809D01*
X143416069Y-118966102D01*
X143595393Y-119184609D01*
X143813900Y-119363933D01*
X143946859Y-119435001D01*
X143813900Y-119506069D01*
X143595393Y-119685393D01*
X143416069Y-119903900D01*
X143282819Y-120153193D01*
X143200765Y-120423692D01*
X143173058Y-120705001D01*
X143200765Y-120986310D01*
X143282819Y-121256809D01*
X143416069Y-121506102D01*
X143595393Y-121724609D01*
X143735997Y-121840000D01*
X130249304Y-121840000D01*
X130438520Y-121668415D01*
X130606038Y-121442421D01*
X130726247Y-121188088D01*
X130766905Y-121054040D01*
X130644916Y-120832001D01*
X129502001Y-120832001D01*
X129502001Y-120852001D01*
X129248001Y-120852001D01*
X129248001Y-120832001D01*
X129228001Y-120832001D01*
X129228001Y-120578001D01*
X129248001Y-120578001D01*
X129248001Y-120558001D01*
X129502001Y-120558001D01*
X129502001Y-120578001D01*
X130644916Y-120578001D01*
X130766905Y-120355962D01*
X130726247Y-120221914D01*
X130606038Y-119967581D01*
X130438520Y-119741587D01*
X130230132Y-119552616D01*
X130038319Y-119437580D01*
X130176102Y-119363933D01*
X130394609Y-119184609D01*
X130573933Y-118966102D01*
X130707183Y-118716809D01*
X130789237Y-118446310D01*
X130816944Y-118165001D01*
X130789237Y-117883692D01*
X130707183Y-117613193D01*
X130573933Y-117363900D01*
X130394609Y-117145393D01*
X130176102Y-116966069D01*
X130043143Y-116895001D01*
X130176102Y-116823933D01*
X130394609Y-116644609D01*
X130573933Y-116426102D01*
X130707183Y-116176809D01*
X130789237Y-115906310D01*
X130816944Y-115625001D01*
X130789237Y-115343692D01*
X130707183Y-115073193D01*
X130573933Y-114823900D01*
X130394609Y-114605393D01*
X130176102Y-114426069D01*
X130043143Y-114355001D01*
X130176102Y-114283933D01*
X130394609Y-114104609D01*
X130573933Y-113886102D01*
X130707183Y-113636809D01*
X130764141Y-113449039D01*
X131868096Y-113449039D01*
X131908754Y-113583087D01*
X132028963Y-113837420D01*
X132196481Y-114063414D01*
X132404869Y-114252385D01*
X132646119Y-114397070D01*
X132910960Y-114491909D01*
X133133000Y-114370624D01*
X133133000Y-113227000D01*
X133387000Y-113227000D01*
X133387000Y-114370624D01*
X133609040Y-114491909D01*
X133873881Y-114397070D01*
X134115131Y-114252385D01*
X134323519Y-114063414D01*
X134491037Y-113837420D01*
X134611246Y-113583087D01*
X134651904Y-113449039D01*
X134529915Y-113227000D01*
X133387000Y-113227000D01*
X133133000Y-113227000D01*
X131990085Y-113227000D01*
X131868096Y-113449039D01*
X130764141Y-113449039D01*
X130789237Y-113366310D01*
X130816944Y-113085001D01*
X130789237Y-112803692D01*
X130707183Y-112533193D01*
X130573933Y-112283900D01*
X130394609Y-112065393D01*
X130176102Y-111886069D01*
X130043143Y-111815001D01*
X130176102Y-111743933D01*
X130394609Y-111564609D01*
X130573933Y-111346102D01*
X130707183Y-111096809D01*
X130789237Y-110826310D01*
X130816944Y-110545001D01*
X130789237Y-110263692D01*
X130707183Y-109993193D01*
X130573933Y-109743900D01*
X130394609Y-109525393D01*
X130176102Y-109346069D01*
X130043143Y-109275001D01*
X130176102Y-109203933D01*
X130394609Y-109024609D01*
X130573933Y-108806102D01*
X130707183Y-108556809D01*
X130789237Y-108286310D01*
X130816944Y-108005001D01*
X130789237Y-107723692D01*
X130707183Y-107453193D01*
X130573933Y-107203900D01*
X130394609Y-106985393D01*
X130176102Y-106806069D01*
X130043143Y-106735001D01*
X130176102Y-106663933D01*
X130394609Y-106484609D01*
X130573933Y-106266102D01*
X130707183Y-106016809D01*
X130789237Y-105746310D01*
X130816944Y-105465001D01*
X130789237Y-105183692D01*
X130707183Y-104913193D01*
X130573933Y-104663900D01*
X130394609Y-104445393D01*
X130176102Y-104266069D01*
X130043143Y-104195001D01*
X130176102Y-104123933D01*
X130394609Y-103944609D01*
X130573933Y-103726102D01*
X130707183Y-103476809D01*
X130789237Y-103206310D01*
X130816944Y-102925001D01*
X130789237Y-102643692D01*
X130707183Y-102373193D01*
X130573933Y-102123900D01*
X130394609Y-101905393D01*
X130176102Y-101726069D01*
X130043143Y-101655001D01*
X130176102Y-101583933D01*
X130394609Y-101404609D01*
X130573933Y-101186102D01*
X130707183Y-100936809D01*
X130789237Y-100666310D01*
X130816944Y-100385001D01*
X130789237Y-100103692D01*
X130707183Y-99833193D01*
X130573933Y-99583900D01*
X130394609Y-99365393D01*
X130176102Y-99186069D01*
X130043143Y-99115001D01*
X130176102Y-99043933D01*
X130394609Y-98864609D01*
X130573933Y-98646102D01*
X130707183Y-98396809D01*
X130789237Y-98126310D01*
X130815466Y-97860000D01*
X131818057Y-97860000D01*
X131845764Y-98141309D01*
X131927818Y-98411808D01*
X132061068Y-98661101D01*
X132240392Y-98879608D01*
X132458899Y-99058932D01*
X132591858Y-99130000D01*
X132458899Y-99201068D01*
X132240392Y-99380392D01*
X132061068Y-99598899D01*
X131927818Y-99848192D01*
X131845764Y-100118691D01*
X131818057Y-100400000D01*
X131845764Y-100681309D01*
X131927818Y-100951808D01*
X132061068Y-101201101D01*
X132240392Y-101419608D01*
X132458899Y-101598932D01*
X132591858Y-101670000D01*
X132458899Y-101741068D01*
X132240392Y-101920392D01*
X132061068Y-102138899D01*
X131927818Y-102388192D01*
X131845764Y-102658691D01*
X131818057Y-102940000D01*
X131845764Y-103221309D01*
X131927818Y-103491808D01*
X132061068Y-103741101D01*
X132240392Y-103959608D01*
X132458899Y-104138932D01*
X132591858Y-104210000D01*
X132458899Y-104281068D01*
X132240392Y-104460392D01*
X132061068Y-104678899D01*
X131927818Y-104928192D01*
X131845764Y-105198691D01*
X131818057Y-105480000D01*
X131845764Y-105761309D01*
X131927818Y-106031808D01*
X132061068Y-106281101D01*
X132240392Y-106499608D01*
X132458899Y-106678932D01*
X132591858Y-106750000D01*
X132458899Y-106821068D01*
X132240392Y-107000392D01*
X132061068Y-107218899D01*
X131927818Y-107468192D01*
X131845764Y-107738691D01*
X131818057Y-108020000D01*
X131845764Y-108301309D01*
X131927818Y-108571808D01*
X132061068Y-108821101D01*
X132240392Y-109039608D01*
X132458899Y-109218932D01*
X132591858Y-109290000D01*
X132458899Y-109361068D01*
X132240392Y-109540392D01*
X132061068Y-109758899D01*
X131927818Y-110008192D01*
X131845764Y-110278691D01*
X131818057Y-110560000D01*
X131845764Y-110841309D01*
X131927818Y-111111808D01*
X132061068Y-111361101D01*
X132240392Y-111579608D01*
X132458899Y-111758932D01*
X132596682Y-111832579D01*
X132404869Y-111947615D01*
X132196481Y-112136586D01*
X132028963Y-112362580D01*
X131908754Y-112616913D01*
X131868096Y-112750961D01*
X131990085Y-112973000D01*
X133133000Y-112973000D01*
X133133000Y-112953000D01*
X133387000Y-112953000D01*
X133387000Y-112973000D01*
X134529915Y-112973000D01*
X134651904Y-112750961D01*
X134611246Y-112616913D01*
X134491037Y-112362580D01*
X134323519Y-112136586D01*
X134115131Y-111947615D01*
X133923318Y-111832579D01*
X134061101Y-111758932D01*
X134279608Y-111579608D01*
X134458932Y-111361101D01*
X134592182Y-111111808D01*
X134674236Y-110841309D01*
X134701943Y-110560000D01*
X134674236Y-110278691D01*
X134592182Y-110008192D01*
X134458932Y-109758899D01*
X134279608Y-109540392D01*
X134061101Y-109361068D01*
X133928142Y-109290000D01*
X134061101Y-109218932D01*
X134279608Y-109039608D01*
X134458932Y-108821101D01*
X134592182Y-108571808D01*
X134674236Y-108301309D01*
X134701943Y-108020000D01*
X134674236Y-107738691D01*
X134592182Y-107468192D01*
X134458932Y-107218899D01*
X134279608Y-107000392D01*
X134061101Y-106821068D01*
X133928142Y-106750000D01*
X134061101Y-106678932D01*
X134279608Y-106499608D01*
X134458932Y-106281101D01*
X134592182Y-106031808D01*
X134674236Y-105761309D01*
X134701943Y-105480000D01*
X134674236Y-105198691D01*
X134592182Y-104928192D01*
X134458932Y-104678899D01*
X134279608Y-104460392D01*
X134061101Y-104281068D01*
X133928142Y-104210000D01*
X134061101Y-104138932D01*
X134279608Y-103959608D01*
X134458932Y-103741101D01*
X134592182Y-103491808D01*
X134674236Y-103221309D01*
X134701943Y-102940000D01*
X134674236Y-102658691D01*
X134592182Y-102388192D01*
X134458932Y-102138899D01*
X134279608Y-101920392D01*
X134061101Y-101741068D01*
X133928142Y-101670000D01*
X134061101Y-101598932D01*
X134279608Y-101419608D01*
X134458932Y-101201101D01*
X134592182Y-100951808D01*
X134674236Y-100681309D01*
X134701943Y-100400000D01*
X134674236Y-100118691D01*
X134592182Y-99848192D01*
X134458932Y-99598899D01*
X134279608Y-99380392D01*
X134061101Y-99201068D01*
X133928142Y-99130000D01*
X134061101Y-99058932D01*
X134279608Y-98879608D01*
X134458932Y-98661101D01*
X134592182Y-98411808D01*
X134674236Y-98141309D01*
X134701943Y-97860000D01*
X134674236Y-97578691D01*
X134592182Y-97308192D01*
X134458932Y-97058899D01*
X134279608Y-96840392D01*
X134166518Y-96747581D01*
X134184482Y-96745812D01*
X134304180Y-96709502D01*
X134414494Y-96650537D01*
X134511185Y-96571185D01*
X134590537Y-96474494D01*
X134649502Y-96364180D01*
X134685812Y-96244482D01*
X134698072Y-96120000D01*
X134698072Y-95320000D01*
X139438057Y-95320000D01*
X139465764Y-95601309D01*
X139547818Y-95871808D01*
X139681068Y-96121101D01*
X139860392Y-96339608D01*
X140078899Y-96518932D01*
X140211858Y-96590000D01*
X140078899Y-96661068D01*
X139860392Y-96840392D01*
X139681068Y-97058899D01*
X139547818Y-97308192D01*
X139465764Y-97578691D01*
X139438057Y-97860000D01*
X139465764Y-98141309D01*
X139547818Y-98411808D01*
X139681068Y-98661101D01*
X139860392Y-98879608D01*
X140078899Y-99058932D01*
X140211858Y-99130000D01*
X140078899Y-99201068D01*
X139860392Y-99380392D01*
X139681068Y-99598899D01*
X139547818Y-99848192D01*
X139465764Y-100118691D01*
X139438057Y-100400000D01*
X139465764Y-100681309D01*
X139547818Y-100951808D01*
X139681068Y-101201101D01*
X139860392Y-101419608D01*
X140078899Y-101598932D01*
X140211858Y-101670000D01*
X140078899Y-101741068D01*
X139860392Y-101920392D01*
X139681068Y-102138899D01*
X139547818Y-102388192D01*
X139465764Y-102658691D01*
X139438057Y-102940000D01*
X139465764Y-103221309D01*
X139547818Y-103491808D01*
X139681068Y-103741101D01*
X139860392Y-103959608D01*
X140078899Y-104138932D01*
X140211858Y-104210000D01*
X140078899Y-104281068D01*
X139860392Y-104460392D01*
X139681068Y-104678899D01*
X139547818Y-104928192D01*
X139465764Y-105198691D01*
X139438057Y-105480000D01*
X139465764Y-105761309D01*
X139547818Y-106031808D01*
X139681068Y-106281101D01*
X139860392Y-106499608D01*
X140078899Y-106678932D01*
X140211858Y-106750000D01*
X140078899Y-106821068D01*
X139860392Y-107000392D01*
X139681068Y-107218899D01*
X139547818Y-107468192D01*
X139465764Y-107738691D01*
X139438057Y-108020000D01*
X139465764Y-108301309D01*
X139547818Y-108571808D01*
X139681068Y-108821101D01*
X139860392Y-109039608D01*
X140078899Y-109218932D01*
X140211858Y-109290000D01*
X140078899Y-109361068D01*
X139860392Y-109540392D01*
X139681068Y-109758899D01*
X139547818Y-110008192D01*
X139465764Y-110278691D01*
X139438057Y-110560000D01*
X139465764Y-110841309D01*
X139547818Y-111111808D01*
X139681068Y-111361101D01*
X139860392Y-111579608D01*
X140078899Y-111758932D01*
X140211858Y-111830000D01*
X140078899Y-111901068D01*
X139860392Y-112080392D01*
X139681068Y-112298899D01*
X139547818Y-112548192D01*
X139465764Y-112818691D01*
X139438057Y-113100000D01*
X139465764Y-113381309D01*
X139547818Y-113651808D01*
X139681068Y-113901101D01*
X139860392Y-114119608D01*
X140078899Y-114298932D01*
X140328192Y-114432182D01*
X140598691Y-114514236D01*
X140809508Y-114535000D01*
X140950492Y-114535000D01*
X141161309Y-114514236D01*
X141431808Y-114432182D01*
X141681101Y-114298932D01*
X141899608Y-114119608D01*
X142078932Y-113901101D01*
X142212182Y-113651808D01*
X142294236Y-113381309D01*
X142321943Y-113100000D01*
X142294236Y-112818691D01*
X142212182Y-112548192D01*
X142078932Y-112298899D01*
X141899608Y-112080392D01*
X141681101Y-111901068D01*
X141548142Y-111830000D01*
X141681101Y-111758932D01*
X141899608Y-111579608D01*
X142078932Y-111361101D01*
X142212182Y-111111808D01*
X142294236Y-110841309D01*
X142321943Y-110560000D01*
X142294236Y-110278691D01*
X142212182Y-110008192D01*
X142078932Y-109758899D01*
X141899608Y-109540392D01*
X141681101Y-109361068D01*
X141548142Y-109290000D01*
X141681101Y-109218932D01*
X141899608Y-109039608D01*
X142078932Y-108821101D01*
X142212182Y-108571808D01*
X142294236Y-108301309D01*
X142321943Y-108020000D01*
X142294236Y-107738691D01*
X142212182Y-107468192D01*
X142078932Y-107218899D01*
X141899608Y-107000392D01*
X141681101Y-106821068D01*
X141548142Y-106750000D01*
X141681101Y-106678932D01*
X141899608Y-106499608D01*
X142078932Y-106281101D01*
X142212182Y-106031808D01*
X142294236Y-105761309D01*
X142321943Y-105480000D01*
X142294236Y-105198691D01*
X142212182Y-104928192D01*
X142078932Y-104678899D01*
X141899608Y-104460392D01*
X141681101Y-104281068D01*
X141548142Y-104210000D01*
X141681101Y-104138932D01*
X141899608Y-103959608D01*
X142078932Y-103741101D01*
X142212182Y-103491808D01*
X142294236Y-103221309D01*
X142321943Y-102940000D01*
X142294236Y-102658691D01*
X142212182Y-102388192D01*
X142078932Y-102138899D01*
X141899608Y-101920392D01*
X141681101Y-101741068D01*
X141548142Y-101670000D01*
X141681101Y-101598932D01*
X141899608Y-101419608D01*
X142078932Y-101201101D01*
X142212182Y-100951808D01*
X142294236Y-100681309D01*
X142321943Y-100400000D01*
X142294236Y-100118691D01*
X142212182Y-99848192D01*
X142078932Y-99598899D01*
X141899608Y-99380392D01*
X141681101Y-99201068D01*
X141548142Y-99130000D01*
X141681101Y-99058932D01*
X141899608Y-98879608D01*
X142078932Y-98661101D01*
X142212182Y-98411808D01*
X142278240Y-98194040D01*
X143223097Y-98194040D01*
X143263755Y-98328088D01*
X143383964Y-98582421D01*
X143551482Y-98808415D01*
X143759870Y-98997386D01*
X143955983Y-99115001D01*
X143759870Y-99232616D01*
X143551482Y-99421587D01*
X143383964Y-99647581D01*
X143263755Y-99901914D01*
X143223097Y-100035962D01*
X143345086Y-100258001D01*
X144488001Y-100258001D01*
X144488001Y-97972001D01*
X143345086Y-97972001D01*
X143223097Y-98194040D01*
X142278240Y-98194040D01*
X142294236Y-98141309D01*
X142321943Y-97860000D01*
X142294236Y-97578691D01*
X142212182Y-97308192D01*
X142078932Y-97058899D01*
X141899608Y-96840392D01*
X141681101Y-96661068D01*
X141548142Y-96590000D01*
X141681101Y-96518932D01*
X141899608Y-96339608D01*
X142078932Y-96121101D01*
X142212182Y-95871808D01*
X142294236Y-95601309D01*
X142321943Y-95320000D01*
X142294236Y-95038691D01*
X142212182Y-94768192D01*
X142078932Y-94518899D01*
X141899608Y-94300392D01*
X141681101Y-94121068D01*
X141431808Y-93987818D01*
X141161309Y-93905764D01*
X140950492Y-93885000D01*
X140809508Y-93885000D01*
X140598691Y-93905764D01*
X140328192Y-93987818D01*
X140078899Y-94121068D01*
X139860392Y-94300392D01*
X139681068Y-94518899D01*
X139547818Y-94768192D01*
X139465764Y-95038691D01*
X139438057Y-95320000D01*
X134698072Y-95320000D01*
X134698072Y-94520000D01*
X134685812Y-94395518D01*
X134649502Y-94275820D01*
X134590537Y-94165506D01*
X134511185Y-94068815D01*
X134414494Y-93989463D01*
X134304180Y-93930498D01*
X134184482Y-93894188D01*
X134060000Y-93881928D01*
X132460000Y-93881928D01*
X132335518Y-93894188D01*
X132215820Y-93930498D01*
X132105506Y-93989463D01*
X132008815Y-94068815D01*
X131929463Y-94165506D01*
X131870498Y-94275820D01*
X131834188Y-94395518D01*
X131821928Y-94520000D01*
X131821928Y-96120000D01*
X131834188Y-96244482D01*
X131870498Y-96364180D01*
X131929463Y-96474494D01*
X132008815Y-96571185D01*
X132105506Y-96650537D01*
X132215820Y-96709502D01*
X132335518Y-96745812D01*
X132353482Y-96747581D01*
X132240392Y-96840392D01*
X132061068Y-97058899D01*
X131927818Y-97308192D01*
X131845764Y-97578691D01*
X131818057Y-97860000D01*
X130815466Y-97860000D01*
X130816944Y-97845001D01*
X130789237Y-97563692D01*
X130707183Y-97293193D01*
X130573933Y-97043900D01*
X130394609Y-96825393D01*
X130176102Y-96646069D01*
X130043143Y-96575001D01*
X130176102Y-96503933D01*
X130394609Y-96324609D01*
X130573933Y-96106102D01*
X130707183Y-95856809D01*
X130789237Y-95586310D01*
X130816944Y-95305001D01*
X130789237Y-95023692D01*
X130707183Y-94753193D01*
X130573933Y-94503900D01*
X130394609Y-94285393D01*
X130176102Y-94106069D01*
X130043143Y-94035001D01*
X130176102Y-93963933D01*
X130394609Y-93784609D01*
X130573933Y-93566102D01*
X130707183Y-93316809D01*
X130789237Y-93046310D01*
X130816944Y-92765001D01*
X130789237Y-92483692D01*
X130707183Y-92213193D01*
X130573933Y-91963900D01*
X130394609Y-91745393D01*
X130176102Y-91566069D01*
X130038319Y-91492422D01*
X130230132Y-91377386D01*
X130438520Y-91188415D01*
X130606038Y-90962421D01*
X130726247Y-90708088D01*
X130766905Y-90574040D01*
X143223097Y-90574040D01*
X143263755Y-90708088D01*
X143383964Y-90962421D01*
X143551482Y-91188415D01*
X143759870Y-91377386D01*
X143955983Y-91495001D01*
X143759870Y-91612616D01*
X143551482Y-91801587D01*
X143383964Y-92027581D01*
X143263755Y-92281914D01*
X143223097Y-92415962D01*
X143345086Y-92638001D01*
X144488001Y-92638001D01*
X144488001Y-90352001D01*
X143345086Y-90352001D01*
X143223097Y-90574040D01*
X130766905Y-90574040D01*
X130644916Y-90352001D01*
X129502001Y-90352001D01*
X129502001Y-90372001D01*
X129248001Y-90372001D01*
X129248001Y-90352001D01*
X129228001Y-90352001D01*
X129228001Y-90098001D01*
X129248001Y-90098001D01*
X129248001Y-90078001D01*
X129502001Y-90078001D01*
X129502001Y-90098001D01*
X130644916Y-90098001D01*
X130766905Y-89875962D01*
X130726247Y-89741914D01*
X130606038Y-89487581D01*
X130438520Y-89261587D01*
X130274921Y-89113232D01*
X130299483Y-89110813D01*
X130419181Y-89074503D01*
X130529495Y-89015538D01*
X130626186Y-88936186D01*
X130705538Y-88839495D01*
X130764503Y-88729181D01*
X130800813Y-88609483D01*
X130813073Y-88485001D01*
X130813073Y-86885001D01*
X130800813Y-86760519D01*
X130770321Y-86660000D01*
X136049422Y-86660000D01*
X136071119Y-86693156D01*
X136071119Y-86693156D01*
G37*
X136071119Y-86693156D02*
X136076943Y-86700297D01*
X136139145Y-86775486D01*
X136181594Y-86817639D01*
X136223439Y-86860371D01*
X136230540Y-86866245D01*
X136306160Y-86927921D01*
X136356025Y-86961052D01*
X136405350Y-86994825D01*
X136413445Y-86999202D01*
X136413448Y-86999204D01*
X136413451Y-86999205D01*
X136413456Y-86999208D01*
X136499617Y-87045020D01*
X136554909Y-87067809D01*
X136609898Y-87091378D01*
X136618701Y-87094103D01*
X136712119Y-87122308D01*
X136770826Y-87133933D01*
X136829316Y-87146365D01*
X136838470Y-87147327D01*
X136838476Y-87147328D01*
X136838481Y-87147328D01*
X136935598Y-87156850D01*
X136964403Y-87156850D01*
X136993054Y-87159964D01*
X137002269Y-87159996D01*
X137005760Y-87159984D01*
X137034459Y-87157070D01*
X137063308Y-87157272D01*
X137072479Y-87156373D01*
X137169527Y-87146173D01*
X137228152Y-87134139D01*
X137286884Y-87122936D01*
X137295706Y-87120272D01*
X137388925Y-87091416D01*
X137444075Y-87068233D01*
X137499537Y-87045825D01*
X137507666Y-87041502D01*
X137507670Y-87041500D01*
X137507673Y-87041498D01*
X137593511Y-86995086D01*
X137643098Y-86961638D01*
X137693156Y-86928881D01*
X137700297Y-86923057D01*
X137775486Y-86860855D01*
X137817639Y-86818406D01*
X137860371Y-86776561D01*
X137866245Y-86769460D01*
X137927921Y-86693840D01*
X137950405Y-86660000D01*
X143601964Y-86660000D01*
X143595393Y-86665393D01*
X143416069Y-86883900D01*
X143282819Y-87133193D01*
X143200765Y-87403692D01*
X143173058Y-87685001D01*
X143200765Y-87966310D01*
X143282819Y-88236809D01*
X143416069Y-88486102D01*
X143595393Y-88704609D01*
X143813900Y-88883933D01*
X143951683Y-88957580D01*
X143759870Y-89072616D01*
X143551482Y-89261587D01*
X143383964Y-89487581D01*
X143263755Y-89741914D01*
X143223097Y-89875962D01*
X143345086Y-90098001D01*
X144488001Y-90098001D01*
X144488001Y-90078001D01*
X144742001Y-90078001D01*
X144742001Y-90098001D01*
X144762001Y-90098001D01*
X144762001Y-90352001D01*
X144742001Y-90352001D01*
X144742001Y-92638001D01*
X144762001Y-92638001D01*
X144762001Y-92892001D01*
X144742001Y-92892001D01*
X144742001Y-92912001D01*
X144488001Y-92912001D01*
X144488001Y-92892001D01*
X143345086Y-92892001D01*
X143223097Y-93114040D01*
X143263755Y-93248088D01*
X143383964Y-93502421D01*
X143551482Y-93728415D01*
X143759870Y-93917386D01*
X143951683Y-94032422D01*
X143813900Y-94106069D01*
X143595393Y-94285393D01*
X143416069Y-94503900D01*
X143282819Y-94753193D01*
X143200765Y-95023692D01*
X143173058Y-95305001D01*
X143200765Y-95586310D01*
X143282819Y-95856809D01*
X143416069Y-96106102D01*
X143595393Y-96324609D01*
X143813900Y-96503933D01*
X143951683Y-96577580D01*
X143759870Y-96692616D01*
X143551482Y-96881587D01*
X143383964Y-97107581D01*
X143263755Y-97361914D01*
X143223097Y-97495962D01*
X143345086Y-97718001D01*
X144488001Y-97718001D01*
X144488001Y-97698001D01*
X144742001Y-97698001D01*
X144742001Y-97718001D01*
X144762001Y-97718001D01*
X144762001Y-97972001D01*
X144742001Y-97972001D01*
X144742001Y-100258001D01*
X144762001Y-100258001D01*
X144762001Y-100512001D01*
X144742001Y-100512001D01*
X144742001Y-100532001D01*
X144488001Y-100532001D01*
X144488001Y-100512001D01*
X143345086Y-100512001D01*
X143223097Y-100734040D01*
X143263755Y-100868088D01*
X143383964Y-101122421D01*
X143551482Y-101348415D01*
X143759870Y-101537386D01*
X143951683Y-101652422D01*
X143813900Y-101726069D01*
X143595393Y-101905393D01*
X143416069Y-102123900D01*
X143282819Y-102373193D01*
X143200765Y-102643692D01*
X143173058Y-102925001D01*
X143200765Y-103206310D01*
X143282819Y-103476809D01*
X143416069Y-103726102D01*
X143595393Y-103944609D01*
X143813900Y-104123933D01*
X143951683Y-104197580D01*
X143759870Y-104312616D01*
X143551482Y-104501587D01*
X143383964Y-104727581D01*
X143263755Y-104981914D01*
X143223097Y-105115962D01*
X143345086Y-105338001D01*
X144488001Y-105338001D01*
X144488001Y-105318001D01*
X144742001Y-105318001D01*
X144742001Y-105338001D01*
X144762001Y-105338001D01*
X144762001Y-105592001D01*
X144742001Y-105592001D01*
X144742001Y-105612001D01*
X144488001Y-105612001D01*
X144488001Y-105592001D01*
X143345086Y-105592001D01*
X143223097Y-105814040D01*
X143263755Y-105948088D01*
X143383964Y-106202421D01*
X143551482Y-106428415D01*
X143759870Y-106617386D01*
X143951683Y-106732422D01*
X143813900Y-106806069D01*
X143595393Y-106985393D01*
X143416069Y-107203900D01*
X143282819Y-107453193D01*
X143200765Y-107723692D01*
X143173058Y-108005001D01*
X143200765Y-108286310D01*
X143282819Y-108556809D01*
X143416069Y-108806102D01*
X143595393Y-109024609D01*
X143813900Y-109203933D01*
X143946859Y-109275001D01*
X143813900Y-109346069D01*
X143595393Y-109525393D01*
X143416069Y-109743900D01*
X143282819Y-109993193D01*
X143200765Y-110263692D01*
X143173058Y-110545001D01*
X143200765Y-110826310D01*
X143282819Y-111096809D01*
X143416069Y-111346102D01*
X143595393Y-111564609D01*
X143813900Y-111743933D01*
X143946859Y-111815001D01*
X143813900Y-111886069D01*
X143595393Y-112065393D01*
X143416069Y-112283900D01*
X143282819Y-112533193D01*
X143200765Y-112803692D01*
X143173058Y-113085001D01*
X143200765Y-113366310D01*
X143282819Y-113636809D01*
X143416069Y-113886102D01*
X143595393Y-114104609D01*
X143813900Y-114283933D01*
X143946859Y-114355001D01*
X143813900Y-114426069D01*
X143595393Y-114605393D01*
X143416069Y-114823900D01*
X143282819Y-115073193D01*
X143200765Y-115343692D01*
X143173058Y-115625001D01*
X143200765Y-115906310D01*
X143282819Y-116176809D01*
X143416069Y-116426102D01*
X143595393Y-116644609D01*
X143813900Y-116823933D01*
X143946859Y-116895001D01*
X143813900Y-116966069D01*
X143595393Y-117145393D01*
X143416069Y-117363900D01*
X143282819Y-117613193D01*
X143200765Y-117883692D01*
X143173058Y-118165001D01*
X143200765Y-118446310D01*
X143282819Y-118716809D01*
X143416069Y-118966102D01*
X143595393Y-119184609D01*
X143813900Y-119363933D01*
X143946859Y-119435001D01*
X143813900Y-119506069D01*
X143595393Y-119685393D01*
X143416069Y-119903900D01*
X143282819Y-120153193D01*
X143200765Y-120423692D01*
X143173058Y-120705001D01*
X143200765Y-120986310D01*
X143282819Y-121256809D01*
X143416069Y-121506102D01*
X143595393Y-121724609D01*
X143735997Y-121840000D01*
X130249304Y-121840000D01*
X130438520Y-121668415D01*
X130606038Y-121442421D01*
X130726247Y-121188088D01*
X130766905Y-121054040D01*
X130644916Y-120832001D01*
X129502001Y-120832001D01*
X129502001Y-120852001D01*
X129248001Y-120852001D01*
X129248001Y-120832001D01*
X129228001Y-120832001D01*
X129228001Y-120578001D01*
X129248001Y-120578001D01*
X129248001Y-120558001D01*
X129502001Y-120558001D01*
X129502001Y-120578001D01*
X130644916Y-120578001D01*
X130766905Y-120355962D01*
X130726247Y-120221914D01*
X130606038Y-119967581D01*
X130438520Y-119741587D01*
X130230132Y-119552616D01*
X130038319Y-119437580D01*
X130176102Y-119363933D01*
X130394609Y-119184609D01*
X130573933Y-118966102D01*
X130707183Y-118716809D01*
X130789237Y-118446310D01*
X130816944Y-118165001D01*
X130789237Y-117883692D01*
X130707183Y-117613193D01*
X130573933Y-117363900D01*
X130394609Y-117145393D01*
X130176102Y-116966069D01*
X130043143Y-116895001D01*
X130176102Y-116823933D01*
X130394609Y-116644609D01*
X130573933Y-116426102D01*
X130707183Y-116176809D01*
X130789237Y-115906310D01*
X130816944Y-115625001D01*
X130789237Y-115343692D01*
X130707183Y-115073193D01*
X130573933Y-114823900D01*
X130394609Y-114605393D01*
X130176102Y-114426069D01*
X130043143Y-114355001D01*
X130176102Y-114283933D01*
X130394609Y-114104609D01*
X130573933Y-113886102D01*
X130707183Y-113636809D01*
X130764141Y-113449039D01*
X131868096Y-113449039D01*
X131908754Y-113583087D01*
X132028963Y-113837420D01*
X132196481Y-114063414D01*
X132404869Y-114252385D01*
X132646119Y-114397070D01*
X132910960Y-114491909D01*
X133133000Y-114370624D01*
X133133000Y-113227000D01*
X133387000Y-113227000D01*
X133387000Y-114370624D01*
X133609040Y-114491909D01*
X133873881Y-114397070D01*
X134115131Y-114252385D01*
X134323519Y-114063414D01*
X134491037Y-113837420D01*
X134611246Y-113583087D01*
X134651904Y-113449039D01*
X134529915Y-113227000D01*
X133387000Y-113227000D01*
X133133000Y-113227000D01*
X131990085Y-113227000D01*
X131868096Y-113449039D01*
X130764141Y-113449039D01*
X130789237Y-113366310D01*
X130816944Y-113085001D01*
X130789237Y-112803692D01*
X130707183Y-112533193D01*
X130573933Y-112283900D01*
X130394609Y-112065393D01*
X130176102Y-111886069D01*
X130043143Y-111815001D01*
X130176102Y-111743933D01*
X130394609Y-111564609D01*
X130573933Y-111346102D01*
X130707183Y-111096809D01*
X130789237Y-110826310D01*
X130816944Y-110545001D01*
X130789237Y-110263692D01*
X130707183Y-109993193D01*
X130573933Y-109743900D01*
X130394609Y-109525393D01*
X130176102Y-109346069D01*
X130043143Y-109275001D01*
X130176102Y-109203933D01*
X130394609Y-109024609D01*
X130573933Y-108806102D01*
X130707183Y-108556809D01*
X130789237Y-108286310D01*
X130816944Y-108005001D01*
X130789237Y-107723692D01*
X130707183Y-107453193D01*
X130573933Y-107203900D01*
X130394609Y-106985393D01*
X130176102Y-106806069D01*
X130043143Y-106735001D01*
X130176102Y-106663933D01*
X130394609Y-106484609D01*
X130573933Y-106266102D01*
X130707183Y-106016809D01*
X130789237Y-105746310D01*
X130816944Y-105465001D01*
X130789237Y-105183692D01*
X130707183Y-104913193D01*
X130573933Y-104663900D01*
X130394609Y-104445393D01*
X130176102Y-104266069D01*
X130043143Y-104195001D01*
X130176102Y-104123933D01*
X130394609Y-103944609D01*
X130573933Y-103726102D01*
X130707183Y-103476809D01*
X130789237Y-103206310D01*
X130816944Y-102925001D01*
X130789237Y-102643692D01*
X130707183Y-102373193D01*
X130573933Y-102123900D01*
X130394609Y-101905393D01*
X130176102Y-101726069D01*
X130043143Y-101655001D01*
X130176102Y-101583933D01*
X130394609Y-101404609D01*
X130573933Y-101186102D01*
X130707183Y-100936809D01*
X130789237Y-100666310D01*
X130816944Y-100385001D01*
X130789237Y-100103692D01*
X130707183Y-99833193D01*
X130573933Y-99583900D01*
X130394609Y-99365393D01*
X130176102Y-99186069D01*
X130043143Y-99115001D01*
X130176102Y-99043933D01*
X130394609Y-98864609D01*
X130573933Y-98646102D01*
X130707183Y-98396809D01*
X130789237Y-98126310D01*
X130815466Y-97860000D01*
X131818057Y-97860000D01*
X131845764Y-98141309D01*
X131927818Y-98411808D01*
X132061068Y-98661101D01*
X132240392Y-98879608D01*
X132458899Y-99058932D01*
X132591858Y-99130000D01*
X132458899Y-99201068D01*
X132240392Y-99380392D01*
X132061068Y-99598899D01*
X131927818Y-99848192D01*
X131845764Y-100118691D01*
X131818057Y-100400000D01*
X131845764Y-100681309D01*
X131927818Y-100951808D01*
X132061068Y-101201101D01*
X132240392Y-101419608D01*
X132458899Y-101598932D01*
X132591858Y-101670000D01*
X132458899Y-101741068D01*
X132240392Y-101920392D01*
X132061068Y-102138899D01*
X131927818Y-102388192D01*
X131845764Y-102658691D01*
X131818057Y-102940000D01*
X131845764Y-103221309D01*
X131927818Y-103491808D01*
X132061068Y-103741101D01*
X132240392Y-103959608D01*
X132458899Y-104138932D01*
X132591858Y-104210000D01*
X132458899Y-104281068D01*
X132240392Y-104460392D01*
X132061068Y-104678899D01*
X131927818Y-104928192D01*
X131845764Y-105198691D01*
X131818057Y-105480000D01*
X131845764Y-105761309D01*
X131927818Y-106031808D01*
X132061068Y-106281101D01*
X132240392Y-106499608D01*
X132458899Y-106678932D01*
X132591858Y-106750000D01*
X132458899Y-106821068D01*
X132240392Y-107000392D01*
X132061068Y-107218899D01*
X131927818Y-107468192D01*
X131845764Y-107738691D01*
X131818057Y-108020000D01*
X131845764Y-108301309D01*
X131927818Y-108571808D01*
X132061068Y-108821101D01*
X132240392Y-109039608D01*
X132458899Y-109218932D01*
X132591858Y-109290000D01*
X132458899Y-109361068D01*
X132240392Y-109540392D01*
X132061068Y-109758899D01*
X131927818Y-110008192D01*
X131845764Y-110278691D01*
X131818057Y-110560000D01*
X131845764Y-110841309D01*
X131927818Y-111111808D01*
X132061068Y-111361101D01*
X132240392Y-111579608D01*
X132458899Y-111758932D01*
X132596682Y-111832579D01*
X132404869Y-111947615D01*
X132196481Y-112136586D01*
X132028963Y-112362580D01*
X131908754Y-112616913D01*
X131868096Y-112750961D01*
X131990085Y-112973000D01*
X133133000Y-112973000D01*
X133133000Y-112953000D01*
X133387000Y-112953000D01*
X133387000Y-112973000D01*
X134529915Y-112973000D01*
X134651904Y-112750961D01*
X134611246Y-112616913D01*
X134491037Y-112362580D01*
X134323519Y-112136586D01*
X134115131Y-111947615D01*
X133923318Y-111832579D01*
X134061101Y-111758932D01*
X134279608Y-111579608D01*
X134458932Y-111361101D01*
X134592182Y-111111808D01*
X134674236Y-110841309D01*
X134701943Y-110560000D01*
X134674236Y-110278691D01*
X134592182Y-110008192D01*
X134458932Y-109758899D01*
X134279608Y-109540392D01*
X134061101Y-109361068D01*
X133928142Y-109290000D01*
X134061101Y-109218932D01*
X134279608Y-109039608D01*
X134458932Y-108821101D01*
X134592182Y-108571808D01*
X134674236Y-108301309D01*
X134701943Y-108020000D01*
X134674236Y-107738691D01*
X134592182Y-107468192D01*
X134458932Y-107218899D01*
X134279608Y-107000392D01*
X134061101Y-106821068D01*
X133928142Y-106750000D01*
X134061101Y-106678932D01*
X134279608Y-106499608D01*
X134458932Y-106281101D01*
X134592182Y-106031808D01*
X134674236Y-105761309D01*
X134701943Y-105480000D01*
X134674236Y-105198691D01*
X134592182Y-104928192D01*
X134458932Y-104678899D01*
X134279608Y-104460392D01*
X134061101Y-104281068D01*
X133928142Y-104210000D01*
X134061101Y-104138932D01*
X134279608Y-103959608D01*
X134458932Y-103741101D01*
X134592182Y-103491808D01*
X134674236Y-103221309D01*
X134701943Y-102940000D01*
X134674236Y-102658691D01*
X134592182Y-102388192D01*
X134458932Y-102138899D01*
X134279608Y-101920392D01*
X134061101Y-101741068D01*
X133928142Y-101670000D01*
X134061101Y-101598932D01*
X134279608Y-101419608D01*
X134458932Y-101201101D01*
X134592182Y-100951808D01*
X134674236Y-100681309D01*
X134701943Y-100400000D01*
X134674236Y-100118691D01*
X134592182Y-99848192D01*
X134458932Y-99598899D01*
X134279608Y-99380392D01*
X134061101Y-99201068D01*
X133928142Y-99130000D01*
X134061101Y-99058932D01*
X134279608Y-98879608D01*
X134458932Y-98661101D01*
X134592182Y-98411808D01*
X134674236Y-98141309D01*
X134701943Y-97860000D01*
X134674236Y-97578691D01*
X134592182Y-97308192D01*
X134458932Y-97058899D01*
X134279608Y-96840392D01*
X134166518Y-96747581D01*
X134184482Y-96745812D01*
X134304180Y-96709502D01*
X134414494Y-96650537D01*
X134511185Y-96571185D01*
X134590537Y-96474494D01*
X134649502Y-96364180D01*
X134685812Y-96244482D01*
X134698072Y-96120000D01*
X134698072Y-95320000D01*
X139438057Y-95320000D01*
X139465764Y-95601309D01*
X139547818Y-95871808D01*
X139681068Y-96121101D01*
X139860392Y-96339608D01*
X140078899Y-96518932D01*
X140211858Y-96590000D01*
X140078899Y-96661068D01*
X139860392Y-96840392D01*
X139681068Y-97058899D01*
X139547818Y-97308192D01*
X139465764Y-97578691D01*
X139438057Y-97860000D01*
X139465764Y-98141309D01*
X139547818Y-98411808D01*
X139681068Y-98661101D01*
X139860392Y-98879608D01*
X140078899Y-99058932D01*
X140211858Y-99130000D01*
X140078899Y-99201068D01*
X139860392Y-99380392D01*
X139681068Y-99598899D01*
X139547818Y-99848192D01*
X139465764Y-100118691D01*
X139438057Y-100400000D01*
X139465764Y-100681309D01*
X139547818Y-100951808D01*
X139681068Y-101201101D01*
X139860392Y-101419608D01*
X140078899Y-101598932D01*
X140211858Y-101670000D01*
X140078899Y-101741068D01*
X139860392Y-101920392D01*
X139681068Y-102138899D01*
X139547818Y-102388192D01*
X139465764Y-102658691D01*
X139438057Y-102940000D01*
X139465764Y-103221309D01*
X139547818Y-103491808D01*
X139681068Y-103741101D01*
X139860392Y-103959608D01*
X140078899Y-104138932D01*
X140211858Y-104210000D01*
X140078899Y-104281068D01*
X139860392Y-104460392D01*
X139681068Y-104678899D01*
X139547818Y-104928192D01*
X139465764Y-105198691D01*
X139438057Y-105480000D01*
X139465764Y-105761309D01*
X139547818Y-106031808D01*
X139681068Y-106281101D01*
X139860392Y-106499608D01*
X140078899Y-106678932D01*
X140211858Y-106750000D01*
X140078899Y-106821068D01*
X139860392Y-107000392D01*
X139681068Y-107218899D01*
X139547818Y-107468192D01*
X139465764Y-107738691D01*
X139438057Y-108020000D01*
X139465764Y-108301309D01*
X139547818Y-108571808D01*
X139681068Y-108821101D01*
X139860392Y-109039608D01*
X140078899Y-109218932D01*
X140211858Y-109290000D01*
X140078899Y-109361068D01*
X139860392Y-109540392D01*
X139681068Y-109758899D01*
X139547818Y-110008192D01*
X139465764Y-110278691D01*
X139438057Y-110560000D01*
X139465764Y-110841309D01*
X139547818Y-111111808D01*
X139681068Y-111361101D01*
X139860392Y-111579608D01*
X140078899Y-111758932D01*
X140211858Y-111830000D01*
X140078899Y-111901068D01*
X139860392Y-112080392D01*
X139681068Y-112298899D01*
X139547818Y-112548192D01*
X139465764Y-112818691D01*
X139438057Y-113100000D01*
X139465764Y-113381309D01*
X139547818Y-113651808D01*
X139681068Y-113901101D01*
X139860392Y-114119608D01*
X140078899Y-114298932D01*
X140328192Y-114432182D01*
X140598691Y-114514236D01*
X140809508Y-114535000D01*
X140950492Y-114535000D01*
X141161309Y-114514236D01*
X141431808Y-114432182D01*
X141681101Y-114298932D01*
X141899608Y-114119608D01*
X142078932Y-113901101D01*
X142212182Y-113651808D01*
X142294236Y-113381309D01*
X142321943Y-113100000D01*
X142294236Y-112818691D01*
X142212182Y-112548192D01*
X142078932Y-112298899D01*
X141899608Y-112080392D01*
X141681101Y-111901068D01*
X141548142Y-111830000D01*
X141681101Y-111758932D01*
X141899608Y-111579608D01*
X142078932Y-111361101D01*
X142212182Y-111111808D01*
X142294236Y-110841309D01*
X142321943Y-110560000D01*
X142294236Y-110278691D01*
X142212182Y-110008192D01*
X142078932Y-109758899D01*
X141899608Y-109540392D01*
X141681101Y-109361068D01*
X141548142Y-109290000D01*
X141681101Y-109218932D01*
X141899608Y-109039608D01*
X142078932Y-108821101D01*
X142212182Y-108571808D01*
X142294236Y-108301309D01*
X142321943Y-108020000D01*
X142294236Y-107738691D01*
X142212182Y-107468192D01*
X142078932Y-107218899D01*
X141899608Y-107000392D01*
X141681101Y-106821068D01*
X141548142Y-106750000D01*
X141681101Y-106678932D01*
X141899608Y-106499608D01*
X142078932Y-106281101D01*
X142212182Y-106031808D01*
X142294236Y-105761309D01*
X142321943Y-105480000D01*
X142294236Y-105198691D01*
X142212182Y-104928192D01*
X142078932Y-104678899D01*
X141899608Y-104460392D01*
X141681101Y-104281068D01*
X141548142Y-104210000D01*
X141681101Y-104138932D01*
X141899608Y-103959608D01*
X142078932Y-103741101D01*
X142212182Y-103491808D01*
X142294236Y-103221309D01*
X142321943Y-102940000D01*
X142294236Y-102658691D01*
X142212182Y-102388192D01*
X142078932Y-102138899D01*
X141899608Y-101920392D01*
X141681101Y-101741068D01*
X141548142Y-101670000D01*
X141681101Y-101598932D01*
X141899608Y-101419608D01*
X142078932Y-101201101D01*
X142212182Y-100951808D01*
X142294236Y-100681309D01*
X142321943Y-100400000D01*
X142294236Y-100118691D01*
X142212182Y-99848192D01*
X142078932Y-99598899D01*
X141899608Y-99380392D01*
X141681101Y-99201068D01*
X141548142Y-99130000D01*
X141681101Y-99058932D01*
X141899608Y-98879608D01*
X142078932Y-98661101D01*
X142212182Y-98411808D01*
X142278240Y-98194040D01*
X143223097Y-98194040D01*
X143263755Y-98328088D01*
X143383964Y-98582421D01*
X143551482Y-98808415D01*
X143759870Y-98997386D01*
X143955983Y-99115001D01*
X143759870Y-99232616D01*
X143551482Y-99421587D01*
X143383964Y-99647581D01*
X143263755Y-99901914D01*
X143223097Y-100035962D01*
X143345086Y-100258001D01*
X144488001Y-100258001D01*
X144488001Y-97972001D01*
X143345086Y-97972001D01*
X143223097Y-98194040D01*
X142278240Y-98194040D01*
X142294236Y-98141309D01*
X142321943Y-97860000D01*
X142294236Y-97578691D01*
X142212182Y-97308192D01*
X142078932Y-97058899D01*
X141899608Y-96840392D01*
X141681101Y-96661068D01*
X141548142Y-96590000D01*
X141681101Y-96518932D01*
X141899608Y-96339608D01*
X142078932Y-96121101D01*
X142212182Y-95871808D01*
X142294236Y-95601309D01*
X142321943Y-95320000D01*
X142294236Y-95038691D01*
X142212182Y-94768192D01*
X142078932Y-94518899D01*
X141899608Y-94300392D01*
X141681101Y-94121068D01*
X141431808Y-93987818D01*
X141161309Y-93905764D01*
X140950492Y-93885000D01*
X140809508Y-93885000D01*
X140598691Y-93905764D01*
X140328192Y-93987818D01*
X140078899Y-94121068D01*
X139860392Y-94300392D01*
X139681068Y-94518899D01*
X139547818Y-94768192D01*
X139465764Y-95038691D01*
X139438057Y-95320000D01*
X134698072Y-95320000D01*
X134698072Y-94520000D01*
X134685812Y-94395518D01*
X134649502Y-94275820D01*
X134590537Y-94165506D01*
X134511185Y-94068815D01*
X134414494Y-93989463D01*
X134304180Y-93930498D01*
X134184482Y-93894188D01*
X134060000Y-93881928D01*
X132460000Y-93881928D01*
X132335518Y-93894188D01*
X132215820Y-93930498D01*
X132105506Y-93989463D01*
X132008815Y-94068815D01*
X131929463Y-94165506D01*
X131870498Y-94275820D01*
X131834188Y-94395518D01*
X131821928Y-94520000D01*
X131821928Y-96120000D01*
X131834188Y-96244482D01*
X131870498Y-96364180D01*
X131929463Y-96474494D01*
X132008815Y-96571185D01*
X132105506Y-96650537D01*
X132215820Y-96709502D01*
X132335518Y-96745812D01*
X132353482Y-96747581D01*
X132240392Y-96840392D01*
X132061068Y-97058899D01*
X131927818Y-97308192D01*
X131845764Y-97578691D01*
X131818057Y-97860000D01*
X130815466Y-97860000D01*
X130816944Y-97845001D01*
X130789237Y-97563692D01*
X130707183Y-97293193D01*
X130573933Y-97043900D01*
X130394609Y-96825393D01*
X130176102Y-96646069D01*
X130043143Y-96575001D01*
X130176102Y-96503933D01*
X130394609Y-96324609D01*
X130573933Y-96106102D01*
X130707183Y-95856809D01*
X130789237Y-95586310D01*
X130816944Y-95305001D01*
X130789237Y-95023692D01*
X130707183Y-94753193D01*
X130573933Y-94503900D01*
X130394609Y-94285393D01*
X130176102Y-94106069D01*
X130043143Y-94035001D01*
X130176102Y-93963933D01*
X130394609Y-93784609D01*
X130573933Y-93566102D01*
X130707183Y-93316809D01*
X130789237Y-93046310D01*
X130816944Y-92765001D01*
X130789237Y-92483692D01*
X130707183Y-92213193D01*
X130573933Y-91963900D01*
X130394609Y-91745393D01*
X130176102Y-91566069D01*
X130038319Y-91492422D01*
X130230132Y-91377386D01*
X130438520Y-91188415D01*
X130606038Y-90962421D01*
X130726247Y-90708088D01*
X130766905Y-90574040D01*
X143223097Y-90574040D01*
X143263755Y-90708088D01*
X143383964Y-90962421D01*
X143551482Y-91188415D01*
X143759870Y-91377386D01*
X143955983Y-91495001D01*
X143759870Y-91612616D01*
X143551482Y-91801587D01*
X143383964Y-92027581D01*
X143263755Y-92281914D01*
X143223097Y-92415962D01*
X143345086Y-92638001D01*
X144488001Y-92638001D01*
X144488001Y-90352001D01*
X143345086Y-90352001D01*
X143223097Y-90574040D01*
X130766905Y-90574040D01*
X130644916Y-90352001D01*
X129502001Y-90352001D01*
X129502001Y-90372001D01*
X129248001Y-90372001D01*
X129248001Y-90352001D01*
X129228001Y-90352001D01*
X129228001Y-90098001D01*
X129248001Y-90098001D01*
X129248001Y-90078001D01*
X129502001Y-90078001D01*
X129502001Y-90098001D01*
X130644916Y-90098001D01*
X130766905Y-89875962D01*
X130726247Y-89741914D01*
X130606038Y-89487581D01*
X130438520Y-89261587D01*
X130274921Y-89113232D01*
X130299483Y-89110813D01*
X130419181Y-89074503D01*
X130529495Y-89015538D01*
X130626186Y-88936186D01*
X130705538Y-88839495D01*
X130764503Y-88729181D01*
X130800813Y-88609483D01*
X130813073Y-88485001D01*
X130813073Y-86885001D01*
X130800813Y-86760519D01*
X130770321Y-86660000D01*
X136049422Y-86660000D01*
X136071119Y-86693156D01*
M02*
