G04 #@! TF.GenerationSoftware,KiCad,Pcbnew,(5.1.4)-1*
G04 #@! TF.CreationDate,2021-03-08T19:32:54-05:00*
G04 #@! TF.ProjectId,27c256_to_82s129,32376332-3536-45f7-946f-5f3832733132,rev?*
G04 #@! TF.SameCoordinates,Original*
G04 #@! TF.FileFunction,Copper,L1,Top*
G04 #@! TF.FilePolarity,Positive*
%FSLAX46Y46*%
G04 Gerber Fmt 4.6, Leading zero omitted, Abs format (unit mm)*
G04 Created by KiCad (PCBNEW (5.1.4)-1) date 2021-03-08 19:32:54*
%MOMM*%
%LPD*%
G04 APERTURE LIST*
%ADD10O,1.600000X1.600000*%
%ADD11R,1.600000X1.600000*%
%ADD12R,1.270000X0.970000*%
%ADD13C,0.800000*%
%ADD14C,0.500000*%
%ADD15C,0.250000*%
G04 APERTURE END LIST*
D10*
X140880000Y-95320000D03*
X133260000Y-113100000D03*
X140880000Y-97860000D03*
X133260000Y-110560000D03*
X140880000Y-100400000D03*
X133260000Y-108020000D03*
X140880000Y-102940000D03*
X133260000Y-105480000D03*
X140880000Y-105480000D03*
X133260000Y-102940000D03*
X140880000Y-108020000D03*
X133260000Y-100400000D03*
X140880000Y-110560000D03*
X133260000Y-97860000D03*
X140880000Y-113100000D03*
D11*
X133260000Y-95320000D03*
D12*
X137050000Y-97120000D03*
X137050000Y-98390000D03*
X137050000Y-99660000D03*
X137050000Y-104530000D03*
X137050000Y-103260000D03*
X137050000Y-101990000D03*
D10*
X144615001Y-87685001D03*
X129375001Y-120705001D03*
X144615001Y-90225001D03*
X129375001Y-118165001D03*
X144615001Y-92765001D03*
X129375001Y-115625001D03*
X144615001Y-95305001D03*
X129375001Y-113085001D03*
X144615001Y-97845001D03*
X129375001Y-110545001D03*
X144615001Y-100385001D03*
X129375001Y-108005001D03*
X144615001Y-102925001D03*
X129375001Y-105465001D03*
X144615001Y-105465001D03*
X129375001Y-102925001D03*
X144615001Y-108005001D03*
X129375001Y-100385001D03*
X144615001Y-110545001D03*
X129375001Y-97845001D03*
X144615001Y-113085001D03*
X129375001Y-95305001D03*
X144615001Y-115625001D03*
X129375001Y-92765001D03*
X144615001Y-118165001D03*
X129375001Y-90225001D03*
X144615001Y-120705001D03*
D11*
X129375001Y-87685001D03*
D13*
X137070000Y-97090000D03*
D14*
X144615001Y-87685001D02*
X143274999Y-87685001D01*
X143274999Y-87685001D02*
X129375001Y-87685001D01*
D15*
X144615001Y-87685001D02*
X142824999Y-87685001D01*
D14*
X140880000Y-89630000D02*
X140880000Y-95320000D01*
X142824999Y-87685001D02*
X140880000Y-89630000D01*
D15*
X140080001Y-97060001D02*
X139540001Y-97060001D01*
X140880000Y-97860000D02*
X140080001Y-97060001D01*
X135245001Y-92765001D02*
X129375001Y-92765001D01*
X139540001Y-97060001D02*
X135245001Y-92765001D01*
X133260000Y-110560000D02*
X134560000Y-109260000D01*
X134560000Y-109260000D02*
X134560000Y-107080000D01*
X134560000Y-107080000D02*
X134230000Y-106750000D01*
X130660000Y-106750000D02*
X129375001Y-105465001D01*
X134230000Y-106750000D02*
X130660000Y-106750000D01*
X137050000Y-101990000D02*
X137050000Y-99660000D01*
X140140000Y-99660000D02*
X140880000Y-100400000D01*
X137050000Y-99660000D02*
X140140000Y-99660000D01*
X129390000Y-108020000D02*
X129375001Y-108005001D01*
X133260000Y-108020000D02*
X129390000Y-108020000D01*
X143483631Y-108005001D02*
X142700000Y-107221370D01*
X144615001Y-108005001D02*
X143483631Y-108005001D01*
X142700000Y-104760000D02*
X140880000Y-102940000D01*
X142700000Y-107221370D02*
X142700000Y-104760000D01*
X139290000Y-104530000D02*
X137050000Y-104530000D01*
X140880000Y-102940000D02*
X139290000Y-104530000D01*
X130690000Y-111860000D02*
X129375001Y-110545001D01*
X134760000Y-111860000D02*
X130690000Y-111860000D01*
X135050000Y-111570000D02*
X134760000Y-111860000D01*
X135050000Y-106138630D02*
X135050000Y-111570000D01*
X133260000Y-105480000D02*
X134391370Y-105480000D01*
X134391370Y-105480000D02*
X135050000Y-106138630D01*
X139080000Y-105480000D02*
X140880000Y-105480000D01*
X137880000Y-106680000D02*
X139080000Y-105480000D01*
X137880000Y-113010000D02*
X137880000Y-106680000D01*
X136320000Y-114570000D02*
X137880000Y-113010000D01*
X129375001Y-113085001D02*
X130860000Y-114570000D01*
X130860000Y-114570000D02*
X136320000Y-114570000D01*
X129390000Y-102940000D02*
X129375001Y-102925001D01*
X133260000Y-102940000D02*
X129390000Y-102940000D01*
X135901409Y-115625001D02*
X138360000Y-113166410D01*
X129375001Y-115625001D02*
X135901409Y-115625001D01*
X138360000Y-113166410D02*
X138360000Y-109180000D01*
X139520000Y-108020000D02*
X140880000Y-108020000D01*
X138360000Y-109180000D02*
X139520000Y-108020000D01*
X129390000Y-100400000D02*
X129375001Y-100385001D01*
X133260000Y-100400000D02*
X129390000Y-100400000D01*
X133997819Y-118165001D02*
X138870000Y-113292820D01*
X129375001Y-118165001D02*
X133997819Y-118165001D01*
X138870000Y-113292820D02*
X138870000Y-111110000D01*
X139420000Y-110560000D02*
X140880000Y-110560000D01*
X138870000Y-111110000D02*
X139420000Y-110560000D01*
X129390000Y-97860000D02*
X129375001Y-97845001D01*
X133260000Y-97860000D02*
X129390000Y-97860000D01*
X140880000Y-116970000D02*
X140880000Y-113100000D01*
X144615001Y-120705001D02*
X140880000Y-116970000D01*
X133245001Y-95305001D02*
X133260000Y-95320000D01*
X129375001Y-95305001D02*
X133245001Y-95305001D01*
X137050000Y-98390000D02*
X138880000Y-98390000D01*
X138880000Y-98390000D02*
X139620000Y-99130000D01*
X139620000Y-99130000D02*
X142010000Y-99130000D01*
X142010000Y-99130000D02*
X142750000Y-98390000D01*
X142750000Y-98390000D02*
X142750000Y-95680000D01*
X143124999Y-95305001D02*
X144615001Y-95305001D01*
X142750000Y-95680000D02*
X143124999Y-95305001D01*
X137935000Y-103260000D02*
X139525000Y-101670000D01*
X137050000Y-103260000D02*
X137935000Y-103260000D01*
X143360000Y-101670000D02*
X144615001Y-102925001D01*
X139525000Y-101670000D02*
X143360000Y-101670000D01*
M02*
